<svg xmlns="http://www.w3.org/2000/svg" viewBox="0 0 500 500"><g id="freepik--background-complete--inject-202"><rect y="382.4" width="500" height="0.25" style="fill:#ebebeb"></rect><rect x="416.78" y="398.49" width="33.12" height="0.25" style="fill:#ebebeb"></rect><rect x="322.53" y="401.21" width="8.69" height="0.25" style="fill:#ebebeb"></rect><rect x="396.59" y="389.21" width="19.19" height="0.25" style="fill:#ebebeb"></rect><rect x="52.46" y="390.89" width="43.19" height="0.25" style="fill:#ebebeb"></rect><rect x="104.56" y="390.89" width="6.33" height="0.25" style="fill:#ebebeb"></rect><rect x="131.47" y="395.11" width="93.68" height="0.25" style="fill:#ebebeb"></rect><path d="M237,337.8H43.91a5.71,5.71,0,0,1-5.7-5.71V60.66A5.71,5.71,0,0,1,43.91,55H237a5.71,5.71,0,0,1,5.71,5.71V332.09A5.71,5.71,0,0,1,237,337.8ZM43.91,55.2a5.46,5.46,0,0,0-5.45,5.46V332.09a5.46,5.46,0,0,0,5.45,5.46H237a5.47,5.47,0,0,0,5.46-5.46V60.66A5.47,5.47,0,0,0,237,55.2Z" style="fill:#ebebeb"></path><path d="M453.31,337.8H260.21a5.72,5.72,0,0,1-5.71-5.71V60.66A5.72,5.72,0,0,1,260.21,55h193.1A5.71,5.71,0,0,1,459,60.66V332.09A5.71,5.71,0,0,1,453.31,337.8ZM260.21,55.2a5.47,5.47,0,0,0-5.46,5.46V332.09a5.47,5.47,0,0,0,5.46,5.46h193.1a5.47,5.47,0,0,0,5.46-5.46V60.66a5.47,5.47,0,0,0-5.46-5.46Z" style="fill:#ebebeb"></path><polygon points="280.82 176.21 276.69 181.58 284.96 185.3 280.82 176.21" style="fill:#f5f5f5"></polygon><polygon points="307.61 288.29 312.94 284.09 305.83 278.46 307.61 288.29" style="fill:#f5f5f5"></polygon><polygon points="240.82 169.72 240.42 162.95 231.74 165.56 240.82 169.72" style="fill:#f5f5f5"></polygon><polygon points="265.94 280.78 261.81 286.15 270.08 289.88 265.94 280.78" style="fill:#f5f5f5"></polygon><polygon points="260.16 208.45 266.77 208.86 265.94 216.3 258.09 214.23 260.16 208.45" style="fill:#f5f5f5"></polygon><polygon points="281.83 252.87 278.69 258.7 272.28 254.85 277.43 248.57 281.83 252.87" style="fill:#f5f5f5"></polygon><polygon points="240.75 297.13 247.36 297.55 246.53 304.99 238.68 302.92 240.75 297.13" style="fill:#f5f5f5"></polygon><path d="M296.12,219.19l4.13.83s-6.2,4.13-3.3,7.44-2.07,6.2-2.07,6.2l-3.72-2.48s3.31-2.48,1.65-5.79S296.12,219.19,296.12,219.19Z" style="fill:#f5f5f5"></path><polygon points="304.57 165.27 300.77 170.88 309.25 174.09 304.57 165.27" style="fill:#f5f5f5"></polygon><polygon points="335.01 150.43 337.31 144.05 328.31 143.02 335.01 150.43" style="fill:#f5f5f5"></polygon><polygon points="333.3 175.8 334.51 169.29 341.79 171.01 338.79 178.55 333.3 175.8" style="fill:#f5f5f5"></polygon><path d="M340.35,211.12l-4.19.47s4.65-5.82.89-8.09.09-6.54.09-6.54l4.3,1.24s-2.4,3.36.18,6S340.35,211.12,340.35,211.12Z" style="fill:#f5f5f5"></path><path d="M271.25,316.35l4.13.82s-6.2,4.14-3.31,7.44-2.06,6.2-2.06,6.2l-3.72-2.48s3.3-2.48,1.65-5.78S271.25,316.35,271.25,316.35Z" style="fill:#f5f5f5"></path><polygon points="330.8 302.22 326.67 307.59 334.93 311.31 330.8 302.22" style="fill:#f5f5f5"></polygon><polygon points="345.43 255.59 352.04 256.01 351.21 263.45 343.36 261.38 345.43 255.59" style="fill:#f5f5f5"></polygon><path d="M302.31,314l4.14.82s-6.2,4.14-3.31,7.44-2.07,6.2-2.07,6.2L297.35,326s3.31-2.48,1.66-5.78S302.31,314,302.31,314Z" style="fill:#f5f5f5"></path><path d="M271.76,157.55l-2.59.61s1.11-5.51-2.13-7.41-2.13-6-2.13-6l3.24.93a6.59,6.59,0,0,0,2.14,5.48C272.87,153.5,271.76,157.55,271.76,157.55Z" style="fill:#f5f5f5"></path><path d="M243.59,257.9l-3.9,1.58s2.9-6.86-1.33-8-1.69-6.31-1.69-6.31l4.47,0s-1.39,3.89,1.8,5.74S243.59,257.9,243.59,257.9Z" style="fill:#f5f5f5"></path><path d="M226.68,217.75a3.1,3.1,0,1,1-3.1-3.1A3.1,3.1,0,0,1,226.68,217.75Z" style="fill:#f5f5f5"></path><path d="M306,141.94a3.1,3.1,0,1,1-3.1-3.1A3.1,3.1,0,0,1,306,141.94Z" style="fill:#f5f5f5"></path><polygon points="207.98 167.79 203.05 172.44 210.62 177.43 207.98 167.79" style="fill:#f5f5f5"></polygon><polygon points="192.95 281.59 196.24 275.66 187.51 273.21 192.95 281.59" style="fill:#f5f5f5"></polygon><polygon points="151.62 290.76 149.88 297.31 158.94 297.55 151.62 290.76" style="fill:#f5f5f5"></polygon><polygon points="155.48 258.88 154.85 265.47 147.44 264.4 149.77 256.62 155.48 258.88" style="fill:#f5f5f5"></polygon><path d="M186.43,224l4.14-.84s-4.13,6.21-.18,8.14.49,6.52.49,6.52l-4.39-.85s2.09-3.57-.71-6S186.43,224,186.43,224Z" style="fill:#f5f5f5"></path><polygon points="153.56 219.86 157.2 214.14 148.64 211.16 153.56 219.86" style="fill:#f5f5f5"></polygon><polygon points="177.65 195.02 171.02 195.19 171.19 187.71 179.2 189.08 177.65 195.02" style="fill:#f5f5f5"></polygon><path d="M171.55,151.28l-4.19-.46s5.81-4.67,2.64-7.7,1.51-6.36,1.51-6.36l3.93,2.14s-3.08,2.76-1.14,5.91S171.55,151.28,171.55,151.28Z" style="fill:#f5f5f5"></path><path d="M206.16,305.37a3.1,3.1,0,1,1,3.36,2.82A3.1,3.1,0,0,1,206.16,305.37Z" style="fill:#f5f5f5"></path><polygon points="202.68 100.25 212.14 108.09 215.34 96.42 202.68 100.25" style="fill:#ebebeb"></polygon><polygon points="219.56 95.22 229.57 101.84 230.55 90.9 219.56 95.22" style="fill:#ebebeb"></polygon><polygon points="126.56 106.46 133.7 121.71 142.01 106.67 126.56 106.46" style="fill:#ebebeb"></polygon><polygon points="143.17 106.75 154.6 119.41 161.23 105.72 143.17 106.75" style="fill:#ebebeb"></polygon><polygon points="163.75 105.65 174.22 116.12 178.49 103.87 163.75 105.65" style="fill:#ebebeb"></polygon><polygon points="182.83 103.57 195.77 113.52 199.11 101.15 182.83 103.57" style="fill:#ebebeb"></polygon><path d="M180.06,104.47c-39.25,4.74-78.82,1.89-79.46,1.84l.13-1.73c1,.08,104.39,7.51,142-21.87l1.06,1.36C229.09,95.55,204.63,101.5,180.06,104.47Z" style="fill:#e0e0e0"></path><polygon points="300.21 100.25 290.75 108.09 287.55 96.42 300.21 100.25" style="fill:#ebebeb"></polygon><polygon points="283.33 95.22 273.32 101.84 272.34 90.9 283.33 95.22" style="fill:#ebebeb"></polygon><polygon points="376.33 106.46 369.19 121.71 360.88 106.67 376.33 106.46" style="fill:#ebebeb"></polygon><polygon points="359.72 106.75 348.3 119.41 341.66 105.72 359.72 106.75" style="fill:#ebebeb"></polygon><polygon points="339.14 105.65 328.67 116.12 324.4 103.87 339.14 105.65" style="fill:#ebebeb"></polygon><polygon points="320.06 103.57 307.12 113.52 303.78 101.15 320.06 103.57" style="fill:#ebebeb"></polygon><path d="M322.83,104.47c39.25,4.74,78.82,1.89,79.46,1.84l-.13-1.73c-1,.08-104.39,7.51-142-21.87l-1.06,1.36C273.81,95.55,298.26,101.5,322.83,104.47Z" style="fill:#e0e0e0"></path><path d="M106.61,173.23c-3.14,0-6.5-.88-8.74-4-2.34-3.25-2.24-6.33-1.21-8.54a11,11,0,0,1-1.72-1.7,6.88,6.88,0,0,1-1.23-7.17,8.21,8.21,0,0,1,.84-1.54c-3.56-2.67-5.09-6.47-4.13-10.55a8.21,8.21,0,0,1,1.38-3.09c-3.42-7.12.3-19.49.46-20l1.66.51c0,.12-3.5,11.64-.8,18.24a6.31,6.31,0,0,1,4.95-.87c3,.58,6.42,3,6.09,5.14-.16,1.1-1.24,2.31-5.45,1.86a8.25,8.25,0,0,1-5.92-3.21,7.17,7.17,0,0,0-.68,1.86c-1,4.38,1.41,7.23,3.59,8.83a7.34,7.34,0,0,1,4-2,5.22,5.22,0,0,1,5,2.28c1.17,1.62.69,2.62.3,3.08-1.37,1.59-5.27.86-8.23-.65-.29-.14-.57-.3-.83-.45a6.21,6.21,0,0,0-.68,1.24,5.2,5.2,0,0,0,1,5.42,10.18,10.18,0,0,0,1.3,1.32l.19-.23a5.5,5.5,0,0,1,6.71-1.53,2.58,2.58,0,0,1,1.64,2.53,3.17,3.17,0,0,1-2.49,2.42,7.5,7.5,0,0,1-5.52-.74c-.71,1.71-.66,4,1.17,6.55,4.33,6,14.62,1.81,14.73,1.76l.66,1.6A23.23,23.23,0,0,1,106.61,173.23Zm-7.58-13a5.6,5.6,0,0,0,4.1.56c.79-.24,1.24-.66,1.27-.95s-.27-.55-.76-.83a3.75,3.75,0,0,0-4.57,1.17ZM97.21,150l.4.22c3,1.54,5.7,1.56,6.13,1.06.05-.06,0-.37-.38-.94a3.52,3.52,0,0,0-3.42-1.57A5.5,5.5,0,0,0,97.21,150Zm-3.28-13a6.46,6.46,0,0,0,5,2.86c2.82.31,3.53-.24,3.55-.39.1-.64-1.85-2.63-4.7-3.18A4.65,4.65,0,0,0,93.93,136.93Z" style="fill:#e0e0e0"></path><path d="M79.8,175.06c-4.54-1.46-6.68-6.57-6.75-10.7a11.22,11.22,0,0,1,.52-3.68,9.68,9.68,0,0,1-1.54-8,11.05,11.05,0,0,1,1.45-3.57,14.31,14.31,0,0,1,.12-7.62,9.86,9.86,0,0,1,1.66-3.36c-.13-7.08,9.25-15.56,9.71-16l1.16,1.29c-.1.09-8,7.22-9,13.21a4.68,4.68,0,0,1,6.49,3.66,3.94,3.94,0,0,1-2.33,4.11c-1,.33-2.84.42-4.88-2.64a6.37,6.37,0,0,1-.61-1.15,8.65,8.65,0,0,0-.5,1.35,13.11,13.11,0,0,0-.38,5.52,4.45,4.45,0,0,1,2.62-1.13,3.81,3.81,0,0,1,3.82,2.2,3.69,3.69,0,0,1-.54,4c-1,1-2.52,1.19-4.25.49a4.68,4.68,0,0,1-2.18-1.94,9.2,9.2,0,0,0-.63,1.92,8.27,8.27,0,0,0,.68,5.78,5.71,5.71,0,0,1,2.85-2.35c1.93-.7,3.64-.27,4.59,1.12a4,4,0,0,1-.28,4.72c-.58.66-2.29,2-5.55.31a8.37,8.37,0,0,1-1-.62,10.43,10.43,0,0,0-.22,2.28c.06,3.53,1.83,7.88,5.56,9.09ZM75.59,160.3a6.08,6.08,0,0,0,1.22.83c1.56.81,2.79.84,3.47.08a2.24,2.24,0,0,0,.13-2.6c-.49-.72-1.4-.88-2.56-.46A4.07,4.07,0,0,0,75.59,160.3Zm-.18-10.83a3.5,3.5,0,0,0,1.79,2c1,.43,1.88.4,2.34-.08a1.94,1.94,0,0,0,.21-2.09,2.06,2.06,0,0,0-2.15-1.18A3.17,3.17,0,0,0,75.41,149.47ZM77,138.81a5.1,5.1,0,0,0,.78,2.05c1,1.5,2.08,2.24,2.87,2a2.33,2.33,0,0,0,1.17-2.35,2.61,2.61,0,0,0-2.41-2.4A2.7,2.7,0,0,0,77,138.81Z" style="fill:#e0e0e0"></path><path d="M119.44,122.44c-16.24,17.53-40-12.17-29.57-26.08S135.91,104.65,119.44,122.44Z" style="fill:#e0e0e0"></path><path d="M87.75,135C64,132.13,74.23,95.51,91.59,95.79S111.81,138,87.75,135Z" style="fill:#ebebeb"></path><path d="M269.88,100.13c-10.18,11-25-7.63-18.53-16.35S280.21,89,269.88,100.13Z" style="fill:#e0e0e0"></path><path d="M234.35,100.13c10.18,11,25-7.63,18.53-16.35S224,89,234.35,100.13Z" style="fill:#e0e0e0"></path><path d="M254.79,107.45c14.87-1.82,8.47-24.78-2.41-24.6S239.7,109.3,254.79,107.45Z" style="fill:#ebebeb"></path><path d="M395.46,173.23a23.23,23.23,0,0,1-8.06-1.62l.66-1.6c.1.05,10.4,4.23,14.73-1.76,1.83-2.52,1.88-4.84,1.17-6.55a7.5,7.5,0,0,1-5.52.74A3.17,3.17,0,0,1,396,160a2.58,2.58,0,0,1,1.64-2.53A5.5,5.5,0,0,1,404.3,159l.19.23a10.18,10.18,0,0,0,1.3-1.32,5.2,5.2,0,0,0,1-5.42,6.21,6.21,0,0,0-.68-1.24c-.26.15-.54.31-.83.45-3,1.51-6.86,2.25-8.23.65-.39-.46-.87-1.46.3-3.08a5.24,5.24,0,0,1,5-2.28,7.34,7.34,0,0,1,4,2c2.18-1.6,4.62-4.45,3.59-8.83a7.17,7.17,0,0,0-.68-1.86,8.25,8.25,0,0,1-5.92,3.21c-4.21.46-5.29-.76-5.45-1.86-.33-2.13,3.06-4.56,6.08-5.14a6.33,6.33,0,0,1,5,.87c2.7-6.6-.76-18.12-.8-18.24l1.66-.51c.16.55,3.88,12.92.46,20a8.34,8.34,0,0,1,1.38,3.1c1,4.08-.57,7.88-4.13,10.55a8.21,8.21,0,0,1,.84,1.54,6.88,6.88,0,0,1-1.23,7.17,11,11,0,0,1-1.72,1.7c1,2.21,1.14,5.29-1.21,8.54C402,172.35,398.59,173.23,395.46,173.23Zm4.44-14.6a3.06,3.06,0,0,0-1.47.37c-.49.28-.78.6-.76.83s.48.71,1.27.95a5.6,5.6,0,0,0,4.1-.56l0-.05A4.25,4.25,0,0,0,399.9,158.63Zm1.75-9.93a3.53,3.53,0,0,0-2.94,1.6c-.41.57-.43.88-.38.94.43.5,3.08.48,6.13-1.06l.4-.22a5.5,5.5,0,0,0-2.73-1.23C402,148.72,401.82,148.7,401.65,148.7Zm3.9-12.6a7.12,7.12,0,0,0-1.23.12c-2.85.55-4.8,2.54-4.7,3.18,0,.15.73.7,3.55.39a6.46,6.46,0,0,0,5-2.86A4.08,4.08,0,0,0,405.55,136.1Z" style="fill:#e0e0e0"></path><path d="M422.27,175.06l-.54-1.64c3.73-1.21,5.5-5.56,5.55-9.09a9.83,9.83,0,0,0-.21-2.28,8.37,8.37,0,0,1-1,.62c-3.26,1.69-5,.35-5.55-.31a4,4,0,0,1-.28-4.72c.95-1.39,2.66-1.82,4.59-1.12a5.71,5.71,0,0,1,2.85,2.35,8.27,8.27,0,0,0,.68-5.78,9.2,9.2,0,0,0-.63-1.92,4.74,4.74,0,0,1-2.18,1.94c-1.73.7-3.27.52-4.25-.49a3.69,3.69,0,0,1-.54-4,3.83,3.83,0,0,1,3.82-2.2,4.45,4.45,0,0,1,2.62,1.13,13.11,13.11,0,0,0-.38-5.52,8.65,8.65,0,0,0-.5-1.35,6.37,6.37,0,0,1-.61,1.15c-2,3.06-3.93,3-4.88,2.64a3.94,3.94,0,0,1-2.33-4.11,4.68,4.68,0,0,1,6.49-3.66c-1.05-6-8.93-13.12-9-13.21l1.15-1.29c.47.42,9.85,8.9,9.72,16a9.86,9.86,0,0,1,1.66,3.36,14.31,14.31,0,0,1,.12,7.62,10.83,10.83,0,0,1,1.45,3.57,9.68,9.68,0,0,1-1.54,8,11.22,11.22,0,0,1,.52,3.68C429,168.49,426.81,173.6,422.27,175.06Zm.79-17.14a1.61,1.61,0,0,0-1.4.69,2.24,2.24,0,0,0,.13,2.6c.68.76,1.91.73,3.47-.08a6.08,6.08,0,0,0,1.22-.83,4.07,4.07,0,0,0-2.26-2.15A3.5,3.5,0,0,0,423.06,157.92Zm1.24-9.78a2,2,0,0,0-2,1.19,1.94,1.94,0,0,0,.21,2.09c.46.48,1.3.51,2.34.08a3.5,3.5,0,0,0,1.79-2,3.17,3.17,0,0,0-2.19-1.32ZM423.15,138a2.44,2.44,0,0,0-.53.05,2.61,2.61,0,0,0-2.41,2.4,2.33,2.33,0,0,0,1.17,2.35c.79.27,1.87-.47,2.87-2a5.1,5.1,0,0,0,.78-2.05A2.72,2.72,0,0,0,423.15,138Z" style="fill:#e0e0e0"></path><path d="M383.92,122.44c16.24,17.53,40-12.17,29.57-26.08S367.45,104.65,383.92,122.44Z" style="fill:#e0e0e0"></path><path d="M415.61,135c23.72-2.9,13.52-39.52-3.84-39.24S391.55,138,415.61,135Z" style="fill:#ebebeb"></path><path d="M358.75,307.7a12.09,12.09,0,0,1-14.06-6.24l-6.56-12.94,3.32-1.69L348,299.78a8.38,8.38,0,0,0,11.14,3.8l11.34-5.39a8.43,8.43,0,0,0,4.19-10.79l-2.52-6.22,3.45-1.41,2.53,6.23a12.18,12.18,0,0,1-6,15.56L360.76,307A12.87,12.87,0,0,1,358.75,307.7Z" style="fill:#e6e6e6"></path><polygon points="402.94 268.92 396.32 271.91 393.94 272.99 386.64 276.3 384.24 277.38 377.3 280.52 374.88 281.62 368.46 284.52 366.03 285.63 359.86 288.41 357.45 289.5 351.27 292.29 348.88 293.38 342.68 296.19 340.31 297.26 338.59 298.03 331.7 289.74 336.77 279.6 338.57 275.98 343.44 266.25 345.26 262.63 350.12 252.92 351.92 249.3 356.79 239.56 358.6 235.94 362.52 228.12 364.58 230.19 367.75 233.4 377.36 243.11 380.56 246.33 390.64 256.51 393.87 259.77 402.94 268.92" style="fill:#f0f0f0"></polygon><polygon points="331.69 289.74 325.1 292.94 334.54 304.26 338.59 298.03 331.69 289.74" style="fill:#e6e6e6"></polygon><polygon points="338.57 275.98 342.68 296.19 340.31 297.26 336.77 279.6 338.57 275.98" style="fill:#e6e6e6"></polygon><polygon points="345.26 262.63 351.27 292.29 348.88 293.38 343.44 266.25 345.26 262.63" style="fill:#e6e6e6"></polygon><polygon points="351.92 249.3 359.86 288.41 357.45 289.5 350.12 252.92 351.92 249.3" style="fill:#e6e6e6"></polygon><polygon points="358.6 235.94 368.46 284.52 366.03 285.63 356.79 239.56 358.6 235.94" style="fill:#e6e6e6"></polygon><polygon points="367.75 233.4 377.3 280.52 374.88 281.62 364.58 230.19 367.75 233.4" style="fill:#e6e6e6"></polygon><polygon points="380.56 246.33 386.64 276.3 384.24 277.38 377.36 243.11 380.56 246.33" style="fill:#e6e6e6"></polygon><polygon points="393.87 259.77 396.32 271.91 393.94 272.99 390.64 256.51 393.87 259.77" style="fill:#e6e6e6"></polygon><polygon points="372.44 222.81 375.8 200.62 380.2 201.78 372.44 222.81" style="fill:#e6e6e6"></polygon><polygon points="387.82 228.57 406.64 199.02 412.26 203.93 387.82 228.57" style="fill:#e6e6e6"></polygon><polygon points="401.34 241.14 429.61 222.91 432.21 229.84 401.34 241.14" style="fill:#e6e6e6"></polygon><polygon points="404.73 252.1 436.48 248.89 436.58 257.19 404.73 252.1" style="fill:#e6e6e6"></polygon><path d="M137.73,307.7a12.09,12.09,0,0,0,14.06-6.24l6.56-12.94L155,286.83l-6.57,12.95a8.38,8.38,0,0,1-11.14,3.8L126,298.19a8.43,8.43,0,0,1-4.19-10.79l2.52-6.22-3.45-1.41L118.33,286a12.18,12.18,0,0,0,6,15.56L135.72,307A12.87,12.87,0,0,0,137.73,307.7Z" style="fill:#e6e6e6"></path><polygon points="93.55 268.92 100.16 271.91 102.54 272.99 109.84 276.3 112.24 277.38 119.18 280.52 121.6 281.62 128.02 284.52 130.45 285.63 136.62 288.41 139.03 289.5 145.21 292.29 147.6 293.38 153.8 296.19 156.17 297.26 157.89 298.03 164.78 289.74 159.71 279.6 157.91 275.98 153.04 266.25 151.22 262.63 146.36 252.92 144.56 249.3 139.69 239.56 137.88 235.94 133.96 228.12 131.9 230.19 128.73 233.4 119.12 243.11 115.92 246.33 105.84 256.51 102.61 259.77 93.55 268.92" style="fill:#f0f0f0"></polygon><polygon points="164.78 289.74 171.38 292.94 161.94 304.26 157.89 298.03 164.78 289.74" style="fill:#e6e6e6"></polygon><polygon points="157.91 275.98 153.8 296.19 156.17 297.26 159.71 279.6 157.91 275.98" style="fill:#e6e6e6"></polygon><polygon points="151.22 262.63 145.21 292.29 147.6 293.38 153.04 266.25 151.22 262.63" style="fill:#e6e6e6"></polygon><polygon points="144.56 249.3 136.62 288.41 139.03 289.5 146.36 252.92 144.56 249.3" style="fill:#e6e6e6"></polygon><polygon points="137.88 235.94 128.02 284.52 130.45 285.63 139.69 239.56 137.88 235.94" style="fill:#e6e6e6"></polygon><polygon points="128.73 233.4 119.18 280.52 121.6 281.62 131.9 230.19 128.73 233.4" style="fill:#e6e6e6"></polygon><polygon points="115.92 246.33 109.84 276.3 112.24 277.38 119.12 243.11 115.92 246.33" style="fill:#e6e6e6"></polygon><polygon points="102.61 259.77 100.16 271.91 102.54 272.99 105.84 256.51 102.61 259.77" style="fill:#e6e6e6"></polygon><polygon points="124.04 222.81 120.68 200.62 116.28 201.78 124.04 222.81" style="fill:#e6e6e6"></polygon><polygon points="108.66 228.57 89.84 199.02 84.22 203.93 108.66 228.57" style="fill:#e6e6e6"></polygon><polygon points="95.14 241.14 66.87 222.91 64.27 229.84 95.14 241.14" style="fill:#e6e6e6"></polygon><polygon points="91.75 252.1 60 248.89 59.9 257.19 91.75 252.1" style="fill:#e6e6e6"></polygon></g><g id="freepik--Shadow--inject-202"><ellipse id="freepik--path--inject-202" cx="250" cy="416.24" rx="193.89" ry="11.32" style="fill:#f5f5f5"></ellipse></g><g id="freepik--Plant--inject-202"><path d="M401.35,396.25a.39.39,0,0,1-.21-.06c-4.15-2.83-8.89-14.19-9.1-14.68a.38.38,0,0,1,.21-.48.36.36,0,0,1,.48.2c0,.11,4.66,11.13,8.56,14.15a26,26,0,0,1,13.35-7.12.37.37,0,0,1,.15.73,25.16,25.16,0,0,0-13.16,7.13A.35.35,0,0,1,401.35,396.25Z" style="fill:#263238"></path><path d="M405,387s-2.41-7.53-7.49-7.51-4.25-4-5.79-5.19-4.15,3.63-.55,7.25,1,2.74,2.94,6.36S406.53,393.3,405,387Z" style="fill:#1D4ED8"></path><path d="M405,387s-2.41-7.53-7.49-7.51-4.25-4-5.79-5.19-4.15,3.63-.55,7.25,1,2.74,2.94,6.36S406.53,393.3,405,387Z" style="fill:#fff;isolation:isolate;opacity:0.2"></path><path d="M407.94,392.16a.37.37,0,0,1-.34-.23,85.56,85.56,0,0,0-4.05-8.34c-3.17-6-6.44-12.18-6.22-19.47.18-6,2.16-11.82,4.08-17.46.32-.94.64-1.88.95-2.82l.77-2.3a117,117,0,0,0,4.55-16.17c1.22-6.87.58-12.47-2-17.11a.37.37,0,0,1,.14-.5.36.36,0,0,1,.5.15c2.63,4.79,3.3,10.55,2,17.59a115.1,115.1,0,0,1-4.58,16.28l-.76,2.29c-.31.94-.63,1.88-.95,2.83-1.91,5.59-3.87,11.36-4.05,17.24-.21,7.1,2.87,12.93,6.14,19.11a87,87,0,0,1,4.08,8.41.37.37,0,0,1-.34.5Z" style="fill:#263238"></path><path d="M408.57,313.06s2.24-12.92-7-11.82S404.16,312.37,408.57,313.06Z" style="fill:#1D4ED8"></path><path d="M402,323.71s-4.39-10.8-10.59-7.47S395.47,324.88,402,323.71Z" style="fill:#1D4ED8"></path><path d="M413.21,323s-2.31-8.79,4.61-10S422.8,320.15,413.21,323Z" style="fill:#1D4ED8"></path><path d="M411.28,342s8.09-9.68,12.35-4S417.7,346.47,411.28,342Z" style="fill:#1D4ED8"></path><path d="M394.57,342.92s-3.78-13.54-10.67-8.11S388.22,345.26,394.57,342.92Z" style="fill:#1D4ED8"></path><path d="M390.86,363.64s3.5-14.75-6.59-11.66S383.08,361.33,390.86,363.64Z" style="fill:#1D4ED8"></path><path d="M407.44,366.28s7.2-11.56,14.35-9.28S425,370.29,407.44,366.28Z" style="fill:#1D4ED8"></path><g style="isolation:isolate;opacity:0.2"><path d="M408.57,313.06s2.24-12.92-7-11.82S404.16,312.37,408.57,313.06Z" style="fill:#fff"></path><path d="M402,323.71s-4.39-10.8-10.59-7.47S395.47,324.88,402,323.71Z" style="fill:#fff"></path><path d="M413.21,323s-2.31-8.79,4.61-10S422.8,320.15,413.21,323Z" style="fill:#fff"></path><path d="M411.28,342s8.09-9.68,12.35-4S417.7,346.47,411.28,342Z" style="fill:#fff"></path><path d="M394.57,342.92s-3.78-13.54-10.67-8.11S388.22,345.26,394.57,342.92Z" style="fill:#fff"></path><path d="M390.86,363.64s3.5-14.75-6.59-11.66S383.08,361.33,390.86,363.64Z" style="fill:#fff"></path><path d="M407.44,366.28s7.2-11.56,14.35-9.28S425,370.29,407.44,366.28Z" style="fill:#fff"></path></g><path d="M407,330.45H407a.37.37,0,0,1-.25-.15c0-.06-4.58-6.32-7.5-7.54a.36.36,0,0,1-.19-.48.38.38,0,0,1,.48-.2c2.75,1.15,6.6,6.16,7.58,7.48,4.68-3.76,7.64-9.88,7.67-9.95a.37.37,0,0,1,.49-.17.36.36,0,0,1,.18.49c-.13.27-3.19,6.6-8.18,10.45A.39.39,0,0,1,407,330.45Z" style="fill:#263238"></path><path d="M401.08,348.82h0a.38.38,0,0,1-.27-.14c-.06-.07-5.56-6.81-11.71-9.31a.37.37,0,0,1,.27-.69c5.64,2.29,10.57,7.83,11.75,9.23,7.09-7,17.06-8.18,17.16-8.2a.37.37,0,0,1,.4.33.35.35,0,0,1-.32.4c-.1,0-10.09,1.24-17,8.27A.39.39,0,0,1,401.08,348.82Z" style="fill:#263238"></path><path d="M399,372.23a.32.32,0,0,1-.19-.05c-6.2-3.63-12.08-14.07-12.32-14.51a.37.37,0,0,1,.64-.36c.06.11,5.89,10.46,11.84,14.11,1.53-1.19,11-8.34,18.83-9.65a.36.36,0,1,1,.12.72c-8.19,1.38-18.59,9.58-18.69,9.66A.34.34,0,0,1,399,372.23Z" style="fill:#263238"></path><path d="M402.46,388.86s-3.49-4.7,1-7.46,5.58-.79,8.37-2.74,4.74-6.44,5.38-3.67-2.61,4.53-1.36,5.75S408.56,390.73,402.46,388.86Z" style="fill:#1D4ED8"></path><path d="M402.06,386.28s-4.26-3-7.4-2.4-5.76-2.21-6,.24S394.12,392,402.06,386.28Z" style="fill:#1D4ED8"></path><polygon points="383.05 384.92 384.28 395.56 384.45 396.96 384.96 401.42 385.33 404.57 385.57 406.62 386.77 416.96 417.55 416.96 418.75 406.62 418.99 404.57 419.36 401.42 419.87 396.96 420.03 395.56 421.27 384.92 383.05 384.92" style="fill:#263238"></polygon><polygon points="384.96 401.42 385.33 404.57 418.99 404.57 419.36 401.42 384.96 401.42" style="opacity:0.4"></polygon><polygon points="385.57 406.62 386.77 416.96 417.55 416.96 418.75 406.62 385.57 406.62" style="opacity:0.4"></polygon><polygon points="384.28 395.56 384.45 396.96 419.87 396.96 420.03 395.56 384.28 395.56" style="opacity:0.4"></polygon></g><g id="freepik--Sign--inject-202"><rect x="117.67" y="262.36" width="4.88" height="154.59" style="fill:#263238"></rect><rect x="117.67" y="262.36" width="4.88" height="154.6" style="fill:#fff;isolation:isolate;opacity:0.5"></rect><polygon points="122.55 263.34 122.55 299.91 117.67 298.15 117.67 263.34 122.55 263.34" style="opacity:0.2"></polygon><rect x="94.13" y="238.63" width="51.95" height="49.43" style="fill:#1D4ED8"></rect><path d="M143.47,241.39v43.9H96.76v-43.9h46.71m1.05-1H95.71v46h48.81v-46Z" style="fill:#fff"></path><polygon points="125.08 264.37 115.14 264.37 115.14 273.87 109.7 273.87 120.11 283.01 130.52 273.87 125.08 273.87 125.08 264.37" style="fill:#fff"></polygon><path d="M113.34,249.32h1.44v2.77A4.76,4.76,0,0,1,112,253a3.54,3.54,0,1,1,0-7.06,3.62,3.62,0,0,1,2.85,1.18l-1,.93a2.33,2.33,0,0,0-1.76-.77,2.19,2.19,0,1,0,0,4.37,2.56,2.56,0,0,0,1.23-.29Z" style="fill:#fff"></path><path d="M116.24,246h1.58v6.83h-1.58Z" style="fill:#fff"></path><path d="M126,246l-3,6.83h-1.56L118.5,246h1.7l2.08,4.88,2.11-4.88Z" style="fill:#fff"></path><path d="M131.8,251.57v1.27h-5.28V246h5.16v1.27h-3.59v1.48h3.17V250h-3.17v1.58Z" style="fill:#fff"></path><path d="M109.54,260.38h-3.17l-.61,1.46h-1.61l3-6.83h1.56l3,6.83h-1.66Zm-.5-1.2L108,256.56l-1.08,2.62Z" style="fill:#fff"></path><path d="M122.45,255l-2.23,6.83h-1.69L117,257.22l-1.55,4.62h-1.68L111.54,255h1.64l1.54,4.8,1.61-4.8h1.46l1.56,4.84,1.59-4.84Z" style="fill:#fff"></path><path d="M127.6,260.38h-3.17l-.6,1.46h-1.62l3-6.83h1.56l3.05,6.83H128.2Zm-.5-1.2L126,256.56l-1.08,2.62Z" style="fill:#fff"></path><path d="M133.43,259.42v2.42h-1.58V259.4L129.2,255h1.68l1.83,3,1.82-3h1.55Z" style="fill:#fff"></path></g><g id="freepik--Gifts--inject-202"><path d="M158.54,335.71c-3.41.36-14.75,1.22-18.68-3.22a5.57,5.57,0,0,1-1.21-5.45c.84-3.39,3.37-5.07,6.94-5.07h0c4.66,0,10.83,3.17,14,7,2.11-3.65,6.23-9.21,12.43-8.57,4.5.45,7.9,3.87,7.58,7.63-.17,2-2.07,8.4-19,7.62L159.38,339Zm-12.95-10h0c-1.85,0-2.86.57-3.29,2.29-.3,1.21,0,1.6.38,2,2.1,2.37,9.56,2.71,14.7,2.26C155.5,329.24,149.71,325.73,145.59,325.73Zm16.57,6.21c10.45.27,13.57-2.56,13.71-4.22.12-1.47-1.65-3.31-4.2-3.57a5.83,5.83,0,0,0-.59,0C166.59,324.12,163.45,329.34,162.16,331.94Z" style="fill:#263238"></path><g style="opacity:0.7000000000000001"><path d="M158.54,335.71c-3.41.36-14.75,1.22-18.68-3.22a5.57,5.57,0,0,1-1.21-5.45c.84-3.39,3.37-5.07,6.94-5.07h0c4.66,0,10.83,3.17,14,7,2.11-3.65,6.23-9.21,12.43-8.57,4.5.45,7.9,3.87,7.58,7.63-.17,2-2.07,8.4-19,7.62L159.38,339Zm-12.95-10h0c-1.85,0-2.86.57-3.29,2.29-.3,1.21,0,1.6.38,2,2.1,2.37,9.56,2.71,14.7,2.26C155.5,329.24,149.71,325.73,145.59,325.73Zm16.57,6.21c10.45.27,13.57-2.56,13.71-4.22.12-1.47-1.65-3.31-4.2-3.57a5.83,5.83,0,0,0-.59,0C166.59,324.12,163.45,329.34,162.16,331.94Z" style="fill:#fff"></path></g><rect x="123.05" y="333.68" width="73.39" height="50.41" transform="translate(319.49 717.78) rotate(180)" style="fill:#1D4ED8"></rect><rect x="123.05" y="333.68" width="73.39" height="50.41" transform="translate(319.49 717.78) rotate(180)" style="fill:#fff;isolation:isolate;opacity:0.2"></rect><rect x="123.05" y="351.1" width="73.39" height="32.99" transform="translate(319.49 735.2) rotate(180)" style="isolation:isolate;opacity:0.2"></rect><rect x="141.57" y="333.68" width="5.96" height="50.41" transform="translate(289.1 717.78) rotate(180)" style="fill:#263238"></rect><rect x="167.28" y="333.68" width="29.16" height="50.41" transform="translate(363.72 717.78) rotate(180)" style="isolation:isolate;opacity:0.2"></rect><rect x="181.76" y="333.68" width="4.38" height="50.41" transform="translate(367.89 717.78) rotate(180)" style="fill:#263238"></rect><rect x="141.57" y="333.68" width="5.96" height="50.41" transform="translate(289.1 717.78) rotate(180)" style="fill:#fff;opacity:0.8"></rect><rect x="181.76" y="333.68" width="4.38" height="50.41" transform="translate(367.89 717.78) rotate(180)" style="fill:#fff;opacity:0.7000000000000001"></rect><path d="M124.85,357.86h0c-2.48-.89-24.26-9-25.48-16.68-.29-1.78.46-3.37,2.22-4.74a7,7,0,0,1,6.22-1.38c4.89,1.18,9.67,7.09,13.1,12.43-1.84-6.45-3.27-14.31-.75-18a5.13,5.13,0,0,1,4.64-2.16,5.55,5.55,0,0,1,4.72,2.52c2.67,4.08,1.11,12.55-.7,19,4-6.27,9.55-13.79,13.44-13.46,1,.08,2.34.67,3.17,3a8.17,8.17,0,0,1-.48,6.53c-3.93,7.84-18.88,12.66-19.51,12.86h0a.84.84,0,0,1-.27,0A1,1,0,0,1,124.85,357.86Zm2.29-2.56c4.29-1.65,13.44-5.7,16.15-11.13a6.24,6.24,0,0,0,.39-5.09c-.6-1.73-1.33-1.79-1.57-1.8H142C138.53,337.27,131.54,347.53,127.14,355.3Zm-24.43-17.42a3.15,3.15,0,0,0-1.54,3c.81,5.08,14.66,11.5,22.11,14.42-2.54-4.9-9.35-16.88-15.92-18.46a5.79,5.79,0,0,0-1.34-.17A5.27,5.27,0,0,0,102.71,337.88Zm19-7.3c-2.94,4.25.94,17.09,3.47,23.84,2.33-6.57,5.8-19,2.84-23.52a3.74,3.74,0,0,0-3.24-1.69h-.18A3.25,3.25,0,0,0,121.66,330.58Z" style="fill:#263238"></path><g style="opacity:0.30000000000000004"><path d="M124.85,357.86h0c-2.48-.89-24.26-9-25.48-16.68-.29-1.78.46-3.37,2.22-4.74a7,7,0,0,1,6.22-1.38c4.89,1.18,9.67,7.09,13.1,12.43-1.84-6.45-3.27-14.31-.75-18a5.13,5.13,0,0,1,4.64-2.16,5.55,5.55,0,0,1,4.72,2.52c2.67,4.08,1.11,12.55-.7,19,4-6.27,9.55-13.79,13.44-13.46,1,.08,2.34.67,3.17,3a8.17,8.17,0,0,1-.48,6.53c-3.93,7.84-18.88,12.66-19.51,12.86h0a.84.84,0,0,1-.27,0A1,1,0,0,1,124.85,357.86Zm2.29-2.56c4.29-1.65,13.44-5.7,16.15-11.13a6.24,6.24,0,0,0,.39-5.09c-.6-1.73-1.33-1.79-1.57-1.8H142C138.53,337.27,131.54,347.53,127.14,355.3Zm-24.43-17.42a3.15,3.15,0,0,0-1.54,3c.81,5.08,14.66,11.5,22.11,14.42-2.54-4.9-9.35-16.88-15.92-18.46a5.79,5.79,0,0,0-1.34-.17A5.27,5.27,0,0,0,102.71,337.88Zm19-7.3c-2.94,4.25.94,17.09,3.47,23.84,2.33-6.57,5.8-19,2.84-23.52a3.74,3.74,0,0,0-3.24-1.69h-.18A3.25,3.25,0,0,0,121.66,330.58Z"></path></g><rect x="80.48" y="354.18" width="91.39" height="62.78" style="fill:#1D4ED8"></rect><rect x="80.48" y="354.18" width="91.39" height="62.78" style="fill:#fff;opacity:0.6000000000000001"></rect><rect x="80.48" y="375.87" width="91.39" height="41.09" style="isolation:isolate;opacity:0.1"></rect><rect x="80.48" y="354.18" width="36.31" height="62.78" style="fill:#fff;opacity:0.2"></rect><rect x="141.38" y="354.18" width="7.43" height="62.78" style="fill:#263238"></rect><rect x="93.31" y="354.18" width="5.45" height="62.78" style="fill:#263238"></rect><rect x="141.38" y="354.18" width="7.43" height="62.78" style="isolation:isolate;opacity:0.2"></rect><rect x="93.31" y="354.18" width="5.45" height="62.78" style="isolation:isolate;opacity:0.1"></rect><path d="M181.36,368.58c-3.41.35-14.75,1.21-18.68-3.22a5.59,5.59,0,0,1-1.21-5.46c.84-3.39,3.37-5.07,6.94-5.07h0c4.66,0,10.83,3.17,14,7,2.11-3.66,6.23-9.21,12.43-8.58,4.5.45,7.9,3.87,7.58,7.63-.17,2-2.07,8.4-19,7.62l-1.26,3.33Zm-13-10h0c-1.85,0-2.86.56-3.29,2.28-.3,1.21,0,1.6.38,2,2.1,2.36,9.56,2.7,14.7,2.25C178.32,362.1,172.53,358.6,168.41,358.6ZM185,364.81c10.45.26,13.57-2.56,13.71-4.22.12-1.48-1.65-3.32-4.2-3.57a5.83,5.83,0,0,0-.59,0C189.41,357,186.27,362.2,185,364.81Z" style="fill:#1D4ED8"></path><rect x="145.87" y="366.55" width="73.38" height="50.41" transform="translate(365.13 783.5) rotate(180)" style="fill:#263238"></rect><rect x="145.87" y="366.55" width="73.38" height="50.41" transform="translate(365.13 783.5) rotate(180)" style="fill:#fff;isolation:isolate;opacity:0.5"></rect><rect x="145.87" y="383.96" width="73.38" height="32.99" transform="translate(365.13 800.92) rotate(180)" style="isolation:isolate;opacity:0.2"></rect><rect x="164.39" y="366.55" width="5.96" height="50.41" transform="translate(334.74 783.5) rotate(180)" style="fill:#1D4ED8"></rect><rect x="204.58" y="366.55" width="4.38" height="50.41" transform="translate(413.53 783.5) rotate(180)" style="fill:#1D4ED8"></rect><rect x="190.1" y="366.55" width="29.16" height="50.41" transform="translate(409.36 783.5) rotate(180)" style="isolation:isolate;opacity:0.2"></rect><rect x="164.39" y="366.55" width="5.96" height="50.41" transform="translate(334.74 783.5) rotate(180)" style="fill:#fff;isolation:isolate;opacity:0.2"></rect><path d="M107,390c-.45-1.19-.49-3,1.85-5.09a5.34,5.34,0,0,1,4.5-1.33c4.43.7,8.75,6.45,10.45,9,2.44-3.35,9.35-12.25,13.73-11.46,1.48.26,2.49,1.44,3,3.51a7.21,7.21,0,0,1-1.1,6.37c-3.71,5-13.7,5.49-14.13,5.5h0C117.36,396.43,108.55,394.21,107,390Zm17.58,4.63h.68c.46,0,9.59-.55,12.72-4.77a5.39,5.39,0,0,0,.78-4.82c-.33-1.3-.85-2-1.55-2.15a1.55,1.55,0,0,0-.31,0C133.81,382.83,127.78,389.9,124.54,394.59ZM110,386.26c-1.24,1.08-1.69,2.11-1.34,3.06.86,2.31,6.41,4.79,14.2,5.21-.59-.94-5.4-8.47-9.85-9.17a3.31,3.31,0,0,0-.62-.05A3.55,3.55,0,0,0,110,386.26Z" style="fill:#e0e0e0"></path><rect x="85.9" y="394.15" width="73.39" height="22.81" transform="translate(245.19 811.11) rotate(180)" style="fill:#1D4ED8"></rect><rect x="85.9" y="394.15" width="73.39" height="22.81" transform="translate(245.19 811.11) rotate(180)" style="fill:#fff;isolation:isolate;opacity:0.2"></rect><rect x="85.9" y="402.37" width="73.39" height="14.59" transform="translate(245.19 819.33) rotate(180)" style="isolation:isolate;opacity:0.2"></rect><rect x="104.42" y="394.15" width="5.96" height="22.81" transform="translate(214.8 811.11) rotate(180)" style="fill:#fff"></rect><rect x="144.6" y="394.15" width="4.38" height="22.81" transform="translate(293.58 811.11) rotate(180)" style="fill:#fff"></rect><rect x="130.13" y="394.15" width="29.16" height="22.81" transform="translate(289.41 811.11) rotate(180)" style="isolation:isolate;opacity:0.2"></rect></g><g id="freepik--Device--inject-202"><path d="M367.13,417H242.42a8.89,8.89,0,0,1-8.94-9.41l12.4-263.73a10,10,0,0,1,9.83-9.42h124.7a8.9,8.9,0,0,1,8.95,9.42L377,407.55A10,10,0,0,1,367.13,417Z" style="fill:#1D4ED8"></path><path d="M367.13,417H242.42a8.89,8.89,0,0,1-8.94-9.41l12.4-263.73a10,10,0,0,1,9.83-9.42h124.7a8.9,8.9,0,0,1,8.95,9.42L377,407.55A10,10,0,0,1,367.13,417Z" style="fill:#fff;opacity:0.4"></path><path d="M367.13,417H242.42a8.89,8.89,0,0,1-8.94-9.41l12.4-263.73a10,10,0,0,1,9.83-9.42h124.7a8.9,8.9,0,0,1,8.95,9.42L377,407.55A10,10,0,0,1,367.13,417Z" style="opacity:0.2"></path><path d="M357.12,417H232.42a8.89,8.89,0,0,1-8.95-9.41l12.41-263.73a10,10,0,0,1,9.82-9.42H370.41a8.89,8.89,0,0,1,8.94,9.42L367,407.55A10,10,0,0,1,357.12,417Z" style="fill:#1D4ED8"></path><path d="M357.12,417H232.42a8.89,8.89,0,0,1-8.95-9.41l12.41-263.73a10,10,0,0,1,9.82-9.42H370.41a8.89,8.89,0,0,1,8.94,9.42L367,407.55A10,10,0,0,1,357.12,417Z" style="fill:#fff;opacity:0.4"></path><path d="M307.74,140.67a2,2,0,0,1-1.93,2,1.83,1.83,0,0,1-1.74-2,2,2,0,0,1,1.93-2A1.83,1.83,0,0,1,307.74,140.67Z" style="isolation:isolate;opacity:0.6000000000000001"></path><path d="M311.46,140.67a1.32,1.32,0,0,1-1.24,1.29,1.18,1.18,0,0,1-1.12-1.29,1.32,1.32,0,0,1,1.24-1.29A1.18,1.18,0,0,1,311.46,140.67Z" style="isolation:isolate;opacity:0.6000000000000001"></path><path d="M374.51,143.87,362.14,407a3.9,3.9,0,0,1-3.75,3.84h-127a3.13,3.13,0,0,1-3-3.53l12.4-263.75a3.18,3.18,0,0,1,2.88-3.23h31.76a2.13,2.13,0,0,1,2,1.57l1.15,3.54a2.12,2.12,0,0,0,2,1.55h54.08a2.35,2.35,0,0,0,2.11-1.52l1.48-3.56a2.41,2.41,0,0,1,2.12-1.58h31.31A3.2,3.2,0,0,1,374.51,143.87Z" style="fill:#263238"></path><polygon points="373.9 156.76 362.77 393.39 228.98 393.39 240.11 156.76 373.9 156.76" style="fill:#fff;isolation:isolate;opacity:0.30000000000000004"></polygon><polygon points="369.16 187.31 241.97 187.31 232.44 390.04 359.63 390.04 369.16 187.31" style="fill:#1D4ED8;isolation:isolate"></polygon><polygon points="369.16 187.31 241.97 187.31 232.44 390.04 359.63 390.04 369.16 187.31" style="fill:#fff;isolation:isolate;opacity:0.8"></polygon><path d="M296.29,404.38h-1.81a2.08,2.08,0,0,1-1.53-.64,2.12,2.12,0,0,1-.57-1.56l.11-2.31a2.29,2.29,0,0,1,2.26-2.16h1.81a2.08,2.08,0,0,1,1.52.64,2.15,2.15,0,0,1,.58,1.57l-.11,2.3A2.29,2.29,0,0,1,296.29,404.38Zm-1.54-5.81a1.43,1.43,0,0,0-1.4,1.35l-.11,2.3a1.27,1.27,0,0,0,.34.92,1.2,1.2,0,0,0,.9.38h1.81a1.43,1.43,0,0,0,1.4-1.34l.1-2.31a1.22,1.22,0,0,0-1.23-1.3Z" style="fill:#fff"></path><polygon points="369.26 185.27 242.07 185.27 243.19 161.4 370.38 161.4 369.26 185.27" style="fill:#1D4ED8;isolation:isolate"></polygon><path d="M363.87,169.26a1.08,1.08,0,0,1-1,1.07,1,1,0,0,1-.93-1.07,1.09,1.09,0,0,1,1-1.07A1,1,0,0,1,363.87,169.26Z" style="fill:#fff"></path><path d="M363.68,173.33a1.09,1.09,0,0,1-1,1.07,1,1,0,0,1-.92-1.07,1.08,1.08,0,0,1,1-1.06A1,1,0,0,1,363.68,173.33Z" style="fill:#fff"></path><path d="M363.49,177.41a1.08,1.08,0,0,1-1,1.06,1,1,0,0,1-.92-1.06,1.09,1.09,0,0,1,1-1.07A1,1,0,0,1,363.49,177.41Z" style="fill:#fff"></path><text transform="matrix(0.91, 0, -0.05, 1, 275.43, 177.84)" style="font-size:9.349200248718262px;fill:#fff;font-family:Montserrat-SemiBold, Montserrat;font-weight:600"><tspan style="letter-spacing:-0.07298999965567245em">A</tspan><tspan x="6.41" y="0">TTEN</tspan><tspan x="31.26" y="0" style="letter-spacing:-0.01900602343975157em">D</tspan><tspan x="38.28" y="0">ANCE</tspan></text><path d="M296.27,385.49a.44.44,0,0,1-.22-.07l-5.09-3a.44.44,0,0,1-.15-.59.43.43,0,0,1,.59-.15l4.88,2.9,5.15-2.91a.43.43,0,0,1,.59.17.43.43,0,0,1-.16.58l-5.38,3A.39.39,0,0,1,296.27,385.49Z" style="fill:#fff"></path><path d="M296.44,381.86a.43.43,0,0,1-.22-.06l-5.09-3a.45.45,0,0,1-.15-.6.44.44,0,0,1,.59-.15l4.88,2.91L301.6,378a.43.43,0,0,1,.43.75l-5.38,3A.5.5,0,0,1,296.44,381.86Z" style="fill:#fff"></path><polygon points="255.13 150.93 256.78 150.93 256.89 148.52 255.24 148.52 255.13 150.93" style="fill:#fff;isolation:isolate;opacity:0.6000000000000001"></polygon><polygon points="252.43 150.93 254.09 150.93 254.24 147.71 252.59 147.71 252.43 150.93" style="fill:#fff;isolation:isolate;opacity:0.6000000000000001"></polygon><polygon points="249.74 150.93 251.39 150.93 251.58 146.91 249.93 146.91 249.74 150.93" style="fill:#fff;isolation:isolate;opacity:0.6000000000000001"></polygon><polygon points="247.05 150.93 248.7 150.93 248.93 146.1 247.28 146.1 247.05 150.93" style="fill:#fff;isolation:isolate;opacity:0.6000000000000001"></polygon><polygon points="359.08 150.05 358.1 150.05 358.21 147.63 359.19 147.63 359.08 150.05" style="fill:#fff;isolation:isolate;opacity:0.6000000000000001"></polygon><polygon points="359.71 150.93 367.51 150.93 367.71 146.75 359.9 146.75 359.71 150.93" style="fill:#fff;isolation:isolate;opacity:0.6000000000000001"></polygon><path d="M328.67,218.91c-12.56-2-22.86,14-25.9,19.36-3-5.32-13.34-21.34-25.9-19.36-14.92,2.36-14.6,27.86,25.9,21.2C343.26,246.77,343.59,221.27,328.67,218.91Zm-53.78,8.26c5.83-5.75,22.59,10.77,22.59,10.77S269.05,232.92,274.89,227.17Zm33.17,10.77s16.75-16.52,22.59-10.77S308.06,237.94,308.06,237.94Z" style="fill:#1D4ED8"></path><path d="M328.66,218.91c-12.56-2-22.85,14-25.9,19.36-3-5.32-13.34-21.34-25.9-19.36-10.18,1.61-13.26,14-1.31,19.59,5.55,2.6,14.36,3.72,27.21,1.61,12.85,2.11,21.65,1,27.22-1.61C341.93,232.92,338.85,220.52,328.66,218.91Zm-53.78,8.26c5.85-5.75,22.6,10.77,22.6,10.77S269.05,232.92,274.88,227.17Zm33.17,10.77s16.76-16.52,22.59-10.77S308.05,237.94,308.05,237.94Z" style="fill:#fff;isolation:isolate;opacity:0.6000000000000001"></path><polygon points="344.36 241.96 343.7 255.7 343.57 258.56 341.06 312.14 256.6 312.14 259.12 258.56 259.25 255.7 259.89 241.96 344.36 241.96" style="fill:#1D4ED8"></polygon><polygon points="346.44 239.96 345.71 255.7 257.25 255.7 257.99 239.96 346.44 239.96" style="fill:#1D4ED8"></polygon><polygon points="308.33 239.96 308.23 241.96 307.59 255.7 304.93 312.14 291.93 312.14 294.58 255.7 295.23 241.96 295.32 239.96 308.33 239.96" style="fill:#fff;isolation:isolate;opacity:0.7000000000000001"></polygon><polygon points="343.7 255.7 343.57 258.56 259.12 258.56 259.25 255.7 343.7 255.7" style="opacity:0.2"></polygon><path d="M320.24,352.2H273.57a4.33,4.33,0,0,1-4.36-4.57l.55-12.7a4.81,4.81,0,0,1,4.76-4.57h46.66a4.33,4.33,0,0,1,4.36,4.57l-.55,12.7A4.81,4.81,0,0,1,320.24,352.2Z" style="fill:#1D4ED8"></path><path d="M320.24,352.2H273.57a4.33,4.33,0,0,1-4.36-4.57l.55-12.7a4.81,4.81,0,0,1,4.76-4.57h46.66a4.33,4.33,0,0,1,4.36,4.57l-.55,12.7A4.81,4.81,0,0,1,320.24,352.2Z" style="fill:#fff;isolation:isolate;opacity:0.2"></path><path d="M278.09,341.28a4.51,4.51,0,0,1,4.68-4.33,4.08,4.08,0,0,1,3.27,1.4l-1.05.95a2.83,2.83,0,0,0-2.2-1,3,3,0,0,0-3.13,3,2.73,2.73,0,0,0,2.87,3,3.06,3.06,0,0,0,2.29-1l1,1a4.42,4.42,0,0,1-3.39,1.41A4.07,4.07,0,0,1,278.09,341.28Z" style="fill:#fff"></path><path d="M287.6,337.07h1.55l-.3,7.1h4.39l-.06,1.32h-5.95Z" style="fill:#fff"></path><path d="M300,343.54h-4.2l-.91,1.95h-1.61l4.14-8.42H299l3.42,8.42h-1.63Zm-.46-1.23-1.43-3.68-1.73,3.68Z" style="fill:#fff"></path><path d="M303.83,337.07h1.56l-.36,8.42h-1.56Z" style="fill:#fff"></path><path d="M315,345.49l.23-5.58-3,4.62h-.7L309,340l-.24,5.51h-1.49l.37-8.42h1.28l3.09,5.58,3.52-5.58h1.28l-.35,8.42Z" style="fill:#fff"></path><path d="M367.46,140.32,234.37,278.91l6.36-135.36a3.18,3.18,0,0,1,2.88-3.23h31.76a2.14,2.14,0,0,1,2,1.57l1.14,3.54a2.12,2.12,0,0,0,2,1.55h54.08a2.36,2.36,0,0,0,2.11-1.52l1.48-3.57a2.43,2.43,0,0,1,2.13-1.57Z" style="fill:#fff;isolation:isolate;opacity:0.2"></path><polygon points="373.47 166.01 372.94 177.38 232.25 323.87 232.78 312.5 373.47 166.01" style="fill:#fff;isolation:isolate;opacity:0.2"></polygon><rect x="236.61" y="161.4" width="118.37" height="23.87" style="fill:#fff;isolation:isolate"></rect><g style="isolation:isolate;opacity:0.2"><polygon points="369.26 185.27 242.07 185.27 243.19 161.4 370.38 161.4 369.26 185.27" style="fill:#fff;isolation:isolate"></polygon><path d="M363.87,169.26a1.08,1.08,0,0,1-1,1.07,1,1,0,0,1-.93-1.07,1.09,1.09,0,0,1,1-1.07A1,1,0,0,1,363.87,169.26Z" style="fill:#fff"></path><path d="M363.68,173.33a1.09,1.09,0,0,1-1,1.07,1,1,0,0,1-.92-1.07,1.08,1.08,0,0,1,1-1.06A1,1,0,0,1,363.68,173.33Z" style="fill:#fff"></path><path d="M363.49,177.41a1.08,1.08,0,0,1-1,1.06,1,1,0,0,1-.92-1.06,1.09,1.09,0,0,1,1-1.07A1,1,0,0,1,363.49,177.41Z" style="fill:#fff"></path></g><circle cx="247.71" cy="185.27" r="7.43" transform="translate(-58.45 229.42) rotate(-45)" style="fill:#fff;isolation:isolate"></circle><circle cx="277.44" cy="185.27" r="7.43" transform="translate(50.12 429.45) rotate(-80.78)" style="fill:#fff;isolation:isolate"></circle><circle cx="307.17" cy="185.27" r="7.43" transform="translate(56.28 441.65) rotate(-76.72)" style="fill:#fff;isolation:isolate"></circle><circle cx="336.89" cy="185.27" r="7.43" transform="translate(-32.33 292.48) rotate(-45)" style="fill:#fff;isolation:isolate"></circle><path d="M359.19,185.27s2.07-19.29,11.19-23.87l-1.12,23.87Z" style="fill:#1D4ED8"></path><path d="M355.52,161.4c-7.31,3.67-10.09,16.78-10.91,21.84a7.54,7.54,0,0,0-.28,2,7.43,7.43,0,0,0,14.86,0s2.07-19.29,11.19-23.87Z" style="fill:#1D4ED8;isolation:isolate"></path><path d="M314.88,183.24a7.54,7.54,0,0,0-.28,2,7.43,7.43,0,0,0,14.86,0s2.07-19.29,11.2-23.87H325.79C318.48,165.07,315.7,178.18,314.88,183.24Z" style="fill:#1D4ED8;isolation:isolate"></path><path d="M285.16,183.24a7.54,7.54,0,0,0-.29,2h0a7.44,7.44,0,0,0,14.87,0h0s2.07-19.29,11.19-23.87H296.06C288.75,165.07,286,178.18,285.16,183.24Z" style="fill:#1D4ED8;isolation:isolate"></path><path d="M255.43,183.24a7.53,7.53,0,0,0-.29,2h0a7.44,7.44,0,0,0,14.87,0h0S272.08,166,281.2,161.4H266.34C259,165.07,256.25,178.18,255.43,183.24Z" style="fill:#1D4ED8;isolation:isolate"></path><path d="M225.7,183.24a7.54,7.54,0,0,0-.28,2,7.43,7.43,0,1,0,14.86,0h0s2.07-19.29,11.19-23.87H236.61C229.3,165.07,226.52,178.18,225.7,183.24Z" style="fill:#1D4ED8;isolation:isolate"></path><path d="M359.19,185.27s2.07-19.29,11.19-23.87l-1.12,23.87Z" style="opacity:0.2"></path></g><g id="freepik--Character--inject-202"><path d="M193.92,240a98.27,98.27,0,0,1-17.28,10.88c-2.54,1.33-5.2-.66-5.84-3-.89-2.79-.2-5.69.44-8.27a79.58,79.58,0,0,1,5.5-13.77c1.1-2.17,2.2-4.3,3.44-6.41a2.18,2.18,0,0,1,3.95,1.78c-1.47,4.43-2.95,8.95-4.19,13.43-.87,3.48-2.08,7.1-1.79,10.56,0,.21.19.13-.27-.47l-4.89-.82c2.66-1.69,5.27-3.48,7.88-5.26s5.22-3.73,7.7-5.54a4.38,4.38,0,0,1,5.35,6.92Z" style="fill:#e9b376"></path><path d="M196.49,228.82c-6.25-.13-15.68,7.33-15.68,7.33s1.82,12.07,4.95,13.18S196.49,228.82,196.49,228.82Z" style="fill:#1D4ED8"></path><path d="M196.49,228.82s-5.08,14.44-8.64,19.1c-.8,1.06-1.52,1.61-2.09,1.41-1.22-.44-2.25-2.55-3-5a58.94,58.94,0,0,1-1.9-8.22S190.24,228.69,196.49,228.82Z" style="fill:#fff;opacity:0.7000000000000001"></path><path d="M187.85,247.92c-.8,1.06-1.52,1.61-2.09,1.41-1.22-.44-2.25-2.55-3-5a20.39,20.39,0,0,1,5.35-4.42C188.87,242,188.67,245.26,187.85,247.92Z" style="opacity:0.1"></path><polygon points="181.34 235.47 185.3 248.78 183.57 249.23 179.85 236.53 181.34 235.47" style="fill:#1D4ED8"></polygon><path d="M209.37,192.38s-5.32-1.64-8.7,2.85-1.43,12.42-1.43,12.42,2.53,6-1.8,9.87c-3.79,3.38-.63,7,5.5,9.62s18.38,3.56,22.13.5-1.06-7.42.79-14.22,3.2-13.29-3.36-18.26C217.14,191.1,212.31,191.07,209.37,192.38Z" style="fill:#263238"></path><path d="M157,417c5.44,0,6.16-.08,9.22-.18,2.62-.1,3.25.23,5.35.18,1.76,0,1.7-1.72,1.15-3.65-.27-1-.69-3-1.06-4.6l-8-.58c-1.12,2.14-3.65,5.19-6.72,5.61S154.87,417,157,417Z" style="fill:#1D4ED8"></path><path d="M197.31,417c5.45,0,6.17-.08,9.23-.18,2.62-.1,3.24.23,5.35.18,1.76,0,1.69-1.72,1.15-3.65-.27-1-.69-3-1.06-4.6l-8-.58c-1.12,2.14-3.66,5.19-6.73,5.61S195.14,417,197.31,417Z" style="fill:#1D4ED8"></path><path d="M184,271.92s-7.09,40.66-8.26,62.57c-1.22,23-8.59,59.85-12.49,74.24,1.09,1,6.25,1.4,8.69.18,0,0,21.28-42.49,18.51-69.06C208.21,289.75,203.9,271,203.9,271Z" style="fill:#263238"></path><path d="M195.68,323.91c2.53-8.34,4.36-15.57,5.65-21.77-1.28-4.85-3.1-9-5.57-11.49C195.76,290.65,192.21,304.15,195.68,323.91Z" style="opacity:0.2"></path><path d="M191.53,267.9s5.82,45.05,9.16,66.73c3.51,22.77,3.95,59.3,3.07,74.19,1.28.74,5.93,1.64,8.44.85,0,0,11.87-46.05,4-72.8,8.58-40.43-3.55-61.75-3.55-61.75Z" style="fill:#263238"></path><path d="M186.21,239.4a86.78,86.78,0,0,0-1.37,11.7c-.41,5.73-.65,11.38-.88,20.82l28.7,3.22c.33-8.15,2.31-17.26,9.5-34.87a6.73,6.73,0,0,0-4.75-9.34c-1.12-.24-2.32-.47-3.55-.67a90.35,90.35,0,0,0-13-1.46c-1.43,0-2.92,0-4.34,0C191.34,229,186.93,234.36,186.21,239.4Z" style="fill:#1D4ED8"></path><path d="M222.16,240.27q-.24.61-.48,1.2c-2,4.87-3.52,9.06-4.75,12.77-3,9.12-4,15.24-4.27,20.91L184,271.92c.22-9.44.46-15.09.88-20.82a87.12,87.12,0,0,1,1.36-11.69c.72-5,5.13-10.46,10.28-10.59,1.42,0,2.91,0,4.34,0a92,92,0,0,1,13,1.47c1.23.2,2.42.43,3.56.68A6.72,6.72,0,0,1,222.16,240.27Z" style="fill:#fff;opacity:0.7000000000000001"></path><path d="M181.33,212.61l1.79,1.19a2.5,2.5,0,0,1,1.12,2l.13,3.79a4.69,4.69,0,0,1-1.84,3.87l-.75.57c-3.11-1.77-5.17-6-5.17-6l-.72-1.14a2.09,2.09,0,0,1,.59-2.91l2.23-1.45A2.4,2.4,0,0,1,181.33,212.61Z" style="fill:#ebb376"></path><path d="M186.7,208.6c1.89-2.55,5-3.43,7-2s2.08,4.73.2,7.28-5,3.43-7,2S184.82,211.15,186.7,208.6Z" style="fill:#1D4ED8"></path><path d="M170.49,196.78l6.51-9s2.68,8.37,7.61,12l-3.3,4.47-.52.7-3.3,4.48c-4.92-3.64-13.72-3.73-13.72-3.73Z" style="fill:#1D4ED8"></path><path d="M186.7,208.6c1.89-2.55,5-3.43,7-2s2.08,4.73.2,7.28-5,3.43-7,2S184.82,211.15,186.7,208.6Z" style="fill:#fff;isolation:isolate;opacity:0.8"></path><path d="M170.49,196.78l6.51-9s2.68,8.37,7.61,12l-3.3,4.47-.52.7-3.3,4.48c-4.92-3.64-13.72-3.73-13.72-3.73Z" style="fill:#fff;isolation:isolate;opacity:0.8"></path><path d="M186.35,214.33s-4.52,5-8.34,6.61a.59.59,0,0,1-.73-.25l-2.56-4.15a.61.61,0,0,1,.34-.9c1.58-.47,5.3-1.73,7.62-3.86C185.7,209,186.35,214.33,186.35,214.33Z" style="fill:#1D4ED8"></path><path d="M186.35,214.33s-4.52,5-8.34,6.61a.59.59,0,0,1-.73-.25l-2.56-4.15a.61.61,0,0,1,.34-.9c1.58-.47,5.3-1.73,7.62-3.86C185.7,209,186.35,214.33,186.35,214.33Z" style="isolation:isolate;opacity:0.30000000000000004"></path><path d="M163.79,206c1.13.83,5.06-2.58,8.79-7.63s5.82-9.81,4.69-10.65-5.06,2.59-8.78,7.63S162.66,205.12,163.79,206Z" style="fill:#fff"></path><path d="M164.49,204.41c.84.62,3.91-2.07,7-6.1.18-.23.35-.47.53-.71l.62-.85c2.88-4.1,4.51-7.75,3.67-8.36s-4.28,2.38-7.55,6.81S163.59,203.75,164.49,204.41Z" style="isolation:isolate;opacity:0.4"></path><path d="M187.27,217s1.42-.76,4.32-4.69c3.14-4.25,3.23-5.54,3.23-5.54l-11-8.11s-.35,1.64-3.29,5.63-4.26,4.6-4.26,4.6Z" style="fill:#1D4ED8"></path><path d="M171.49,198.31c.18-.23.35-.47.53-.71l.62-.85-1.18-.54a.57.57,0,0,0-.71.23l-.12.16a.57.57,0,0,0,0,.74Z" style="fill:#fff"></path><path d="M171.49,198.31c.18-.23.35-.47.53-.71l.62-.85-1.18-.54a.57.57,0,0,0-.71.23l-.12.16a.57.57,0,0,0,0,.74Z" style="isolation:isolate;opacity:0.2"></path><path d="M214.59,215.48c-1.6,4.07-3.85,11.59-1.44,14.7,0,0-3.91-1-12.93,3.22-2-3.77-.11-4.68-.11-4.68,4.89-.59,5.42-4,5.21-7.36Z" style="fill:#ebb376"></path><path d="M210.81,217.88l-5.49,3.47a12.17,12.17,0,0,1,0,2.34c1.84-.05,4.66-1.72,5.2-3.56A6.21,6.21,0,0,0,210.81,217.88Z" style="opacity:0.2"></path><path d="M219.12,207.47c-2,6.62-2.75,9.47-7,12.28-6.36,4.23-14,.75-14-6.24,0-6.29,3.33-16.07,10.56-17.52A8.88,8.88,0,0,1,219.12,207.47Z" style="fill:#ebb376"></path><path d="M210.35,207.63c-.15.56-.56,1-.93.89s-.54-.58-.39-1.14.56-1,.92-.9S210.49,207.06,210.35,207.63Z" style="fill:#263238"></path><path d="M203.3,206.08c-.14.56-.56,1-.92.9s-.54-.58-.39-1.15.56-1,.92-.89S203.45,205.52,203.3,206.08Z" style="fill:#263238"></path><path d="M203.06,205l-1.23-.64S202.24,205.54,203.06,205Z" style="fill:#263238"></path><path d="M205.11,206.88a17.1,17.1,0,0,1-2.92,3.22,2.31,2.31,0,0,0,1.88.75Z" style="fill:#d58745"></path><path d="M212.31,204.29a.29.29,0,0,1-.22-.13,2.51,2.51,0,0,0-2.1-1.09.3.3,0,0,1-.34-.3.36.36,0,0,1,.33-.37,3.13,3.13,0,0,1,2.67,1.35.35.35,0,0,1-.1.47A.36.36,0,0,1,212.31,204.29Z" style="fill:#263238"></path><path d="M201.36,201.83a.35.35,0,0,1-.23-.09.34.34,0,0,1,0-.48,3.6,3.6,0,0,1,2.94-1.16.31.31,0,0,1,.25.39.36.36,0,0,1-.4.28,2.85,2.85,0,0,0-2.32.94A.42.42,0,0,1,201.36,201.83Z" style="fill:#263238"></path><path d="M210.1,206.54l-1.23-.64S209.28,207.09,210.1,206.54Z" style="fill:#263238"></path><path d="M202.74,213.52a22.36,22.36,0,0,1,.08,3.22l.56.12a4.9,4.9,0,0,0,4.63-1.07,2.53,2.53,0,0,0,.64-1.26,4.31,4.31,0,0,0,.12-.94c-1-.81-3.87-1.06-5.17-.46A6.49,6.49,0,0,0,202.74,213.52Z" style="fill:#263238"></path><path d="M203.6,213.13c0,.33,0,.68.06,1a23,23,0,0,1,5,.37,4.31,4.31,0,0,0,.12-.94C207.82,212.78,204.9,212.53,203.6,213.13Z" style="fill:#fff"></path><path d="M203.38,216.86a4.9,4.9,0,0,0,4.63-1.07,3.57,3.57,0,0,0-2.91-.25A3.69,3.69,0,0,0,203.38,216.86Z" style="fill:#de5753"></path><path d="M216.56,212.29s-1.9-7.58-.62-13.62c0,0-7.73-3.94-12.71.53,0,0,1.76-4.61,9.06-4.44S226.62,204.93,216.56,212.29Z" style="fill:#263238"></path><path d="M220,213.4a5.55,5.55,0,0,1-3.82,1.87c-1.88.07-2.27-1.85-1.28-3.52.88-1.49,2.93-3.34,4.6-2.62S221.26,212,220,213.4Z" style="fill:#ebb376"></path><path d="M209.19,196.6s.63,13.06,8.81,11.54S220.73,192.8,209.19,196.6Z" style="fill:#263238"></path><path d="M221.68,241.47c-2,4.87-3.52,9.06-4.75,12.77-3.56-6.19-.48-14.42-.48-14.42C218.34,239,220.15,239.78,221.68,241.47Z" style="opacity:0.1"></path><path d="M223.67,237.51A87.08,87.08,0,0,0,230,252.44a48.62,48.62,0,0,0,2.82,4.4l-.6-.59a.92.92,0,0,0-.62-.22c2.35,0,5.15-1.81,7.43-3,3.39-2,6.77-4.3,10-6.57a2.19,2.19,0,0,1,2.9,3.22c-4.73,5.17-17.76,19-25.07,12.38-5.57-6.37-9.21-14-11.62-22.1a4.37,4.37,0,0,1,8.41-2.41Z" style="fill:#e9b376"></path><path d="M219.14,231.55c5.91,2,12.07,16.61,12.07,16.61a59.92,59.92,0,0,1-10.2,6.92s-8.56-12.54-7.09-18.21S219.14,231.55,219.14,231.55Z" style="fill:#1D4ED8"></path><path d="M219.14,231.55c5.91,2,12.07,16.61,12.07,16.61a59.92,59.92,0,0,1-10.2,6.92s-8.56-12.54-7.09-18.21S219.14,231.55,219.14,231.55Z" style="fill:#fff;opacity:0.7000000000000001"></path><path d="M250,251.49l7-3.92-4.36-5.48s-5.27,2.06-5.26,6.72Z" style="fill:#ebb376"></path><polygon points="260.04 242.77 255.81 239.46 252.6 242.09 256.96 247.57 260.04 242.77" style="fill:#ebb376"></polygon><polygon points="220.28 254.56 231.21 246.79 232.25 249.31 221.32 255.98 220.28 254.56" style="fill:#1D4ED8"></polygon><path d="M196.22,247.84h0a.24.24,0,0,1-.21-.22c-.07-.5-1.63-12.29,2.91-19a.26.26,0,0,1,.35-.07.25.25,0,0,1,.06.35c-3.74,5.51-3.19,14.9-2.92,17.78,1.21-2.35,5.47-9.41,15.09-15a.25.25,0,1,1,.25.43c-11.51,6.73-15.23,15.5-15.26,15.59A.27.27,0,0,1,196.22,247.84Z" style="fill:#263238"></path><path d="M202.12,232.55c2.73.71,3.13,5,3.13,5s7.2-4,9.68-7.06a27.78,27.78,0,0,1-2.26-1.82S203.92,231.13,202.12,232.55Z" style="fill:#1D4ED8"></path><path d="M199.53,231.81s-2.48.38-3.72,3.66c.05-6.19,3-6.91,3-6.91a3.53,3.53,0,0,1,2.55-.08A3,3,0,0,0,199.53,231.81Z" style="fill:#1D4ED8"></path><rect x="193.54" y="246.93" width="5.26" height="8.4" rx="0.61" transform="translate(16.39 -11.98) rotate(3.65)" style="fill:#fff"></rect><rect x="195.1" y="248.44" width="2.27" height="3" transform="matrix(1, 0.06, -0.06, 1, 16.32, -11.99)" style="opacity:0.2"></rect><rect x="194.32" y="252.25" width="3.53" height="0.43" transform="translate(16.48 -11.98) rotate(3.65)" style="opacity:0.2"></rect><rect x="194.25" y="253.27" width="3.53" height="0.43" transform="translate(16.54 -11.97) rotate(3.65)" style="opacity:0.2"></rect></g></svg>
