<svg xmlns="http://www.w3.org/2000/svg" viewBox="0 0 500 500"><g id="freepik--background-simple--inject-215"><path d="M465.91,93.89S314.42,51.38,234.8,46,34.61,207.51,32.3,245.38,227.85,461,294.32,471.85,472.87,243.07,483.69,172.73,465.91,93.89,465.91,93.89Z" style="fill:#407BFF"></path><path d="M465.91,93.89S314.42,51.38,234.8,46,34.61,207.51,32.3,245.38,227.85,461,294.32,471.85,472.87,243.07,483.69,172.73,465.91,93.89,465.91,93.89Z" style="fill:#fff;opacity:0.7000000000000001"></path></g><g id="freepik--Clouds--inject-215"><path d="M439.08,83h-36a.51.51,0,0,1-.5-.5.5.5,0,0,1,.5-.5h35.71a2.2,2.2,0,0,0,.25-1.35c-.14-1.5-1.4-4.12-6.63-8s-9.4-3.65-14.25-3.37c-3.77.21-8,.46-13.32-1.3a.52.52,0,0,1-.31-.29c-.11-.29-12.18-29.12-45.55-35.33-31.71-5.9-38.41,9.84-41.63,17.4L316.82,51c-1.65,3.7-5.84,3.58-9.71,3a.5.5,0,0,1,.16-1c5,.79,7.53.1,8.63-2.39.18-.4.37-.84.57-1.3,3.32-7.81,10.23-24,42.74-18s45,33,46.2,35.72c5,1.62,8.93,1.4,12.73,1.18,4.85-.28,9.42-.54,14.91,3.57s6.91,7.12,7,8.84a2.89,2.89,0,0,1-.64,2.21A.53.53,0,0,1,439.08,83Z" style="fill:#263238"></path><path d="M392,83H220.56a.52.52,0,0,1-.47-.31.53.53,0,0,1,.11-.55c.24-.23,5.78-5.72,10-4.89,3.68.74,7.44-1.43,10.57-6.12.35-.53.7-1.08,1.05-1.63,2.74-4.31,5.56-8.76,12.92-7.29,1.92.38,3.71.85,5.45,1.3,5.18,1.36,9.28,2.42,11.48-.33a31.67,31.67,0,0,0,1.85-2.71c2.53-4,6-9.49,15.13-10.14,4-.29,8.25.53,12.26,1.39a.5.5,0,1,1-.21,1c-3.94-.85-8.12-1.65-12-1.38C280.06,52,276.88,57,274.32,61a32.57,32.57,0,0,1-1.91,2.81c-2.61,3.25-7,2.11-12.52.67-1.72-.45-3.5-.91-5.39-1.29-6.68-1.34-9.2,2.64-11.88,6.85-.35.55-.7,1.1-1.06,1.65-3.37,5-7.48,7.37-11.6,6.55-2.73-.55-6.42,2.28-8.12,3.76H392a.5.5,0,0,1,.5.5A.5.5,0,0,1,392,83Z" style="fill:#263238"></path><path d="M481.08,140.71H392a.5.5,0,0,1-.46-.31.49.49,0,0,1,.11-.54c.25-.26,2.5-2.44,4.32-2.08,1.39.28,2.81-.56,4-2.37.14-.21.28-.44.43-.66,1.11-1.75,2.38-3.74,5.57-3.1.79.16,1.53.35,2.24.54,2.3.59,3.63.89,4.37,0a11.85,11.85,0,0,0,.73-1.08c1.07-1.68,2.53-4,6.4-4.27a20.39,20.39,0,0,1,5.57.68c2.91.63,4.71,1,5.31-.38l.23-.53c1.2-2.82,3.7-8.68,14-8a.5.5,0,0,1,.46.54.51.51,0,0,1-.53.46c-9.59-.64-11.81,4.58-13,7.39l-.24.54c-.95,2.15-3.61,1.57-6.43,1a19.13,19.13,0,0,0-5.29-.66c-3.36.24-4.56,2.14-5.62,3.81a14,14,0,0,1-.8,1.17c-1.18,1.47-3.14,1-5.41.37-.68-.18-1.41-.37-2.18-.52-2.52-.5-3.45,1-4.53,2.66l-.44.68c-1.44,2.16-3.23,3.15-5,2.79a3.68,3.68,0,0,0-2.41,1h87.4a1.12,1.12,0,0,0,0-.27c-.06-.45-.48-1.44-2.58-3s-3.62-1.43-5.62-1.31a13.58,13.58,0,0,1-5.54-.55.47.47,0,0,1-.3-.28,25.93,25.93,0,0,0-10.88-11.59.5.5,0,0,1,.48-.88,26.7,26.7,0,0,1,11.23,11.87,13,13,0,0,0,5,.43c2-.12,3.94-.23,6.26,1.51,1.91,1.43,2.91,2.71,3,3.82a1.4,1.4,0,0,1-.35,1.13A.47.47,0,0,1,481.08,140.71Z" style="fill:#263238"></path><path d="M325.7,314.67H236.62a.5.5,0,0,1-.35-.85c.25-.25,2.51-2.44,4.33-2.07,1.38.28,2.8-.57,4-2.37l.43-.66c1.11-1.76,2.37-3.75,5.57-3.1.79.15,1.53.35,2.24.53,2.29.6,3.63.89,4.37,0,.24-.31.48-.68.74-1.08,1.06-1.69,2.53-4,6.39-4.27a20.05,20.05,0,0,1,5.57.67c2.9.63,4.72.95,5.31-.38l.23-.53c1.38-3.25,4.25-10,17.74-7.5a26.78,26.78,0,0,1,19,14.6,12.58,12.58,0,0,0,5,.43c2-.12,3.94-.22,6.27,1.52,1.9,1.42,2.9,2.71,3,3.82a1.44,1.44,0,0,1-.35,1.13A.5.5,0,0,1,325.7,314.67Zm-87.71-1h87.4a.7.7,0,0,0,0-.26c-.06-.45-.47-1.45-2.58-3s-3.62-1.44-5.62-1.32a13.73,13.73,0,0,1-5.54-.54.48.48,0,0,1-.3-.29A25.73,25.73,0,0,0,293,294c-12.7-2.36-15.26,3.67-16.64,6.91l-.24.55c-.95,2.14-3.61,1.56-6.43.95a19.49,19.49,0,0,0-5.28-.66c-3.37.24-4.57,2.14-5.63,3.81a11.34,11.34,0,0,1-.8,1.17c-1.18,1.48-3.14,1-5.41.38-.68-.18-1.41-.37-2.18-.52-2.52-.5-3.45,1-4.53,2.65-.14.23-.29.46-.44.68-1.44,2.16-3.22,3.16-5,2.8A3.61,3.61,0,0,0,238,313.67Z" style="fill:#263238"></path><path d="M106.62,160.24H77.5a.5.5,0,0,1-.5-.5.5.5,0,0,1,.5-.5h28.81a1.12,1.12,0,0,0,0-.27c-.06-.45-.47-1.45-2.58-3s-3.62-1.43-5.62-1.32a13.55,13.55,0,0,1-5.54-.54.48.48,0,0,1-.3-.29,25.73,25.73,0,0,0-18.35-14.21c-12.69-2.36-15.26,3.67-16.64,6.91l-.24.54c-.95,2.14-3.61,1.57-6.43,1a19.13,19.13,0,0,0-5.29-.66c-3.36.24-4.56,2.13-5.62,3.81a14,14,0,0,1-.8,1.17c-1.18,1.47-3.14,1-5.41.37-.68-.18-1.41-.37-2.18-.52-2.52-.5-3.45,1-4.53,2.66-.14.23-.29.45-.44.68-1.44,2.16-3.23,3.15-5,2.79a3.63,3.63,0,0,0-2.41,1H67.83a.5.5,0,0,1,.5.5.5.5,0,0,1-.5.5H17.54a.5.5,0,0,1-.46-.31.51.51,0,0,1,.11-.55c.25-.25,2.5-2.43,4.32-2.07,1.38.28,2.81-.56,4-2.37.14-.21.28-.44.43-.66,1.11-1.75,2.37-3.74,5.57-3.1.79.16,1.53.35,2.24.53,2.29.6,3.63.9,4.37,0a11.85,11.85,0,0,0,.73-1.08c1.07-1.68,2.54-4,6.4-4.27a20.39,20.39,0,0,1,5.57.68c2.9.63,4.71,1,5.31-.38l.23-.53c1.38-3.25,4.26-10,17.74-7.51a26.78,26.78,0,0,1,19,14.61,13,13,0,0,0,5,.43c2-.12,3.94-.23,6.27,1.51,1.9,1.43,2.9,2.71,3,3.82a1.42,1.42,0,0,1-.35,1.13A.47.47,0,0,1,106.62,160.24Z" style="fill:#263238"></path></g><g id="freepik--Floor--inject-215"><path d="M362.31,432.18l41.37,6.89,28.15,17.24L454.24,469,465.16,477l-3.45,5.17s-43.67-6.32-45.39-6.32l-21.07,7.75L334,441Z" style="fill:#fff"></path><path d="M395.25,484.1A.47.47,0,0,1,395,484l-61.22-42.59a.49.49,0,0,1-.21-.48.48.48,0,0,1,.35-.4l28.27-8.84a.45.45,0,0,1,.23,0l41.37,6.89a.45.45,0,0,1,.18.07l28.15,17.23,22.4,12.64,11,8.07a.49.49,0,0,1,.12.68l-3.45,5.17a.48.48,0,0,1-.48.22c-14.86-2.15-43.1-6.19-45.24-6.31l-21,7.72A.47.47,0,0,1,395.25,484.1Zm-60.09-42.91L395.32,483l20.83-7.66a.47.47,0,0,1,.17,0c1.68,0,40.9,5.66,45.15,6.28l3-4.52-10.53-7.76-22.36-12.6-28.08-17.2-41.16-6.86Z" style="fill:#263238"></path><polyline points="386.82 468.07 398.36 481.38 389.49 487.15 320.28 475.17 295.44 490.25 209.82 459.64 281.25 430.81" style="fill:#fff"></polyline><path d="M295.44,490.75a.51.51,0,0,1-.17,0l-85.61-30.61a.48.48,0,0,1-.33-.46.5.5,0,0,1,.31-.47l71.42-28.83a.5.5,0,1,1,.37.92l-70.2,28.35,84.16,30.08,24.63-15a.48.48,0,0,1,.35-.06l69,11.94,8.22-5.35L386.45,468.4a.51.51,0,0,1,.05-.71.49.49,0,0,1,.7.06l11.54,13.3a.52.52,0,0,1,.11.4.51.51,0,0,1-.22.35l-8.87,5.77a.47.47,0,0,1-.36.07l-69-11.95-24.68,15A.48.48,0,0,1,295.44,490.75Z" style="fill:#263238"></path><path d="M397.24,448l-2.93-8.78,4.63,3.27s1.21-3.41,1.41-4,1,4.82,1,4.82l4.42-8.44-1.2,7,4.82-2-3,6.63h10.84l-5.62,3,8.84.4-6.63,3.82Z" style="fill:#407BFF"></path><path d="M413.81,454.24a.51.51,0,0,1-.17,0l-16.56-5.73a.49.49,0,0,1-.31-.32l-2.93-8.78a.49.49,0,0,1,.18-.56.48.48,0,0,1,.58,0l4.09,2.88c.36-1,1-2.94,1.19-3.38a.55.55,0,0,1,.55-.39c.4,0,.6.05,1.19,3.78l3.71-7.08a.5.5,0,0,1,.94.32l-1.06,6.13,4-1.66a.49.49,0,0,1,.64.67L407.15,446h10.07a.5.5,0,0,1,.24.94l-4,2.16,7,.32a.49.49,0,0,1,.46.38.5.5,0,0,1-.24.55l-6.62,3.81A.47.47,0,0,1,413.81,454.24Zm-16.17-6.63,16.12,5.58,4.94-2.84-7.12-.33a.5.5,0,0,1-.22-.94l3.87-2.07h-8.85a.5.5,0,0,1-.42-.23.48.48,0,0,1,0-.48l2.49-5.47-3.65,1.52a.48.48,0,0,1-.5-.07.45.45,0,0,1-.18-.47l.66-3.91-2.94,5.63a.5.5,0,0,1-.53.26.51.51,0,0,1-.41-.42c-.17-1.14-.37-2.36-.54-3.27l-.9,2.56a.52.52,0,0,1-.32.31.49.49,0,0,1-.44-.07l-3.39-2.39Z" style="fill:#263238"></path><path d="M311.17,410.92l24.14,4,23.55,10.35s28.73,16.08,31,16.66S419.19,454,419.19,454l6.32,11.49L374.38,477l-66.65-19.54s-28.16.57-31.6.57-39.07-29.3-41.37-30.45-6.32-25.85-6.32-25.85Z" style="fill:#fff"></path><path d="M374.38,477.5l-.15,0L307.66,458c-1.64,0-28.21.58-31.53.58-2.3,0-15.35-10.1-30.88-22.3-5.37-4.22-10-7.85-10.72-8.21-2.4-1.2-5.91-22-6.59-26.22a.53.53,0,0,1,.14-.43.51.51,0,0,1,.41-.15l82.74,9.19h0l24.13,4,.12,0,23.55,10.34c8,4.48,29.12,16.17,30.95,16.63,2.31.58,28.27,11.62,29.38,12.09a.56.56,0,0,1,.24.22L426,465.26a.55.55,0,0,1,0,.45.52.52,0,0,1-.35.28l-51.14,11.49ZM307.73,457l.14,0,66.52,19.5,50.36-11.32-5.91-10.75c-2.23-1-26.93-11.44-29.07-12-2.34-.58-30-16.05-31.15-16.71l-23.46-10.29-24.05-4L229,402.3c2,11.81,4.67,24.18,5.94,24.84.77.38,4.45,3.26,10.88,8.31,10.52,8.26,28.13,22.09,30.27,22.09,3.4,0,31.3-.57,31.59-.58Z" style="fill:#263238"></path><polygon points="254.87 394.83 296.81 394.26 316.35 410.92 320.94 422.41 293.36 418.39 238.78 395.41 254.87 394.83" style="fill:#fff"></polygon><path d="M320.94,422.91h-.07l-27.58-4-.12,0-54.58-23a.5.5,0,0,1,.17-1l16.09-.58h0l41.94-.57a.5.5,0,0,1,.33.12l19.54,16.66a.48.48,0,0,1,.14.2l4.6,11.49a.51.51,0,0,1-.08.49A.49.49,0,0,1,320.94,422.91Zm-27.44-5,26.66,3.88-4.23-10.57-19.3-16.46-41.75.57-13.82.5Z" style="fill:#263238"></path><path d="M281.87,405.68a.5.5,0,0,1-.06-1l13.4-1.68,1.1-8.8a.5.5,0,1,1,1,.12l-1.15,9.19a.51.51,0,0,1-.44.44l-13.79,1.72Z" style="fill:#263238"></path><polyline points="146.85 362.08 169.83 361.51 183.08 365.44 256.02 381.93 263.49 391.96 260.61 399.43 301.98 416.09 313.47 426.43 298.53 427.58 160.64 388.51 80.78 356.34" style="fill:#fff"></polyline><path d="M298.53,428.08a.3.3,0,0,1-.13,0L160.5,389,80.59,356.8a.5.5,0,0,1-.28-.65.5.5,0,0,1,.65-.28l79.87,32.18,137.75,39L312.27,426l-10.56-9.51-41.28-16.63a.49.49,0,0,1-.28-.64l2.77-7.21-7.19-9.66L183,365.93,169.77,362l-22.91.57a.48.48,0,0,1-.51-.48.5.5,0,0,1,.49-.52l23-.57a.36.36,0,0,1,.15,0L183.22,365l72.91,16.48a.57.57,0,0,1,.29.19l7.47,10a.51.51,0,0,1,.06.48l-2.69,7,40.91,16.48a.6.6,0,0,1,.15.09l11.49,10.34a.52.52,0,0,1,.14.54.5.5,0,0,1-.44.33l-14.94,1.15Z" style="fill:#263238"></path><path d="M230.6,395.06h-9.12a.5.5,0,0,1-.5-.5.5.5,0,0,1,.5-.5h8.93l1.48-1.31-9.44-4.95a.51.51,0,0,1-.24-.61.49.49,0,0,1,.57-.32L237,389.72l18.81-6.85a.5.5,0,1,1,.34.94l-18.94,6.9a.49.49,0,0,1-.27,0l-11-2.2,7,3.66a.5.5,0,0,1,.27.39.48.48,0,0,1-.17.43l-2.16,1.92A.51.51,0,0,1,230.6,395.06Z" style="fill:#263238"></path><polyline points="70.98 324.79 33.27 299.95 12.86 299.5" style="fill:#fff"></polyline><path d="M71,325.29a.57.57,0,0,1-.28-.08L33.12,300.44,12.85,300a.5.5,0,1,1,0-1l20.4.45a.45.45,0,0,1,.26.08l37.71,24.84a.49.49,0,0,1,.14.69A.48.48,0,0,1,71,325.29Z" style="fill:#263238"></path><polyline points="114.1 377.6 173.28 376.45 235.91 406.32 285.32 443.1 272.1 447.69 223.84 460.33 163.51 441.95" style="fill:#fff"></polyline><path d="M223.84,460.83a.39.39,0,0,1-.15,0l-60.32-18.38a.5.5,0,1,1,.29-1l60.19,18.34L272,447.21l12.28-4.28-48.65-36.2L173.17,377l-59.06,1.15h0a.51.51,0,0,1-.5-.49.49.49,0,0,1,.49-.51L173.27,376a.56.56,0,0,1,.23.05l62.62,29.87,49.5,36.83a.48.48,0,0,1,.19.47.49.49,0,0,1-.33.4l-13.21,4.6L224,460.82Z" style="fill:#263238"></path><path d="M219.58,455.71a.52.52,0,0,1-.36-.16L214,449.84,177.2,429.47a.48.48,0,0,1-.23-.59.49.49,0,0,1,.53-.34l22,2.64L220,416.83a.51.51,0,0,1,.7.13.5.5,0,0,1-.12.69l-20.67,14.46a.47.47,0,0,1-.35.08l-19.64-2.35L214.5,449l.13.1,5.32,5.77a.5.5,0,0,1,0,.71A.51.51,0,0,1,219.58,455.71Z" style="fill:#263238"></path><path d="M225.42,414.16a.5.5,0,0,1-.29-.91l10.49-7.34a.51.51,0,0,1,.7.13.5.5,0,0,1-.13.69l-10.49,7.34A.51.51,0,0,1,225.42,414.16Z" style="fill:#263238"></path><polyline points="80.2 331.06 102.61 332.21 168.11 364.38 166.96 372.43 92.27 369.55 76.75 358.06" style="fill:#fff"></polyline><path d="M167,372.93h0l-74.69-2.88A.48.48,0,0,1,92,370L76.46,358.46a.5.5,0,0,1-.11-.7.51.51,0,0,1,.7-.1l15.39,11.4,74.09,2.85,1-7.24-65.08-32-22.3-1.14a.51.51,0,0,1-.48-.53.5.5,0,0,1,.53-.47l22.4,1.15a.46.46,0,0,1,.2.05l65.5,32.17a.51.51,0,0,1,.27.52l-1.15,8.05A.5.5,0,0,1,167,372.93Z" style="fill:#263238"></path><path d="M168.11,364.88h0l-10.91-.57-.16,0L151.35,362l-9.4-.12a.5.5,0,0,1,0-1h0l9.49.12a.57.57,0,0,1,.18,0l5.67,2.27,10.84.57a.5.5,0,0,1,0,1Z" style="fill:#263238"></path><path d="M137.51,361.83h0l-32-.4a.46.46,0,0,1-.21,0L83.43,351a.49.49,0,0,1-.23-.66.5.5,0,0,1,.66-.24l21.74,10.3,31.92.39a.52.52,0,0,1,.49.51A.49.49,0,0,1,137.51,361.83Z" style="fill:#263238"></path><polyline points="26.77 323.61 48.6 313.11 56.07 313.5 88.82 336.45 69.28 350.45" style="fill:#fff"></polyline><path d="M69.29,351a.52.52,0,0,1-.41-.21.51.51,0,0,1,.11-.7l19-13.59L55.9,314l-7.2-.38L27,324.06a.49.49,0,0,1-.66-.23.5.5,0,0,1,.23-.67l21.83-10.5a.45.45,0,0,1,.25-.05l7.47.39a.43.43,0,0,1,.26.09l32.75,23a.51.51,0,0,1,.21.41.52.52,0,0,1-.21.41l-19.53,14A.53.53,0,0,1,69.29,351Z" style="fill:#263238"></path><path d="M48.6,348.62a.51.51,0,0,1-.41-.21.5.5,0,0,1,.12-.7l7.12-5.11a.51.51,0,0,1,.7.11.5.5,0,0,1-.12.7l-7.12,5.12A.52.52,0,0,1,48.6,348.62Z" style="fill:#263238"></path><path d="M59.75,340.62a.52.52,0,0,1-.41-.21.51.51,0,0,1,.11-.7l7.37-5.29L51.67,317.33a.51.51,0,0,1,0-.71.49.49,0,0,1,.7.05l15.52,17.5a.55.55,0,0,1,.12.39.5.5,0,0,1-.21.35L60,340.52A.46.46,0,0,1,59.75,340.62Z" style="fill:#263238"></path><polygon points="157.56 416.07 159.81 402.59 161.68 410.83 168.04 399.22 165.8 414.57 174.41 411.2 173.28 417.19 179.65 414.19 174.41 425.05 183.76 425.8 174.41 433.28 157.56 416.07" style="fill:#407BFF"></polygon><path d="M174.41,433.78a.51.51,0,0,1-.36-.15l-16.84-17.21a.49.49,0,0,1-.14-.44l2.25-13.47a.49.49,0,0,1,.47-.42.52.52,0,0,1,.51.39l1.58,6.95L167.6,399a.5.5,0,0,1,.6-.23.51.51,0,0,1,.34.54l-2.12,14.5,7.8-3.06a.52.52,0,0,1,.51.09.49.49,0,0,1,.17.47l-.94,5,5.47-2.58a.5.5,0,0,1,.67.67l-4.93,10.2,8.63.69a.51.51,0,0,1,.44.35.5.5,0,0,1-.16.54l-9.36,7.48A.45.45,0,0,1,174.41,433.78ZM158.1,415.9l16.35,16.71,8-6.41-8.1-.65a.54.54,0,0,1-.4-.25.49.49,0,0,1,0-.47l4.62-9.58-5.08,2.39a.51.51,0,0,1-.71-.54l1-5.11L166,415a.48.48,0,0,1-.49-.07.52.52,0,0,1-.19-.46l1.85-12.6-5,9.17a.5.5,0,0,1-.51.25.51.51,0,0,1-.42-.38l-1.31-5.76Z" style="fill:#263238"></path><polygon points="65.31 368.97 62.38 361.36 68.23 363.12 63.55 351.41 74.67 363.12 75.84 352 80.53 367.22 65.31 368.97" style="fill:#407BFF"></polygon><path d="M65.31,369.47a.5.5,0,0,1-.47-.32l-2.93-7.61A.52.52,0,0,1,62,361a.51.51,0,0,1,.51-.14l4.87,1.46-4.3-10.74a.5.5,0,0,1,.19-.61.49.49,0,0,1,.63.08L74.29,362l1.06-10.05a.49.49,0,0,1,.45-.44.5.5,0,0,1,.52.35L81,367.07a.52.52,0,0,1-.06.42.5.5,0,0,1-.36.22l-15.23,1.76Zm-2.1-7.34,2.43,6.3,14.23-1.64-3.78-12.31-.92,8.69a.5.5,0,0,1-.34.42.51.51,0,0,1-.52-.13L65,353.64l3.72,9.29a.52.52,0,0,1-.1.53.51.51,0,0,1-.51.14Z" style="fill:#263238"></path><polyline points="36.82 368.26 110.9 365.16 153.49 388.22 161.47 418.83 208.05 463.64 184.1 465.85 155.71 466.3 149.94 468.96 112.23 463.19" style="fill:#fff"></polyline><path d="M149.94,469.46h-.08l-37.7-5.76a.5.5,0,0,1-.42-.57.49.49,0,0,1,.57-.42l37.56,5.74,5.63-2.6a.45.45,0,0,1,.2,0l28.39-.45,22.83-2.11-45.79-44.05A.43.43,0,0,1,161,419l-7.93-30.4-42.28-22.9-73.94,3.1a.5.5,0,1,1,0-1l74.08-3.1a.4.4,0,0,1,.26.06l42.59,23.06a.49.49,0,0,1,.24.32l7.95,30.47,46.48,44.71a.48.48,0,0,1,.12.52.47.47,0,0,1-.42.33l-24,2.22-28.32.45-5.67,2.61A.54.54,0,0,1,149.94,469.46Z" style="fill:#263238"></path><path d="M72.75,447.72a.49.49,0,0,1-.44-.26.5.5,0,0,1,.21-.68l5.07-2.68a.5.5,0,0,1,.68.2.5.5,0,0,1-.21.68L73,447.67A.59.59,0,0,1,72.75,447.72Z" style="fill:#263238"></path><path d="M83.8,441.88a.5.5,0,0,1-.44-.27.49.49,0,0,1,.21-.67l27.54-14.56a.29.29,0,0,1,.13-.05l25.93-5.72L149,395.11a.5.5,0,0,1,.91.42l-12,25.73a.5.5,0,0,1-.35.28l-26.1,5.75L84,441.82A.46.46,0,0,1,83.8,441.88Z" style="fill:#263238"></path></g><g id="freepik--Character--inject-215"><path d="M113.09,213.84l2,.1s0,.06,0,.09l-.07,1.41a3.8,3.8,0,0,1,2.72,3.79l-.13,2.7a3.83,3.83,0,0,1-3.09,3.51l-.05,1-2-.1.05-1a3.82,3.82,0,0,1-2.73-3.8l.14-2.7a3.81,3.81,0,0,1,3.09-3.5l.07-1.41S113.09,213.87,113.09,213.84Zm1.81,3.68,0,.93a1,1,0,0,1-2-.1l0-.93a1.81,1.81,0,0,0-1,1.52l-.14,2.7a1.85,1.85,0,0,0,.83,1.62l.06-1.11a1,1,0,0,1,1-.92,1,1,0,0,1,1,1l-.06,1.11a1.83,1.83,0,0,0,1-1.53l.14-2.7A1.84,1.84,0,0,0,114.9,217.52Z" style="fill:#263238"></path><path d="M113.72,201.37l2,.1v.09l-.07,1.41a3.82,3.82,0,0,1,2.73,3.8l-.14,2.7a3.82,3.82,0,0,1-3.09,3.5l0,1-2-.1,0-1a3.81,3.81,0,0,1-2.72-3.8l.13-2.7a3.82,3.82,0,0,1,3.1-3.5l.07-1.41S113.72,201.4,113.72,201.37Zm1.81,3.68,0,.94a1,1,0,0,1-2-.1l0-.94a1.83,1.83,0,0,0-1,1.52l-.13,2.7a1.82,1.82,0,0,0,.83,1.62l.05-1.11a1,1,0,0,1,1-.92,1,1,0,0,1,1,1l-.05,1.11a1.85,1.85,0,0,0,1-1.52l.13-2.7A1.85,1.85,0,0,0,115.53,205.05Z" style="fill:#263238"></path><path d="M114.35,188.9l2,.1a.28.28,0,0,1,0,.09l-.07,1.41a3.82,3.82,0,0,1,2.72,3.8l-.13,2.7a3.81,3.81,0,0,1-3.09,3.5l-.05,1-2-.1.05-1a3.82,3.82,0,0,1-2.73-3.79l.14-2.7a3.83,3.83,0,0,1,3.09-3.51l.07-1.41A.29.29,0,0,1,114.35,188.9Zm1.8,3.69,0,.93a1,1,0,0,1-1,.91,1,1,0,0,1-1-1l0-.94a1.83,1.83,0,0,0-1,1.53l-.14,2.7a1.85,1.85,0,0,0,.83,1.61l.06-1.11a1,1,0,0,1,2,.1l-.06,1.11a1.83,1.83,0,0,0,1-1.52l.14-2.7A1.83,1.83,0,0,0,116.15,192.59Z" style="fill:#263238"></path><path d="M118,176.88l1.66,1.08a.2.2,0,0,1,0,.08l-.77,1.19a4,4,0,0,1,1,2.25,3.63,3.63,0,0,1-.08,1.23,3.47,3.47,0,0,1-.19.6c0,.08-.12.24-.11.24h0l0,1a3.8,3.8,0,0,1-3.09,3.5l0,1-2-.1,0-1a3.8,3.8,0,0,1-2.72-3.79l.15-3.08.74-1.14.37-.53a2.27,2.27,0,0,1,.24-.29,3.77,3.77,0,0,1,1.56-1,3.94,3.94,0,0,1,2.47,0L118,177Zm-.29,4.09-.51.79a.73.73,0,0,1-.57.34,1.45,1.45,0,0,1-.79-.08.73.73,0,0,1-.48-.56,1.2,1.2,0,0,1,.17-.8l.51-.78a1.85,1.85,0,0,0-1.31.45,3.73,3.73,0,0,0-.42.52l-.55.85-.12,2.54a1.81,1.81,0,0,0,.83,1.61l.05-1.11a1,1,0,0,1,2,.1l-.05,1.11a1.85,1.85,0,0,0,1-1.52l.07-1.51.19-.29a1,1,0,0,0,.11-.28,2.46,2.46,0,0,0,.08-.46A2,2,0,0,0,117.73,181Z" style="fill:#263238"></path><path d="M124.84,166.42l1.66,1.08,0,.08-.77,1.19a3.81,3.81,0,0,1,.44,4.65l-1.48,2.26a3.81,3.81,0,0,1-4.43,1.48l-.53.81L118,176.88l.52-.82a3.81,3.81,0,0,1-.44-4.65l1.48-2.26a3.79,3.79,0,0,1,4.43-1.47l.77-1.19Zm-.29,4.1-.51.78a1,1,0,0,1-1.37.26,1,1,0,0,1-.31-1.35l.51-.79a1.84,1.84,0,0,0-1.62.82l-1.48,2.27a1.83,1.83,0,0,0-.09,1.81l.61-.93a1,1,0,0,1,1.67,1.09l-.6.93a1.84,1.84,0,0,0,1.62-.82l1.47-2.26A1.81,1.81,0,0,0,124.55,170.52Z" style="fill:#263238"></path><path d="M131.65,156l1.66,1.08a.2.2,0,0,1,0,.08l-.77,1.19A3.82,3.82,0,0,1,133,163l-1.48,2.27A3.82,3.82,0,0,1,127,166.7l-.53.81-1.68-1.09.53-.82a3.82,3.82,0,0,1-.45-4.65l1.48-2.26a3.8,3.8,0,0,1,4.43-1.47l.78-1.19S131.64,156,131.65,156Zm-.29,4.1-.51.78a1,1,0,0,1-1.67-1.09l.51-.79a1.83,1.83,0,0,0-1.62.82l-1.48,2.27a1.83,1.83,0,0,0-.09,1.81l.6-.93a1,1,0,0,1,1.68,1.09l-.61.93a1.83,1.83,0,0,0,1.62-.82l1.48-2.26A1.83,1.83,0,0,0,131.36,160.06Z" style="fill:#263238"></path><path d="M138.47,145.5l1.66,1.08,0,.09-.77,1.18a3.81,3.81,0,0,1,.44,4.65l-1.47,2.27a3.83,3.83,0,0,1-4.44,1.47l-.53.81L131.65,156l.53-.81a3.82,3.82,0,0,1-.45-4.66l1.48-2.26a3.79,3.79,0,0,1,4.43-1.47l.77-1.19Zm-.29,4.1-.51.78a1,1,0,0,1-1.68-1.09l.51-.79a1.86,1.86,0,0,0-1.62.82l-1.47,2.27a1.81,1.81,0,0,0-.1,1.81l.61-.93a1,1,0,0,1,1.67,1.09l-.6.93a1.82,1.82,0,0,0,1.62-.82l1.48-2.26A1.83,1.83,0,0,0,138.18,149.6Z" style="fill:#263238"></path><path d="M145.29,135l1.66,1.09a.56.56,0,0,0,0,.08l-.77,1.18a3.82,3.82,0,0,1,.45,4.65l-1.48,2.27a3.82,3.82,0,0,1-4.43,1.47l-.53.81-1.68-1.09.53-.81a3.8,3.8,0,0,1-.44-4.65l1.47-2.27a3.82,3.82,0,0,1,4.44-1.47l.77-1.19Zm-.3,4.1-.51.78a1,1,0,0,1-1.36.26,1,1,0,0,1-.31-1.35l.51-.78a1.82,1.82,0,0,0-1.62.81l-1.48,2.27a1.83,1.83,0,0,0-.09,1.81l.6-.93a1,1,0,0,1,1.68,1.09l-.61.93a1.85,1.85,0,0,0,1.63-.81L144.9,141A1.83,1.83,0,0,0,145,139.14Z" style="fill:#263238"></path><path d="M152.1,124.58l1.66,1.09a.59.59,0,0,1,0,.08l-.77,1.18a3.82,3.82,0,0,1,.44,4.65l-1.47,2.27a3.82,3.82,0,0,1-4.44,1.47l-.53.81L145.28,135l.53-.81a3.8,3.8,0,0,1-.45-4.65l1.48-2.27a3.81,3.81,0,0,1,4.43-1.47l.77-1.18Zm-.29,4.1-.51.78a1,1,0,0,1-1.68-1.09l.51-.78a1.84,1.84,0,0,0-1.62.81L147,130.67a1.83,1.83,0,0,0-.1,1.81l.61-.93a1,1,0,0,1,1.36-.26,1,1,0,0,1,.31,1.35l-.6.93a1.83,1.83,0,0,0,1.62-.81l1.48-2.27A1.83,1.83,0,0,0,151.81,128.68Z" style="fill:#263238"></path><path d="M173.21,128l-.92,1.75-.08,0-1.3-.68a3.9,3.9,0,0,1-4.69.84l-2.47-1.29a3.9,3.9,0,0,1-2-4.32l-.89-.47.93-1.77.88.46a3.92,3.92,0,0,1,4.69-.84l2.48,1.29a3.92,3.92,0,0,1,2,4.33l1.29.68Zm-4.21.05-.85-.45a1,1,0,0,1,.92-1.77l.86.45a1.92,1.92,0,0,0-1-1.56l-2.47-1.29a1.89,1.89,0,0,0-1.86.06l1,.53a1,1,0,0,1-.93,1.77l-1-.53a1.89,1.89,0,0,0,1,1.56l2.48,1.29A1.88,1.88,0,0,0,169,128.06Z" style="fill:#263238"></path><path d="M162.91,122l.18.4h0l-1.41.64a3.9,3.9,0,0,1-2.23,4.21l-2.54,1.15a3.91,3.91,0,0,1-4.64-1.09l-.91.41-.83-1.82.91-.41a3.91,3.91,0,0,1,2.23-4.21l2.55-1.16a3.91,3.91,0,0,1,4.63,1.1h0Zm-3.19,1.94-.88.4a1,1,0,0,1-1.32-.5,1,1,0,0,1,.5-1.32l.87-.4a1.87,1.87,0,0,0-1.85-.16l-2.54,1.15a1.9,1.9,0,0,0-1.1,1.5l1-.47a1,1,0,0,1,1.33.49,1,1,0,0,1-.5,1.33l-1,.47a1.9,1.9,0,0,0,1.85.16l2.54-1.15A1.89,1.89,0,0,0,159.72,123.91Z" style="fill:#263238"></path><path d="M184.64,134l-.92,1.75-.08,0-1.3-.68a3.9,3.9,0,0,1-4.69.84l-2.48-1.29a3.9,3.9,0,0,1-2-4.32l-.89-.47.92-1.77.89.46a3.92,3.92,0,0,1,4.69-.84l2.48,1.29a3.92,3.92,0,0,1,2,4.33l1.29.68Zm-4.21.05-.85-.45a1,1,0,0,1-.43-1.34,1,1,0,0,1,1.35-.43l.86.45a1.92,1.92,0,0,0-1-1.56l-2.47-1.29a1.89,1.89,0,0,0-1.86.06l1,.53a1,1,0,0,1,.43,1.34,1,1,0,0,1-1.35.43l-1-.53a1.92,1.92,0,0,0,1,1.56l2.47,1.29A1.89,1.89,0,0,0,180.43,134Z" style="fill:#263238"></path><path d="M194.54,142.54,193.15,144l-.07-.06-1.05-1a3.91,3.91,0,0,1-4.73-.55l-2-1.95a3.9,3.9,0,0,1-.7-.94c0-.09-.09-.17-.13-.26s-.09-.2-.05-.21a2,2,0,0,0,.14-.26,2.32,2.32,0,0,0,.12-.44c0-.19-.11-.44-.13-.66a3.67,3.67,0,0,1,.06-1.4l-.89-.47.92-1.77.89.46a3.86,3.86,0,0,1,1.12-.85,2.21,2.21,0,0,1,.67-.24,5.92,5.92,0,0,1,1.08.07,6.36,6.36,0,0,1,.83.41,2.26,2.26,0,0,0,.33.16,1.51,1.51,0,0,1,.26.12,3.86,3.86,0,0,1,1,.68l2,1.95a3.92,3.92,0,0,1,.66,4.72l1,1Zm-4-1.17-.68-.68a1,1,0,0,1,0-1.41,1,1,0,0,1,1.41,0l.69.68a1.91,1.91,0,0,0-.52-1.79l-2-2a1.93,1.93,0,0,0-1.8-.48l.82.8A1,1,0,0,1,187,138l-.82-.8a1.92,1.92,0,0,0,.52,1.79l2,1.95A1.9,1.9,0,0,0,190.49,141.37Z" style="fill:#263238"></path><path d="M203.75,151.55,202.37,153a.2.2,0,0,1-.07-.06l-1.05-1a3.91,3.91,0,0,1-4.73-.55l-2-2a3.92,3.92,0,0,1-.66-4.72l-.72-.7,1.4-1.43.72.7a3.91,3.91,0,0,1,4.73.55l2,1.95a3.92,3.92,0,0,1,.66,4.72l1,1Zm-4-1.17-.69-.68a1,1,0,0,1,1.4-1.43l.69.68a1.91,1.91,0,0,0-.52-1.79l-2-1.95a1.9,1.9,0,0,0-1.79-.48l.82.8a1,1,0,0,1,0,1.42,1,1,0,0,1-1.41,0l-.82-.8a1.91,1.91,0,0,0,.52,1.79l2,2A1.9,1.9,0,0,0,199.71,150.38Z" style="fill:#263238"></path><path d="M213,160.56,211.59,162l-.08-.06-1-1a3.92,3.92,0,0,1-4.74-.55l-2-2a3.91,3.91,0,0,1-.66-4.72l-.72-.7,1.4-1.43.72.7a3.91,3.91,0,0,1,4.73.55l2,2a3.91,3.91,0,0,1,.67,4.72l1,1Zm-4-1.17-.69-.67a1,1,0,1,1,1.4-1.44l.69.68a1.91,1.91,0,0,0-.52-1.79l-2-1.95a1.91,1.91,0,0,0-1.8-.48l.82.8a1,1,0,1,1-1.4,1.43l-.81-.8a1.91,1.91,0,0,0,.52,1.79l2,1.95A1.92,1.92,0,0,0,208.93,159.39Z" style="fill:#263238"></path><path d="M222.19,169.57,220.8,171l-.07,0-1-1a3.92,3.92,0,0,1-4.74-.55l-2-1.95a3.91,3.91,0,0,1-.67-4.72l-.71-.7,1.4-1.43.71.7a3.92,3.92,0,0,1,4.74.55l2,1.95a3.89,3.89,0,0,1,.66,4.72l1,1Zm-4-1.17-.69-.67a1,1,0,1,1,1.4-1.43l.68.67a1.91,1.91,0,0,0-.52-1.79l-2-2a1.92,1.92,0,0,0-1.8-.48l.82.8a1,1,0,0,1,0,1.42,1,1,0,0,1-1.41,0l-.82-.8a1.91,1.91,0,0,0,.52,1.79l2,1.95A1.91,1.91,0,0,0,218.15,168.4Z" style="fill:#263238"></path><path d="M231.41,178.58,230,180l-.07-.05-1-1a3.91,3.91,0,0,1-4.73-.55l-2-2a3.92,3.92,0,0,1-.66-4.72l-.71-.7,1.39-1.43.72.7a3.91,3.91,0,0,1,4.73.55l2,2a3.91,3.91,0,0,1,.66,4.71l1,1Zm-4-1.17-.69-.67a1,1,0,0,1,0-1.42,1,1,0,0,1,1.41,0l.69.67a1.89,1.89,0,0,0-.52-1.78l-2-2a1.9,1.9,0,0,0-1.79-.48l.82.8a1,1,0,0,1,0,1.42,1,1,0,0,1-1.41,0l-.82-.8a1.91,1.91,0,0,0,.52,1.79l2,2A1.9,1.9,0,0,0,227.36,177.41Z" style="fill:#263238"></path><path d="M240.62,187.59,239.24,189l-.08-.06-1-1a3.91,3.91,0,0,1-4.73-.56l-2-2a3.92,3.92,0,0,1-.66-4.72L230,180l1.4-1.43.72.7a3.91,3.91,0,0,1,4.73.55l2,2a3.92,3.92,0,0,1,.66,4.72l1,1A.2.2,0,0,1,240.62,187.59Zm-4-1.17-.69-.67a1,1,0,0,1,0-1.42,1,1,0,0,1,1.41,0l.69.67a1.9,1.9,0,0,0-.52-1.78l-2-2a1.93,1.93,0,0,0-1.79-.48l.81.8a1,1,0,1,1-1.39,1.43l-.82-.8a1.91,1.91,0,0,0,.52,1.79l2,1.95A1.88,1.88,0,0,0,236.58,186.42Z" style="fill:#263238"></path><path d="M249.84,196.6,248.46,198l-.08-.06-1-1a3.92,3.92,0,0,1-4.74-.56l-2-1.95a3.89,3.89,0,0,1-.66-4.72l-.72-.7,1.4-1.43.71.7a3.91,3.91,0,0,1,4.74.56l2,1.95a3.91,3.91,0,0,1,.67,4.72l1,1Zm-4-1.17-.69-.67a1,1,0,1,1,1.4-1.43l.69.67a1.9,1.9,0,0,0-.52-1.78l-2-1.95a1.89,1.89,0,0,0-1.8-.48l.82.8a1,1,0,0,1,0,1.41,1,1,0,0,1-1.42,0l-.81-.8A1.9,1.9,0,0,0,242,193l2,1.95A1.9,1.9,0,0,0,245.8,195.43Z" style="fill:#263238"></path><path d="M259.06,205.61,257.67,207l-.07-.06-1-1a3.92,3.92,0,0,1-4.74-.56l-2-1.95a3.91,3.91,0,0,1-.67-4.72l-.71-.7,1.4-1.43.71.7a3.91,3.91,0,0,1,4.74.56l2,2a3.9,3.9,0,0,1,.66,4.72l1.05,1Zm-4-1.17-.69-.67a1,1,0,0,1,1.39-1.43l.69.67a1.9,1.9,0,0,0-.52-1.78l-2-1.95a1.9,1.9,0,0,0-1.8-.48l.82.8a1,1,0,0,1-1.4,1.43l-.82-.8a1.9,1.9,0,0,0,.52,1.78l2,2A1.89,1.89,0,0,0,255,204.44Z" style="fill:#263238"></path><path d="M268.27,214.62,266.89,216l-.07-.06-1.05-1a3.91,3.91,0,0,1-4.73-.56l-2-2a3.92,3.92,0,0,1-.66-4.72l-.71-.7,1.39-1.43.72.7a3.89,3.89,0,0,1,4.73.56l2,1.95a3.92,3.92,0,0,1,.66,4.72l1,1S268.25,214.6,268.27,214.62Zm-4-1.17-.69-.67a1,1,0,0,1,1.4-1.43l.69.67a1.9,1.9,0,0,0-.52-1.78l-2-2a1.88,1.88,0,0,0-1.79-.48l.82.8a1,1,0,0,1-1.4,1.43l-.82-.8a1.9,1.9,0,0,0,.52,1.78l2,1.95A1.88,1.88,0,0,0,264.23,213.45Z" style="fill:#263238"></path><path d="M277.49,223.63l-1.38,1.42L276,225l-1-1a3.89,3.89,0,0,1-4.73-.56l-2-1.95a3.92,3.92,0,0,1-.66-4.72l-.72-.7,1.4-1.43.72.7a3.91,3.91,0,0,1,4.73.56l2,1.95a3.92,3.92,0,0,1,.66,4.72l1,1Zm-4-1.17-.69-.67a1,1,0,0,1,1.4-1.43l.69.67a1.9,1.9,0,0,0-.52-1.78l-2-1.95a1.88,1.88,0,0,0-1.79-.48l.81.8a1,1,0,1,1-1.39,1.43l-.82-.8a1.9,1.9,0,0,0,.52,1.78l2,1.95A1.9,1.9,0,0,0,273.45,222.46Z" style="fill:#263238"></path><path d="M286.71,232.64l-1.39,1.42-.07-.06-1-1a3.91,3.91,0,0,1-4.74-.56l-2-1.95a3.89,3.89,0,0,1-.66-4.72l-.72-.7,1.4-1.43.71.7a3.92,3.92,0,0,1,4.74.56l2,2a3.91,3.91,0,0,1,.67,4.72l1,1Zm-4-1.17-.69-.67a1,1,0,1,1,1.4-1.43l.69.67a1.9,1.9,0,0,0-.52-1.78l-2-1.95a1.9,1.9,0,0,0-1.8-.48l.82.8a1,1,0,0,1,0,1.41,1,1,0,0,1-1.42,0l-.82-.8a1.91,1.91,0,0,0,.53,1.78l2,2A1.9,1.9,0,0,0,282.67,231.47Z" style="fill:#263238"></path><path d="M295.93,241.65l-1.39,1.42-.07-.06-1.05-1a3.91,3.91,0,0,1-4.73-.55l-2-2a3.92,3.92,0,0,1-.66-4.72l-.71-.7,1.4-1.43.71.7a3.91,3.91,0,0,1,4.73.56l2,2a3.9,3.9,0,0,1,.66,4.72l1.05,1Zm-4-1.17-.69-.67a1,1,0,1,1,1.39-1.43l.69.67a1.9,1.9,0,0,0-.52-1.78l-2-2a1.9,1.9,0,0,0-1.8-.48l.82.8a1,1,0,0,1-1.4,1.43l-.82-.8a1.9,1.9,0,0,0,.52,1.78l2,1.95A1.89,1.89,0,0,0,291.89,240.48Z" style="fill:#263238"></path><path d="M305.14,250.66l-1.38,1.42-.07-.06-1.05-1a3.91,3.91,0,0,1-4.73-.55l-2-2a3.92,3.92,0,0,1-.66-4.72l-.71-.69,1.39-1.43.72.69a3.91,3.91,0,0,1,4.73.56l2,1.95a3.92,3.92,0,0,1,.66,4.72l1,1S305.12,250.64,305.14,250.66Zm-4-1.16-.69-.68a1,1,0,0,1,1.4-1.43l.69.68a1.91,1.91,0,0,0-.52-1.79l-2-1.95a1.88,1.88,0,0,0-1.79-.48l.82.8a1,1,0,0,1-1.4,1.43l-.82-.8a1.9,1.9,0,0,0,.52,1.78l2,2A1.93,1.93,0,0,0,301.1,249.5Z" style="fill:#263238"></path><path d="M314.36,259.67,313,261.09l-.08-.06-1-1a3.91,3.91,0,0,1-4.73-.55l-2-2a3.89,3.89,0,0,1-.66-4.71l-.72-.7,1.4-1.43.72.7a3.91,3.91,0,0,1,4.73.55l2,2a3.92,3.92,0,0,1,.66,4.72l1,1Zm-4-1.16-.69-.68a1,1,0,0,1,1.4-1.43l.69.68a1.91,1.91,0,0,0-.52-1.79l-2-1.95a1.9,1.9,0,0,0-1.79-.48l.81.8a1,1,0,1,1-1.39,1.43l-.82-.8a1.89,1.89,0,0,0,.52,1.78l2,2A1.92,1.92,0,0,0,310.32,258.51Z" style="fill:#263238"></path><rect x="311.2" y="257.88" width="16.8" height="16.6" transform="translate(-94.16 308.65) rotate(-45.65)" style="fill:#263238"></rect><circle cx="383.81" cy="336.71" r="92.36" transform="translate(-125.67 370.01) rotate(-45)" style="fill:#263238"></circle><path d="M383.81,429.57a92.86,92.86,0,1,1,92.86-92.86A93,93,0,0,1,383.81,429.57Zm0-184.72a91.86,91.86,0,1,0,91.86,91.86A92,92,0,0,0,383.81,244.85Z" style="fill:#263238"></path><path d="M441.43,404.72a.52.52,0,0,1-.38-.17.51.51,0,0,1,.06-.71,88.29,88.29,0,0,0,17.5-114,.49.49,0,0,1,.16-.68.5.5,0,0,1,.69.15,89.29,89.29,0,0,1-17.7,115.29A.52.52,0,0,1,441.43,404.72Z" style="fill:#fff"></path><path d="M411.16,421.67a.48.48,0,0,1-.47-.34.49.49,0,0,1,.32-.63,88.39,88.39,0,0,0,17.71-8,.51.51,0,0,1,.69.18.5.5,0,0,1-.18.68,89,89,0,0,1-17.91,8.09A.47.47,0,0,1,411.16,421.67Z" style="fill:#fff"></path><path d="M442.33,364.74h0a10.39,10.39,0,0,1-11.52,5.61,10.29,10.29,0,0,1-1,6A10.4,10.4,0,0,1,418.33,382a10.33,10.33,0,0,1-1,6h0a10.4,10.4,0,0,1-13.91,4.78l-24.75-12.08-17.6-8.6L350.66,367l26.59-54.44h0s3.53-6.65,15.52-10.32,21.27-7.51,24.43-17.1c3.32-10.1,17-5.65,14.64,8.17-2.14,12.63-9.78,22.44-17,28.74l27.09,13.23a10.4,10.4,0,0,1,4.78,13.91h0a10.33,10.33,0,0,1-5.23,5A10.37,10.37,0,0,1,442.33,364.74Z" style="fill:#fff"></path><path d="M341,294.25l-26.59,54.44,28.05,13.7L369,307.94ZM337.12,353a4.59,4.59,0,1,1,6.14-2.11A4.58,4.58,0,0,1,337.12,353Z" style="fill:#fff"></path><path d="M113.79,302.94a.51.51,0,0,1-.5-.43l-3.2-21.9a.49.49,0,0,1,.42-.56.51.51,0,0,1,.57.42l3.2,21.9a.51.51,0,0,1-.42.57Z" style="fill:#263238"></path><path d="M107.91,290.12a.5.5,0,0,1-.49-.39l-3.2-14.42a.5.5,0,1,1,1-.22l3.21,14.42a.5.5,0,0,1-.38.6Z" style="fill:#263238"></path><path d="M218,267.15h-.08a.51.51,0,0,1-.42-.57l4.81-31a.5.5,0,0,1,.57-.41.51.51,0,0,1,.42.57l-4.81,31A.49.49,0,0,1,218,267.15Z" style="fill:#263238"></path><path d="M221.69,276.23h-.09a.51.51,0,0,1-.41-.58L224.4,257a.51.51,0,0,1,.58-.41.5.5,0,0,1,.4.58l-3.2,18.7A.49.49,0,0,1,221.69,276.23Z" style="fill:#263238"></path><path d="M119.34,319.58l-13.71,8S92.82,329,92.31,329.48A3.42,3.42,0,0,0,92.1,333c.77,1,12.68,5.27,16.7,6.78s29.26,4.68,30,4.24,1.62-3.59,2-5.1.42-11.4.42-11.4Z" style="fill:#fff"></path><path d="M138.24,344.53c-4.53,0-26.44-3.09-29.62-4.29l-2.21-.82c-9-3.35-14.07-5.32-14.7-6.11a3.81,3.81,0,0,1,.26-4.19c.41-.4,5-1.08,13.5-2.05l13.62-7.92a.5.5,0,0,1,.43,0l21.78,7.94a.5.5,0,0,1,.33.47c0,.41-.08,10-.43,11.51,0,.19-1.09,4.73-2.18,5.42A2.24,2.24,0,0,1,138.24,344.53Zm-18.85-24.4L105.88,328a.44.44,0,0,1-.19.07c-4.69.52-12.39,1.49-13.1,1.83a3.12,3.12,0,0,0-.1,2.8c.72.77,10.21,4.29,14.27,5.79l2.21.83c4,1.51,27.68,4.43,29.56,4.25a15.82,15.82,0,0,0,1.69-4.75c.26-1.15.38-8,.4-10.94Zm-13.76,7.43h0Z" style="fill:#263238"></path><path d="M138.24,344.53c-4.53,0-26.44-3.09-29.62-4.29l-2.21-.82c-9-3.35-14.07-5.32-14.7-6.11a3,3,0,0,1-.5-2,.5.5,0,0,1,.66-.44l21.45,7.23,27.1,1.54a.49.49,0,0,1,.38.21.48.48,0,0,1,.08.42c-.67,2.41-1.3,3.81-1.86,4.17A2.24,2.24,0,0,1,138.24,344.53Zm-46-12.47a1.35,1.35,0,0,0,.26.63c.71.77,10.2,4.29,14.26,5.79l2.21.83c4,1.51,27.65,4.42,29.56,4.25a9.42,9.42,0,0,0,1.21-2.95L113.2,339.1l-.13,0Z" style="fill:#263238"></path><path d="M212.11,351.81l-9,10.84s-9.78,1.14-10,2.08-1.13,2.32-.46,2.87,15.85,4.4,17.55,4.79,23.19-5.22,24.22-5.39,2.33-.65,2.15-2.48-3.11-7.25-3.11-7.25Z" style="fill:#fff"></path><path d="M210.4,372.9l-.32,0c-.72-.17-16.9-4.2-17.74-4.89s-.34-1.68,0-2.53a6,6,0,0,0,.29-.84c.08-.35.29-1.27,10.22-2.45l8.88-10.68a.5.5,0,0,1,.51-.16l21.36,5.46a.46.46,0,0,1,.31.25c.12.22,3,5.53,3.17,7.43.09,1-.12,2.64-2.58,3-.23,0-1.91.45-4,1C219.51,371.2,212.25,372.9,210.4,372.9Zm-16.83-8a6.75,6.75,0,0,1-.31.89c-.18.46-.48,1.23-.29,1.38.88.54,15.16,4.2,17.34,4.69,1.19.24,14.31-3,19.91-4.39,2.59-.65,3.85-1,4.12-1,1.31-.21,1.84-.8,1.73-1.94-.13-1.36-2.08-5.24-2.95-6.87l-20.83-5.32L203.48,363a.48.48,0,0,1-.32.18C199,363.62,194.27,364.44,193.57,364.94Zm0-.1Zm9.5-2.19h0Z" style="fill:#263238"></path><path d="M192.65,367.6c.67.55,15.85,4.4,17.55,4.79s23.19-5.22,24.22-5.39,2.33-.65,2.15-2.48a10.6,10.6,0,0,0-.8-2.49l-24.54,8.42-18.12-5.72C192.89,365.67,192,367.05,192.65,367.6Z" style="fill:#fff"></path><path d="M210.4,372.9l-.32,0c-.72-.17-16.9-4.2-17.74-4.89s-.34-1.68,0-2.53a6,6,0,0,0,.29-.84.49.49,0,0,1,.24-.32.51.51,0,0,1,.4-.05l18,5.67,24.38-8.36a.49.49,0,0,1,.62.28,10.59,10.59,0,0,1,.84,2.63c.09,1-.12,2.64-2.58,3-.23,0-1.91.45-4,1C219.51,371.2,212.25,372.9,210.4,372.9ZM193,367.2c1,.58,15.18,4.21,17.35,4.7,1.19.24,14.31-3,19.91-4.39,2.59-.65,3.85-1,4.12-1,1.31-.21,1.84-.8,1.73-1.94a7.65,7.65,0,0,0-.59-1.91l-24.08,8.26a.58.58,0,0,1-.32,0l-17.64-5.56-.18.47C193.08,366.28,192.79,367,193,367.2Z" style="fill:#263238"></path><path d="M134.62,166.17s6.36,2.44,8.2,3,15.76,4.58,15.76,4.58l1.93,13.95-30.86-14.94-3.08-.21,5.1-9.38Z" style="fill:#fff"></path><path d="M160.51,188.22a.59.59,0,0,1-.22-.05l-30.77-14.9-3-.2a.5.5,0,0,1-.41-.26.51.51,0,0,1,0-.48l5.1-9.38a.51.51,0,0,1,.8-.11l2.87,2.9c.82.32,6.39,2.44,8.08,3s15.6,4.53,15.74,4.57a.51.51,0,0,1,.36.41l1.93,14a.51.51,0,0,1-.2.47A.47.47,0,0,1,160.51,188.22Zm-33.13-16.09,2.31.15a.61.61,0,0,1,.18.05l30,14.53-1.76-12.7c-2.12-.61-13.76-3.95-15.46-4.49s-8-2.93-8.23-3a.57.57,0,0,1-.18-.12l-2.47-2.5Z" style="fill:#263238"></path><path d="M125.48,157.83s-6.59,10.85-5.9,12.16,5.59,4.4,6.7,3.84,7.32-9.7,7.29-11-6-6-6-6A2.12,2.12,0,0,0,125.48,157.83Z" style="fill:#fff"></path><path d="M126,174.38c-2,0-6.2-3-6.82-4.15-.72-1.36,3.39-8.5,5.9-12.65a2.61,2.61,0,0,1,2.54-1.26.46.46,0,0,1,.25.1c1.87,1.44,6.21,5,6.24,6.37,0,1.6-6.32,10.85-7.56,11.48A1.18,1.18,0,0,1,126,174.38Zm1.37-17.08a1.53,1.53,0,0,0-1.4.76l0,0c-3,4.93-6.09,10.8-5.88,11.7.69,1.29,5.33,3.91,6,3.59,1.08-.58,7-9.47,7-10.57,0-.67-3-3.36-5.73-5.51Zm-1.85.53h0Z" style="fill:#263238"></path><path d="M132,166.57a.46.46,0,0,1-.29-.1L124,160.75a.5.5,0,0,1-.1-.7.48.48,0,0,1,.69-.1l7.76,5.72a.51.51,0,0,1,.11.7A.51.51,0,0,1,132,166.57Z" style="fill:#263238"></path><path d="M130.39,169.33a.48.48,0,0,1-.26-.07L122,164.44a.5.5,0,0,1,.51-.86l8.13,4.82a.5.5,0,0,1,.18.68A.51.51,0,0,1,130.39,169.33Z" style="fill:#263238"></path><path d="M133.57,162.8s-3.64,6.59-2.65,7.3a2.35,2.35,0,0,0,3.42-.53c.79-1.31,2.23-3.29,2.24-4.77S133.57,162.8,133.57,162.8Z" style="fill:#fff"></path><path d="M132.46,171.1a3.12,3.12,0,0,1-1.83-.59c-.9-.65,0-3.32,2.5-7.95a.5.5,0,0,1,.53-.25c.35.06,3.43.65,3.42,2.5,0,1.38-1.05,3-1.89,4.33-.15.24-.3.47-.42.68a2.58,2.58,0,0,1-1.74,1.23A2.69,2.69,0,0,1,132.46,171.1Zm1.37-7.73c-1.62,3-2.78,5.86-2.56,6.39a2.22,2.22,0,0,0,1.57.31,1.64,1.64,0,0,0,1.07-.76c.13-.22.28-.46.44-.7.72-1.15,1.72-2.71,1.73-3.81C136.08,164.1,134.73,163.58,133.83,163.37Z" style="fill:#263238"></path><path d="M128.23,172.3a.53.53,0,0,1-.24-.06L120.07,168a.49.49,0,0,1-.2-.67.49.49,0,0,1,.67-.21l7.93,4.28a.5.5,0,0,1-.24.94Z" style="fill:#263238"></path><path d="M172.25,210.91l-3.47,4.76.93,3.78S113.8,238.63,113.66,241s7,70.18,7,70.18l-4,.88-.09,9.1,23.8,7.8s2.09-7.45,2.33-9.38-4.4-8.54-4.4-8.54l5.09-54.54,39-4.8s2.48,42.19,3.89,44.69S213,349.45,213,349.45s-3-.88-2.91-.27,1.26,4.05,1.26,4.05,18.25,5.15,19.38,5.41l4.52,1s0-3.37.05-4.55-3.54-5.36-3.54-5.36l-22.19-61,7-49.14,3.2-21.87Z" style="fill:#263238"></path><path d="M235.29,360.17h-.11l-4.52-1c-1.13-.26-18.66-5.2-19.41-5.41a.5.5,0,0,1-.33-.32,40.21,40.21,0,0,1-1.29-4.17.66.66,0,0,1,.23-.56c.13-.11.48-.39,2.24,0-3.56-7.09-25-49.79-26.26-52.06-1.38-2.45-3.55-38.13-3.92-44.38l-38,4.69-5,54c.81,1.17,4.62,6.78,4.38,8.73s-2.27,9.15-2.35,9.45a.49.49,0,0,1-.25.31.48.48,0,0,1-.39,0l-23.79-7.8a.5.5,0,0,1-.35-.48l.09-9.09a.5.5,0,0,1,.39-.49l3.53-.78c-.67-6.37-7.09-67.54-7-69.82,0-.67.11-1.8,28.41-12.09,12.47-4.53,25.08-8.88,27.54-9.73l-.81-3.34a.47.47,0,0,1,.08-.41l3.46-4.76a.48.48,0,0,1,.48-.2l47.59,6.87a.52.52,0,0,1,.43.57l-3.2,21.87-7,49,22.12,60.75c.94,1.1,3.67,4.4,3.6,5.65s-.05,4.48-.05,4.52a.48.48,0,0,1-.18.39A.52.52,0,0,1,235.29,360.17Zm-23.52-7.34c2.21.62,18.08,5.09,19.11,5.32l3.91.89c0-1,0-3.07.05-4,0-.58-1.74-3-3.42-5a.54.54,0,0,1-.09-.15l-22.19-61a.39.39,0,0,1,0-.24l7-49.14,3.12-21.38-46.8-6.76-3.15,4.33.87,3.55a.5.5,0,0,1-.32.59c-21.54,7.39-54,19.07-55.71,21.17,0,2.76,4.56,46.84,7,70a.52.52,0,0,1-.39.54l-3.58.79-.09,8.34,23,7.52c.48-1.7,2-7.22,2.18-8.8.16-1.27-2.56-5.7-4.31-8.19a.49.49,0,0,1-.09-.33l5.09-54.55a.5.5,0,0,1,.44-.44l39-4.81a.53.53,0,0,1,.38.11.54.54,0,0,1,.18.36c1,16.91,2.83,42.72,3.83,44.48,1.4,2.48,25.73,51,26.77,53.1a.5.5,0,0,1-.59.7,12,12,0,0,0-2.2-.46C210.89,350.17,211.38,351.68,211.77,352.83Z" style="fill:#263238"></path><path d="M206.26,245.63a.5.5,0,0,1-.27-.92c1.6-1,3.27-2.13,3.27-2.13a.51.51,0,0,1,.7.14.5.5,0,0,1-.14.69s-1.68,1.13-3.29,2.14A.56.56,0,0,1,206.26,245.63Z" style="fill:#fff"></path><path d="M186.73,251.38a.5.5,0,0,1-.49-.39.49.49,0,0,1,.38-.59c.11,0,11.15-2.54,15.54-3.82a.5.5,0,0,1,.28,1c-4.42,1.29-15.49,3.8-15.6,3.83Z" style="fill:#fff"></path><path d="M142.11,256.68a.45.45,0,0,1-.16,0L123.2,250.2a.5.5,0,0,1-.31-.63.5.5,0,0,1,.64-.31l18.74,6.45a.5.5,0,0,1-.16,1Z" style="fill:#fff"></path><path d="M136.09,298.7a1.43,1.43,0,0,1-.29,0c-.46-.11-1.16-.27-9.39-20.67a.5.5,0,0,1,.93-.38c6.67,16.54,8.35,19.59,8.77,20.08.54,0,1.47-1.38,2-2.67a.5.5,0,1,1,.92.38C138.8,296,137.6,298.7,136.09,298.7Zm.07-.95Z" style="fill:#fff"></path><path d="M125.07,273.8a.47.47,0,0,1-.46-.31c-2.08-5.2-3.61-9.15-3.61-9.15a.49.49,0,0,1,.28-.64.5.5,0,0,1,.65.28s1.53,3.94,3.61,9.14a.51.51,0,0,1-.28.65A.63.63,0,0,1,125.07,273.8Z" style="fill:#fff"></path><path d="M132.85,307.9a.54.54,0,0,1-.34-.12c-.67-.56-4.23-10.2-6.3-15.89a.5.5,0,0,1,.3-.64.49.49,0,0,1,.64.3c2,5.62,5.47,14.8,6,15.49a.47.47,0,0,1,0,.68A.49.49,0,0,1,132.85,307.9Z" style="fill:#fff"></path><path d="M226.65,341.55a.48.48,0,0,1-.37-.17c-2-2.27-14.62-15.43-22-23.06a.51.51,0,0,1,0-.71.5.5,0,0,1,.71,0c7.35,7.65,20,20.81,22,23.1a.51.51,0,0,1-.05.71A.5.5,0,0,1,226.65,341.55Z" style="fill:#fff"></path><path d="M201.84,315.52a.51.51,0,0,1-.36-.15l-1.75-1.83a.49.49,0,0,1,0-.7.5.5,0,0,1,.71,0l1.76,1.82a.5.5,0,0,1,0,.71A.52.52,0,0,1,201.84,315.52Z" style="fill:#fff"></path><path d="M227.62,345.14a.43.43,0,0,1-.25-.07l-8.93-5.2a.5.5,0,0,1,.5-.86l8.93,5.2a.5.5,0,0,1-.25.93Z" style="fill:#fff"></path><path d="M190.34,219.89a.58.58,0,0,1-.19,0c-7.57-3.07-17.18-1.22-17.28-1.2a.51.51,0,0,1-.59-.4.5.5,0,0,1,.4-.58c.4-.08,10-1.93,17.84,1.25a.5.5,0,0,1,.28.65A.49.49,0,0,1,190.34,219.89Z" style="fill:#fff"></path><path d="M189.75,223.33a.46.46,0,0,1-.33-.13c-1.15-1-5.46-2.6-7-3.12a.51.51,0,0,1-.32-.63.5.5,0,0,1,.64-.32c.23.08,5.82,1.94,7.37,3.33a.49.49,0,0,1,0,.7A.48.48,0,0,1,189.75,223.33Z" style="fill:#fff"></path><path d="M139.72,147.4s13.85,28.85,17.36,34.43,11.55,19.43,11.91,20,.1,8.26.66,9.37,3.44,2.27,4.38,2.48,32.83,4.85,37.53,5.92,8.46,1.92,9.42-.16a26.24,26.24,0,0,0,2-7.45c-.06-1.17-3.35-12.78-3.35-12.78s-13.84-39.73-18.55-46.56-18.45-18-23-19.9-23.91-8.57-23.91-8.57Z" style="fill:#407BFF"></path><path d="M218.19,221.22a34.11,34.11,0,0,1-6.74-1.13c-3.23-.73-19.66-3.2-29.48-4.68-5.09-.76-7.75-1.16-8.05-1.23-.76-.17-4-1.35-4.71-2.74-.34-.67-.41-2.73-.48-5.8a29.36,29.36,0,0,0-.18-3.58c-.07-.1-.62-1-1.45-2.45-2.53-4.32-7.8-13.31-10.45-17.52-3.48-5.53-16.82-33.29-17.38-34.47a.5.5,0,0,1,0-.49l14.52-23.21a.49.49,0,0,1,.58-.21c.2.07,19.46,6.75,23.94,8.59s18.44,13.16,23.2,20.07,18,45.06,18.61,46.68c.34,1.22,3.3,11.74,3.37,12.92a26.45,26.45,0,0,1-2.07,7.69C220.9,220.81,219.76,221.22,218.19,221.22Zm-77.9-73.79c1.36,2.84,13.93,28.92,17.21,34.13,2.66,4.23,7.93,13.22,10.46,17.55l1.45,2.46c.21.33.26,1.11.32,4a29.49,29.49,0,0,0,.37,5.38c.45.88,3.09,2,4,2.22.27.06,3.67.57,8,1.21,9.83,1.48,26.28,4,29.55,4.7,4.33,1,8.06,1.84,8.86.12a25.85,25.85,0,0,0,2-7.21c0-.82-2-8-3.33-12.68-.13-.37-13.87-39.71-18.48-46.41S182.4,135.05,178,133.22c-4.11-1.68-20.78-7.48-23.51-8.43Z" style="fill:#263238"></path><path d="M120.68,97.93s-4.78,6.49-4.75,7.81a8.48,8.48,0,0,0,.32,2.22s-5.83,8.22-5.5,9,4,4,4,4-.84,10.19-.3,11.46,5,2,5,2h4.28l13.42,9.81,13.37-19.68-2.88-5.44s8.27-11,8.6-15.33-4.46-12.22-10-16.12S131,82.48,121.7,85.48s-9.22,4.32-7,4.82,3.64.67,3.64.67-2.35,3.08-1.54,4.59S120.68,97.93,120.68,97.93Z" style="fill:#fff"></path><path d="M137.16,144.68a.47.47,0,0,1-.3-.1l-13.28-9.71h-4.12c-.87-.12-4.84-.8-5.46-2.26-.52-1.27.08-9.28.25-11.45-1-1-3.63-3.33-4-4-.12-.27-.43-1,5.42-9.26a9.08,9.08,0,0,1-.28-2.11c0-1.25,3-5.58,4.44-7.56-1-.36-2.88-1.16-3.54-2.4s.4-3.36,1.1-4.44c-.64-.1-1.64-.28-2.87-.56-.38-.09-1.56-.36-1.59-1.24s1-2.07,8.58-4.55c9-2.9,19-2,25,2.2,5.6,4,10.56,12,10.21,16.57-.32,4.14-7.23,13.62-8.51,15.34l2.74,5.15a.54.54,0,0,1,0,.52l-13.38,19.68a.52.52,0,0,1-.33.21Zm-13.42-10.81a.54.54,0,0,1,.3.1l13,9.5,12.92-19-2.74-5.17a.53.53,0,0,1,0-.54c.09-.11,8.18-10.9,8.51-15.07S151.33,91.8,146,88c-5.76-4-15.44-4.88-24.11-2.07-7.35,2.39-7.86,3.42-7.89,3.56h0a2.1,2.1,0,0,0,.81.3,36.09,36.09,0,0,0,3.59.66.5.5,0,0,1,.34.8c-.83,1.09-2,3.16-1.5,4,.58,1.08,2.8,1.9,3.6,2.13a.48.48,0,0,1,.34.32.51.51,0,0,1-.07.46c-2.25,3-4.66,6.79-4.65,7.5a7.67,7.67,0,0,0,.3,2.07.55.55,0,0,1-.07.45c-2.54,3.58-5.21,7.68-5.41,8.54a40.38,40.38,0,0,0,3.85,3.8.5.5,0,0,1,.17.41c-.4,4.88-.66,10.48-.34,11.23s2.59,1.35,4.6,1.66l4.21,0Z" style="fill:#263238"></path><path d="M146.25,87.61c-5.53-3.89-15.3-5.13-24.55-2.13s-9.22,4.32-7,4.82,3.64.67,3.64.67-2.35,3.08-1.54,4.59,3.91,2.37,3.91,2.37a76.39,76.39,0,0,0,8.88,0c2.22-.32-2,3.66-.81,5.74s4.66,4.85,4.66,4.85-2,6.47-.38,6a10.66,10.66,0,0,0,3.27-2.06c.57-.36,4.84-1,5,4.11s-2.62,7.14-3.85,7.52a19.81,19.81,0,0,1-3.58.5s3,1.5,4.32,1.31a42.41,42.41,0,0,0,5.95-2.26l3.52-4.64S159,111.55,157,99.67C156.25,95.35,151.79,91.51,146.25,87.61Z" style="fill:#263238"></path><path d="M137.93,126.48a12.68,12.68,0,0,1-4.29-1.38.5.5,0,0,1-.27-.55.52.52,0,0,1,.46-.4,20.08,20.08,0,0,0,3.46-.48c1.27-.39,3.63-2.35,3.5-7,0-1.74-.59-2.91-1.62-3.48a3.36,3.36,0,0,0-2.61-.21,6.62,6.62,0,0,0-.53.41,8.12,8.12,0,0,1-2.86,1.7.89.89,0,0,1-.9-.21c-.82-.83-.05-4,.56-6.1a22.45,22.45,0,0,1-4.52-4.78c-.73-1.3.14-3,.83-4.33a9.78,9.78,0,0,0,.55-1.18h-.06a77.3,77.3,0,0,1-9,0l-.11,0c-.34-.09-3.32-1-4.21-2.62-.71-1.31.4-3.36,1.1-4.44-.64-.1-1.64-.28-2.87-.56-.38-.09-1.56-.36-1.59-1.24s1-2.07,8.58-4.55c9-2.9,19-2,25,2.2h0c5.21,3.67,10.14,7.71,10.93,12.39,2,11.55-8.48,19.15-9.47,19.84L144.53,124a.5.5,0,0,1-.2.15,39.6,39.6,0,0,1-6.09,2.31ZM135.84,125a5.88,5.88,0,0,0,2.27.5,38.59,38.59,0,0,0,5.7-2.18l3.45-4.53a.43.43,0,0,1,.12-.11c.11-.08,11-7.48,9.11-18.9C155.76,95.44,151,91.56,146,88h0c-5.76-4-15.44-4.88-24.11-2.07-7.35,2.39-7.86,3.42-7.89,3.56a1.82,1.82,0,0,0,.81.3,36.09,36.09,0,0,0,3.59.66.5.5,0,0,1,.4.3.5.5,0,0,1-.06.5c-.83,1.09-2,3.16-1.5,4,.57,1.06,2.71,1.87,3.55,2.11a74.2,74.2,0,0,0,8.73,0,1.05,1.05,0,0,1,1.08.33c.37.52,0,1.26-.54,2.28s-1.32,2.56-.85,3.39c1.11,2,4.5,4.67,4.54,4.7a.51.51,0,0,1,.17.54c-.72,2.37-1.14,4.78-.94,5.36a7.36,7.36,0,0,0,2.45-1.49,7,7,0,0,1,.63-.49,4.19,4.19,0,0,1,3.57.15c1,.51,2.11,1.69,2.19,4.36.15,5.28-2.69,7.55-4.21,8A11.42,11.42,0,0,1,135.84,125Zm8.29-1.27h0Z" style="fill:#263238"></path><path d="M122.42,111.26c-.21.9-.83,1.54-1.39,1.41s-.85-1-.65-1.88.83-1.54,1.39-1.41S122.62,110.35,122.42,111.26Z" style="fill:#263238"></path><path d="M124.78,110.07a.48.48,0,0,1-.42-.23,4.9,4.9,0,0,0-4.56-2.24.51.51,0,0,1-.56-.43.5.5,0,0,1,.44-.56,5.86,5.86,0,0,1,5.52,2.69.49.49,0,0,1-.16.69A.42.42,0,0,1,124.78,110.07Z" style="fill:#263238"></path><path d="M119.92,125.6a.51.51,0,0,1-.4-.2,7.2,7.2,0,0,0-2.63-1.8.51.51,0,0,1-.28-.65.5.5,0,0,1,.65-.28,8,8,0,0,1,3.06,2.13.5.5,0,0,1-.1.7A.47.47,0,0,1,119.92,125.6Z" style="fill:#263238"></path><polygon points="150.75 119.93 134.46 145.87 140.29 157.24 156.13 123.8 150.75 119.93" style="fill:#407BFF"></polygon><path d="M140.29,157.74a.51.51,0,0,1-.44-.27L134,146.1a.5.5,0,0,1,0-.49l16.29-25.94a.5.5,0,0,1,.32-.23.53.53,0,0,1,.39.09l5.38,3.86a.49.49,0,0,1,.16.62l-15.84,33.44a.51.51,0,0,1-.44.29ZM135,145.9l5.23,10.21L155.5,124l-4.61-3.31Z" style="fill:#263238"></path><path d="M155.84,139.54s-7.22,3.47-5.81,11S164.41,188,164.41,188l-37.08-7.13-9.22-6.55s-5.65-2-6.6-.68-1,2.24-.64,2.82c0,0-1.33,7.27-1.23,8.28s3.75,2.34,5.21,3.17,2.64.35,4.2.71,8.78,1.82,8.78,1.82,23.93,9,31.54,11.73,22.83,5.36,25,4.54,1.5-12.35,1.5-12.35l-10.23-45.48" style="fill:#fff"></path><path d="M182.93,207.3c-4.77,0-17.19-2.38-23.73-4.71-7.53-2.69-31.31-11.64-31.55-11.73h0s-7.16-1.45-8.71-1.8a8.14,8.14,0,0,0-1.58-.16,5.35,5.35,0,0,1-2.76-.61c-.39-.22-1-.49-1.58-.77-2.28-1.07-3.78-1.84-3.88-2.78s1-7,1.21-8.25c-.24-.52-.44-1.59.76-3.2,1.08-1.45,5.76,0,7.16.51a.31.31,0,0,1,.13.06l9.13,6.49,36.05,6.93c-2.19-5.06-12.76-29.72-14-36.62-1.46-7.85,6-11.53,6.08-11.57a.5.5,0,1,1,.43.9c-.28.14-6.85,3.4-5.53,10.49,1.38,7.43,14.22,37,14.35,37.27a.48.48,0,0,1-.07.51.51.51,0,0,1-.48.18l-37.09-7.13a.48.48,0,0,1-.19-.09l-9.16-6.5c-2.5-.85-5.54-1.4-6-.83-.69.93-.92,1.77-.62,2.25a.51.51,0,0,1,.07.36c-.51,2.78-1.29,7.46-1.22,8.15.11.47,2.27,1.48,3.31,2,.63.29,1.22.57,1.65.81a4.34,4.34,0,0,0,2.28.48,9,9,0,0,1,1.79.18c1.54.35,8.69,1.8,8.76,1.82.31.11,24.09,9.06,31.61,11.75s22.66,5.3,24.65,4.54c1.12-.43,1.48-6.48,1.17-11.85l-10.22-45.4a.5.5,0,0,1,1-.22l10.23,45.49c.17,2.86.52,12-1.81,12.91A4.84,4.84,0,0,1,182.93,207.3Z" style="fill:#263238"></path><path d="M155.84,139.54s-7.22,3.47-5.81,11c1.14,6.14,9.87,26.86,13.15,34.51l21.35,3.34-8.9-39.59" style="fill:#407BFF"></path><path d="M184.53,188.92h-.07l-21.36-3.34a.48.48,0,0,1-.38-.29c-3.59-8.37-12.05-28.51-13.18-34.62-1.46-7.85,6-11.53,6.08-11.57a.5.5,0,1,1,.43.9c-.28.14-6.85,3.4-5.53,10.49,1.13,6.1,10.1,27.35,13,34.15l20.35,3.18-8.74-38.87a.5.5,0,0,1,1-.22l8.9,39.59a.49.49,0,0,1-.12.45A.52.52,0,0,1,184.53,188.92Z" style="fill:#263238"></path><path d="M183.94,185.79l-22.25-4.21c1.61,3.8,2.72,6.37,2.72,6.37l21.2,5.25Z" style="fill:#407BFF"></path><path d="M185.61,193.7h-.12l-21.2-5.26a.53.53,0,0,1-.34-.28s-1.11-2.57-2.72-6.37a.5.5,0,0,1,.55-.69l22.25,4.2a.52.52,0,0,1,.4.39l1.67,7.41a.54.54,0,0,1-.14.47A.52.52,0,0,1,185.61,193.7Zm-20.84-6.18,20.17,5-1.41-6.3-21-4C163.66,184.94,164.5,186.88,164.77,187.52Z" style="fill:#263238"></path></g></svg>