<svg xmlns="http://www.w3.org/2000/svg" viewBox="0 0 500 500"><g id="freepik--background-complete--inject-217"><path d="M469.52,280.89s0-.09,0-.24,0-.4,0-.68c0-.62,0-1.49,0-2.61,0-2.28,0-5.57-.08-9.71l.15.15-50,.1.25-.25h0v6.71c0,2.21,0,4.38,0,6.51l-.25-.25,35.67.11,10.53.07,2.85,0h.74l.26,0h-.23l-.71,0-2.79,0-10.47.07-35.85.12h-.25V267.67h0l.26-.26,50,.1h.16v.16c0,4.18-.07,7.5-.09,9.8,0,1.1,0,2,0,2.58,0,.26,0,.48,0,.65A.85.85,0,0,1,469.52,280.89Z" style="fill:#e0e0e0"></path><path d="M476.31,267.65a1.41,1.41,0,0,1,0-.25c0-.19,0-.42,0-.71,0-.65,0-1.53,0-2.65,0-2.32-.06-5.6-.1-9.63l.18.18-30.07.07.25-.25h0v6.8c0,2.21,0,4.36,0,6.42l-.24-.25,21.51.12,6.27.07,1.69,0,.6,0a3.59,3.59,0,0,1-.55,0l-1.64,0-6.21.06-21.67.12H446v-.24c0-2.06,0-4.21,0-6.42,0-1.11,0-2.23,0-3.37v-3.43h0l.26-.26,30.07.07h.19v.19c0,4.08-.07,7.39-.1,9.74,0,1.1,0,2,0,2.61A7.13,7.13,0,0,1,476.31,267.65Z" style="fill:#e0e0e0"></path><rect x="375.91" y="94.07" width="50.05" height="13.24" style="fill:#ebebeb"></rect><path d="M404.8,121.25a1.1,1.1,0,0,1,0-.24c0-.18,0-.4,0-.68,0-.62,0-1.49,0-2.6,0-2.29-.05-5.58-.09-9.72l.16.16-50.05.1c.11-.12-.26.25.25-.26h0v13.22l-.25-.25,35.66.12,10.53.07,2.85,0,.74,0h.27a1,1,0,0,1-.23,0h-.72l-2.79,0-10.47.07-35.84.11h-.25v-.25c0-2.13,0-4.3,0-6.51V108h0c.51-.51.15-.14.26-.25l50.05.1H405V108c0,4.18-.06,7.5-.08,9.81,0,1.1,0,2,0,2.57,0,.27,0,.48,0,.65A1.31,1.31,0,0,1,404.8,121.25Z" style="fill:#e0e0e0"></path><rect x="325.83" y="395.01" width="50.05" height="13.24" style="fill:#ebebeb"></rect><path d="M354.72,422.19a1.1,1.1,0,0,1,0-.24c0-.17,0-.4,0-.68,0-.62,0-1.49,0-2.6,0-2.29,0-5.57-.09-9.72l.16.16-50.05.1c.11-.12-.26.25.25-.26h0v13.23l-.25-.25,35.66.12,10.53.07,2.85,0,.74,0h.27l-.23,0-.72,0-2.79,0-10.47.07-35.84.11h-.25v-.25q0-3.19,0-6.51V409h0c.51-.51.15-.14.26-.25l50.05.1h.15V409c0,4.19-.06,7.5-.08,9.81,0,1.1,0,2,0,2.57,0,.27,0,.48,0,.65A1.31,1.31,0,0,1,354.72,422.19Z" style="fill:#e0e0e0"></path><circle cx="227.75" cy="236.67" r="13.39" transform="translate(-41.21 425.2) rotate(-81.13)" style="fill:#e0e0e0"></circle><path d="M210.48,269.1s2.64-21.59,18.28-21.59,17.63,21.59,17.63,21.59Z" style="fill:#e0e0e0"></path><circle cx="192" cy="108.16" r="9.08" style="fill:#e0e0e0"></circle><path d="M180.29,130.16s1.79-14.65,12.4-14.65,12,14.65,12,14.65Z" style="fill:#e0e0e0"></path><path d="M300.53,115.8a6.41,6.41,0,0,0-2.69-2.74,6.13,6.13,0,0,0-3.67-.81,4.93,4.93,0,0,0-4.31,4.2,5.12,5.12,0,0,0-1.92-1A5.06,5.06,0,0,0,284,116a6.12,6.12,0,0,0-2.37,2.91,6.33,6.33,0,0,0-.41,3.81,7.72,7.72,0,0,0,2.48,4.2,10.83,10.83,0,0,0,4.74,2.11c2.83.6,6.52,1.29,6.52,1.29s1.93-2.85,3.78-5.07a10.91,10.91,0,0,0,2.41-4.6A7.76,7.76,0,0,0,300.53,115.8Z" style="fill:#ebebeb"></path><path d="M92,213.37a8.79,8.79,0,0,0,.12-5.3,8.53,8.53,0,0,0-2.74-4.41,6.83,6.83,0,0,0-8.31-.21,6.76,6.76,0,0,0-.84-2.88,6.92,6.92,0,0,0-4.31-3.33,8.51,8.51,0,0,0-5.17.46A8.84,8.84,0,0,0,66.6,201a10.78,10.78,0,0,0-1.76,6.51,15.26,15.26,0,0,0,2.49,6.72c2.14,3.37,5,7.69,5,7.69S77,221,81,220.73a15.27,15.27,0,0,0,6.87-2A10.68,10.68,0,0,0,92,213.37Z" style="fill:#ebebeb"></path><rect x="82.45" y="82.97" width="50.05" height="13.24" style="fill:#ebebeb"></rect><path d="M111.34,110.15s0-.08,0-.24,0-.4,0-.68c0-.62,0-1.49,0-2.6,0-2.29,0-5.57-.08-9.72l.15.16-50.05.1.26-.26h0v3.38c0,1.12,0,2.24,0,3.34v6.51l-.25-.25L97,110l10.53.07,2.84,0,.75,0h.26s-.07,0-.23,0l-.72,0-2.79,0-10.47.07-35.84.11H61V96.92h0l.25-.25,50.05.1h.16v.15c0,4.19-.07,7.5-.09,9.81,0,1.1,0,2,0,2.57,0,.27,0,.48,0,.65S111.35,110.16,111.34,110.15Z" style="fill:#e0e0e0"></path><path d="M277.57,63.41a1.35,1.35,0,0,1,0-.24c0-.18,0-.4,0-.68q0-.95,0-2.61c0-2.28-.05-5.57-.09-9.71l.16.15-50,.1.25-.25h0v6.7c0,2.21,0,4.39,0,6.52l-.24-.25,35.66.11,10.53.07,2.85,0,.74,0,.27,0h-.24l-.71,0-2.79,0-10.47.07-35.84.12h-.25v-.25c0-2.13,0-4.31,0-6.52v-6.7h0l.26-.26,50,.1h.15v.16c0,4.18-.06,7.5-.08,9.8,0,1.1,0,2,0,2.57,0,.27,0,.49,0,.66A1.66,1.66,0,0,1,277.57,63.41Z" style="fill:#e0e0e0"></path><path d="M284.35,50.17s0-.1,0-.26,0-.42,0-.7l0-2.65c0-2.32-.06-5.6-.1-9.63l.18.18-30.07.07.25-.25h0v6.8c0,2.21,0,4.36,0,6.42l-.24-.25,21.51.12,6.27.07,1.69,0,.6,0a3.35,3.35,0,0,1-.54,0l-1.64,0-6.21.06-21.68.12H254v-.24c0-2.06,0-4.21,0-6.42V37h0l.26-.26,30.07.07h.19v.19c0,4.07-.07,7.39-.09,9.74,0,1.1,0,2-.05,2.61A7.33,7.33,0,0,1,284.35,50.17Z" style="fill:#e0e0e0"></path><path d="M232.82,196.65s0-.09,0-.24,0-.4,0-.68c0-.63,0-1.5,0-2.61,0-2.29,0-5.57-.08-9.71l.15.15-50,.1.25-.25h0v6.7c0,2.21,0,4.39,0,6.52l-.25-.25,35.67.11,10.53.07,2.85,0,.74,0a1.33,1.33,0,0,1,.26,0h-.23l-.71,0-2.79,0-10.47.07-35.85.12h-.25V183.43h0c.51-.51.14-.15.26-.26l50,.1H233v.16c0,4.18-.07,7.5-.09,9.8,0,1.1,0,2,0,2.57,0,.27,0,.49,0,.66A.85.85,0,0,1,232.82,196.65Z" style="fill:#e0e0e0"></path><path d="M239.61,183.41a1.61,1.61,0,0,1,0-.26c0-.19,0-.42,0-.7,0-.65,0-1.54,0-2.65,0-2.32-.06-5.6-.1-9.64l.18.19-30.07.07.25-.25h0V177c0,2.21,0,4.36,0,6.42l-.24-.25,21.51.12,6.27.07,1.69,0,.6,0a3.59,3.59,0,0,1-.55,0l-1.64,0-6.21.06-21.67.12h-.24v-.24c0-2.06,0-4.21,0-6.42,0-1.11,0-2.24,0-3.37v-3.43h0l.26-.26,30.07.07h.19v.18c0,4.08-.07,7.4-.1,9.75,0,1.1,0,2,0,2.61A7.33,7.33,0,0,1,239.61,183.41Z" style="fill:#e0e0e0"></path></g><g id="freepik--Floor--inject-217"><path d="M457.38,464c0,.15-94.81.26-211.73.26S33.89,464.1,33.89,464s94.79-.26,211.76-.26S457.38,463.81,457.38,464Z" style="fill:#263238"></path></g><g id="freepik--Plant--inject-217"><path d="M334,404.56a11.12,11.12,0,0,1,6.17,6.15,19.7,19.7,0,0,1,1.32,8.78c-.29,5.77-3.17,11.75-6.39,16.55-5.09-3.9-6.66-11.17-7.23-14.91-.9-5.91,1.07-17.14,6.13-16.57" style="fill:#455a64"></path><path d="M341.26,445.14a9.47,9.47,0,0,1,2.49-9.2,12.55,12.55,0,0,1,9.09-3.48A5.29,5.29,0,0,1,357,434a4,4,0,0,1,.32,4.1,8.19,8.19,0,0,1-2.84,3.18c-4,2.89-8.43,4.95-13.24,3.83" style="fill:#455a64"></path><path d="M336.19,463.09a6.93,6.93,0,0,1,.09-1.19c.1-.83.23-1.92.38-3.21a33.4,33.4,0,0,1,2.64-10.37,20.45,20.45,0,0,1,6.8-8.21A13.78,13.78,0,0,1,349,438.6c.36-.14.65-.21.84-.27a1.14,1.14,0,0,1,.31-.06,21.79,21.79,0,0,0-3.87,2.08,21,21,0,0,0-6.59,8.15A35.79,35.79,0,0,0,337,458.73c-.21,1.35-.38,2.44-.52,3.2A7.19,7.19,0,0,1,336.19,463.09Z" style="fill:#263238"></path><path d="M333.21,413.24a3.83,3.83,0,0,1,.09.51q.07.57.18,1.47c.15,1.28.34,3.13.56,5.42.44,4.58,1,10.92,1.38,17.92s.64,13.37.74,18c0,2.29.08,4.16.08,5.44,0,.61,0,1.1,0,1.48a1.76,1.76,0,0,1,0,.52,3,3,0,0,1-.05-.51c0-.39,0-.88-.07-1.48-.05-1.34-.13-3.19-.21-5.45-.18-4.59-.46-10.94-.87-17.94s-.89-13.34-1.25-17.92c-.18-2.26-.33-4.1-.43-5.43,0-.61-.08-1.1-.1-1.48A2.05,2.05,0,0,1,333.21,413.24Z" style="fill:#263238"></path><path d="M333.13,449.15A22.18,22.18,0,0,0,320,433.69c-1.66-.66-3.8-1-5,.25s-.82,3.42-.07,5a19,19,0,0,0,18.15,10.65" style="fill:#455a64"></path><path d="M321.14,439.08a5.54,5.54,0,0,1,1.05.38,11.17,11.17,0,0,1,1.19.54c.45.25,1,.48,1.53.83a23.38,23.38,0,0,1,3.66,2.68,24.4,24.4,0,0,1,3.69,4.16,24,24,0,0,1,2.56,4.93,20.32,20.32,0,0,1,.72,2.32A18.55,18.55,0,0,1,336,457a15.17,15.17,0,0,1,.19,1.73,10.49,10.49,0,0,1,.05,1.31,5.53,5.53,0,0,1-.06,1.12c-.09,0,0-1.6-.47-4.11a16.23,16.23,0,0,0-.47-2,19.9,19.9,0,0,0-.74-2.27,24.62,24.62,0,0,0-2.55-4.84,26.17,26.17,0,0,0-3.59-4.11c-.63-.55-1.24-1.08-1.85-1.52a20.67,20.67,0,0,0-1.71-1.19C322.59,439.73,321.1,439.16,321.14,439.08Z" style="fill:#263238"></path></g><g id="freepik--Character--inject-217"><path d="M198.86,349.2l3.14,7.9v91h0a53.35,53.35,0,0,1-38.85,16.78H68s-15.22-.56-14.66-20.3c0,0-1.13-10.15,7.33-12.41,0,0-19.17-3.94-19.73-18s9.58-15.79,9.58-15.79-17.48-1.13-18.61-16.92,7.9-17.48,7.9-17.48-20.3-1.13-18.61-19.17,19.17-16.92,19.17-16.92h127A33.88,33.88,0,0,1,198.86,349.2Z" style="fill:#407BFF"></path><path d="M178.5,329.69s-23.52-14.5-34.28-33c-7.8-13.44-10.45-29.73-10.45-29.73,0-.81-.1-8-.18-13.81a8.94,8.94,0,0,0-8.69-8.79c-10.08-.34-26.08,8.37-27.94,27-2.78,27.77,7.08,44.52,8.78,52.51l1.71,8Z" style="fill:#407BFF"></path><rect x="190.23" y="328.82" width="66.45" height="135.01" transform="translate(446.92 792.66) rotate(180)" style="fill:#407BFF"></rect><path d="M190.23,463.83c-.14,0-.26-30.22-.26-67.5s.12-67.51.26-67.51.26,30.22.26,67.51S190.38,463.83,190.23,463.83Z" style="fill:#263238"></path><path d="M256.68,463.83c-.14,0-.26-30.22-.26-67.5s.12-67.51.26-67.51.26,30.22.26,67.51S256.83,463.83,256.68,463.83Z" style="fill:#263238"></path><circle cx="226.13" cy="359.73" r="12.43" transform="translate(-76.98 61.96) rotate(-13.35)" style="fill:#fff"></circle><path d="M92.48,327.81c0-.15,7.24-.26,16.18-.26s16.18.11,16.18.26-7.24.26-16.18.26S92.48,328,92.48,327.81Z" style="fill:#263238"></path><path d="M49.18,399c0-.14,4.64-.26,10.35-.26s10.34.12,10.34.26-4.63.26-10.34.26S49.18,399.09,49.18,399Z" style="fill:#263238"></path><path d="M38.51,363.58c0-.14,6.57-.26,14.68-.26s14.68.12,14.68.26-6.57.26-14.68.26S38.51,363.73,38.51,363.58Z" style="fill:#263238"></path><path d="M56.52,432.31c0-.14,6.58-.26,14.68-.26s14.68.12,14.68.26-6.57.26-14.68.26S56.52,432.46,56.52,432.31Z" style="fill:#263238"></path><g style="opacity:0.30000000000000004"><path d="M125.84,250.81c2.39,1.37,3.34,4.41,3.2,7.16s-1.15,5.38-1.75,8.06a28,28,0,0,0,1.94,17.84c.79,1.68,1.76,3.62,1,5.3-1.14,2.37-4.65,2-7.05.93A26.49,26.49,0,0,1,108,266.16a18.64,18.64,0,0,1,4-11.72c2.72-3.21,7.26-6.61,13.85-3.63" style="fill:#fff"></path></g><g style="opacity:0.30000000000000004"><path d="M35,331.43c2.11-.94,4.51-.91,6.82-.87l40.34.78c4.4.09,12.41-.79,13.48,3.42h0c1.38,2.12.23,5.15-1.82,6.63s-4.7,1.79-7.22,2c-5.28.37-10.59.36-15.88.33-10.65-.05-21.34-.17-31.84-1.91a14.42,14.42,0,0,1-4.53-1.32,5.31,5.31,0,0,1-2.83-3.6C31.15,334.58,32.89,332.37,35,331.43Z" style="fill:#fff"></path></g><path d="M205.9,332.65c0-.14,9.29-.26,20.74-.26s20.74.12,20.74.26-9.28.26-20.74.26S205.9,332.79,205.9,332.65Z" style="fill:#fff"></path><path d="M39.29,386.85s-.18-.23-.43-.69a11.61,11.61,0,0,1-.82-2,16.62,16.62,0,0,1-.63-3.2,18.92,18.92,0,0,1,.13-4,18.23,18.23,0,0,1,1.08-3.86,15.27,15.27,0,0,1,1.56-2.88,11.53,11.53,0,0,1,1.39-1.7c.37-.36.58-.55.61-.53s-.73.89-1.69,2.44a17.14,17.14,0,0,0-1.43,2.85,19.61,19.61,0,0,0-1,3.76,20.05,20.05,0,0,0-.17,3.89A17.75,17.75,0,0,0,38.4,384C38.86,385.79,39.38,386.81,39.29,386.85Z" style="fill:#fff"></path><path d="M29.45,352.65a4.71,4.71,0,0,1-1.58-1.42,10.26,10.26,0,0,1-1.63-9.8,4.82,4.82,0,0,1,1-1.85c.08,0-.33.74-.69,2A11.2,11.2,0,0,0,28.16,351C28.9,352.05,29.51,352.58,29.45,352.65Z" style="fill:#fff"></path><path d="M51,423.42a5.06,5.06,0,0,1-2.08-1.27,8.82,8.82,0,0,1-1.86-10.95,5,5,0,0,1,1.54-1.89c.07.06-.58.73-1.22,2.06a9.08,9.08,0,0,0,1.79,10.51C50.21,422.92,51.05,423.34,51,423.42Z" style="fill:#fff"></path><path d="M64.53,455.48A5.26,5.26,0,0,1,63,454a11.69,11.69,0,0,1-1.9-10.1,5.39,5.39,0,0,1,.9-2c.09,0-.26.79-.54,2.08a12.82,12.82,0,0,0,1.84,9.79C64,454.84,64.59,455.42,64.53,455.48Z" style="fill:#fff"></path><path d="M103.32,301.71a8.29,8.29,0,0,1-.72-1.37c-.22-.44-.47-1-.73-1.66s-.58-1.39-.85-2.25a45.78,45.78,0,0,1-1.65-6,48.16,48.16,0,0,1-.58-15.28A45.9,45.9,0,0,1,100,269c.2-.86.47-1.63.68-2.3a17.15,17.15,0,0,1,.6-1.71,8.49,8.49,0,0,1,.61-1.42,8.3,8.3,0,0,1-.42,1.48c-.15.47-.34,1.05-.51,1.73s-.42,1.45-.6,2.31a51.2,51.2,0,0,0-1.06,6.12,51,51,0,0,0,.57,15.13,53.94,53.94,0,0,0,1.53,6c.24.85.54,1.59.77,2.26s.46,1.23.65,1.68A9.66,9.66,0,0,1,103.32,301.71Z" style="fill:#fff"></path><path d="M186.38,331.19c-3.28,17.19-6.21,34.45-9.08,51.72-2.92,17.59-5.77,35.18-8.8,52.75-1.66,9.59-3.37,19.17-5.19,28.73a2.41,2.41,0,0,0,1.64,2.89,2.37,2.37,0,0,0,2.89-1.64c3.28-17.2,6.21-34.46,9.08-51.73,2.92-17.58,5.77-35.18,8.8-52.74,1.66-9.59,3.37-19.17,5.19-28.73a2.42,2.42,0,0,0-1.64-2.9,2.37,2.37,0,0,0-2.89,1.65Z" style="fill:#455a64"></path><g style="opacity:0.30000000000000004"><path d="M106.85,327.22a44.79,44.79,0,0,0,59.59-7.43C146.86,328.7,127,331.94,106.85,327.22Z"></path></g><path d="M104.22,326.84a82.44,82.44,0,0,0,62.54-6.28c2.67-1.43.3-5.49-2.37-4.06a78.49,78.49,0,0,1-45.9,8.56,75.2,75.2,0,0,1-13-2.75c-2.91-.88-4.15,3.66-1.25,4.53Z" style="fill:#455a64"></path><path d="M180.68,331.45V462.23c0,3,4.7,3,4.7,0V331.45c0-3-4.7-3-4.7,0Z" style="fill:#455a64"></path><path d="M191,331.09a47.55,47.55,0,0,0-8.92-26c-1.42-1.95-3-4.18-5.59-4.44a4.23,4.23,0,0,0-4.72,4.24c0,2.17,1.12,4.44,1.92,6.41.9,2.22,1.87,4.41,3,6.54a84,84,0,0,0,8.73,13.64,2.37,2.37,0,0,0,3.33,0,2.42,2.42,0,0,0,0-3.33,76.26,76.26,0,0,1-11.23-20c-.29-.8-.61-1.59-.84-2.41a4.46,4.46,0,0,1-.16-.84,4.13,4.13,0,0,0-.31.42c0,.08.33.3.38.35a9.46,9.46,0,0,1,.89,1c.53.68,1,1.38,1.51,2.1a42.94,42.94,0,0,1,7.36,22.3c.13,3,4.83,3,4.7,0Z" style="fill:#455a64"></path><path d="M190.77,334.13a73,73,0,0,0,11-30.89c.3-2.56,0-5.64-2.89-6.56s-5.15,1.51-6.45,3.68A45.27,45.27,0,0,0,186.9,315a47.23,47.23,0,0,0,.13,18.2,2.37,2.37,0,0,0,2.89,1.64,2.4,2.4,0,0,0,1.64-2.89,41.57,41.57,0,0,1,2.95-25.5c.45-1,.93-1.9,1.45-2.82.25-.45.49-.92.78-1.34.13-.19.88-.89.87-1a.49.49,0,0,0-.41-.28c-.31,0,0-.31-.07,0,0-.1.05.42,0,.31a14,14,0,0,1-.26,2.95,69.5,69.5,0,0,1-3.35,13.62,67.53,67.53,0,0,1-6.85,13.87c-1.64,2.56,2.43,4.92,4.06,2.38Z" style="fill:#455a64"></path><path d="M105.74,327.29a3,3,0,0,1-.16-2.47,3.6,3.6,0,0,1,.83-1.59c.31-.35.59-.46.63-.41a11.89,11.89,0,0,0-1,2.13C105.74,326.19,105.89,327.26,105.74,327.29Z" style="fill:#263238"></path><path d="M109,328.08a2.94,2.94,0,0,1-.16-2.47,3.71,3.71,0,0,1,.82-1.59c.32-.34.6-.46.63-.41a13.74,13.74,0,0,0-1,2.13C109,327,109.1,328.05,109,328.08Z" style="fill:#263238"></path><path d="M112.44,328.8a2.93,2.93,0,0,1-.17-2.47,3.7,3.7,0,0,1,.83-1.59c.32-.35.59-.46.63-.41a12.28,12.28,0,0,0-1,2.13C112.44,327.7,112.58,328.77,112.44,328.8Z" style="fill:#263238"></path><path d="M116.06,329.43a3,3,0,0,1-.33-2.46,3.85,3.85,0,0,1,.73-1.64c.29-.36.56-.5.6-.45a12.46,12.46,0,0,0-.81,2.19C116,328.33,116.2,329.39,116.06,329.43Z" style="fill:#263238"></path><path d="M120,329.91a3,3,0,0,1-.59-2.41,3.67,3.67,0,0,1,.53-1.71c.26-.39.5-.55.55-.51a11.53,11.53,0,0,0-.56,2.27C119.8,328.83,120.13,329.85,120,329.91Z" style="fill:#263238"></path><path d="M124.09,330.19a3,3,0,0,1-.72-2.37,3.84,3.84,0,0,1,.44-1.73c.23-.41.47-.59.52-.54a12.59,12.59,0,0,0-.44,2.29C123.84,329.12,124.22,330.13,124.09,330.19Z" style="fill:#263238"></path><path d="M128.51,330.21a3,3,0,0,1-.71-2.37,3.85,3.85,0,0,1,.44-1.74c.23-.4.47-.58.52-.54a12.82,12.82,0,0,0-.44,2.29C128.27,329.14,128.65,330.14,128.51,330.21Z" style="fill:#263238"></path><path d="M133.09,330.14a3,3,0,0,1-1-2.26,3.83,3.83,0,0,1,.22-1.78c.18-.43.39-.64.45-.6a12.52,12.52,0,0,0-.16,2.33C132.71,329.11,133.21,330.06,133.09,330.14Z" style="fill:#263238"></path><path d="M137.48,329.71a3,3,0,0,1-1-2.26,3.63,3.63,0,0,1,.23-1.77c.18-.44.39-.64.45-.61a11.68,11.68,0,0,0-.16,2.33C137.1,328.69,137.61,329.64,137.48,329.71Z" style="fill:#263238"></path><path d="M142.15,329.05c-.09.11-1-.69-1.33-2.08a3.66,3.66,0,0,1,0-1.79c.11-.46.3-.69.36-.67a11.73,11.73,0,0,0,.19,2.33C141.62,328.09,142.27,329,142.15,329.05Z" style="fill:#263238"></path><path d="M146.9,328.08c-.09.11-1-.7-1.34-2.08a3.81,3.81,0,0,1,0-1.8c.11-.45.29-.69.35-.66a13.24,13.24,0,0,0,.2,2.33C146.37,327.12,147,328,146.9,328.08Z" style="fill:#263238"></path><path d="M151.56,326.76c-.09.12-1-.69-1.33-2.08a3.66,3.66,0,0,1,0-1.79c.12-.46.3-.69.36-.66a11.68,11.68,0,0,0,.19,2.32C151,325.8,151.68,326.67,151.56,326.76Z" style="fill:#263238"></path><path d="M156.31,325.25c-.08.12-1.07-.57-1.57-1.92a3.67,3.67,0,0,1-.24-1.77c.06-.47.21-.72.27-.7a13.51,13.51,0,0,0,.46,2.29C155.67,324.36,156.41,325.14,156.31,325.25Z" style="fill:#263238"></path><path d="M160.5,323.57c-.08.12-1.07-.58-1.56-1.92a3.7,3.7,0,0,1-.25-1.77c.06-.47.21-.72.28-.7a11.93,11.93,0,0,0,.45,2.29C159.87,322.68,160.6,323.46,160.5,323.57Z" style="fill:#263238"></path><path d="M164.78,321.54c-.06.13-1.14-.42-1.82-1.68a3.81,3.81,0,0,1-.5-1.72c0-.47.11-.74.17-.73a12.61,12.61,0,0,0,.78,2.2C164,320.74,164.86,321.41,164.78,321.54Z" style="fill:#263238"></path><polygon points="219.33 403.67 234.71 394.36 251.35 415.34 229.57 425.51 219.48 422.25 219.33 403.67" style="fill:#ffbf9d"></polygon><path d="M234.51,426.82l-1.67.87s2.87,33.44-2.38,36.51l-28.14-54.86,19.25-8.84C221.85,410.64,225.79,419.4,234.51,426.82Z" style="fill:#455a64"></path><g style="opacity:0.6000000000000001"><path d="M217.84,408.67a2.62,2.62,0,0,0-3.44-.2,2.42,2.42,0,0,0-.32,3.34,2.78,2.78,0,0,0,3.65.2c.88-.91,1-2.81-.07-3.5" style="fill:#fff"></path></g><g style="opacity:0.6000000000000001"><path d="M201.77,408.89l4.63-2.12,25.28,53.36s.15,3-1.77,3.63Z" style="fill:#fff"></path></g><path d="M232.23,427.52c-.29.13-1.1-1.14-2.66-2s-3.1-1-3.11-1.28,1.79-.71,3.66.37S232.51,427.45,232.23,427.52Z" style="fill:#263238"></path><path d="M232.72,434.52c-.24.2-1.31-.72-2.94-1s-3,.05-3.14-.23,1.35-1.23,3.38-.8S233,434.38,232.72,434.52Z" style="fill:#263238"></path><path d="M227.27,441.41c-.18-.21,1-1.29,2.88-1.37s3.12.86,2.95,1.09-1.38-.13-2.92,0S227.44,441.66,227.27,441.41Z" style="fill:#263238"></path><polygon points="388.93 442.98 390.92 425.11 418.5 424.88 413.19 448.33 404.22 454.29 388.93 442.98" style="fill:#ffbf9d"></polygon><path d="M414.34,447.79l-.31,1.7s26.14,16.79,25.45,22.33l-56-10.58,4.32-18.93C395.36,447.83,404,449.92,414.34,447.79Z" style="fill:#455a64"></path><g style="opacity:0.6000000000000001"><path d="M392.31,449.48a2.37,2.37,0,0,0-2.08,2.37A2.24,2.24,0,0,0,392.5,454a2.51,2.51,0,0,0,2.19-2.52c-.17-1.16-1.51-2.29-2.6-1.93" style="fill:#fff"></path></g><g style="opacity:0.6000000000000001"><path d="M383.45,461.24l1-4.55,53.32,11.8s2.29,1.58,1.67,3.33Z" style="fill:#fff"></path></g><path d="M414.2,449.69c-.06.28-1.45.15-3,.79s-2.45,1.69-2.68,1.53.48-1.7,2.33-2.45S414.31,449.44,414.2,449.69Z" style="fill:#263238"></path><path d="M419.61,453.29c0,.28-1.26.53-2.41,1.54s-1.65,2.21-1.92,2.15-.15-1.68,1.3-2.91S419.66,453,419.61,453.29Z" style="fill:#263238"></path><path d="M421.61,461.12c-.26,0-.38-1.46.61-2.86s2.38-1.77,2.45-1.52-.87.93-1.66,2.09S421.89,461.14,421.61,461.12Z" style="fill:#263238"></path><path d="M338.46,302.19l59.12,37.51-9.83,91.05,31.11,4.58,18.33-88.1s4.87-18.58-5.48-28.88C419.54,306.25,377.08,266,377.08,266l4.75-9.53L336.59,227l-10,6c-9.21,7.29-14.92,15.7-16.43,27.34a46.33,46.33,0,0,0-.37,4.86,32.26,32.26,0,0,0,2.24,13C316.86,290.27,338.46,302.19,338.46,302.19Z" style="fill:#263238"></path><path d="M311,261.77,303.6,339.4l-77.49,54.26,15,27.87,91.23-55.07a16.54,16.54,0,0,0,6.12-7.85l27.4-73.71Z" style="fill:#263238"></path><path d="M396.88,340s-.1,0-.27-.15l-.76-.47L393,337.54l-10.55-7-34.71-23.18-19.07-12.81L320.32,289a19.68,19.68,0,0,1-3.45-3,27,27,0,0,1-2.63-3.3,27.54,27.54,0,0,1-4.33-11.83,21.7,21.7,0,0,1-.1-4.65,1.3,1.3,0,0,1,0,.31v.89a30.13,30.13,0,0,0,.26,3.42,27.85,27.85,0,0,0,4.44,11.65,25.48,25.48,0,0,0,2.61,3.23,18.79,18.79,0,0,0,3.42,2.92l8.34,5.57L348,307l34.61,23.3,10.46,7.11,2.83,2,.73.52A1.86,1.86,0,0,1,396.88,340Z" style="fill:#455a64"></path><path d="M352.67,244.33a9.44,9.44,0,0,1,1.31.91c.82.62,2,1.54,3.39,2.72,2.83,2.34,6.6,5.72,10.67,9.56s7.69,7.39,10.29,10l3.06,3.07a9.89,9.89,0,0,1,1.08,1.18,9.19,9.19,0,0,1-1.22-1l-3.18-3-10.38-9.85c-4.07-3.83-7.8-7.25-10.56-9.66-1.37-1.21-2.5-2.17-3.28-2.84A9.25,9.25,0,0,1,352.67,244.33Z" style="fill:#455a64"></path><path d="M427,95.44a9,9,0,0,0-2.27-5.36,12.25,12.25,0,0,0-5.33-3.76,10.88,10.88,0,0,0-11.15,2.61A10.66,10.66,0,0,0,406,100.08c1.5,3.74,6.5,7.44,10.54,7.7l5.86-4.78C424.94,101.22,427,98.5,427,95.44Z" style="fill:#263238"></path><path d="M453.77,100.34C449,96.53,443.25,96,437.18,96.4a29.92,29.92,0,0,0-16.53,6.82,29,29,0,0,0-10,15.75,23.56,23.56,0,0,0,3.27,18.3c4.94,7.23,14.36,10.91,23,9.76s16.37-6.74,20.88-14.13A28.21,28.21,0,0,0,462,115.82a22.1,22.1,0,0,0-8.27-15.48" style="fill:#263238"></path><path d="M429,109.63c1.88-1.56,2.81-3.94,4.29-5.87,3.25-4.25,9.1-5.85,14.49-5.22,5,.59,9.78,3.73,13.82,8a21.39,21.39,0,0,1,5.64,10.51,16.39,16.39,0,0,1-4.56,14.55L440.52,114.8c-3.27.58-6.62,1.16-9.92.66a5.72,5.72,0,0,1-2.73-1,2.55,2.55,0,0,1-1-2.56C427.13,110.88,428.16,110.3,429,109.63Z" style="fill:#263238"></path><path d="M458.44,113.38,435,106.07a4.46,4.46,0,0,0-5.76,1.74l-24.67,44.86a15.65,15.65,0,0,0-1.74,10.07l.58,3.66c1.34,8.33,10.91,12.89,18,8.36a5.64,5.64,0,0,0,1.14-.9c.29-.37.55-.57.76-.9h0l7.52-12s9.18,3.71,17.46-6c4.11-4.8,9.18-13.71,13.08-21.14C464.89,127.18,465.37,116.66,458.44,113.38Z" style="fill:#ffbf9d"></path><path d="M453.8,140.66a1.64,1.64,0,0,1-2.2.57,1.56,1.56,0,0,1-.68-2.12,1.62,1.62,0,0,1,2.19-.57A1.56,1.56,0,0,1,453.8,140.66Z" style="fill:#263238"></path><path d="M456.68,137.24c-.29.07-.88-1.34-2.38-2.25s-3.06-.84-3.12-1.12c0-.13.35-.35,1-.4a4.52,4.52,0,0,1,2.62.68,4.3,4.3,0,0,1,1.76,2C456.85,136.79,456.81,137.21,456.68,137.24Z" style="fill:#263238"></path><path d="M440.09,132.4a1.64,1.64,0,0,1-2.2.57,1.56,1.56,0,0,1-.68-2.12,1.62,1.62,0,0,1,2.19-.57A1.55,1.55,0,0,1,440.09,132.4Z" style="fill:#263238"></path><path d="M442.28,128.75c-.28.07-.87-1.34-2.38-2.25s-3.06-.84-3.11-1.12c0-.13.34-.35,1-.4a4.53,4.53,0,0,1,2.63.68,4.36,4.36,0,0,1,1.76,2C442.46,128.3,442.42,128.72,442.28,128.75Z" style="fill:#263238"></path><path d="M440.48,142.82a11.55,11.55,0,0,1,2.71,1.05c.41.2.82.34,1,.12a2.22,2.22,0,0,0,.43-1.27c.19-1.14.4-2.32.62-3.57.92-5.05,1.83-9.11,2-9.07s-.38,4.17-1.3,9.22c-.24,1.24-.46,2.43-.68,3.56a2.48,2.48,0,0,1-.7,1.6,1.15,1.15,0,0,1-1,.17,3.15,3.15,0,0,1-.71-.31A11.62,11.62,0,0,1,440.48,142.82Z" style="fill:#263238"></path><path d="M430.84,161a32.85,32.85,0,0,1-12.27-12.7s-.86,9.65,10.67,15.28Z" style="fill:#ff9a6c"></path><path d="M446.78,124.63c-.44.24-1.62-1.08-3.34-2.25s-3.35-1.84-3.28-2.34c0-.24.55-.38,1.36-.28a6.75,6.75,0,0,1,2.92,1.17,6.9,6.9,0,0,1,2.12,2.33C446.94,124,447,124.51,446.78,124.63Z" style="fill:#263238"></path><path d="M457.63,133.67c-.42.19-1.69-.48-3.31-.95s-3.05-.64-3.28-1c-.1-.19.2-.41.88-.52a6.83,6.83,0,0,1,2.83.29,6.59,6.59,0,0,1,2.48,1.31C457.72,133.22,457.82,133.57,457.63,133.67Z" style="fill:#263238"></path><path d="M426.9,104.29c5.69-5.08,20-8.36,26.37-4l7,12.47a11.8,11.8,0,0,1-11.48,3.67c-2.21-.53-4.57-1.7-6.62-.76s-2.8,3.72-4.85,4.77c-2.83,1.47-6.79-1-9.36.88-1.13.82-1.64,2.28-2.78,3.07-1.52,1.06-6.33.73-7.59-.65s.24-4,.53-5.62a8.18,8.18,0,0,1,2.59-4.94C423.14,110.49,424.19,106.72,426.9,104.29Z" style="fill:#263238"></path><path d="M421.37,127.65c.48-.8.69-3.25,0-3.86-1.95-1.63-5.91-3.8-9.21,1.52-4.51,7.28,3.86,10.36,4,10.16S419.69,130.41,421.37,127.65Z" style="fill:#ffbf9d"></path><path d="M415.58,131.32s-.19,0-.47,0a1.48,1.48,0,0,1-1-.57c-.61-.77-.51-2.4.26-3.73a5,5,0,0,1,1.49-1.59,1.74,1.74,0,0,1,1.57-.38.77.77,0,0,1,.55.82c0,.26-.16.38-.13.42s.23,0,.36-.36a.94.94,0,0,0,0-.64,1.18,1.18,0,0,0-.6-.63,2.15,2.15,0,0,0-2.05.3,5,5,0,0,0-1.7,1.76c-.86,1.49-.95,3.34-.07,4.3a1.64,1.64,0,0,0,1.3.53C415.45,131.49,415.59,131.35,415.58,131.32Z" style="fill:#ff9a6c"></path><path d="M414.46,110.4a7.5,7.5,0,0,1,1-2.4,18.73,18.73,0,0,1,9.18-8.26,7.65,7.65,0,0,1,2.51-.72c.08.17-3.85,1.24-7.42,4.5S414.63,110.5,414.46,110.4Z" style="fill:#407BFF"></path><path d="M459.29,109.25c-1,3.43,1.53,10,2.27,13.46,1.42,6.71,1.36,8.64-4.31,18.72,3.8-2.45,7.13-5.08,9.18-9.09A18.52,18.52,0,0,0,468,119.18a14.92,14.92,0,0,0-8.72-9.93" style="fill:#263238"></path><path d="M409.48,108.69a16.41,16.41,0,0,1,1.67,1.44,26.12,26.12,0,0,0,4.79,3.53,11.7,11.7,0,0,0,3.83,1.3,8.15,8.15,0,0,0,4.49-.5c1.49-.61,2.62-2,4.19-3a7,7,0,0,1,5.66-.8c2,.59,3.44,1.93,5.13,2.28s3.28-.55,4.65-1.41a12.72,12.72,0,0,1,4.35-2,11.54,11.54,0,0,1,4.2-.12,11.38,11.38,0,0,1,5.55,2.38,8.76,8.76,0,0,1,1.18,1.14c.24.29.36.45.34.46s-.54-.57-1.67-1.41a11.67,11.67,0,0,0-5.45-2.13,11.3,11.3,0,0,0-4,.19,12.23,12.23,0,0,0-4.16,2,13.47,13.47,0,0,1-2.29,1.24,5,5,0,0,1-2.79.28c-1.93-.41-3.41-1.77-5.19-2.28a6.4,6.4,0,0,0-5.15.72c-1.47.92-2.65,2.32-4.29,3a8.68,8.68,0,0,1-4.81.49,12.13,12.13,0,0,1-4-1.43,23.05,23.05,0,0,1-4.74-3.74c-.51-.5-.89-.9-1.14-1.18A1.88,1.88,0,0,1,409.48,108.69Z" style="fill:#455a64"></path><path d="M410.22,87.75s.21-.22.7-.45a5.91,5.91,0,0,1,2.25-.46,7.36,7.36,0,0,1,3.34.8,8.62,8.62,0,0,1,3.12,2.83,12.3,12.3,0,0,1,1.92,7.18,9.17,9.17,0,0,1-.4,3c-.11,0,0-1.17,0-3a13,13,0,0,0-2-6.83,8.27,8.27,0,0,0-2.86-2.66,7.32,7.32,0,0,0-3.07-.88A9.65,9.65,0,0,0,410.22,87.75Z" style="fill:#455a64"></path><path d="M407.42,102.14a4.08,4.08,0,0,1-.21-2.53,8.74,8.74,0,0,1,3.14-5.23,13.89,13.89,0,0,1,5.55-2.6,7.55,7.55,0,0,1,2.52-.35,16.51,16.51,0,0,1-2.39.78,15.8,15.8,0,0,0-5.27,2.66,9,9,0,0,0-3.1,4.83A18.58,18.58,0,0,0,407.42,102.14Z" style="fill:#455a64"></path><path d="M433.32,143.34a2,2,0,0,0-.7,1.9,2.42,2.42,0,0,0,1.24,1.64,3.18,3.18,0,0,0,2.06.3,2.31,2.31,0,0,0,1.58-1,1.92,1.92,0,0,0-.11-2,2.75,2.75,0,0,0-1.74-1.1,5.13,5.13,0,0,0-2.1,0" style="fill:#ff9a6c"></path><path d="M436.23,148.51a9.74,9.74,0,0,1,0-1.25,4.65,4.65,0,0,0-3.43-4.22c-.73-.22-1.22-.21-1.22-.3s.49-.2,1.3-.06a4.5,4.5,0,0,1,3.72,4.57C436.53,148.07,436.29,148.53,436.23,148.51Z" style="fill:#263238"></path><path d="M455.62,230.21s-7,8.93-9.75,10.21-25,1.64-24.86,1.45,7.56-13.5,7.56-13.5l8,1,3.76-6.4,5.44-7.06,4.56-.31Z" style="fill:#ffbf9d"></path><path d="M444.82,213s9.77-2.05,10-1.94l-.66,2.14a6.16,6.16,0,0,1-5.84,4.11l-2.19,2.2s3.63,11.07.59,15.25-10.11-5.31-10.11-5.31,2.91-8,3-8.33S444.82,213,444.82,213Z" style="fill:#ffbf9d"></path><path d="M454.79,211s2.24.35,2.54,2.18a5.42,5.42,0,0,1-1.27,3.68,14.82,14.82,0,0,1-3.78,3c-1.57.61-2.87,1.37-3.7,0-1.16-1.88.2-2.63.2-2.63Z" style="fill:#ffbf9d"></path><path d="M456.42,216.39s3.75,1.31,1.33,4.69-6.63,4.63-8.34,3.76-2.23-1.34-2.51-2.44,1.34-2.08,2.24-1.93S456.42,216.39,456.42,216.39Z" style="fill:#ffbf9d"></path><path d="M457.33,219.36a2.53,2.53,0,0,1,1.19,4.2c-2.17,3-5.93,4.14-7.46,3.37s-2-1.21-2.25-2.19,1.2-1.86,2-1.73S457.33,219.36,457.33,219.36Z" style="fill:#ffbf9d"></path><path d="M457.49,223.33a2.53,2.53,0,0,1,1.19,4.2c-2.17,3-5.94,4.15-7.46,3.37s-2-1.2-2.25-2.19,1.2-1.86,2-1.72S457.49,223.33,457.49,223.33Z" style="fill:#ffbf9d"></path><path d="M406.32,222.89,435,225.43l-2.47,17.19s-31.43-.53-35.94-1.05-5.15-7.67-5.15-7.67Z" style="fill:#407BFF"></path><path d="M425.4,170l-19.58-19.66-17-2.82a20.64,20.64,0,0,0-6.47,0c-9,1.61-11.72,8.52-14.92,16l-17.59,40.91L335.45,221s-6.65-2.32-3.91,7.06l45.77,31.08a6.24,6.24,0,0,0,8.57-.83l12.94-16.54s20.77-18.68,25.36-29.79S425.4,170,425.4,170Z" style="fill:#407BFF"></path><path d="M351.06,219s-1.21,12.77,10.75,18.19,50.45-9.1,50.45-9.1l7.19-8.52Z" style="opacity:0.30000000000000004"></path><path d="M417.91,199.25l-35.27,7.63,9.66-27.19s6.6-17.74,5.76-23c-.69-4.41-5.6-10-12.28-9.35-1.67.16-4.47.18-6.19,1-5.77,2.74-9,7.17-11.28,13.13-3.63,9.43-9,25.75-9.94,28,0,0-6.73,22.13-7.2,25.83-1.15,9,6.91,21,19.83,18.87,13.47-2.26,50.95-14.39,50.95-14.39Z" style="fill:#407BFF"></path><path d="M456.68,215.87c.2.06-1.41,3.41-5.21,5.79a14.56,14.56,0,0,1-1.51.57,2.37,2.37,0,0,1-1.6-.12,1.77,1.77,0,0,1-.95-1.12,2.5,2.5,0,0,1,0-1.24,4.19,4.19,0,0,1,.77-1.54c.25-.31.4-.47.43-.45s-.07.22-.26.56a5.21,5.21,0,0,0-.58,1.5,1.67,1.67,0,0,0,.83,1.85,2,2,0,0,0,1.27.06,14.2,14.2,0,0,0,1.42-.55,5,5,0,0,0,1.28-.75l1-1c.67-.65,1.26-1.24,1.72-1.76C456.23,216.62,456.6,215.84,456.68,215.87Z" style="fill:#ff9a6c"></path><path d="M458.39,220a4.94,4.94,0,0,1-1.07,1.62,8.65,8.65,0,0,1-3.88,2.67,5.56,5.56,0,0,1-4.68-.46,1.46,1.46,0,0,1-.66-1.33c0-.37.24-.5.25-.48s-.06.19-.05.49a1.35,1.35,0,0,0,.67,1,5.64,5.64,0,0,0,4.31.26,9.31,9.31,0,0,0,3.77-2.42A13.51,13.51,0,0,1,458.39,220Z" style="fill:#ff9a6c"></path><path d="M458.52,223.56a3.72,3.72,0,0,1-1,1.52,7,7,0,0,1-4,2.08A5.87,5.87,0,0,1,451,227a3.1,3.1,0,0,1-1.74-1.12,1.74,1.74,0,0,1-.31-1.37c.09-.33.24-.46.26-.45s0,.18-.06.48a1.74,1.74,0,0,0,.4,1.12,4.56,4.56,0,0,0,3.88,1,7.26,7.26,0,0,0,3.76-1.83C458.05,224.09,458.45,223.51,458.52,223.56Z" style="fill:#ff9a6c"></path><path d="M457.6,228.77s-.23.44-.87.83a4.82,4.82,0,0,1-1.22.51,3.74,3.74,0,0,1-1.64,0,2.78,2.78,0,0,1-2.29-1.8,1.13,1.13,0,0,1,.18-.93c.14-.18.27-.22.28-.19a1.5,1.5,0,0,0-.11,1,2.66,2.66,0,0,0,2,1.39,4.3,4.3,0,0,0,2.59-.38A8.59,8.59,0,0,1,457.6,228.77Z" style="fill:#ff9a6c"></path><path d="M384.3,206.26a22.56,22.56,0,0,1-2.52,1.18,43.6,43.6,0,0,0-5.82,3.24,42.9,42.9,0,0,0-5.24,4.12,25.24,25.24,0,0,1-2.05,1.88,10.72,10.72,0,0,1,1.8-2.14,32.78,32.78,0,0,1,11.16-7.44A10.83,10.83,0,0,1,384.3,206.26Z" style="fill:#263238"></path><path d="M365.6,168.77s-.05.2-.16.57-.3.95-.53,1.66c-.47,1.47-1.17,3.61-2.06,6.35-1.79,5.51-4.41,13.49-7.53,23.37-.77,2.47-1.59,5.06-2.39,7.77a38,38,0,0,0-1.05,4.17,34.11,34.11,0,0,0-.35,4.45,16.46,16.46,0,0,0,2.31,8.9,15.28,15.28,0,0,0,3.12,3.71,18.25,18.25,0,0,0,2,1.5c.35.23.72.42,1.09.63a7.43,7.43,0,0,0,1.13.56,17.38,17.38,0,0,0,4.92,1.39,18.71,18.71,0,0,0,2.6.14c.44,0,.88,0,1.32-.05l1.31-.15c3.52-.56,7.09-1.45,10.69-2.37s7.26-2,11-3,7.46-2.13,11.22-3.34l17.7-5.53-.18.3c-1.39-7.1-2.73-13.95-4-20.5l.3.2-35.29,7.58-.34.07.11-.33L392,179.88c1.13-3.17,2-5.64,2.62-7.33.3-.83.53-1.46.7-1.91s.25-.64.25-.64-.06.23-.2.66-.36,1.09-.64,1.92L392.17,180c-2.21,6.4-5.41,15.63-9.35,27l-.22-.25L417.86,199l.25,0,0,.24c1.3,6.54,2.65,13.4,4.05,20.49l0,.22L422,220l-17.69,5.54c-3.77,1.2-7.53,2.27-11.23,3.34s-7.37,2.08-11,3-7.18,1.8-10.74,2.36l-1.35.16a12.25,12.25,0,0,1-1.35,0,18.44,18.44,0,0,1-2.68-.14,18.1,18.1,0,0,1-5.05-1.45,7.34,7.34,0,0,1-1.16-.57c-.37-.22-.76-.41-1.12-.65a17.15,17.15,0,0,1-2-1.55,15.76,15.76,0,0,1-3.2-3.83,17,17,0,0,1-2.36-9.14,26.71,26.71,0,0,1,1.46-8.72c.8-2.72,1.63-5.3,2.42-7.77,3.17-9.87,5.84-17.83,7.69-23.32.93-2.73,1.66-4.86,2.15-6.32.25-.71.44-1.26.58-1.64S365.6,168.77,365.6,168.77Z" style="fill:#263238"></path><path d="M390.88,147.63a2.37,2.37,0,0,1,.83.28,10.18,10.18,0,0,1,2,1.2,11.89,11.89,0,0,1,4.4,6.4,12.23,12.23,0,0,1,.06,4.34,31.59,31.59,0,0,1-.7,3.43,17.85,17.85,0,0,1-.93,3.08,22.55,22.55,0,0,1,.57-3.16c.2-1,.43-2.13.58-3.41a10.46,10.46,0,0,0-4.2-10.39A31.78,31.78,0,0,0,390.88,147.63Z" style="fill:#263238"></path><path d="M398.82,241.8a4.14,4.14,0,0,1,.75-.87l2.16-2.21c1.83-1.87,4.36-4.44,7.09-7.34s5.16-5.57,6.91-7.51l2.08-2.29c.49-.54.78-.83.81-.8a5,5,0,0,1-.66.93c-.44.58-1.11,1.4-1.95,2.4-1.68,2-4.06,4.73-6.81,7.63s-5.32,5.44-7.22,7.24c-1,.9-1.72,1.62-2.27,2.1A5.34,5.34,0,0,1,398.82,241.8Z" style="fill:#263238"></path><path d="M455.65,316.33c0-15,0-30-.46-45-.3-10.73-.77-21.48-2-32.15a117.2,117.2,0,0,0-4.56-22.95c-2.66-8.13-7.12-15.54-11.73-22.69-3.79-5.85-8.1-11.33-12.43-16.79-4.81-6-9.63-12.12-14.81-17.87-2.43-2.69-4.93-5.32-7.58-7.81s-5.58-5.19-9.06-6.7c-7-3-14.36-.69-20.47,3.36s-11.23,9.36-16.47,14.57l-23,22.84-32.85,32.61-36.83,36.56L228.43,289l-27.22,27-13.63,13.53-.6.6c-2.15,2.13,1.18,5.46,3.33,3.32l9.36-9.29,24.1-23.92,33.15-32.91,36.72-36.44L327.83,197,354,171c4.17-4.14,8.32-8.31,12.52-12.42A61.76,61.76,0,0,1,371.9,154c5.17-4,11.81-8,18.51-5.59,3.26,1.17,5.88,3.71,8.35,6,2.76,2.59,5.36,5.34,7.89,8.15,5.06,5.65,9.78,11.59,14.49,17.53,7.44,9.37,14.49,19.11,19.88,29.83.32.64.63,1.29.93,1.94.15.34.3.67.44,1,.25.57-.19-.47.05.12l.21.51q.9,2.25,1.63,4.56a90.48,90.48,0,0,1,2.56,10.26,200.77,200.77,0,0,1,3,26.71c.74,12.64.94,25.31,1.05,38,.07,7.78.08,15.56.09,23.34,0,3,4.7,3,4.7,0Z" style="fill:#455a64"></path><path d="M220.11,304c-.14.06-.57-1-1.54-1.9s-2-1.22-2-1.37a2.8,2.8,0,0,1,2.37,1A3.11,3.11,0,0,1,220.11,304Z" style="fill:#263238"></path><path d="M217.56,306.72c-.15.06-.58-1-1.54-1.9a14.41,14.41,0,0,0-2-1.37,2.81,2.81,0,0,1,2.38,1A3.11,3.11,0,0,1,217.56,306.72Z" style="fill:#263238"></path><path d="M214.71,309.42c-.14.06-.57-1-1.54-1.91s-2-1.21-2-1.36,1.29-.07,2.37,1A3.11,3.11,0,0,1,214.71,309.42Z" style="fill:#263238"></path><path d="M212,312.25c-.15.06-.58-1-1.55-1.9s-2-1.22-2-1.37a2.8,2.8,0,0,1,2.37,1A3.15,3.15,0,0,1,212,312.25Z" style="fill:#263238"></path><path d="M209,315.06c-.15.06-.58-1-1.54-1.9s-2-1.22-2-1.37a2.81,2.81,0,0,1,2.38,1A3.11,3.11,0,0,1,209,315.06Z" style="fill:#263238"></path><path d="M205.93,318.11c-.14.05-.57-1-1.54-1.91a14.72,14.72,0,0,0-2-1.36c0-.15,1.29-.07,2.37,1A3.11,3.11,0,0,1,205.93,318.11Z" style="fill:#263238"></path><path d="M202.72,321.38c-.14.05-.57-1-1.54-1.91a14.72,14.72,0,0,0-2-1.36c0-.15,1.29-.07,2.37,1A3.11,3.11,0,0,1,202.72,321.38Z" style="fill:#263238"></path><path d="M199.38,324.49c-.15.06-.58-1-1.55-1.9s-2-1.22-2-1.37a2.8,2.8,0,0,1,2.37,1A3.15,3.15,0,0,1,199.38,324.49Z" style="fill:#263238"></path><path d="M196,327.61c-.15.06-.58-1-1.55-1.91s-2-1.21-2-1.36a2.75,2.75,0,0,1,2.37,1A3.15,3.15,0,0,1,196,327.61Z" style="fill:#263238"></path><path d="M192.68,330.73c-.15,0-.58-1-1.55-1.91a14.72,14.72,0,0,0-2-1.36,2.76,2.76,0,0,1,2.37,1A3.13,3.13,0,0,1,192.68,330.73Z" style="fill:#263238"></path><path d="M190.69,333.71c-.11.11-.95-.65-2.21-1.07a17.78,17.78,0,0,0-2.4-.38,2.8,2.8,0,0,1,2.56-.11C190.06,332.62,190.8,333.64,190.69,333.71Z" style="fill:#263238"></path><path d="M190,338c-.11.12-.94-.65-2.21-1.07a15.14,15.14,0,0,0-2.4-.37,2.76,2.76,0,0,1,2.57-.12C189.36,336.88,190.1,337.9,190,338Z" style="fill:#263238"></path><path d="M189.12,342.44c-.11.11-.94-.65-2.21-1.07a15.89,15.89,0,0,0-2.4-.38,2.78,2.78,0,0,1,2.57-.11C188.5,341.35,189.23,342.36,189.12,342.44Z" style="fill:#263238"></path><path d="M188.15,347.28c-.1.11-.94-.66-2.2-1.07a14.73,14.73,0,0,0-2.41-.38,2.79,2.79,0,0,1,2.57-.11C187.53,346.19,188.26,347.2,188.15,347.28Z" style="fill:#263238"></path><path d="M187.37,351.55c-.11.11-.94-.65-2.21-1.07a15.89,15.89,0,0,0-2.4-.38,2.82,2.82,0,0,1,2.57-.11C186.74,350.46,187.48,351.48,187.37,351.55Z" style="fill:#263238"></path><path d="M186.59,355.82c-.11.12-1-.65-2.21-1.06a14.69,14.69,0,0,0-2.4-.38,2.75,2.75,0,0,1,2.56-.12C186,354.74,186.7,355.75,186.59,355.82Z" style="fill:#263238"></path><path d="M185.8,360.1c-.1.11-.94-.66-2.2-1.07a14.57,14.57,0,0,0-2.41-.38,2.79,2.79,0,0,1,2.57-.11C185.18,359,185.91,360,185.8,360.1Z" style="fill:#263238"></path><path d="M185.37,364.51c-.1.12-1-.6-2.26-.94a15.18,15.18,0,0,0-2.42-.25,2.79,2.79,0,0,1,2.56-.26C184.69,363.46,185.48,364.43,185.37,364.51Z" style="fill:#263238"></path><path d="M184.56,368.8c-.09.13-1-.51-2.33-.74a15.3,15.3,0,0,0-2.43,0,2.79,2.79,0,0,1,2.52-.48A3.11,3.11,0,0,1,184.56,368.8Z" style="fill:#263238"></path><path d="M183.69,372.38c-.09.12-1-.52-2.33-.75a16.17,16.17,0,0,0-2.44,0,2.83,2.83,0,0,1,2.53-.48A3.11,3.11,0,0,1,183.69,372.38Z" style="fill:#263238"></path><path d="M183.27,376.16c-.09.13-1.06-.45-2.38-.6a14.89,14.89,0,0,0-2.43.12A2.79,2.79,0,0,1,181,375,3.18,3.18,0,0,1,183.27,376.16Z" style="fill:#263238"></path><path d="M182.62,379.78c-.09.14-1.06-.44-2.38-.59a15.59,15.59,0,0,0-2.43.11,2.77,2.77,0,0,1,2.49-.63A3.15,3.15,0,0,1,182.62,379.78Z" style="fill:#263238"></path><path d="M182,383.41c-.09.13-1.06-.45-2.38-.6a14.89,14.89,0,0,0-2.43.12,2.76,2.76,0,0,1,2.49-.64A3.14,3.14,0,0,1,182,383.41Z" style="fill:#263238"></path><path d="M181.32,387c-.09.13-1.06-.45-2.38-.6a14.89,14.89,0,0,0-2.43.12,2.77,2.77,0,0,1,2.49-.63A3.15,3.15,0,0,1,181.32,387Z" style="fill:#263238"></path><path d="M180.67,390.65c-.09.14-1.06-.44-2.38-.59a15.59,15.59,0,0,0-2.43.11,2.77,2.77,0,0,1,2.49-.63A3.15,3.15,0,0,1,180.67,390.65Z" style="fill:#263238"></path><path d="M180.08,394.87c-.08.13-1.06-.45-2.38-.6a15,15,0,0,0-2.43.12,2.81,2.81,0,0,1,2.49-.64A3.18,3.18,0,0,1,180.08,394.87Z" style="fill:#263238"></path><path d="M179.49,399.08c-.08.14-1.05-.44-2.38-.59a15.81,15.81,0,0,0-2.43.11,2.8,2.8,0,0,1,2.49-.63A3.16,3.16,0,0,1,179.49,399.08Z" style="fill:#263238"></path><path d="M178.8,403.05c-.08.14-1.06-.44-2.38-.59a15.7,15.7,0,0,0-2.43.11,2.8,2.8,0,0,1,2.49-.63A3.16,3.16,0,0,1,178.8,403.05Z" style="fill:#263238"></path><path d="M178.11,407c-.08.14-1.06-.44-2.38-.59a15.7,15.7,0,0,0-2.43.11,2.79,2.79,0,0,1,2.49-.63A3.19,3.19,0,0,1,178.11,407Z" style="fill:#263238"></path><path d="M177.42,411c-.09.14-1.06-.44-2.38-.59a15.59,15.59,0,0,0-2.43.11,2.77,2.77,0,0,1,2.49-.63A3.15,3.15,0,0,1,177.42,411Z" style="fill:#263238"></path><path d="M176.73,415c-.09.13-1.06-.45-2.38-.6a16.33,16.33,0,0,0-2.43.12,2.77,2.77,0,0,1,2.49-.63A3.15,3.15,0,0,1,176.73,415Z" style="fill:#263238"></path><path d="M176,418.93c-.08.13-1.05-.45-2.37-.6a14.89,14.89,0,0,0-2.43.12,2.77,2.77,0,0,1,2.49-.63A3.09,3.09,0,0,1,176,418.93Z" style="fill:#263238"></path><path d="M175.34,422.9c-.08.13-1.05-.45-2.38-.6a14.82,14.82,0,0,0-2.42.12,2.77,2.77,0,0,1,2.49-.63A3.12,3.12,0,0,1,175.34,422.9Z" style="fill:#263238"></path><path d="M174.65,426.87c-.08.13-1.05-.45-2.38-.6a15.1,15.1,0,0,0-2.43.12,2.8,2.8,0,0,1,2.49-.63A3.12,3.12,0,0,1,174.65,426.87Z" style="fill:#263238"></path><path d="M174,430.84c-.08.13-1.06-.45-2.38-.6a15.1,15.1,0,0,0-2.43.12,2.82,2.82,0,0,1,2.49-.64A3.15,3.15,0,0,1,174,430.84Z" style="fill:#263238"></path><path d="M173.27,434.81c-.08.13-1.06-.45-2.38-.6a15,15,0,0,0-2.43.12,2.79,2.79,0,0,1,2.49-.64A3.11,3.11,0,0,1,173.27,434.81Z" style="fill:#263238"></path><path d="M172.58,438.78c-.09.13-1.06-.45-2.38-.6a15,15,0,0,0-2.43.12,2.76,2.76,0,0,1,2.49-.64A3.14,3.14,0,0,1,172.58,438.78Z" style="fill:#263238"></path><path d="M171.89,442.75c-.09.13-1.06-.45-2.38-.6a14.89,14.89,0,0,0-2.43.12,2.76,2.76,0,0,1,2.49-.64A3.14,3.14,0,0,1,171.89,442.75Z" style="fill:#263238"></path><path d="M171.2,446.72c-.09.13-1.06-.45-2.38-.6a14.89,14.89,0,0,0-2.43.12,2.76,2.76,0,0,1,2.49-.64A3.14,3.14,0,0,1,171.2,446.72Z" style="fill:#263238"></path><path d="M170.5,450.69c-.08.13-1.05-.45-2.37-.6a17.19,17.19,0,0,0-2.43.11,2.77,2.77,0,0,1,2.49-.63A3.08,3.08,0,0,1,170.5,450.69Z" style="fill:#263238"></path><path d="M169.81,454.65c-.08.14-1.05-.44-2.38-.59a15.52,15.52,0,0,0-2.42.11,2.77,2.77,0,0,1,2.49-.63A3.15,3.15,0,0,1,169.81,454.65Z" style="fill:#263238"></path><path d="M169.12,458.62c-.08.14-1.05-.44-2.38-.59a15.81,15.81,0,0,0-2.43.11,2.8,2.8,0,0,1,2.49-.63A3.16,3.16,0,0,1,169.12,458.62Z" style="fill:#263238"></path><path d="M168.43,462.59c-.08.14-1.06-.44-2.38-.59a15.81,15.81,0,0,0-2.43.11,2.8,2.8,0,0,1,2.49-.63A3.12,3.12,0,0,1,168.43,462.59Z" style="fill:#263238"></path><path d="M223,301.17c-.14.06-.57-1-1.54-1.9s-2-1.22-2-1.37a2.8,2.8,0,0,1,2.37,1A3.11,3.11,0,0,1,223,301.17Z" style="fill:#263238"></path><path d="M225.7,298.44c-.15.05-.58-1-1.55-1.91a14.72,14.72,0,0,0-2-1.36,2.76,2.76,0,0,1,2.37,1A3.18,3.18,0,0,1,225.7,298.44Z" style="fill:#263238"></path><path d="M228.43,295.7c-.14.06-.57-1-1.54-1.9s-2-1.22-2-1.37a2.8,2.8,0,0,1,2.37,1A3.11,3.11,0,0,1,228.43,295.7Z" style="fill:#263238"></path><path d="M231.17,293c-.15,0-.58-1-1.55-1.91a14.72,14.72,0,0,0-2-1.36,2.76,2.76,0,0,1,2.37,1A3.18,3.18,0,0,1,231.17,293Z" style="fill:#263238"></path><path d="M233.9,290.23c-.14.06-.57-1-1.54-1.9s-2-1.22-2-1.37a2.8,2.8,0,0,1,2.37,1A3.11,3.11,0,0,1,233.9,290.23Z" style="fill:#263238"></path><path d="M236.64,287.5c-.15.05-.58-1-1.55-1.91a14.72,14.72,0,0,0-2-1.36,2.75,2.75,0,0,1,2.37,1A3.15,3.15,0,0,1,236.64,287.5Z" style="fill:#263238"></path><path d="M239.37,284.76c-.14.06-.57-1-1.54-1.9s-2-1.22-2-1.37a2.8,2.8,0,0,1,2.37,1A3.11,3.11,0,0,1,239.37,284.76Z" style="fill:#263238"></path><path d="M242.11,282c-.15.05-.58-1-1.55-1.91a14.72,14.72,0,0,0-2-1.36,2.75,2.75,0,0,1,2.37,1A3.15,3.15,0,0,1,242.11,282Z" style="fill:#263238"></path><path d="M244.84,279.29c-.14.06-.57-1-1.54-1.9s-2-1.22-2-1.37a2.8,2.8,0,0,1,2.37,1A3.11,3.11,0,0,1,244.84,279.29Z" style="fill:#263238"></path><path d="M247.58,276.56c-.15.05-.58-1-1.55-1.91a14.72,14.72,0,0,0-2-1.36c0-.15,1.29-.07,2.37,1A3.15,3.15,0,0,1,247.58,276.56Z" style="fill:#263238"></path><path d="M250.31,273.82c-.14.06-.57-1-1.54-1.9a15.52,15.52,0,0,0-2-1.37,2.81,2.81,0,0,1,2.38,1A3.11,3.11,0,0,1,250.31,273.82Z" style="fill:#263238"></path><path d="M253.05,271.09c-.15.06-.58-1-1.55-1.91s-2-1.21-2-1.36,1.29-.07,2.37,1A3.15,3.15,0,0,1,253.05,271.09Z" style="fill:#263238"></path><path d="M255.9,268.51c-.15.05-.58-1-1.55-1.91a14.72,14.72,0,0,0-2-1.36,2.76,2.76,0,0,1,2.37,1A3.16,3.16,0,0,1,255.9,268.51Z" style="fill:#263238"></path><path d="M258.69,265.77c-.14.06-.57-1-1.54-1.9s-2-1.22-2-1.37a2.8,2.8,0,0,1,2.37,1A3.11,3.11,0,0,1,258.69,265.77Z" style="fill:#263238"></path><path d="M261.41,263c-.15.05-.58-1-1.55-1.91a14.72,14.72,0,0,0-2-1.36c0-.15,1.29-.07,2.37,1A3.16,3.16,0,0,1,261.41,263Z" style="fill:#263238"></path><path d="M264.09,260.23c-.15.06-.58-1-1.55-1.9s-2-1.22-2-1.37a2.8,2.8,0,0,1,2.37,1A3.15,3.15,0,0,1,264.09,260.23Z" style="fill:#263238"></path><path d="M266.91,257.42c-.15.05-.58-1-1.55-1.91a14.72,14.72,0,0,0-2-1.36,2.76,2.76,0,0,1,2.37,1A3.12,3.12,0,0,1,266.91,257.42Z" style="fill:#263238"></path><path d="M269.56,254.82c-.15.05-.58-1-1.55-1.91a14.72,14.72,0,0,0-2-1.36c0-.15,1.29-.07,2.37,1A3.16,3.16,0,0,1,269.56,254.82Z" style="fill:#263238"></path><path d="M272.38,252.17c-.15.06-.58-1-1.55-1.9s-2-1.22-2-1.37a2.79,2.79,0,0,1,2.37,1A3.15,3.15,0,0,1,272.38,252.17Z" style="fill:#263238"></path><path d="M274.92,249.21c-.14.06-.57-1-1.54-1.9s-2-1.22-2-1.37a2.8,2.8,0,0,1,2.37,1A3.11,3.11,0,0,1,274.92,249.21Z" style="fill:#263238"></path><path d="M278,246.64c-.15.05-.58-1-1.54-1.91a15.16,15.16,0,0,0-2-1.36,2.78,2.78,0,0,1,2.38,1A3.14,3.14,0,0,1,278,246.64Z" style="fill:#263238"></path><path d="M280.66,244.12c-.15,0-.58-1-1.54-1.91a15.16,15.16,0,0,0-2-1.36,2.75,2.75,0,0,1,2.37,1A3.1,3.1,0,0,1,280.66,244.12Z" style="fill:#263238"></path><path d="M283.16,241.51c-.14.05-.57-1-1.54-1.91a13.84,13.84,0,0,0-2-1.36,2.78,2.78,0,0,1,2.38,1A3.14,3.14,0,0,1,283.16,241.51Z" style="fill:#263238"></path><path d="M286,238.58c-.15,0-.58-1-1.55-1.91a14.72,14.72,0,0,0-2-1.36,2.76,2.76,0,0,1,2.37,1A3.16,3.16,0,0,1,286,238.58Z" style="fill:#263238"></path><path d="M288.91,235.85c-.15.06-.58-1-1.55-1.9s-2-1.22-2-1.37a2.79,2.79,0,0,1,2.37,1A3.15,3.15,0,0,1,288.91,235.85Z" style="fill:#263238"></path><path d="M291.63,233c-.14.06-.57-1-1.54-1.91s-2-1.21-2-1.36,1.29-.07,2.37,1A3.11,3.11,0,0,1,291.63,233Z" style="fill:#263238"></path><path d="M294.07,230.39c-.15.05-.58-1-1.55-1.91a14.72,14.72,0,0,0-2-1.36,2.76,2.76,0,0,1,2.37,1A3.18,3.18,0,0,1,294.07,230.39Z" style="fill:#263238"></path><path d="M297,227.69c-.14.05-.57-1-1.54-1.91a14.72,14.72,0,0,0-2-1.36c0-.15,1.29-.07,2.37,1A3.11,3.11,0,0,1,297,227.69Z" style="fill:#263238"></path><path d="M299.79,224.9c-.14.06-.57-1-1.54-1.91s-2-1.21-2-1.36a2.8,2.8,0,0,1,2.37,1A3.11,3.11,0,0,1,299.79,224.9Z" style="fill:#263238"></path><path d="M302.59,222.21c-.15,0-.58-1-1.55-1.91a14.72,14.72,0,0,0-2-1.36c0-.15,1.29-.07,2.37,1A3.16,3.16,0,0,1,302.59,222.21Z" style="fill:#263238"></path><path d="M305.19,219.53c-.14.06-.57-1-1.54-1.9s-2-1.22-2-1.37a2.8,2.8,0,0,1,2.37,1A3.11,3.11,0,0,1,305.19,219.53Z" style="fill:#263238"></path><path d="M307.91,216.82c-.14.06-.57-1-1.54-1.9a14.72,14.72,0,0,0-2-1.36c0-.15,1.29-.07,2.37,1A3.11,3.11,0,0,1,307.91,216.82Z" style="fill:#263238"></path><path d="M310.78,213.85c-.15.05-.58-1-1.55-1.91a14.72,14.72,0,0,0-2-1.36,2.75,2.75,0,0,1,2.37,1A3.15,3.15,0,0,1,310.78,213.85Z" style="fill:#263238"></path><path d="M313.69,211.12c-.15,0-.58-1-1.54-1.91a15.16,15.16,0,0,0-2-1.36,2.75,2.75,0,0,1,2.37,1A3.1,3.1,0,0,1,313.69,211.12Z" style="fill:#263238"></path><path d="M316.3,208.48c-.15.06-.58-1-1.54-1.9s-2.05-1.22-2-1.37a2.79,2.79,0,0,1,2.37,1A3.1,3.1,0,0,1,316.3,208.48Z" style="fill:#263238"></path><path d="M318.94,205.77c-.15.06-.58-1-1.54-1.9s-2-1.22-2-1.37a2.79,2.79,0,0,1,2.37,1A3.1,3.1,0,0,1,318.94,205.77Z" style="fill:#263238"></path><path d="M321.79,203c-.14.06-.57-1-1.54-1.9s-2-1.22-2-1.37a2.8,2.8,0,0,1,2.37,1A3.11,3.11,0,0,1,321.79,203Z" style="fill:#263238"></path><path d="M324.52,200.34c-.14.06-.57-1-1.54-1.9s-2-1.22-2-1.37a2.8,2.8,0,0,1,2.37,1A3.11,3.11,0,0,1,324.52,200.34Z" style="fill:#263238"></path><path d="M327.23,197.79c-.14.05-.57-1-1.54-1.91a13.84,13.84,0,0,0-2-1.36,2.78,2.78,0,0,1,2.38,1A3.14,3.14,0,0,1,327.23,197.79Z" style="fill:#263238"></path><path d="M329.84,195.05c-.14.06-.57-1-1.54-1.9s-2-1.22-2-1.37a2.8,2.8,0,0,1,2.37,1A3.11,3.11,0,0,1,329.84,195.05Z" style="fill:#263238"></path><path d="M332.66,192.13c-.15.06-.58-1-1.55-1.9s-2-1.22-2-1.37a2.79,2.79,0,0,1,2.37,1A3.15,3.15,0,0,1,332.66,192.13Z" style="fill:#263238"></path><path d="M335.5,189.58c-.15.06-.58-1-1.54-1.9s-2-1.22-2-1.37a2.81,2.81,0,0,1,2.38,1A3.11,3.11,0,0,1,335.5,189.58Z" style="fill:#263238"></path><path d="M338.39,186.64c-.15.06-.58-1-1.55-1.9s-2-1.22-2-1.37a2.82,2.82,0,0,1,2.37,1A3.15,3.15,0,0,1,338.39,186.64Z" style="fill:#263238"></path><path d="M341.08,184c-.14.05-.57-1-1.54-1.91a14.72,14.72,0,0,0-2-1.36c0-.15,1.29-.07,2.37,1A3.14,3.14,0,0,1,341.08,184Z" style="fill:#263238"></path><path d="M343.94,181.21c-.15.06-.58-1-1.55-1.9s-2-1.22-2-1.37a2.8,2.8,0,0,1,2.37,1A3.15,3.15,0,0,1,343.94,181.21Z" style="fill:#263238"></path><path d="M346.56,178.4c-.15.06-.58-1-1.55-1.9s-2-1.22-2-1.37a2.8,2.8,0,0,1,2.37,1A3.15,3.15,0,0,1,346.56,178.4Z" style="fill:#263238"></path><path d="M349.36,175.63c-.14.06-.57-1-1.54-1.9s-2-1.22-2-1.37a2.8,2.8,0,0,1,2.37,1A3.11,3.11,0,0,1,349.36,175.63Z" style="fill:#263238"></path><path d="M352.12,172.64c-.15.05-.58-1-1.55-1.91a14.72,14.72,0,0,0-2-1.36,2.75,2.75,0,0,1,2.37,1A3.1,3.1,0,0,1,352.12,172.64Z" style="fill:#263238"></path><path d="M355.23,169.9c-.15.06-.58-1-1.55-1.9s-2-1.22-2-1.37a2.8,2.8,0,0,1,2.37,1A3.15,3.15,0,0,1,355.23,169.9Z" style="fill:#263238"></path><path d="M358.14,167.06c-.14.06-.57-1-1.54-1.9s-2-1.22-2-1.37a2.8,2.8,0,0,1,2.37,1A3.11,3.11,0,0,1,358.14,167.06Z" style="fill:#263238"></path><path d="M361.06,164.22c-.14.06-.57-1-1.54-1.9s-2-1.22-2-1.37a2.8,2.8,0,0,1,2.37,1A3.11,3.11,0,0,1,361.06,164.22Z" style="fill:#263238"></path><path d="M364,161.38c-.15.06-.58-1-1.54-1.9a14.41,14.41,0,0,0-2-1.37,2.81,2.81,0,0,1,2.38,1A3.11,3.11,0,0,1,364,161.38Z" style="fill:#263238"></path><path d="M366.9,158.54c-.15.06-.58-1-1.55-1.9s-2-1.22-2-1.37a2.79,2.79,0,0,1,2.37,1A3.1,3.1,0,0,1,366.9,158.54Z" style="fill:#263238"></path><path d="M369.82,155.7c-.15.06-.58-1-1.55-1.9s-2-1.22-2-1.37a2.8,2.8,0,0,1,2.37,1A3.15,3.15,0,0,1,369.82,155.7Z" style="fill:#263238"></path><path d="M373,153.12c-.15.06-.58-1-1.54-1.9s-2-1.22-2-1.37a2.79,2.79,0,0,1,2.37,1A3.1,3.1,0,0,1,373,153.12Z" style="fill:#263238"></path><path d="M376.15,151.25c-.15,0-.34-1.09-1.08-2.19s-1.73-1.64-1.67-1.78,1.28.22,2.1,1.49A3.1,3.1,0,0,1,376.15,151.25Z" style="fill:#263238"></path><path d="M379.88,149.19c-.15,0-.09-1.14-.58-2.38a15.26,15.26,0,0,0-1.23-2.1c.05-.13,1.2.5,1.72,1.91A3.08,3.08,0,0,1,379.88,149.19Z" style="fill:#263238"></path><path d="M384,147.87c-.15,0,.17-1.13,0-2.45a14.42,14.42,0,0,0-.72-2.32c.08-.12,1.06.75,1.24,2.25A3.09,3.09,0,0,1,384,147.87Z" style="fill:#263238"></path><path d="M387.7,147.87c-.13-.09.51-1,.75-2.33a14.16,14.16,0,0,0,0-2.44,2.78,2.78,0,0,1,.47,2.53A3.11,3.11,0,0,1,387.7,147.87Z" style="fill:#263238"></path><path d="M392,149.19c-.11-.12.73-.88,1.24-2.11a16.4,16.4,0,0,0,.58-2.36,2.79,2.79,0,0,1-.1,2.56C393.15,148.66,392.08,149.31,392,149.19Z" style="fill:#263238"></path><path d="M395.63,151.31c-.08-.14.9-.72,1.67-1.8a16.58,16.58,0,0,0,1.06-2.19,2.81,2.81,0,0,1-.64,2.49A3.15,3.15,0,0,1,395.63,151.31Z" style="fill:#263238"></path><path d="M398.57,154.25c-.08-.14.9-.72,1.67-1.8a16.58,16.58,0,0,0,1.06-2.19,2.81,2.81,0,0,1-.64,2.49A3.15,3.15,0,0,1,398.57,154.25Z" style="fill:#263238"></path><path d="M401.51,157.19c-.08-.14.9-.71,1.67-1.8a16.58,16.58,0,0,0,1.06-2.19,2.81,2.81,0,0,1-.64,2.49A3.15,3.15,0,0,1,401.51,157.19Z" style="fill:#263238"></path><path d="M404.45,160.13c-.08-.14.9-.71,1.67-1.8a15.22,15.22,0,0,0,1.06-2.19,2.73,2.73,0,0,1-.64,2.49A3.15,3.15,0,0,1,404.45,160.13Z" style="fill:#263238"></path><path d="M407.34,163.22c-.06-.14,1-.57,1.91-1.54a13.87,13.87,0,0,0,1.37-2c.15,0,.07,1.29-1,2.36A3.14,3.14,0,0,1,407.34,163.22Z" style="fill:#263238"></path><path d="M410.36,166.85c-.05-.15,1-.58,1.91-1.54s1.23-2,1.38-2a2.82,2.82,0,0,1-1,2.37A3.13,3.13,0,0,1,410.36,166.85Z" style="fill:#263238"></path><path d="M413.39,170.47c-.06-.15,1-.57,1.91-1.54s1.22-2,1.37-2,.07,1.3-1,2.37A3.11,3.11,0,0,1,413.39,170.47Z" style="fill:#263238"></path><path d="M416.41,174.09c-.05-.14,1-.57,1.91-1.54a13.87,13.87,0,0,0,1.37-2c.15,0,.07,1.29-1,2.36A3.14,3.14,0,0,1,416.41,174.09Z" style="fill:#263238"></path><path d="M419.44,177.72c-.05-.15.95-.52,1.87-1.36s1.27-1.83,1.41-1.8.08.3-.06.73a3.45,3.45,0,0,1-1,1.45A3.06,3.06,0,0,1,419.44,177.72Z" style="fill:#263238"></path><path d="M422.46,181.34c0-.15.92-.52,1.81-1.35s1.22-1.79,1.36-1.77.09.3-.05.72a3.39,3.39,0,0,1-.95,1.43A2.86,2.86,0,0,1,422.46,181.34Z" style="fill:#263238"></path><path d="M425.68,185.42c-.05-.15.92-.52,1.81-1.35s1.22-1.79,1.36-1.76.09.29-.05.72a3.37,3.37,0,0,1-.95,1.42A2.85,2.85,0,0,1,425.68,185.42Z" style="fill:#263238"></path><path d="M428.83,189.8c-.05-.14.92-.51,1.81-1.34s1.21-1.8,1.35-1.77.09.29,0,.72a3.49,3.49,0,0,1-1,1.43A2.85,2.85,0,0,1,428.83,189.8Z" style="fill:#263238"></path><path d="M441.79,210.94c0-.16,1-.2,2.14-.7s1.72-1.32,1.85-1.25,0,.31-.27.67a3.49,3.49,0,0,1-1.36,1.05A2.88,2.88,0,0,1,441.79,210.94Z" style="fill:#263238"></path><path d="M443.08,213.47c0-.16,1-.2,2.14-.7a12.93,12.93,0,0,0,1.85-1.25c.06,0,0,.31-.27.67a3.4,3.4,0,0,1-1.36,1.05A2.88,2.88,0,0,1,443.08,213.47Z" style="fill:#263238"></path><path d="M445.51,221.31c0-.15,1-.2,2.15-.7s1.72-1.32,1.84-1.24,0,.3-.27.66a3.4,3.4,0,0,1-1.36,1.05A2.84,2.84,0,0,1,445.51,221.31Z" style="fill:#263238"></path><path d="M446.58,224.52c0-.16,1-.2,2.15-.7s1.72-1.32,1.84-1.25,0,.31-.27.67a3.49,3.49,0,0,1-1.36,1A2.89,2.89,0,0,1,446.58,224.52Z" style="fill:#263238"></path><path d="M447.35,228.21c0-.15,1-.2,2.14-.7s1.73-1.32,1.85-1.24,0,.3-.27.66a3.4,3.4,0,0,1-1.36,1A2.84,2.84,0,0,1,447.35,228.21Z" style="fill:#263238"></path><path d="M447.5,231.6c0-.16,1.06,0,2.25-.23a14.93,14.93,0,0,0,2.07-.82c.05,0-.08.29-.41.59a3.56,3.56,0,0,1-1.55.74A2.9,2.9,0,0,1,447.5,231.6Z" style="fill:#263238"></path><path d="M448.08,235.1c0-.16,1.06,0,2.25-.23a14.34,14.34,0,0,0,2.07-.82c.05,0-.07.29-.41.59a3.45,3.45,0,0,1-1.55.74A2.91,2.91,0,0,1,448.08,235.1Z" style="fill:#263238"></path><path d="M448.67,238.6c0-.15,1.05,0,2.24-.23a13.78,13.78,0,0,0,2.07-.82s-.07.3-.41.59a3.4,3.4,0,0,1-1.55.74A2.88,2.88,0,0,1,448.67,238.6Z" style="fill:#263238"></path><path d="M448.88,242c.06-.14,1.07.21,2.33.15a13.52,13.52,0,0,0,2.24-.5c0,.05-.13.28-.52.53a3.6,3.6,0,0,1-1.69.49A3.06,3.06,0,0,1,448.88,242Z" style="fill:#263238"></path><path d="M449.2,245.77c.06-.14,1.07.22,2.33.15a12.43,12.43,0,0,0,2.24-.5c0,.05-.13.29-.52.53a3.6,3.6,0,0,1-1.69.49A3,3,0,0,1,449.2,245.77Z" style="fill:#263238"></path><path d="M449.48,249.2c0-.14,1.06.21,2.32.15a12.43,12.43,0,0,0,2.24-.5c0,.05-.12.28-.51.53a3.68,3.68,0,0,1-1.7.49A3,3,0,0,1,449.48,249.2Z" style="fill:#263238"></path><path d="M449.75,252.63c.05-.15,1.07.21,2.32.15a13,13,0,0,0,2.24-.51c.05.06-.12.29-.51.54a3.68,3.68,0,0,1-1.7.49A3,3,0,0,1,449.75,252.63Z" style="fill:#263238"></path><path d="M450,256.06c.06-.15,1.07.21,2.32.14a12.68,12.68,0,0,0,2.25-.5c0,.05-.13.29-.52.53a3.53,3.53,0,0,1-1.7.49A3,3,0,0,1,450,256.06Z" style="fill:#263238"></path><path d="M450.29,259.49c.06-.15,1.07.21,2.33.14a12.7,12.7,0,0,0,2.24-.5c0,.05-.13.29-.52.53a3.5,3.5,0,0,1-1.7.49A3,3,0,0,1,450.29,259.49Z" style="fill:#263238"></path><path d="M450.56,262.91c.06-.14,1.07.21,2.33.15a12.43,12.43,0,0,0,2.24-.5c0,.05-.13.29-.52.53a3.61,3.61,0,0,1-1.7.49A3,3,0,0,1,450.56,262.91Z" style="fill:#263238"></path><path d="M450.56,266.73c.06-.15,1.07.21,2.33.14a12.43,12.43,0,0,0,2.24-.5c0,.05-.13.29-.52.53a3.5,3.5,0,0,1-1.7.49A3,3,0,0,1,450.56,266.73Z" style="fill:#263238"></path><path d="M450.72,270.3c.06-.14,1,.28,2.31.3a13.8,13.8,0,0,0,2.27-.35c0,.05-.15.28-.55.49a3.58,3.58,0,0,1-1.73.38A3,3,0,0,1,450.72,270.3Z" style="fill:#263238"></path><path d="M450.76,273.74c.07-.14,1.05.28,2.31.3a13.35,13.35,0,0,0,2.27-.35c0,.05-.15.27-.55.49a3.52,3.52,0,0,1-1.73.38A3,3,0,0,1,450.76,273.74Z" style="fill:#263238"></path><path d="M450.8,277.18c.07-.15,1.06.28,2.31.3a11.81,11.81,0,0,0,2.27-.36c0,.06-.14.28-.55.5a3.64,3.64,0,0,1-1.73.38A3.05,3.05,0,0,1,450.8,277.18Z" style="fill:#263238"></path><path d="M450.73,281.08c.07-.15,1.06.28,2.32.3a12.18,12.18,0,0,0,2.27-.36c0,.06-.15.28-.56.5a3.62,3.62,0,0,1-1.72.38A3.07,3.07,0,0,1,450.73,281.08Z" style="fill:#263238"></path><path d="M450.9,285.11c.07-.14,1.06.28,2.31.3a13.35,13.35,0,0,0,2.27-.35c0,.05-.14.28-.55.49a3.52,3.52,0,0,1-1.73.38A3,3,0,0,1,450.9,285.11Z" style="fill:#263238"></path><path d="M450.9,289c.07-.14,1.06.28,2.31.3a13.35,13.35,0,0,0,2.27-.35c0,.05-.14.28-.55.49a3.52,3.52,0,0,1-1.73.38A3,3,0,0,1,450.9,289Z" style="fill:#263238"></path><path d="M450.91,293.17c.07-.15,1,.28,2.31.3a11.81,11.81,0,0,0,2.27-.36c0,.06-.14.28-.55.5a3.64,3.64,0,0,1-1.73.38A3,3,0,0,1,450.91,293.17Z" style="fill:#263238"></path><path d="M450.91,297.1c.07-.15,1,.28,2.31.3a11.81,11.81,0,0,0,2.27-.36c0,.06-.14.28-.55.5a3.64,3.64,0,0,1-1.73.38A3,3,0,0,1,450.91,297.1Z" style="fill:#263238"></path><path d="M450.92,301.22c.06-.14,1.05.28,2.31.3a13.35,13.35,0,0,0,2.27-.35c0,.05-.15.28-.55.49a3.52,3.52,0,0,1-1.73.38A3,3,0,0,1,450.92,301.22Z" style="fill:#263238"></path><path d="M450.92,305.15c.06-.14,1.05.28,2.31.3a13.35,13.35,0,0,0,2.27-.35s-.15.28-.55.49a3.52,3.52,0,0,1-1.73.38A3,3,0,0,1,450.92,305.15Z" style="fill:#263238"></path><path d="M450.92,309.28c.07-.15,1.06.28,2.32.3a12.18,12.18,0,0,0,2.27-.36c0,.06-.15.28-.56.5a3.62,3.62,0,0,1-1.72.38A3.07,3.07,0,0,1,450.92,309.28Z" style="fill:#263238"></path><path d="M450.92,313.21c.07-.15,1.06.28,2.32.3a12.18,12.18,0,0,0,2.27-.36c0,.06-.15.28-.56.5a3.62,3.62,0,0,1-1.72.38A3.07,3.07,0,0,1,450.92,313.21Z" style="fill:#263238"></path><path d="M418.8,202.36l3.33-1.54c1.46-4.18,2.83-7.09,4.37-8.14,2.14-1.45,9.52-6.27,9.52-6.27h-.12s5.42-1.52,6.67-.07-.63,3.47-.63,3.47a5.08,5.08,0,0,1,3.86,1.68c1.38,1.77-.16,4.21-.16,4.21a1.91,1.91,0,0,1,2.13,1.21c.7,1.55-1.83,4.69-1.83,4.69a3.26,3.26,0,0,1,2.18,1.45c.51,1.15-1.58,2.67-2.25,3.24s-17.37,7.31-17.37,7.31l-7.07,2.05Z" style="fill:#ffbf9d"></path><path d="M436.58,229.42c.22-.6,3-8.33,3-8.33l5.25-8.12,9.47-3a4.24,4.24,0,0,1-1.45,5.27c-3,2.27-4.55,2-4.55,2l-1.37,3.12s4.19,12-3.49,16.56l-3.9.2Z" style="fill:#ffbf9d"></path><path d="M454.28,210.16a2.06,2.06,0,0,1,.23.78,4.49,4.49,0,0,1-.16,2.29,5.89,5.89,0,0,1-2.16,2.75,14.38,14.38,0,0,1-3.94,2l.14-.11a18.09,18.09,0,0,0-.89,1.82,3.29,3.29,0,0,0-.28,1,.52.52,0,0,0,0,.17l.09.27.15.54a19.44,19.44,0,0,1-.33,10.68,9.21,9.21,0,0,1-1.61,2.84,5.55,5.55,0,0,1-.62.64c-.15.13-.23.2-.25.19a12.15,12.15,0,0,0,2.14-3.79,20.35,20.35,0,0,0,.17-10.43l-.15-.52-.08-.26a1,1,0,0,1,0-.36,3.76,3.76,0,0,1,.31-1.12,18.12,18.12,0,0,1,.94-1.87l0-.08.09,0a14.81,14.81,0,0,0,3.85-1.84,5.63,5.63,0,0,0,2.11-2.52,4.78,4.78,0,0,0,.3-2.15A4.78,4.78,0,0,1,454.28,210.16Z" style="fill:#ff9a6c"></path></g></svg>