<svg xmlns="http://www.w3.org/2000/svg" xmlns:xlink="http://www.w3.org/1999/xlink" width="5000" zoomAndPan="magnify" viewBox="0 0 3750 3749.999967" height="5000" preserveAspectRatio="xMidYMid meet" version="1.0"><defs><g/></defs><g fill="#000000" fill-opacity="1"><g transform="translate(488.465112, 2176.902382)"><g><path d="M 1563.8125 -350.734375 C 1552.457031 -349.367188 1540.941406 -348.066406 1529.265625 -346.828125 C 1518.671875 -345.472656 1508 -344.191406 1497.25 -342.984375 C 1420.039062 -332.804688 1343.203125 -320.28125 1266.734375 -305.40625 C 1178.910156 -289.007812 1091.3125 -269.882812 1003.9375 -248.03125 C 988.695312 -244.269531 974.664062 -237.726562 961.84375 -228.40625 C 859.019531 -155.6875 752.65625 -89.894531 642.75 -31.03125 C 532.84375 27.820312 419.894531 80.882812 303.90625 128.15625 C 253.300781 149.59375 201.691406 167.875 149.078125 183 C 124.796875 190.050781 100.003906 194.757812 74.703125 197.125 C 71.378906 197.53125 68.050781 197.78125 64.71875 197.875 C 53.332031 198.632812 42.421875 197.109375 31.984375 193.296875 C 15.691406 186.765625 10.515625 175.207031 16.453125 158.625 C 21.140625 146.800781 28.21875 136.273438 37.6875 127.046875 C 56.144531 107.859375 76.734375 91.265625 99.453125 77.265625 C 155.316406 42.296875 213.253906 11.222656 273.265625 -15.953125 C 332.679688 -43.578125 392.984375 -69.09375 454.171875 -92.5 C 455.835938 -92.851562 457.34375 -93.425781 458.6875 -94.21875 C 460.644531 -95.1875 462.828125 -96.082031 465.234375 -96.90625 C 474.109375 -99.738281 479.9375 -105.90625 482.71875 -115.40625 C 487.644531 -129.519531 492.804688 -143.554688 498.203125 -157.515625 C 499.054688 -159.816406 499.976562 -162.347656 500.96875 -165.109375 C 512.695312 -196.742188 524.65625 -228.601562 536.84375 -260.6875 C 559.632812 -321.1875 582.347656 -381.832031 604.984375 -442.625 C 620.035156 -480.863281 631.867188 -520.160156 640.484375 -560.515625 C 640.984375 -564.179688 642.023438 -567.851562 643.609375 -571.53125 C 646.515625 -576.019531 650.492188 -577.644531 655.546875 -576.40625 C 657.503906 -577.082031 659.703125 -577.144531 662.140625 -576.59375 C 664.117188 -576.34375 665.773438 -575.550781 667.109375 -574.21875 C 668.441406 -572.894531 669.132812 -571.25 669.1875 -569.28125 C 669.800781 -563.21875 669.65625 -557.363281 668.75 -551.71875 C 662.4375 -516.132812 652.53125 -481.453125 639.03125 -447.671875 C 615.945312 -386.867188 592.707031 -325.90625 569.3125 -264.78125 C 559.976562 -239.757812 550.488281 -214.734375 540.84375 -189.703125 C 539 -184.929688 537.15625 -180.164062 535.3125 -175.40625 C 529.65625 -160.21875 523.84375 -144.863281 517.875 -129.34375 C 517.59375 -128.726562 517.457031 -128.269531 517.46875 -127.96875 C 516.445312 -126.269531 515.878906 -124.660156 515.765625 -123.140625 C 515.660156 -121.617188 516.460938 -120.191406 518.171875 -118.859375 C 518.484375 -118.566406 519.019531 -118.28125 519.78125 -118 C 520.394531 -118.320312 521.226562 -118.648438 522.28125 -118.984375 C 522.582031 -118.984375 522.882812 -118.988281 523.1875 -119 C 538.84375 -124.457031 554.265625 -129.898438 569.453125 -135.328125 C 596.546875 -145.046875 623.476562 -154.675781 650.25 -164.21875 C 745.6875 -196.476562 842.066406 -225.039062 939.390625 -249.90625 C 951.003906 -252.800781 961.503906 -257.722656 970.890625 -264.671875 C 998.128906 -285.171875 1024.898438 -306.148438 1051.203125 -327.609375 C 1077.503906 -349.078125 1102.707031 -371.691406 1126.8125 -395.453125 C 1153.175781 -420.484375 1176.957031 -448.03125 1198.15625 -478.09375 C 1210.75 -495.46875 1220.101562 -514.566406 1226.21875 -535.390625 C 1234.445312 -567.367188 1227.828125 -595.140625 1206.359375 -618.703125 C 1198.515625 -627.453125 1189.722656 -634.882812 1179.984375 -641 C 1170.253906 -647.113281 1160.015625 -652.378906 1149.265625 -656.796875 C 1112.390625 -671.421875 1074.148438 -680.394531 1034.546875 -683.71875 C 1000.128906 -687.019531 965.6875 -688.195312 931.21875 -687.25 C 899.789062 -686.382812 868.476562 -684.238281 837.28125 -680.8125 C 756.832031 -672.195312 677.457031 -657.773438 599.15625 -637.546875 C 545.726562 -624.367188 493.445312 -608.378906 442.3125 -589.578125 C 391.175781 -570.773438 341.597656 -547.492188 293.578125 -519.734375 C 275.765625 -509.972656 258.582031 -499.359375 242.03125 -487.890625 C 225.488281 -476.421875 209.734375 -463.945312 194.765625 -450.46875 C 183.367188 -439.375 172.828125 -427.6875 163.140625 -415.40625 C 155.921875 -407.15625 150.785156 -397.671875 147.734375 -386.953125 C 142.867188 -370.410156 146.828125 -356.46875 159.609375 -345.125 C 167.398438 -338.039062 176.351562 -332.8125 186.46875 -329.4375 C 203.675781 -322.769531 221.476562 -319.082031 239.875 -318.375 C 249.625 -317.882812 259.507812 -317.625 269.53125 -317.59375 C 282.90625 -317.351562 296.28125 -317.039062 309.65625 -316.65625 C 320.457031 -316.351562 331.039062 -315.65625 341.40625 -314.5625 C 342.769531 -314.300781 343.960938 -313.691406 344.984375 -312.734375 C 346.003906 -311.773438 346.832031 -310.617188 347.46875 -309.265625 C 347.84375 -306.546875 347.207031 -304.742188 345.5625 -303.859375 C 343.914062 -302.984375 342.253906 -302.671875 340.578125 -302.921875 L 337.625 -302.84375 C 336.71875 -302.820312 335.734375 -302.796875 334.671875 -302.765625 C 324.941406 -302.953125 315.441406 -302.921875 306.171875 -302.671875 C 303.140625 -302.585938 300.109375 -302.503906 297.078125 -302.421875 C 292.367188 -302.285156 287.507812 -302.148438 282.5 -302.015625 L 282.046875 -302 C 268.367188 -301.625 254.84375 -301.554688 241.46875 -301.796875 C 228.09375 -302.035156 214.6875 -303.335938 201.25 -305.703125 C 186.132812 -308.628906 171.425781 -313.234375 157.125 -319.515625 C 149.425781 -322.953125 142.160156 -327.234375 135.328125 -332.359375 C 114.828125 -348.503906 109.25 -369.242188 118.59375 -394.578125 C 125.125 -411.171875 134.742188 -425.867188 147.453125 -438.671875 C 163.960938 -456.753906 182.203125 -473.132812 202.171875 -487.8125 C 256.535156 -527.300781 314.671875 -559.597656 376.578125 -584.703125 C 426.453125 -605.515625 477.164062 -623.238281 528.71875 -637.875 C 580.28125 -652.507812 632.515625 -664.890625 685.421875 -675.015625 C 766.847656 -691.691406 849.007812 -701.320312 931.90625 -703.90625 C 934.488281 -703.976562 937.148438 -704.050781 939.890625 -704.125 C 971.304688 -704.988281 1002.65625 -704.253906 1033.9375 -701.921875 C 1065.21875 -699.597656 1096.164062 -694.53125 1126.78125 -686.71875 C 1152.019531 -680.425781 1176.050781 -671.0625 1198.875 -658.625 C 1210.769531 -651.957031 1221.476562 -643.894531 1231 -634.4375 C 1262.695312 -603.25 1271.09375 -566.03125 1256.1875 -522.78125 C 1249.414062 -503.59375 1239.882812 -485.625 1227.59375 -468.875 C 1205.0625 -437.414062 1179.800781 -408.457031 1151.8125 -382 C 1117.613281 -349.3125 1081.84375 -318.398438 1044.5 -289.265625 C 1043.46875 -288.328125 1042.128906 -287.453125 1040.484375 -286.640625 C 1038.535156 -285.222656 1036.597656 -283.648438 1034.671875 -281.921875 C 1032.753906 -280.203125 1031.457031 -277.890625 1030.78125 -274.984375 C 1032.175781 -273.953125 1033.40625 -273.453125 1034.46875 -273.484375 C 1036.132812 -273.828125 1037.789062 -274.175781 1039.4375 -274.53125 C 1041.09375 -275.332031 1042.75 -275.910156 1044.40625 -276.265625 C 1142.394531 -299.015625 1240.78125 -318.285156 1339.5625 -334.078125 C 1387.21875 -341.328125 1434.664062 -348.101562 1481.90625 -354.40625 C 1498.25 -356.519531 1514.441406 -358.640625 1530.484375 -360.765625 C 1536.085938 -361.679688 1541.925781 -362.222656 1548 -362.390625 C 1553.601562 -362.847656 1559.238281 -362.460938 1564.90625 -361.234375 C 1565.675781 -360.953125 1566.410156 -360.40625 1567.109375 -359.59375 C 1567.804688 -358.78125 1568.164062 -358.070312 1568.1875 -357.46875 C 1568.539062 -355.34375 1568.238281 -353.773438 1567.28125 -352.765625 C 1566.320312 -351.753906 1565.164062 -351.078125 1563.8125 -350.734375 Z M 437.03125 46.328125 C 437.03125 46.328125 437.179688 46.320312 437.484375 46.3125 C 439.878906 45.175781 442.117188 43.742188 444.203125 42.015625 C 446.285156 40.285156 447.664062 37.96875 448.34375 35.0625 C 447.582031 35.082031 447.050781 35.097656 446.75 35.109375 C 440.070312 35.597656 435.789062 34.835938 433.90625 32.828125 C 432.03125 30.828125 431.851562 27 433.375 21.34375 C 434.1875 17.664062 435.375 13.984375 436.9375 10.296875 C 437.375 9.222656 437.734375 8.382812 438.015625 7.78125 C 440.410156 1.019531 442.734375 -5.578125 444.984375 -12.015625 C 450.515625 -26.609375 455.8125 -41.34375 460.875 -56.21875 C 461.164062 -56.832031 461.597656 -57.679688 462.171875 -58.765625 C 463.179688 -61.078125 463.804688 -63.335938 464.046875 -65.546875 C 464.285156 -67.753906 463.691406 -69.984375 462.265625 -72.234375 C 461.953125 -72.222656 461.644531 -72.210938 461.34375 -72.203125 C 459.6875 -71.847656 458.1875 -71.269531 456.84375 -70.46875 C 455.9375 -70.144531 455.109375 -69.820312 454.359375 -69.5 C 412.410156 -53 370.945312 -35.632812 329.96875 -17.40625 C 288.988281 0.820312 248.585938 20.507812 208.765625 41.65625 C 176.398438 58.195312 145.148438 76.609375 115.015625 96.890625 C 97.546875 108.003906 81.726562 121.128906 67.5625 136.265625 C 59.71875 143.765625 53.890625 152.734375 50.078125 163.171875 C 48.953125 166.546875 49.148438 169.726562 50.671875 172.71875 C 52.203125 175.71875 54.878906 177.695312 58.703125 178.65625 C 62.992188 179.757812 67.488281 180.25 72.1875 180.125 C 77.195312 179.976562 82.195312 179.378906 87.1875 178.328125 C 119.363281 171.671875 151.179688 162.742188 182.640625 151.546875 C 250.953125 127.640625 318.125 100.71875 384.15625 70.78125 C 401.863281 63 419.488281 54.847656 437.03125 46.328125 Z M 893.75 -210.34375 C 894.039062 -211.113281 894.5625 -211.660156 895.3125 -211.984375 C 896.5 -212.628906 897.421875 -213.492188 898.078125 -214.578125 C 898.734375 -215.660156 898.582031 -217.171875 897.625 -219.109375 C 895.957031 -218.765625 894.066406 -218.179688 891.953125 -217.359375 C 880.796875 -214.023438 869.71875 -210.914062 858.71875 -208.03125 C 828.582031 -199.144531 798.597656 -190.113281 768.765625 -180.9375 C 685.898438 -155.257812 603.796875 -127.09375 522.453125 -96.4375 C 515.367188 -93.957031 509.492188 -90.640625 504.828125 -86.484375 C 500.160156 -82.335938 496.863281 -76.515625 494.9375 -69.015625 C 493.820312 -65.335938 492.484375 -61.648438 490.921875 -57.953125 C 489.898438 -56.265625 489.109375 -54.570312 488.546875 -52.875 C 486.554688 -47.800781 483.40625 -40.726562 479.09375 -31.65625 C 474.644531 -22.414062 470.207031 -12.722656 465.78125 -2.578125 C 461.351562 7.566406 458.320312 16.234375 456.6875 23.421875 C 455.0625 30.617188 455.9375 34.703125 459.3125 35.671875 C 463.988281 34.472656 468.257812 32.53125 472.125 29.84375 C 474.070312 28.726562 476.09375 27.6875 478.1875 26.71875 C 567.582031 -15.5625 654.882812 -62.109375 740.09375 -112.921875 C 773.863281 -133.597656 807.316406 -154.570312 840.453125 -175.84375 C 854.941406 -185.363281 869.425781 -194.648438 883.90625 -203.703125 C 884.195312 -204.015625 884.492188 -204.175781 884.796875 -204.1875 C 888.097656 -205.945312 891.082031 -208 893.75 -210.34375 Z M 893.75 -210.34375 "/></g></g></g><g fill="#000000" fill-opacity="1"><g transform="translate(1492.939165, 2149.238523)"><g><path d="M 87.875 -98.484375 C 80.019531 -88.617188 70.660156 -79.507812 59.796875 -71.15625 C 48.941406 -62.800781 36.566406 -57.03125 22.671875 -53.84375 C 8.785156 -50.65625 -2.09375 -51.378906 -9.96875 -56.015625 C -17.851562 -60.660156 -19.671875 -71.398438 -15.421875 -88.234375 C -9.828125 -105.703125 -1.925781 -122.40625 8.28125 -138.34375 C 10.613281 -141.757812 14.03125 -144.207031 18.53125 -145.6875 C 21.851562 -146.539062 24.789062 -146.050781 27.34375 -144.21875 C 29.90625 -142.394531 30.925781 -140.03125 30.40625 -137.125 C 28.269531 -131.59375 25.910156 -126.054688 23.328125 -120.515625 C 20.742188 -114.972656 19.023438 -111.351562 18.171875 -109.65625 C 13.128906 -99.800781 9.695312 -89.53125 7.875 -78.84375 C 8.039062 -72.769531 16.171875 -72.613281 32.265625 -78.375 C 48.359375 -84.144531 63.875 -94.335938 78.8125 -108.953125 C 93.75 -123.566406 100.957031 -127.941406 100.4375 -122.078125 C 99.914062 -116.210938 95.726562 -108.347656 87.875 -98.484375 Z M 46.046875 -173.5625 C 45.304688 -172.945312 43.769531 -172.1875 41.4375 -171.28125 C 39.113281 -170.375 36.625 -169.691406 33.96875 -169.234375 C 31.320312 -168.785156 29.222656 -169.148438 27.671875 -170.328125 C 26.117188 -171.503906 25.976562 -173.9375 27.25 -177.625 C 29.5 -184.050781 31.882812 -189.691406 34.40625 -194.546875 C 36.925781 -199.398438 40.238281 -204.773438 44.34375 -210.671875 C 47 -213.328125 49.914062 -214.8125 53.09375 -215.125 C 56.28125 -215.4375 58.960938 -214.675781 61.140625 -212.84375 C 63.316406 -211.007812 63.992188 -208.40625 63.171875 -205.03125 C 60.171875 -192.9375 54.460938 -182.445312 46.046875 -173.5625 Z M 46.046875 -173.5625 "/></g></g></g><g fill="#000000" fill-opacity="1"><g transform="translate(1581.750072, 2146.792614)"><g><path d="M 197.734375 -127.59375 C 198.929688 -127.9375 200.296875 -127.976562 201.828125 -127.71875 C 203.359375 -127.457031 204.515625 -126.804688 205.296875 -125.765625 C 206.253906 -124.117188 206.265625 -122.445312 205.328125 -120.75 C 204.390625 -119.050781 202.941406 -117.71875 200.984375 -116.75 C 187.515625 -109.695312 173.96875 -102.410156 160.34375 -94.890625 C 144.332031 -86.097656 128.238281 -77.300781 112.0625 -68.5 C 109.65625 -67.507812 107.332031 -66.300781 105.09375 -64.875 C 101.507812 -62.8125 97.914062 -60.894531 94.3125 -59.125 C 86.070312 -54.789062 80.707031 -48.257812 78.21875 -39.53125 C 71.5 -18.675781 64.398438 2.03125 56.921875 22.59375 C 47.335938 50.039062 35.144531 76.285156 20.34375 101.328125 C 12.082031 115.679688 1.953125 128.488281 -10.046875 139.75 C -24.398438 153.96875 -41.007812 163.164062 -59.875 167.34375 C -91.125 174.582031 -121.472656 173.363281 -150.921875 163.6875 C -163.035156 159.757812 -173.546875 153.210938 -182.453125 144.046875 C -194.492188 131.765625 -195.398438 118.269531 -185.171875 103.5625 C -180.640625 97.363281 -175.5625 91.519531 -169.9375 86.03125 C -157.351562 73.988281 -143.671875 63.132812 -128.890625 53.46875 C -75.941406 17.507812 -21.476562 -15.75 34.5 -46.3125 C 34.800781 -46.320312 34.953125 -46.328125 34.953125 -46.328125 C 40.796875 -49.515625 46.554688 -52.863281 52.234375 -56.375 C 53.117188 -57.15625 54.363281 -58.816406 55.96875 -61.359375 C 57.570312 -63.910156 58.753906 -66.445312 59.515625 -68.96875 C 60.285156 -71.5 60.007812 -73.316406 58.6875 -74.421875 C 57.375 -75.535156 54.242188 -74.878906 49.296875 -72.453125 C 47.335938 -71.640625 45.535156 -70.757812 43.890625 -69.8125 C 39.546875 -67.5625 35.191406 -65.535156 30.828125 -63.734375 C 5.046875 -56.804688 -8.207031 -66.476562 -8.9375 -92.75 C -8.757812 -108.539062 -4.410156 -122.894531 4.109375 -135.8125 C 12.640625 -148.738281 23.710938 -159 37.328125 -166.59375 C 50.953125 -174.1875 65.835938 -177.375 81.984375 -176.15625 C 83.660156 -176.195312 85.335938 -176.015625 87.015625 -175.609375 C 91.441406 -175.117188 95.890625 -174.9375 100.359375 -175.0625 C 104.835938 -175.1875 109.398438 -176.300781 114.046875 -178.40625 C 119.003906 -180.519531 122.78125 -180.050781 125.375 -177 C 127.96875 -173.957031 128.5 -169.910156 126.96875 -164.859375 C 122.820312 -155.316406 118.753906 -145.632812 114.765625 -135.8125 C 111.890625 -129.800781 109.175781 -123.566406 106.625 -117.109375 C 103.769531 -110.335938 101 -103.429688 98.3125 -96.390625 C 94.46875 -87.160156 93.992188 -82.351562 96.890625 -81.96875 C 99.785156 -81.59375 104.671875 -83.328125 111.546875 -87.171875 C 112.453125 -87.492188 113.429688 -87.828125 114.484375 -88.171875 C 127.078125 -94.597656 139.742188 -100.941406 152.484375 -107.203125 C 161.484375 -111.554688 170.40625 -115.976562 179.25 -120.46875 C 185.226562 -123.382812 191.390625 -125.757812 197.734375 -127.59375 Z M 39.171875 -0.84375 C 43.515625 -14.34375 45.285156 -23.164062 44.484375 -27.3125 C 43.691406 -31.46875 40.738281 -32.488281 35.625 -30.375 C 30.507812 -28.257812 23.851562 -24.429688 15.65625 -18.890625 C 10.4375 -15.398438 4.6875 -11.898438 -1.59375 -8.390625 C -39.4375 13.460938 -76.25 36.738281 -112.03125 61.4375 C -127.863281 71.289062 -141.894531 83.070312 -154.125 96.78125 C -167.101562 111.40625 -166.300781 124.070312 -151.71875 134.78125 C -143.1875 141.226562 -133.757812 145.632812 -123.4375 148 C -113.113281 150.375 -101.804688 151.394531 -89.515625 151.0625 C -75.046875 151.726562 -61.75 148.703125 -49.625 141.984375 C -37.507812 135.273438 -26.394531 125.394531 -16.28125 112.34375 C -10.289062 103.832031 -4.53125 95.015625 1 85.890625 C 16.9375 58.097656 29.660156 29.1875 39.171875 -0.84375 Z M 21.921875 -81.0625 C 25.921875 -79.5 31.613281 -81.097656 39 -85.859375 C 46.394531 -90.617188 53.925781 -97.085938 61.59375 -105.265625 C 69.269531 -113.453125 75.304688 -121.785156 79.703125 -130.265625 C 84.109375 -138.753906 85.09375 -145.847656 82.65625 -151.546875 C 82.007812 -153.203125 80.984375 -154.695312 79.578125 -156.03125 C 77.054688 -158.84375 74.316406 -160.132812 71.359375 -159.90625 C 68.410156 -159.675781 65.28125 -159.054688 61.96875 -158.046875 C 51.007812 -153.335938 41.425781 -145.515625 33.21875 -134.578125 C 25.007812 -123.648438 19.644531 -112.90625 17.125 -102.34375 C 14.601562 -91.789062 16.203125 -84.695312 21.921875 -81.0625 Z M 21.921875 -81.0625 "/></g></g></g><g fill="#000000" fill-opacity="1"><g transform="translate(1776.223184, 2141.4367)"><g><path d="M 87.875 -98.484375 C 80.019531 -88.617188 70.660156 -79.507812 59.796875 -71.15625 C 48.941406 -62.800781 36.566406 -57.03125 22.671875 -53.84375 C 8.785156 -50.65625 -2.09375 -51.378906 -9.96875 -56.015625 C -17.851562 -60.660156 -19.671875 -71.398438 -15.421875 -88.234375 C -9.828125 -105.703125 -1.925781 -122.40625 8.28125 -138.34375 C 10.613281 -141.757812 14.03125 -144.207031 18.53125 -145.6875 C 21.851562 -146.539062 24.789062 -146.050781 27.34375 -144.21875 C 29.90625 -142.394531 30.925781 -140.03125 30.40625 -137.125 C 28.269531 -131.59375 25.910156 -126.054688 23.328125 -120.515625 C 20.742188 -114.972656 19.023438 -111.351562 18.171875 -109.65625 C 13.128906 -99.800781 9.695312 -89.53125 7.875 -78.84375 C 8.039062 -72.769531 16.171875 -72.613281 32.265625 -78.375 C 48.359375 -84.144531 63.875 -94.335938 78.8125 -108.953125 C 93.75 -123.566406 100.957031 -127.941406 100.4375 -122.078125 C 99.914062 -116.210938 95.726562 -108.347656 87.875 -98.484375 Z M 46.046875 -173.5625 C 45.304688 -172.945312 43.769531 -172.1875 41.4375 -171.28125 C 39.113281 -170.375 36.625 -169.691406 33.96875 -169.234375 C 31.320312 -168.785156 29.222656 -169.148438 27.671875 -170.328125 C 26.117188 -171.503906 25.976562 -173.9375 27.25 -177.625 C 29.5 -184.050781 31.882812 -189.691406 34.40625 -194.546875 C 36.925781 -199.398438 40.238281 -204.773438 44.34375 -210.671875 C 47 -213.328125 49.914062 -214.8125 53.09375 -215.125 C 56.28125 -215.4375 58.960938 -214.675781 61.140625 -212.84375 C 63.316406 -211.007812 63.992188 -208.40625 63.171875 -205.03125 C 60.171875 -192.9375 54.460938 -182.445312 46.046875 -173.5625 Z M 46.046875 -173.5625 "/></g></g></g><g fill="#000000" fill-opacity="1"><g transform="translate(1865.034091, 2138.990791)"><g><path d="M 139.3125 -113.90625 C 119.625 -89.363281 100.179688 -71.128906 80.984375 -59.203125 C 61.796875 -47.285156 41.023438 -42.953125 18.671875 -46.203125 C -3.679688 -49.460938 -13.238281 -64.128906 -10 -90.203125 C -7.632812 -103.328125 -4.269531 -116.179688 0.09375 -128.765625 C 10.988281 -158.085938 22.039062 -187.265625 33.25 -216.296875 C 36.90625 -226.710938 40.796875 -237.222656 44.921875 -247.828125 C 45.921875 -250.140625 46.84375 -252.445312 47.6875 -254.75 C 49.257812 -258.59375 50.820312 -262.507812 52.375 -266.5 C 54.613281 -273.25 51.863281 -276.664062 44.125 -276.75 C 39.71875 -276.625 35.390625 -276.503906 31.140625 -276.390625 C 29.160156 -276.335938 26.957031 -276.28125 24.53125 -276.21875 C 22.257812 -275.851562 19.910156 -275.484375 17.484375 -275.109375 C 13.554688 -274.691406 9.65625 -274.425781 5.78125 -274.3125 C 1.90625 -274.207031 -1.726562 -275.097656 -5.125 -276.984375 C -6.039062 -277.265625 -6.773438 -277.816406 -7.328125 -278.640625 C -7.878906 -279.460938 -8.171875 -280.40625 -8.203125 -281.46875 C -7.921875 -282.082031 -7.445312 -282.816406 -6.78125 -283.671875 C -6.125 -284.523438 -5.269531 -285.113281 -4.21875 -285.4375 C -0.914062 -286.90625 2.550781 -287.992188 6.1875 -288.703125 C 15.582031 -289.421875 24.90625 -290.054688 34.15625 -290.609375 C 37.800781 -290.710938 40.992188 -290.800781 43.734375 -290.875 C 49.804688 -291.039062 54.3125 -291.390625 57.25 -291.921875 C 60.195312 -292.460938 62.546875 -294.125 64.296875 -296.90625 C 66.046875 -299.6875 68.054688 -303.921875 70.328125 -309.609375 C 71.609375 -312.671875 73.191406 -316.054688 75.078125 -319.765625 C 79.785156 -330.535156 84.492188 -341.523438 89.203125 -352.734375 C 91.347656 -357.804688 93.5625 -362.734375 95.84375 -367.515625 C 97.695312 -372.273438 100.710938 -376.003906 104.890625 -378.703125 C 108.929688 -380.796875 112.503906 -380.742188 115.609375 -378.546875 C 116.546875 -377.960938 117.296875 -376.992188 117.859375 -375.640625 C 118.429688 -374.285156 118.734375 -373.078125 118.765625 -372.015625 C 118.921875 -366.097656 117.554688 -360.210938 114.671875 -354.359375 C 114.109375 -353.128906 113.46875 -351.675781 112.75 -350 C 110.925781 -344.46875 108.953125 -338.859375 106.828125 -333.171875 C 102.710938 -322.734375 98.828125 -312.070312 95.171875 -301.1875 C 94.171875 -299.175781 94.179688 -297.425781 95.203125 -295.9375 C 96.222656 -294.445312 97.722656 -293.726562 99.703125 -293.78125 C 110.492188 -293.769531 121.050781 -293.910156 131.375 -294.203125 C 136.6875 -294.347656 142 -294.492188 147.3125 -294.640625 C 164.03125 -294.796875 170.78125 -292.625 167.5625 -288.125 C 165.351562 -285.476562 162.925781 -283.925781 160.28125 -283.46875 C 157.632812 -283.019531 154.9375 -282.988281 152.1875 -283.375 C 150.507812 -283.320312 148.835938 -283.273438 147.171875 -283.234375 C 130.203125 -281.703125 113.367188 -280.554688 96.671875 -279.796875 C 88.929688 -279.578125 83.863281 -275.941406 81.46875 -268.890625 C 78.925781 -262.140625 76.457031 -255.382812 74.0625 -248.625 C 70.507812 -239.71875 67.175781 -231.050781 64.0625 -222.625 C 60.9375 -214.625 57.816406 -206.554688 54.703125 -198.421875 C 46.609375 -177.835938 38.816406 -157.1875 31.328125 -136.46875 C 26.691406 -122.96875 23.117188 -109.195312 20.609375 -95.15625 C 14.941406 -69.625 25.007812 -60.175781 50.8125 -66.8125 C 76.15625 -73.582031 102.367188 -92.6875 129.453125 -124.125 C 141.378906 -132.207031 144.664062 -128.800781 139.3125 -113.90625 Z M 139.3125 -113.90625 "/></g></g></g><g fill="#000000" fill-opacity="1"><g transform="translate(1994.379203, 2135.428544)"><g><path d="M 162.03125 -120.578125 C 165.65625 -118.628906 166.054688 -113.671875 163.234375 -105.703125 C 158.984375 -99.804688 154.421875 -94.28125 149.546875 -89.125 C 144.679688 -83.96875 139.34375 -79.335938 133.53125 -75.234375 C 133.082031 -75.222656 132.863281 -75.066406 132.875 -74.765625 C 129 -71.921875 124.882812 -69.453125 120.53125 -67.359375 C 84.601562 -53.304688 65.867188 -60.46875 64.328125 -88.84375 C 49.953125 -75.675781 40.300781 -67.578125 35.375 -64.546875 C 23.582031 -57.097656 10.6875 -53.5625 -3.3125 -53.9375 C -13.65625 -54.257812 -20.765625 -57.210938 -24.640625 -62.796875 C -28.515625 -68.378906 -28.382812 -76.09375 -24.25 -85.9375 C -17.988281 -101.445312 -8.875 -115.375 3.09375 -127.71875 C 17.144531 -141.46875 32.867188 -152.609375 50.265625 -161.140625 C 59.535156 -166.109375 69.351562 -168.207031 79.71875 -167.4375 C 90.0625 -167.113281 96.441406 -161.429688 98.859375 -150.390625 C 99.867188 -147.085938 99.125 -144.113281 96.625 -141.46875 C 93.363281 -138.332031 89.503906 -137.539062 85.046875 -139.09375 C 84.742188 -139.082031 84.320312 -139.144531 83.78125 -139.28125 C 83.25 -139.425781 82.832031 -139.644531 82.53125 -139.9375 C 77.957031 -145.875 73.441406 -148.285156 68.984375 -147.171875 C 64.535156 -146.066406 59.851562 -143.9375 54.9375 -140.78125 C 31.914062 -126.457031 15.054688 -106.921875 4.359375 -82.171875 C 3.773438 -81.085938 3.421875 -79.894531 3.296875 -78.59375 C 3.179688 -77.300781 3.59375 -76.289062 4.53125 -75.5625 C 7.289062 -74.726562 10.320312 -75.003906 13.625 -76.390625 C 16.925781 -77.773438 20.207031 -79.765625 23.46875 -82.359375 C 26.738281 -84.953125 29.492188 -87.113281 31.734375 -88.84375 C 32.023438 -89.3125 32.171875 -89.546875 32.171875 -89.546875 C 43.003906 -99.097656 53.597656 -108.878906 63.953125 -118.890625 C 68.515625 -124.046875 74.285156 -127.019531 81.265625 -127.8125 C 91.285156 -128.09375 95.585938 -123.726562 94.171875 -114.71875 C 93.335938 -111.351562 92.4375 -107.988281 91.46875 -104.625 C 87.914062 -90.09375 88 -81.625 91.71875 -79.21875 C 95.4375 -76.8125 101.015625 -76.960938 108.453125 -79.671875 C 115.898438 -82.390625 123.28125 -87.378906 130.59375 -94.640625 C 137.914062 -101.910156 144.078125 -108.539062 149.078125 -114.53125 C 154.085938 -120.519531 158.40625 -122.535156 162.03125 -120.578125 Z M 162.03125 -120.578125 "/></g></g></g><g fill="#000000" fill-opacity="1"><g transform="translate(2145.357791, 2131.270497)"><g><path d="M 107.234375 -111.65625 C 112.097656 -116.800781 116.191406 -119.722656 119.515625 -120.421875 C 122.847656 -121.128906 125.03125 -120.660156 126.0625 -119.015625 C 127.09375 -117.367188 126.515625 -115.070312 124.328125 -112.125 C 111.390625 -95.664062 96.8125 -81.363281 80.59375 -69.21875 C 64.375 -57.082031 47.519531 -49.859375 30.03125 -47.546875 C 12.550781 -45.242188 1.695312 -54.515625 -2.53125 -75.359375 C -5.84375 -96.085938 5.585938 -138.796875 31.765625 -203.484375 C 57.941406 -268.179688 78.585938 -321.171875 93.703125 -362.453125 C 94.972656 -366.128906 96.9375 -369.367188 99.59375 -372.171875 C 103.144531 -375.921875 107.453125 -376.875 112.515625 -375.03125 C 114.203125 -374.332031 115.90625 -373.171875 117.625 -371.546875 C 119.34375 -369.921875 119.957031 -366.972656 119.46875 -362.703125 C 52.332031 -190.367188 20.109375 -96.796875 22.796875 -81.984375 C 25.492188 -67.171875 35.203125 -63.753906 51.921875 -71.734375 C 68.640625 -79.722656 81.484375 -87.75 90.453125 -95.8125 C 99.421875 -103.882812 105.015625 -109.164062 107.234375 -111.65625 Z M 107.234375 -111.65625 "/></g></g></g><g fill="#000000" fill-opacity="1"><g transform="translate(2258.990157, 2128.140989)"><g/></g></g><g fill="#000000" fill-opacity="1"><g transform="translate(2431.14668, 2123.399688)"><g><path d="M 1146.78125 -672.21875 C 1152.488281 -669.03125 1156.175781 -664.6875 1157.84375 -659.1875 C 1159.519531 -653.695312 1158.765625 -648.09375 1155.578125 -642.375 C 1150.796875 -634.195312 1144.851562 -626.671875 1137.75 -619.796875 C 1123.382812 -605.722656 1107.472656 -592.898438 1090.015625 -581.328125 C 1002.210938 -520.410156 907.109375 -473.347656 804.703125 -440.140625 C 800.035156 -438.648438 795.367188 -437.003906 790.703125 -435.203125 C 783.785156 -432.722656 776.707031 -430.398438 769.46875 -428.234375 C 767.519531 -427.421875 765.691406 -427.597656 763.984375 -428.765625 C 762.285156 -429.929688 761.175781 -431.648438 760.65625 -433.921875 C 760.625 -434.984375 761.003906 -436.242188 761.796875 -437.703125 C 762.597656 -439.171875 763.523438 -440.148438 764.578125 -440.640625 C 773.128906 -444.523438 782.066406 -448.113281 791.390625 -451.40625 C 894.003906 -488.5625 989.707031 -538.984375 1078.5 -602.671875 C 1089.363281 -611.015625 1099.832031 -619.648438 1109.90625 -628.578125 C 1111.238281 -629.992188 1112.726562 -631.175781 1114.375 -632.125 C 1119.5625 -636.675781 1123.207031 -642.320312 1125.3125 -649.0625 C 1126.5625 -653.0625 1125.328125 -656.375 1121.609375 -659 C 1117.441406 -661.46875 1112.851562 -662.863281 1107.84375 -663.1875 C 1106.925781 -663.164062 1105.929688 -663.289062 1104.859375 -663.5625 C 1085.023438 -666.351562 1065.203125 -667.472656 1045.390625 -666.921875 C 1025.578125 -666.378906 1005.828125 -665 986.140625 -662.78125 C 941.460938 -657.144531 897.023438 -649.882812 852.828125 -641 C 808.640625 -632.113281 764.585938 -622.359375 720.671875 -611.734375 C 590.554688 -580.492188 462.769531 -541.875 337.3125 -495.875 C 292.644531 -479.601562 248.414062 -462.351562 204.625 -444.125 C 160.832031 -425.90625 117.660156 -406.03125 75.109375 -384.5 C 63.578125 -378.40625 52.046875 -372.390625 40.515625 -366.453125 C 34.367188 -362.941406 28.003906 -359.421875 21.421875 -355.890625 C 20.359375 -355.554688 19.535156 -355.003906 18.953125 -354.234375 C 14.609375 -351.828125 10.109375 -349.878906 5.453125 -348.390625 C 3.203125 -347.421875 0.820312 -346.976562 -1.6875 -347.0625 C -4.207031 -347.144531 -6.175781 -348.148438 -7.59375 -350.078125 C -9.03125 -352.773438 -9.09375 -355.128906 -7.78125 -357.140625 C -6.476562 -359.148438 -4.703125 -360.867188 -2.453125 -362.296875 C -2.160156 -362.609375 -1.640625 -362.925781 -0.890625 -363.25 C 9.859375 -369.9375 21 -376.476562 32.53125 -382.875 C 69.507812 -402.882812 107.207031 -421.429688 145.625 -438.515625 C 184.050781 -455.597656 222.957031 -471.75 262.34375 -486.96875 C 420.789062 -548.457031 582.757812 -598.195312 748.25 -636.1875 C 788.113281 -645.34375 827.992188 -653.804688 867.890625 -661.578125 C 907.785156 -669.359375 948.03125 -675.484375 988.625 -679.953125 C 1000.300781 -680.878906 1012.128906 -681.8125 1024.109375 -682.75 C 1029.398438 -683.351562 1034.925781 -683.882812 1040.6875 -684.34375 C 1065.738281 -685.03125 1090.84375 -683.894531 1116 -680.9375 C 1126.664062 -679.863281 1136.925781 -676.957031 1146.78125 -672.21875 Z M 540.421875 -188.78125 C 542.710938 -188.382812 544.894531 -187.644531 546.96875 -186.5625 C 549.039062 -185.488281 550.585938 -184.28125 551.609375 -182.9375 C 552.640625 -181.59375 552.789062 -180.300781 552.0625 -179.0625 C 550.457031 -176.894531 548.597656 -175.628906 546.484375 -175.265625 C 544.367188 -174.898438 542.328125 -174.691406 540.359375 -174.640625 C 539.898438 -174.628906 539.519531 -174.617188 539.21875 -174.609375 C 503.53125 -173.628906 467.660156 -170.96875 431.609375 -166.625 C 412.691406 -164.4375 393.53125 -162.546875 374.125 -160.953125 C 367.75 -160.472656 363.507812 -157.015625 361.40625 -150.578125 C 359.582031 -145.515625 357.519531 -140.441406 355.21875 -135.359375 C 354.082031 -132.441406 353.03125 -129.445312 352.0625 -126.375 C 347.644531 -115.476562 343.453125 -104.804688 339.484375 -94.359375 C 305.210938 -3.921875 269.398438 85.953125 232.046875 175.265625 C 221.328125 200.015625 209.921875 224.410156 197.828125 248.453125 C 197.835938 248.753906 197.691406 249.054688 197.390625 249.359375 C 193.648438 257.210938 188.847656 264.710938 182.984375 271.859375 C 177.847656 278.390625 170.921875 280.785156 162.203125 279.046875 C 159.742188 278.347656 157.65625 277.1875 155.9375 275.5625 C 154.226562 273.945312 153.34375 271.847656 153.28125 269.265625 C 153.5625 263.492188 154.46875 257.773438 156 252.109375 C 157.09375 248.117188 158.265625 243.90625 159.515625 239.46875 C 165.597656 217.570312 172.066406 195.664062 178.921875 173.75 C 209.671875 77.03125 245.957031 -17.5625 287.78125 -110.03125 C 291.632812 -118.789062 296.257812 -127.425781 301.65625 -135.9375 C 302.957031 -137.945312 304.851562 -139.175781 307.34375 -139.625 C 309.84375 -140.082031 312.242188 -139.960938 314.546875 -139.265625 C 318.679688 -138.160156 320.285156 -135.085938 319.359375 -130.046875 C 318.441406 -125.003906 316.515625 -119.175781 313.578125 -112.5625 C 310.640625 -105.945312 307.71875 -100.09375 304.8125 -95 C 302.507812 -90.832031 300.929688 -87.75 300.078125 -85.75 C 256.929688 14.039062 232.925781 72.210938 228.0625 88.765625 C 226.25 94.429688 225.367188 98.25 225.421875 100.21875 C 225.484375 102.195312 226.191406 103.015625 227.546875 102.671875 C 228.898438 102.328125 230.390625 101.375 232.015625 99.8125 C 233.640625 98.25 235.148438 96.613281 236.546875 94.90625 C 237.941406 93.195312 238.863281 92.035156 239.3125 91.421875 C 241.144531 86.347656 243.125 81.125 245.25 75.75 C 252.226562 58.394531 259.128906 41.113281 265.953125 23.90625 C 268.078125 18.820312 270.132812 13.75 272.125 8.6875 C 286.75 -28.78125 301.21875 -66.253906 315.53125 -103.734375 C 316.25 -105.117188 317.179688 -107.195312 318.328125 -109.96875 C 320.910156 -115.34375 323.617188 -121.640625 326.453125 -128.859375 C 329.296875 -136.085938 331.054688 -142.554688 331.734375 -148.265625 C 332.421875 -153.984375 330.859375 -156.941406 327.046875 -157.140625 C 319.453125 -156.929688 311.785156 -156.71875 304.046875 -156.5 C 299.035156 -156.363281 294.023438 -156.226562 289.015625 -156.09375 C 284.765625 -155.96875 280.285156 -155.84375 275.578125 -155.71875 C 260.859375 -155.3125 246.125 -155.132812 231.375 -155.1875 C 227.414062 -155.382812 223.75 -156.273438 220.375 -157.859375 C 220.0625 -158.148438 219.78125 -158.707031 219.53125 -159.53125 C 219.28125 -160.363281 218.988281 -161.304688 218.65625 -162.359375 C 218.644531 -162.660156 218.632812 -162.96875 218.625 -163.28125 C 218.613281 -163.582031 218.789062 -163.925781 219.15625 -164.3125 C 219.53125 -164.707031 219.863281 -165.0625 220.15625 -165.375 C 222.09375 -166.789062 224.039062 -167.675781 226 -168.03125 C 227.96875 -168.382812 230.015625 -168.59375 232.140625 -168.65625 C 232.753906 -168.675781 233.363281 -168.691406 233.96875 -168.703125 C 242.3125 -169.242188 250.660156 -169.78125 259.015625 -170.3125 C 280.679688 -172.28125 302.363281 -173.710938 324.0625 -174.609375 C 331.5 -174.816406 337.257812 -176.570312 341.34375 -179.875 C 345.425781 -183.175781 348.519531 -188.195312 350.625 -194.9375 C 360.632812 -223.007812 370.726562 -251.015625 380.90625 -278.953125 C 391.78125 -308.734375 402.503906 -338.503906 413.078125 -368.265625 C 421.109375 -391.128906 428.679688 -414.0625 435.796875 -437.0625 C 439.722656 -449.164062 443.71875 -461.429688 447.78125 -473.859375 C 447.769531 -474.304688 447.910156 -474.6875 448.203125 -475 C 449.722656 -480.363281 451.796875 -485.28125 454.421875 -489.75 C 456.023438 -492.0625 458 -493.328125 460.34375 -493.546875 C 462.6875 -493.773438 465.15625 -493.617188 467.75 -493.078125 C 469.757812 -492.066406 471.390625 -490.816406 472.640625 -489.328125 C 473.898438 -487.847656 474.40625 -486.125 474.15625 -484.15625 C 473.300781 -476.53125 471.988281 -468.96875 470.21875 -461.46875 C 460.144531 -424.71875 448.601562 -388.617188 435.59375 -353.171875 C 434.875 -352.242188 434.367188 -351.242188 434.078125 -350.171875 C 422.398438 -316.722656 410.328125 -283.492188 397.859375 -250.484375 C 392.203125 -235.296875 386.550781 -220.097656 380.90625 -204.890625 C 380.90625 -204.585938 380.90625 -204.4375 380.90625 -204.4375 C 379.351562 -199.976562 377.8125 -195.378906 376.28125 -190.640625 C 374.71875 -186.335938 374.722656 -183.253906 376.296875 -181.390625 C 377.867188 -179.535156 381.15625 -178.679688 386.15625 -178.828125 C 392.84375 -179.003906 399.515625 -179.566406 406.171875 -180.515625 C 409.210938 -180.597656 412.253906 -180.679688 415.296875 -180.765625 C 415.898438 -180.785156 416.347656 -180.957031 416.640625 -181.28125 C 455.003906 -183.695312 493.226562 -186.113281 531.3125 -188.53125 C 534.332031 -188.914062 537.367188 -189 540.421875 -188.78125 Z M 540.421875 -188.78125 "/></g></g></g><g fill="#000000" fill-opacity="1"><g transform="translate(2996.348288, 2107.833674)"><g><path d="M 105.453125 -142.828125 C 104.367188 -132.316406 99.617188 -125.347656 91.203125 -121.921875 C 82.796875 -118.503906 79.914062 -122.601562 82.5625 -134.21875 C 85.207031 -145.84375 79.925781 -148.625 66.71875 -142.5625 C 53.519531 -136.507812 42.710938 -129.035156 34.296875 -120.140625 C 21.316406 -106.109375 9.878906 -91.054688 -0.015625 -74.984375 C -1.035156 -73.585938 -1.835938 -72.421875 -2.421875 -71.484375 C -5.335938 -66.992188 -8.257812 -62.738281 -11.1875 -58.71875 C -13.09375 -55.9375 -15.359375 -54.164062 -17.984375 -53.40625 C -20.617188 -52.65625 -23.3125 -52.46875 -26.0625 -52.84375 C -28.65625 -53.082031 -30.65625 -54.015625 -32.0625 -55.640625 C -33.476562 -57.273438 -33.6875 -59.238281 -32.6875 -61.53125 C -31.132812 -65.6875 -29.273438 -69.921875 -27.109375 -74.234375 C -14.148438 -99.960938 -0.957031 -125.769531 12.46875 -151.65625 C 12.769531 -151.976562 12.914062 -152.289062 12.90625 -152.59375 C 14.757812 -156.59375 17.007812 -160.304688 19.65625 -163.734375 C 22.59375 -167.148438 26.039062 -168.609375 30 -168.109375 C 33.96875 -167.609375 36.695312 -165.328125 38.1875 -161.265625 C 40 -155.992188 41.519531 -153.035156 42.75 -152.390625 C 43.976562 -151.742188 46.695312 -152.3125 50.90625 -154.09375 C 59.914062 -157.6875 68.734375 -160.285156 77.359375 -161.890625 C 85.984375 -163.492188 93.09375 -163.347656 98.6875 -161.453125 C 104.28125 -159.554688 106.535156 -153.347656 105.453125 -142.828125 Z M 105.453125 -142.828125 "/></g></g></g><g fill="#000000" fill-opacity="1"><g transform="translate(3110.208424, 2104.697893)"><g><path d="M 175.5 -123.6875 C 177.582031 -119.863281 174.476562 -113.847656 166.1875 -105.640625 C 157.90625 -97.441406 143.21875 -87.351562 122.125 -75.375 C 114.175781 -71.8125 108.40625 -68.992188 104.8125 -66.921875 C 101.226562 -64.859375 98.644531 -62.28125 97.0625 -59.1875 C 95.476562 -56.101562 93.78125 -51.347656 91.96875 -44.921875 C 90.4375 -40.171875 88.414062 -33.8125 85.90625 -25.84375 C 82.519531 -16.03125 79.148438 -5.90625 75.796875 4.53125 C 69.679688 25.8125 62.316406 46.863281 53.703125 67.6875 C 45.085938 88.519531 33.703125 106.800781 19.546875 122.53125 C 5.390625 138.257812 -13.070312 148.945312 -35.84375 154.59375 C -58.800781 159.632812 -81.101562 160.929688 -102.75 158.484375 C -124.394531 156.046875 -145.664062 150.632812 -166.5625 142.25 C -175.019531 138.675781 -182.671875 133.867188 -189.515625 127.828125 C -200.910156 116.742188 -202.09375 104.015625 -193.0625 89.640625 C -188.25 82.515625 -182.582031 76.050781 -176.0625 70.25 C -162.988281 59.101562 -149.296875 48.851562 -134.984375 39.5 C -108.253906 22.351562 -80.882812 6.5625 -52.875 -7.875 C -24.863281 -22.320312 3.46875 -36.328125 32.125 -49.890625 C 34.070312 -50.847656 36.25 -51.894531 38.65625 -53.03125 C 46.445312 -56.882812 54.460938 -60.75 62.703125 -64.625 C 68.421875 -66.90625 72.191406 -70.882812 74.015625 -76.5625 C 74.566406 -78.550781 74.664062 -80.378906 74.3125 -82.046875 C 73.976562 -83.097656 73.394531 -83.6875 72.5625 -83.8125 C 71.726562 -83.945312 70.78125 -83.695312 69.71875 -83.0625 C 66.882812 -81.300781 63.976562 -79.316406 61 -77.109375 C 59.363281 -76.160156 57.578125 -74.972656 55.640625 -73.546875 C 45.328125 -67.179688 34.539062 -64.222656 23.28125 -64.671875 C 5.519531 -64.179688 -3.726562 -71.90625 -4.46875 -87.84375 C -5.125 -100.894531 -3.222656 -113.332031 1.234375 -125.15625 C 5.691406 -136.976562 12.175781 -148.171875 20.6875 -158.734375 C 21.570312 -159.828125 22.835938 -160.734375 24.484375 -161.453125 C 26.140625 -162.179688 27.800781 -162.722656 29.46875 -163.078125 C 29.769531 -163.085938 30.140625 -163.253906 30.578125 -163.578125 C 33.921875 -163.972656 36.53125 -163.207031 38.40625 -161.28125 C 40.28125 -159.351562 40.726562 -156.851562 39.75 -153.78125 C 37.894531 -149.476562 36.039062 -145.101562 34.1875 -140.65625 C 32.613281 -137.269531 31.035156 -133.878906 29.453125 -130.484375 C 23.128906 -117.242188 20.46875 -103.5 21.46875 -89.25 C 21.851562 -86.21875 23.238281 -84.050781 25.625 -82.75 C 28.019531 -81.445312 30.722656 -81.519531 33.734375 -82.96875 C 42.585938 -86.863281 50.265625 -92.242188 56.765625 -99.109375 C 74.378906 -116.003906 88.726562 -135.3125 99.8125 -157.03125 C 101.40625 -160.125 103.273438 -162.757812 105.421875 -164.9375 C 107.566406 -167.125 110.453125 -168.421875 114.078125 -168.828125 C 118.773438 -169.421875 122.410156 -168.5 124.984375 -166.0625 C 127.566406 -163.625 128.382812 -160.335938 127.4375 -156.203125 C 123.550781 -142.429688 119.441406 -128.796875 115.109375 -115.296875 C 114.828125 -114.222656 114.472656 -113.222656 114.046875 -112.296875 C 112.921875 -109.222656 111.867188 -106.003906 110.890625 -102.640625 C 109.921875 -99.273438 109.472656 -96.335938 109.546875 -93.828125 C 109.617188 -91.328125 110.71875 -90.109375 112.84375 -90.171875 C 121.144531 -92.066406 133.140625 -99.082031 148.828125 -111.21875 C 164.523438 -123.351562 173.414062 -127.507812 175.5 -123.6875 Z M 58.703125 -28.96875 C 58.679688 -29.726562 58.882812 -30.414062 59.3125 -31.03125 C 60.175781 -32.71875 60.65625 -34.550781 60.75 -36.53125 C 60.84375 -38.507812 60.257812 -40.550781 59 -42.65625 C 57.9375 -42.625 57.101562 -42.601562 56.5 -42.59375 C 54.382812 -42.070312 52.5 -41.476562 50.84375 -40.8125 C 47.539062 -39.363281 44.242188 -37.757812 40.953125 -36 C 14.566406 -22.96875 -11.804688 -9.554688 -38.171875 4.234375 C -64.535156 18.023438 -90.34375 32.640625 -115.59375 48.078125 C -130.988281 57.472656 -145.425781 68.351562 -158.90625 80.71875 C -169.863281 91.050781 -175.007812 99.96875 -174.34375 107.46875 C -173.6875 114.96875 -166.894531 121.582031 -153.96875 127.3125 C -124.5625 141.539062 -93.195312 146.832031 -59.875 143.1875 C -37.15625 140.28125 -18.898438 131.191406 -5.109375 115.921875 C 8.671875 100.648438 19.789062 82.523438 28.25 61.546875 C 36.707031 40.578125 43.992188 19.679688 50.109375 -1.140625 C 52.734375 -10.953125 55.597656 -20.226562 58.703125 -28.96875 Z M 58.703125 -28.96875 "/></g></g></g></svg>