<svg xmlns="http://www.w3.org/2000/svg" viewBox="0 0 500 500"><g id="freepik--Floor--inject-216"><ellipse id="freepik--floor--inject-216" cx="252.29" cy="357.04" rx="233.93" ry="135.06" style="fill:#fafafa"></ellipse></g><g id="freepik--Plant--inject-216"><g id="freepik--Plants--inject-216"><g id="freepik--plants--inject-216"><path d="M316.11,414.88a7.32,7.32,0,0,1,.85-7.77c2.27-3.07,5.89-5,6.32-4.82s1,4.17-1.2,8A8.59,8.59,0,0,1,316.11,414.88Z" style="fill:#407BFF"></path><path d="M316.6,424.33a7.34,7.34,0,0,1,4.31-6.52c3.42-1.69,7.51-1.73,7.82-1.41s-1,4.17-4.74,6.63A8.55,8.55,0,0,1,316.6,424.33Z" style="fill:#407BFF"></path><path d="M309.57,430a7.33,7.33,0,0,1-5.68-5.37c-1.07-3.66-.69-7.38-.31-7.64s4.35,1.87,6.2,5.44C311.79,426.33,310,429,309.57,430Z" style="fill:#407BFF"></path><path d="M312.88,430a76.24,76.24,0,0,0-.73,8.91c-.49,0-1,.07-1.51.08h-.15a75.13,75.13,0,0,1,3.2-18.47c1.25-4,2.75-8.28,5.24-11.72.05-.07.26,0,.22.1a59.25,59.25,0,0,0-4,10.94A69.78,69.78,0,0,0,312.88,430Z" style="fill:#37474f"></path><path d="M311.05,432.74a23.06,23.06,0,0,1-2.86-4.2,12.92,12.92,0,0,1-1.6-4.57c0-.23.21,0,.27.15a38,38,0,0,0,2,3.87,16.83,16.83,0,0,0,2.88,3.58,1,1,0,0,1,.22,1.15A.54.54,0,0,1,311.05,432.74Z" style="fill:#37474f"></path><path d="M311.67,429.52a18.91,18.91,0,0,1,4.52-5.61,20.6,20.6,0,0,1,2.58-2.08,12.75,12.75,0,0,1,3.49-1.75c.05,0,.37,0,.29.07a34.77,34.77,0,0,0-3.17,2.15,19.11,19.11,0,0,0-2.61,2.32,31,31,0,0,0-4.31,5.46C312.2,430.49,311.49,429.9,311.67,429.52Z" style="fill:#37474f"></path></g></g></g><g id="freepik--Shadows--inject-216"><path id="freepik--Shadow--inject-216" d="M150.52,325.31,88.27,289.38a4.24,4.24,0,0,0-3.86,0L49.32,309.64c-1.44.83-1.44,2.2,0,3l61.78,35.67a3.76,3.76,0,0,0,3.41,0l36-20.79A1.18,1.18,0,0,0,150.52,325.31Z" style="fill:#e0e0e0"></path><path id="freepik--shadow--inject-216" d="M200.77,419c33.79,13.89,47.22,48,89.39,45.89,14.71,0,35.72-9.1,24.13-24.11-22.39-21.93-56.66-19.17-82.61-36.56-9.38-5.85-18.38-15.35-28.21-20.38-10.59-4.86-22.39-8.2-33.92-4.48a9.54,9.54,0,0,0-7.61,9.67C161.9,404.1,188.84,413.23,200.77,419Z" style="fill:#e0e0e0"></path></g><g id="freepik--Icons--inject-216"><g id="freepik--Like--inject-216"><path d="M443.69,248.19a.54.54,0,0,1-.55-.43l-4-18.12a.58.58,0,0,1,.07-.41.55.55,0,0,1,.34-.24l6-1.31a.54.54,0,0,1,.65.41l4,18.12a.54.54,0,0,1-.08.41.53.53,0,0,1-.34.24l-6,1.31Zm-3.34-18.25L444.08,247l4.94-1.08-3.73-17Zm10.86,14.4a.54.54,0,0,1-.55-.43l-3.41-15.57a.51.51,0,0,1,0-.32c1-2.55,2.58-6.59,2.69-7.27a21.58,21.58,0,0,0-.94-4.36c-.13-.47-.23-.83-.27-1s-.07-.8.87-1.2a4.15,4.15,0,0,1,5,1.4,11.28,11.28,0,0,1,2.22,6.72l7.66-1.68a3.18,3.18,0,0,1,3.69,2.49,3.36,3.36,0,0,1-.4,2.51,2.94,2.94,0,0,1,1.76,2.19,3.28,3.28,0,0,1-1.17,3.21,4.4,4.4,0,0,1,.67,1.61,3.64,3.64,0,0,1-1.56,3.32,5.52,5.52,0,0,1,.53,1.43,3.47,3.47,0,0,1-2.91,3.93l-13.77,3Zm-2.86-16.07,3.25,14.88,13.24-2.9a2.42,2.42,0,0,0,2.07-2.63,4.52,4.52,0,0,0-.68-1.61.58.58,0,0,1-.07-.51.57.57,0,0,1,.4-.34,2.44,2.44,0,0,0,1.39-2.3,2.82,2.82,0,0,0-.78-1.55.53.53,0,0,1-.2-.49.54.54,0,0,1,.31-.43,2.13,2.13,0,0,0,1.17-2.35,1.82,1.82,0,0,0-1.66-1.55.54.54,0,0,1-.5-.35.56.56,0,0,1,.14-.59,2.33,2.33,0,0,0,.66-2.21,2.08,2.08,0,0,0-2.4-1.65l-8.32,1.82a.53.53,0,0,1-.47-.12.51.51,0,0,1-.19-.43,10.37,10.37,0,0,0-2-6.75,2.93,2.93,0,0,0-2.4-1.25,2.57,2.57,0,0,0-1.45.33c.05.18.13.47.23.8.58,2.1,1.1,4,1,4.84S448.8,227.14,448.35,228.27Z" style="fill:#e0e0e0"></path></g><g id="freepik--like--inject-216"><g id="freepik--like--inject-216"><path d="M119.44,434.11,109.73,432a.9.9,0,0,1-.55-.38.88.88,0,0,1-.12-.67l6.42-29.33a.88.88,0,0,1,1-.67l9.71,2.13a.84.84,0,0,1,.55.38.88.88,0,0,1,.12.67l-6.42,29.32a.88.88,0,0,1-.9.7ZM117,402.84l-6,27.61,8,1.75,6-27.61Zm-9.74,25L85,423c-3.59-.79-5.23-3.91-4.7-6.36a9.49,9.49,0,0,1,.85-2.33A5.89,5.89,0,0,1,78.61,409a7.35,7.35,0,0,1,1.08-2.62,5.31,5.31,0,0,1-1.89-5.19,4.76,4.76,0,0,1,2.85-3.54,5.41,5.41,0,0,1-.65-4.07c.45-2,2.67-4.76,6-4l12.39,2.71a18.22,18.22,0,0,1,3.6-10.87,6.71,6.71,0,0,1,8-2.28c1.52.66,1.5,1.58,1.42,1.95s-.23.88-.44,1.63c-.51,1.81-1.7,6.05-1.53,7.07s2.7,7.64,4.35,11.77a.92.92,0,0,1,0,.52l-5.52,25.2a.88.88,0,0,1-.9.69ZM107.7,390c-.21-1.29.62-4.44,1.57-7.82.16-.55.29-1,.36-1.31a4.29,4.29,0,0,0-2.34-.53,4.75,4.75,0,0,0-3.88,2,16.75,16.75,0,0,0-3.27,10.92.88.88,0,0,1-1.06.9L85.6,391.23c-2.36-.52-3.64,1.58-3.88,2.68a3.76,3.76,0,0,0,1.07,3.58A.89.89,0,0,1,82.2,399a2.93,2.93,0,0,0-2.68,2.5,3.44,3.44,0,0,0,1.89,3.81.89.89,0,0,1,.17,1.5,4.47,4.47,0,0,0-1.25,2.5c-.23,1.05.9,3.42,2.25,3.72a.86.86,0,0,1,.63.55.88.88,0,0,1-.1.83A7.45,7.45,0,0,0,82,417c-.35,1.62.91,3.72,3.36,4.26L106.79,426l5.27-24.08C111.33,400.06,108,391.55,107.7,390Z" style="fill:#e0e0e0"></path></g><g id="freepik--like--inject-216" style="opacity:0.1"><path d="M119.44,434.11,109.73,432a.9.9,0,0,1-.55-.38.88.88,0,0,1-.12-.67l6.42-29.33a.88.88,0,0,1,1-.67l9.71,2.13a.84.84,0,0,1,.55.38.88.88,0,0,1,.12.67l-6.42,29.32a.88.88,0,0,1-.9.7ZM117,402.84l-6,27.61,8,1.75,6-27.61Zm-9.74,25L85,423c-3.59-.79-5.23-3.91-4.7-6.36a9.49,9.49,0,0,1,.85-2.33A5.89,5.89,0,0,1,78.61,409a7.35,7.35,0,0,1,1.08-2.62,5.31,5.31,0,0,1-1.89-5.19,4.76,4.76,0,0,1,2.85-3.54,5.41,5.41,0,0,1-.65-4.07c.45-2,2.67-4.76,6-4l12.39,2.71a18.22,18.22,0,0,1,3.6-10.87,6.71,6.71,0,0,1,8-2.28c1.52.66,1.5,1.58,1.42,1.95s-.23.88-.44,1.63c-.51,1.81-1.7,6.05-1.53,7.07s2.7,7.64,4.35,11.77a.92.92,0,0,1,0,.52l-5.52,25.2a.88.88,0,0,1-.9.69ZM107.7,390c-.21-1.29.62-4.44,1.57-7.82.16-.55.29-1,.36-1.31a4.29,4.29,0,0,0-2.34-.53,4.75,4.75,0,0,0-3.88,2,16.75,16.75,0,0,0-3.27,10.92.88.88,0,0,1-1.06.9L85.6,391.23c-2.36-.52-3.64,1.58-3.88,2.68a3.76,3.76,0,0,0,1.07,3.58A.89.89,0,0,1,82.2,399a2.93,2.93,0,0,0-2.68,2.5,3.44,3.44,0,0,0,1.89,3.81.89.89,0,0,1,.17,1.5,4.47,4.47,0,0,0-1.25,2.5c-.23,1.05.9,3.42,2.25,3.72a.86.86,0,0,1,.63.55.88.88,0,0,1-.1.83A7.45,7.45,0,0,0,82,417c-.35,1.62.91,3.72,3.36,4.26L106.79,426l5.27-24.08C111.33,400.06,108,391.55,107.7,390Z"></path></g></g><g id="freepik--like--inject-216"><path d="M377.57,391.33s2.17,12.26,2.1,14.05-3.66,8.2-4.2,9.42,5,4.25,8.81.66a19.57,19.57,0,0,0,6.34-11.75l14,6.28c3,1.32,5.4-.87,6.15-2.54a5.2,5.2,0,0,0-.45-5.12,4.29,4.29,0,0,0,4.57-2.69,4.82,4.82,0,0,0-1.51-5.78,5.89,5.89,0,0,0,2.4-2.94c.68-1.51-.14-5-2.12-5.86a9.3,9.3,0,0,0,2-2.92c1-2.2-.15-5.35-3.19-6.71L389.3,365.06Z" style="fill:#e0e0e0"></path><path d="M387.55,360l-10.14-4.52-13.64,30.57,10.12,4.52Zm-5.2,2.5a2,2,0,1,1-2-2A2,2,0,0,1,382.35,362.52Z" style="fill:#e0e0e0"></path></g><g id="freepik--Friends--inject-216"><path d="M333.32,47.55A5.61,5.61,0,1,0,327,42.79,5.62,5.62,0,0,0,333.32,47.55Zm9.88,4.58a5.12,5.12,0,0,0-5.73-4l-8,1.13a5.11,5.11,0,0,0-4.37,5.46l.62,7.92,19.07-2.72Z" style="fill:#f0f0f0"></path><path d="M346.71,41.53a5.61,5.61,0,1,0-6.35-4.76A5.61,5.61,0,0,0,346.71,41.53Zm9.87,4.58a5.1,5.1,0,0,0-5.72-4l-8,1.14a5.1,5.1,0,0,0-4.26,3.91,6,6,0,0,1,5.49,4.8l.79,3.84,13.3-1.89Z" style="fill:#f0f0f0"></path></g><g id="freepik--friends--inject-216"><path d="M447.89,137.34l-7.68-2.43a5.1,5.1,0,0,0-6.31,3l-2.87,7.4,18.36,5.82,1.91-7.7A5.12,5.12,0,0,0,447.89,137.34Zm-3.5-2.3a5.61,5.61,0,1,0-3.65-7A5.6,5.6,0,0,0,444.39,135Z" style="fill:#f0f0f0"></path><path d="M459.06,135.42a5.61,5.61,0,1,0-3.65-7A5.61,5.61,0,0,0,459.06,135.42Zm3.5,2.3-7.68-2.43a5.11,5.11,0,0,0-5.54,1.68,6,6,0,0,1,2.87,6.7l-.95,3.8,12.8,4.06,1.92-7.7A5.12,5.12,0,0,0,462.56,137.72Z" style="fill:#f0f0f0"></path></g><g id="freepik--friends--inject-216"><path d="M46.9,154.3a5.61,5.61,0,1,0-7.26-3.2A5.62,5.62,0,0,0,46.9,154.3Zm10.66,2.21a5.11,5.11,0,0,0-6.49-2.61l-7.51,2.92a5.1,5.1,0,0,0-3,6.31l2.4,7.56,18-7Z" style="fill:#f0f0f0"></path><path d="M58.57,145.39a5.61,5.61,0,1,0-7.26-3.19A5.61,5.61,0,0,0,58.57,145.39Zm10.66,2.22A5.11,5.11,0,0,0,62.74,145l-7.51,2.92A5.12,5.12,0,0,0,52,152.7a6,6,0,0,1,6.43,3.42l1.65,3.56,12.51-4.87Z" style="fill:#f0f0f0"></path></g><g id="freepik--Heart--inject-216"><path d="M56.83,69.52a1.73,1.73,0,0,1-.32,0L52,68.62c-3.63-.7-13.25-2.55-16.4-10.48a8.95,8.95,0,0,1,5-11.61,9,9,0,0,1,8.2,1.16A9.32,9.32,0,0,1,54,41.17a9,9,0,0,1,11.61,5c3.15,7.93-2.57,15.88-4.73,18.88l-2.71,3.76A1.3,1.3,0,0,1,58,69,1.66,1.66,0,0,1,56.83,69.52Zm0-1.73ZM43.4,47.72a5.92,5.92,0,0,0-2.2.42,7.22,7.22,0,0,0-4,9.36c2.81,7,11.76,8.77,15.12,9.41l4.53.87,2.68-3.73c2-2.79,7.33-10.18,4.53-17.23a7.23,7.23,0,0,0-9.36-4c-2.73,1.09-4.2,4.07-4.43,6.55L50.07,51,48.79,49.9A8.56,8.56,0,0,0,43.4,47.72Z" style="fill:#e0e0e0"></path></g></g><g id="freepik--speech-bubbles-2--inject-216"><path id="freepik--speech-bubble--inject-216" d="M392,109.93l5.16-10.66s-23.38-6.72-17.56-25.71C384,59,396,50.06,432.07,52c43.54,2.33,36,30.8,30,37.32-10.09,11-23.84,13.87-53,12.67Z" style="fill:#e0e0e0"></path><path id="freepik--speech-bubble--inject-216" d="M93.72,192.4l-16,8.47a95.93,95.93,0,0,0-22.27-1.77c-20,.48-29.32,8.48-28.94,20.66.31,10,10.4,18.28,38.39,19.24,14.7.5,25.84-3.15,30.27-10.33,4-6.57,2.47-16.31-7.17-23.89Z" style="fill:#e0e0e0"></path><path id="freepik--speech-bubble--inject-216" d="M337.47,263.54l4.45,12.24a61.79,61.79,0,0,0-15.59,8c-10.72,8.13-9.21,27.22,3.09,35.36,14.41,9.54,50.21,7.2,62.52-.72C405,310,403.12,291,394.77,283.58c-10.65-9.48-36.58-8.85-36.58-8.85Z" style="fill:#e0e0e0"></path></g><g id="freepik--speech-bubbles-1--inject-216"><g id="freepik--speech-bubble--inject-216"><g id="freepik--speech-bubble--inject-216"><path d="M392.51,223.23l3.36-6.33-2.7-7.82V204.3l8.28,4.78v4.79L397.89,220a.53.53,0,0,1-.24.21h0Z" style="fill:#263238"></path><path d="M372.72,166.27a5.49,5.49,0,0,1,2.48-4.3l2-1.17a5.51,5.51,0,0,1,5,0l31,17.94a5.49,5.49,0,0,1,2.48,4.3v34.14a5.49,5.49,0,0,1-2.48,4.3l-2,1.17a5.49,5.49,0,0,1-5,0l-10-5.77L392.69,223a.53.53,0,0,1-1-.09L388,212.1l-12.78-7.4a5.47,5.47,0,0,1-2.48-4.3Z" style="fill:#37474f"></path><path d="M415.7,217.18a5.49,5.49,0,0,1-2.48,4.3l-2,1.17a5.6,5.6,0,0,1-4.54.2c1.17.44,2.06-.22,2.06-1.64V187.08a5.09,5.09,0,0,0-.73-2.45l7-4a5,5,0,0,1,.73,2.44Z" style="fill:#263238"></path><path d="M372.8,165.56c.29-1.05,1.25-1.39,2.4-.73l31,17.95a5,5,0,0,1,1.75,1.85l7-4a5,5,0,0,0-1.75-1.85l-31-17.95a5.51,5.51,0,0,0-5,0l-2,1.17A5.5,5.5,0,0,0,372.8,165.56Z" style="fill:#455a64"></path></g><path id="freepik--heart--inject-216" d="M391.13,206.61c10.67-2.58,11.51-11.41,8.39-17.75-2.8-5.68-7.88-5.9-8.43-.39-.58-6.16-5.68-11.77-8.46-9.28C379.54,182,380.43,191.79,391.13,206.61Z" style="fill:#407BFF"></path><g style="opacity:0.4"><path id="freepik--heart--inject-216" d="M391.13,206.61c10.67-2.58,11.51-11.41,8.39-17.75-2.8-5.68-7.88-5.9-8.43-.39-.58-6.16-5.68-11.77-8.46-9.28C379.54,182,380.43,191.79,391.13,206.61Z" style="fill:#fff"></path></g></g><g id="freepik--speech-bubble--inject-216"><g id="freepik--speech-bubble--inject-216"><path d="M102,122.57l-3.37-6.33,2.71-7.81v-4.79l-8.29,4.79v4.78l3.57,6.17a.46.46,0,0,0,.24.22h0Z" style="fill:#263238"></path><path d="M121.83,65.61a5.5,5.5,0,0,0-2.49-4.3l-2-1.17a5.51,5.51,0,0,0-5,0l-31,17.94a5.52,5.52,0,0,0-2.49,4.31v34.13a5.5,5.5,0,0,0,2.49,4.3l2,1.17a5.51,5.51,0,0,0,5,0l10-5.76,3.55,6.15a.53.53,0,0,0,1-.09l3.76-10.84,12.77-7.4a5.5,5.5,0,0,0,2.49-4.3Z" style="fill:#37474f"></path><path d="M78.85,116.52a5.49,5.49,0,0,0,2.48,4.3l2,1.17a5.54,5.54,0,0,0,4.55.2c-1.17.44-2.06-.22-2.06-1.63V86.42A5,5,0,0,1,86.56,84l-7-4a5.08,5.08,0,0,0-.72,2.45Z" style="fill:#263238"></path><path d="M121.74,64.91c-.29-1.06-1.25-1.39-2.39-.73l-31,17.94A5,5,0,0,0,86.57,84l-7-4a5,5,0,0,1,1.75-1.85l31-18a5.57,5.57,0,0,1,5,0l2,1.17A5.48,5.48,0,0,1,121.74,64.91Z" style="fill:#455a64"></path></g><path d="M104.26,78.88c0-.53-1.77.24-2.89,2.08a5.85,5.85,0,0,0-.64,1.43,19,19,0,0,0-.64,3,9.61,9.61,0,0,0,.22,3.75L93.79,92.9a3.51,3.51,0,0,0-1.26,1.28,4.68,4.68,0,0,0-.68,2.19c0,1.27.7,1.57,1.05,1.6a4,4,0,0,0-1.29,2.85c0,1,.59,1.7,1.58,1.36a4.93,4.93,0,0,0-.42,2,1.25,1.25,0,0,0,1.81,1.14,7.56,7.56,0,0,0-.26,1.88c0,1.18,1,1.78,2.39,1L107.48,102l0-14.09a41,41,0,0,1-3.24-4C104,83.28,104.26,79.54,104.26,78.88Zm9,5.34-3.65,2.13a1.15,1.15,0,0,0-.53.92v15.15c0,.34.23.48.52.31l3.64-2.1a1.18,1.18,0,0,0,.53-.91V84.52C113.75,84.19,113.51,84.05,113.22,84.22Z" style="fill:#407BFF"></path><path d="M104.26,78.88c0-.53-1.77.24-2.89,2.08a5.85,5.85,0,0,0-.64,1.43,19,19,0,0,0-.64,3,9.61,9.61,0,0,0,.22,3.75L93.79,92.9a3.51,3.51,0,0,0-1.26,1.28,4.68,4.68,0,0,0-.68,2.19c0,1.27.7,1.57,1.05,1.6a4,4,0,0,0-1.29,2.85c0,1,.59,1.7,1.58,1.36a4.93,4.93,0,0,0-.42,2,1.25,1.25,0,0,0,1.81,1.14,7.56,7.56,0,0,0-.26,1.88c0,1.18,1,1.78,2.39,1L107.48,102l0-14.09a41,41,0,0,1-3.24-4C104,83.28,104.26,79.54,104.26,78.88Zm9,5.34-3.65,2.13a1.15,1.15,0,0,0-.53.92v15.15c0,.34.23.48.52.31l3.64-2.1a1.18,1.18,0,0,0,.53-.91V84.52C113.75,84.19,113.51,84.05,113.22,84.22Z" style="fill:#fff;opacity:0.4"></path></g></g><g id="freepik--Character--inject-216"><g id="freepik--friends--inject-216"><circle cx="167.06" cy="88.5" r="19.31" transform="translate(-11.85 27.4) rotate(-9.06)" style="fill:#407BFF"></circle><path d="M153.47,162l63.76-18.1-9.1-25.76a17.59,17.59,0,0,0-21.39-11.06l-26.68,7.57a17.6,17.6,0,0,0-12.38,20.66Z" style="fill:#407BFF"></path><path d="M191.34,67a19.31,19.31,0,1,0,13.31-23.86A19.32,19.32,0,0,0,191.34,67Z" style="fill:#407BFF"></path><path d="M190.21,103.23A20.75,20.75,0,0,1,211.15,117l4.49,12.71,44.45-12.62L251,91.38A17.6,17.6,0,0,0,229.6,80.31l-26.67,7.58A17.59,17.59,0,0,0,190.21,103.23Z" style="fill:#407BFF"></path><g style="opacity:0.30000000000000004"><circle cx="167.06" cy="88.5" r="19.31" transform="translate(-11.85 27.4) rotate(-9.06)"></circle><path d="M153.47,162l63.76-18.1-9.1-25.76a17.59,17.59,0,0,0-21.39-11.06l-26.68,7.57a17.6,17.6,0,0,0-12.38,20.66Z"></path><path d="M191.34,67a19.31,19.31,0,1,0,13.31-23.86A19.32,19.32,0,0,0,191.34,67Z"></path><path d="M190.21,103.23A20.75,20.75,0,0,1,211.15,117l4.49,12.71,44.45-12.62L251,91.38A17.6,17.6,0,0,0,229.6,80.31l-26.67,7.58A17.59,17.59,0,0,0,190.21,103.23Z"></path></g></g><g id="freepik--like--inject-216"><path d="M346.54,124.76a13.31,13.31,0,0,0,6.26-15.21c-2.78-9.45-11.49-9-11.49-9a14.32,14.32,0,0,0,3.11-13.8C343,81.88,337.15,75,328.57,77.52l-40.64,12c-.41-12.77-3.95-23.19-13-34.38s-25.34-5-24.3-1.45,8.48,22.34,8,27.25-10.91,37.58-10.91,37.58l-9.69,2.75,22.42,76.24,9.64-3,67.23-19.78c8.79-2.59,13.07-10.77,11.19-17.14a26.06,26.06,0,0,0-4.47-8.71c5.71-1.68,9.23-10.83,7.94-15.23C350.08,127.06,346.54,124.76,346.54,124.76Z" style="fill:#f5f5f5"></path><path d="M260.14,198.13l-22.73-77.27,9.93-2.81c1-3.16,10.37-32.64,10.8-37.2.35-3.61-4-15.72-6.32-22.22-.79-2.21-1.42-4-1.67-4.83-.36-1.23.67-2.59,2.84-3.72,5.43-2.84,16-3.27,22.38,4.69,8.59,10.66,12.52,20.86,13.07,34l40-11.76a12.17,12.17,0,0,1,11.07,1.91,15.39,15.39,0,0,1,5.43,7.63A14.79,14.79,0,0,1,342.41,100a12.37,12.37,0,0,1,10.9,9.36,13.93,13.93,0,0,1-5.83,15.43,18.17,18.17,0,0,1,5,8.67c1.28,4.36-2,13.34-7.58,15.63a27.26,27.26,0,0,1,4.11,8.31,13.07,13.07,0,0,1-1.65,10.42,17.17,17.17,0,0,1-9.9,7.38L270.28,195Zm-21.41-76.54,22.12,75.21L270,194l67.24-19.78a16.08,16.08,0,0,0,9.29-6.92,12,12,0,0,0,1.54-9.56,25.78,25.78,0,0,0-4.36-8.52l-.53-.62.78-.23c5.41-1.59,8.77-10.5,7.58-14.57-1.85-6.29-5.23-8.57-5.26-8.59l-.74-.49.77-.43a12.79,12.79,0,0,0,6-14.59,11.38,11.38,0,0,0-11-8.66l-1.29.07.87-1a13.75,13.75,0,0,0,3-13.29,14.35,14.35,0,0,0-5.05-7.08A11.19,11.19,0,0,0,328.72,78L287.43,90.18l0-.68c-.43-13.23-4.27-23.42-12.86-34.07-6-7.49-15.94-7.09-21.06-4.41-1.58.83-2.51,1.82-2.31,2.48.24.83.86,2.57,1.65,4.77,2.52,7,6.74,18.83,6.38,22.68-.47,4.91-10.5,36.36-10.93,37.69l-.09.28Z" style="fill:#e0e0e0"></path><path d="M250.66,53.65c-1-3.51,15.27-9.74,24.3,1.45s12.56,21.61,13,34.38l-7.73,2.27C274.07,52.42,258.4,51.58,250.66,53.65Z" style="fill:#e0e0e0"></path><rect x="220.55" y="121.56" width="30.54" height="92.22" transform="translate(-37.73 73.36) rotate(-16.39)" style="fill:#407BFF"></rect><path d="M346.53,124.76s3.55,2.3,5.49,8.89a6.65,6.65,0,0,1,.2,1.06c.56,4.65-2.85,12.61-8.14,14.17a26.06,26.06,0,0,1,4.47,8.71,10,10,0,0,1,.38,2c.6,6-3.66,12.85-11.57,15.18l-13.5,4c7.91-2.33,12.17-9.18,11.57-15.18a10,10,0,0,0-.38-2,26.06,26.06,0,0,0-4.47-8.71c5.29-1.56,8.7-9.52,8.14-14.17a6.65,6.65,0,0,0-.2-1.06c-1.94-6.59-5.48-8.89-5.48-8.89a13.31,13.31,0,0,0,6.26-15.21,1.87,1.87,0,0,0-.07-.22,11.79,11.79,0,0,0-11.42-8.81,14.33,14.33,0,0,0,3.1-13.81,8.86,8.86,0,0,0-.29-.87c-1.82-4.73-7.47-10.69-15.55-8.31l13.5-4c8.08-2.37,13.73,3.59,15.55,8.32a8.86,8.86,0,0,1,.29.87,14.3,14.3,0,0,1-3.1,13.8,11.8,11.8,0,0,1,11.42,8.82,1.87,1.87,0,0,1,.07.22A13.31,13.31,0,0,1,346.53,124.76Z" style="fill:#e0e0e0"></path><rect x="227.05" y="166.74" width="30.54" height="46.11" transform="translate(-43.71 76.1) rotate(-16.39)" style="opacity:0.1"></rect><path d="M241.22,201.74a4.43,4.43,0,1,1,5.49,3A4.43,4.43,0,0,1,241.22,201.74Z" style="fill:#f0f0f0"></path></g><g id="freepik--heart--inject-216"><path d="M220.72,249.51a4.19,4.19,0,0,1-3.73,1.13l-23.36-4.48h0c-17.95-3.45-65.61-12.61-80.9-51.06a41.46,41.46,0,0,1,23.19-53.8c14.91-5.93,32.11-.2,43.55,9.82,1.44-15.15,10.62-31.36,25.54-37.29A41.48,41.48,0,0,1,258.81,137c15.29,38.47-13.07,77.85-23.75,92.67L221.17,249A5.72,5.72,0,0,1,220.72,249.51Z" style="fill:#407BFF"></path><path d="M220.72,249.51a4.19,4.19,0,0,1-3.73,1.13l-23.36-4.48h0c-17.95-3.45-65.61-12.61-80.9-51.06a41.46,41.46,0,0,1,23.19-53.8c14.91-5.93,32.11-.2,43.55,9.82,1.44-15.15,10.62-31.36,25.54-37.29A41.48,41.48,0,0,1,258.81,137c15.29,38.47-13.07,77.85-23.75,92.67L221.17,249A5.72,5.72,0,0,1,220.72,249.51Z" style="fill:#fff;opacity:0.2"></path></g><g id="freepik--character--inject-216"><g id="freepik--Bottom--inject-216"><path d="M210.65,404.21c.92-3.49-2.39-5.85-3.92-7.93-2.36-3.23-2.88-8.1-2.72-11.82.2-4.64-.23-8,2.72-12.07,3.48-4.85,8.3-10.5,24.24-24.17l-19.68-11.17c-4.2,6.3-13.69,19.22-13.69,19.22l-.87,1.14c-2,2.26-3.08,4-6,5.94l-1.08.52c-1.85,1.21-6.51,2.39-6.59,6.84s1.57,5.62,3.39,9.34c1.16,2.37,2,3.58,2,8,0,3.59-.34,5.12-.49,8.33-.12,2.7,2.16,6.71,7.13,8.65C202.26,407.89,209.74,407.64,210.65,404.21Z" style="fill:#ffbda7"></path><path d="M180.41,370.74a50.75,50.75,0,0,0-5.84,9.56l4.8,7.5,4.5-7.22A27,27,0,0,1,180.41,370.74Z" style="fill:#263238"></path><path d="M179.37,387.8l7-.23a6.29,6.29,0,0,0-.53-4.45,9.25,9.25,0,0,0-1.93-2.54Z"></path><path d="M181.86,369.15a5.15,5.15,0,0,0-1.39,1.44c-.36.71-.14,5.31,1.23,7.58s3.63,4.71,4.1,7.9-1,8,.07,12.43,5,9.66,14,11.19c6.4,1.09,8.87-.08,11.07-1.38.88-2.83.83-3.59-2.6-6.14S181.86,369.15,181.86,369.15Z" style="fill:#263238"></path><path d="M194.24,357.93c-3,3.44-4.09,4.76-6.8,6.25-3.27,1.8-4,2.55-5.58,5-.78,3.8-.09,5.41,3.14,10.43,2.22,3.44,2.91,5.67,2.68,10.27-.27,5.57-2.28,8.12,4.09,14.07,5,4.63,16.16,5.35,19.3,2.37,2.87-7.5-3.82-7.2-5.11-15.32a27.2,27.2,0,0,1,.71-13.34,36.22,36.22,0,0,1,2.47-5.75c1.14-1.85,2.15-3.2,1.31-4.22l-1.71,2c-1.64.31-5.55-.72-8.07-3-6.09-5.44-3.94-9.29-3.94-9.29l.87-1.14C197,355.46,196,356,194.24,357.93Z" style="fill:#37474f"></path><path d="M281.88,403.26l-.15-1.81-1.67-29.34L256,377.31,265,405s5.49,3.45,11.77,2.35S281.88,403.26,281.88,403.26Z" style="fill:#ffbda7"></path><polygon points="265.25 440.11 275.04 436.78 275.68 427.32 265.72 430.77 265.25 440.11"></polygon><path d="M257.74,420.05c-.52,3.47.65,15.41.65,15.41l6.87,4.65.46-9.33s1.89,1.79,3.78,6.8c1.78,4.74,3.27,8.27,7.78,10.81s9.4,3.3,16.16,2.65c4.82-.47,7.84-2.47,8.68-3.7a4.44,4.44,0,0,0,.35-2Z" style="fill:#263238"></path><path d="M281.73,401.45c1.33-.06,1.18,1.24,2.54,9.13,1,5.9,5.25,18.38,9.08,22.77,3.36,3.85,9.89,5.22,9.12,12-3.09,4-13.52,5.15-19.52,3.3-7.66-2.37-10-6.32-12.83-14-2.28-6.15-4.45-6.87-7.69-9.42-2.14-1.69-3.91-2.58-4.69-5.23,0-5.76,2.85-10.82,3.7-13.69.81-2.7.14-6,1.93-6.35l.53,1.63s2.51,3.05,9.27,3.84c8.42,1,8.71-2.22,8.71-2.22Z" style="fill:#37474f"></path><path d="M240.09,273.33l16.67-19.53s14-15.62,32.75-10c0,0-5.24,28.16-9.58,52.31-4.4,24.51-9.62,25.38-20.2,32.94-8.1,5.78-43.12,32.53-43.12,32.53-3.31-.73-12.11-8.77-12.93-13.68,0,0,8.28-12.54,13.1-18.95,6.29-8.36,8.26-12.43,19.39-19C236,300.83,240.09,273.33,240.09,273.33Z" style="fill:#37474f"></path><path d="M208.06,347.35l-.65-.48.46-.62c11.33-15.12,22.07-29.15,44.91-32.3l.11.81c-22.5,3.1-33.13,17-44.37,32Z" style="fill:#263238"></path><path d="M284,258.6s-32.4,7.12-32.58,7.75l-11.62,9.13c-.95,6.64-3.75,26.89-3.61,34.44-1.44.85-2.72,1.66-3.88,2.44l11.13,19.21a45.52,45.52,0,0,0-.31,9.86c7.12-5.37,13.66-10.28,16.62-12.39,8.46-6,13.49-7.82,17.41-20.81l-7.82-33.13S281.73,270.62,284,258.6Z" style="fill:#263238"></path><path d="M200.69,352s-.63,4.17,4.57,8.87a13.4,13.4,0,0,0,8.53,3.62l7-5.89s-3.54.68-8.65-4.43A16.9,16.9,0,0,1,207,342.69Z" style="fill:#455a64"></path><path d="M246.7,331c-1.2,11.63,2.79,23.77,5.89,34.46,5,17.23,6.34,22.51,6.34,22.51s8.3,4.74,22.36.61c-.57-15.31-1.31-30.14-2.17-44.87s.14-17.22-3-29.95c-7-28.27-10.47-40.62-10.47-40.62s19.24-4.31,24-29.76l-66-8.67c-9.72,12.93-10.46,27.18-4.37,43.09C223.57,289.12,237.11,314.64,246.7,331Z" style="fill:#37474f"></path><path d="M232.67,266.24a203.06,203.06,0,0,0,10.49,31.67c5.49,12.64,10,23.48,10.75,29.23.24,1.72,1.09,16.67,1.7,20.69s6,34.76,10.2,43.65l1,.13c-4.28-9.05-9.75-39.77-10.35-43.79s-1.46-19-1.71-20.79c-.81-5.86-5.05-16.17-10.81-29.44a211.48,211.48,0,0,1-10.32-31H234a7.17,7.17,0,0,0,4.36-2c3.79-3.55,5.89-11.57,6.24-23.86l-.81,0c-.34,11.89-2.41,19.94-6,23.28a6.4,6.4,0,0,1-4.42,1.81c-2.69-11.47-.42-20.05,1.59-27.63.52-1.94,1-3.78,1.4-5.63l-.86.08c-.38,1.74-.84,3.5-1.33,5.34C232.15,245.64,229.82,254.42,232.67,266.24Z" style="fill:#263238"></path><path d="M257.37,383.29s4.7,2.75,12.41,2.5c8.42-.28,11.45-3.93,11.45-3.93l.52,10.78s-1.68,3.91-11,3.6c-7.64-.26-10.38-2.77-10.38-2.77Z" style="fill:#455a64"></path></g><g id="freepik--Top--inject-216"><path d="M320.73,204c3.75-13.07,3.48-20.38-1.75-24.7-4.75-3.92-12.68-4-12.68-4Z" style="fill:#263238"></path><path d="M254.52,258.6c24.32,4.17,34.4-9,34.4-9,4.15-6.93,7.22-11.91,8.82-13.53,2.05-2.07,4.93-4.42,9.33-8.4,11.88-.73,17.36-8.85,16.33-20.3-.8-8.86-2.84-14.65-6.51-23.07s-9.13-9.18-12.59-9.21a99.44,99.44,0,0,0-35.51,6.5c-12.68,5-22.22,22-28.72,33.27-4.95,8.6-11.13,11.11-17.6,19.82C221.48,238.41,234.7,255.19,254.52,258.6Z" style="fill:#455a64"></path><path d="M297.86,229.41c-8.7,3.07-21.95,1.39-25.62-9.74C271.63,229.31,284.66,238,297.86,229.41Z" style="fill:#37474f"></path><path d="M207.05,251.94c4.49-.58,8.41-1.22,14.84-6.81C230.6,237.56,242.6,227,242.6,227s21.21-12.35,25.52-17.14c5.55-6.17,10-16.54,2.36-25.41-7-1.41-9.83,2.86-23.08,13.46-12.42,10-15.65,11.84-20.58,18.05s-15.22,18.39-19.31,21.59-6.67,2.36-9.88,2.84-5.56,2.55-8.28,2.32-4.93-4.1-7.28-5.55-3.95-1.62-4.84-.69,4.6,7.13,4.6,7.13-6.14-4.48-8.17-5.23-4,.5-3.78,1.5,10.35,8.09,11.79,9.26,4.59,1.82,9,2.25S202.56,252.52,207.05,251.94Z" style="fill:#ffbda7"></path><path d="M270.9,180.81c-6.18,2.15-8.24,2.66-16.16,9.76-6.85,6.14-10.08,9.06-10.08,9.06s1.63,15.33,14.43,19.12c0,0,11.59-6,14.21-11.8S278.34,189.24,270.9,180.81Z" style="fill:#263238"></path><path d="M181.83,243.58c1.67,1.87,3.17,3.78,5,4.34s3.92,1.12,3.92,1.12a29.7,29.7,0,0,1-5.56-1C184,247.44,181.83,243.58,181.83,243.58Z" style="fill:#f0997a"></path><g id="freepik--Head--inject-216"><g id="freepik--head--inject-216"><g id="freepik--head--inject-216"><path d="M303.61,142.37c1.18-3.14.95-6.59.57-9.86a12.19,12.19,0,0,0-2.38-5.33,9.09,9.09,0,0,0-4-3.14,9.77,9.77,0,0,0-6.68,0,7.32,7.32,0,0,1-2.58.61A10.41,10.41,0,0,1,286,124a8.13,8.13,0,0,0-5.78.43,9,9,0,0,0-3.61,3.71c-.73,1.22-.93,2.86-2.52,3.21a2,2,0,0,1-2.39-1.9,2.6,2.6,0,0,0-.92,3.33,3.84,3.84,0,0,0,3.07,2,14.68,14.68,0,0,0-4.65,1.7,6.43,6.43,0,0,0-3,3.81,2.6,2.6,0,0,0,.31,2.18,3.44,3.44,0,0,0,.91.74l2,1.26c1,.66,2.2,1.5,2.26,2.74s-1.14,2.3-2,3.35A6.45,6.45,0,0,0,276,160.8a3.33,3.33,0,0,1-2.78-4.22c.42,2.29,3.07,3.61,5.38,3.38.74-.07,1.61-.21,2.1.34a2.59,2.59,0,0,1,.41,1.41,4.63,4.63,0,0,0,4.42,3.84,6.22,6.22,0,0,0,3-.88c3.95-2.21,5.88-6.94,6.14-11.46.08-1.56.09-3.33,1.21-4.41.89-.85,2.21-1,3.35-1.49A8.4,8.4,0,0,0,303.61,142.37Z" style="fill:#263238"></path><path d="M302.51,127.93c-2.95-.83-5.78-.32-8.57,2.65a7.76,7.76,0,0,0-2,4.48c-.12,2.27.39,3.5,1.65,3.73.83.15,2.92-.81,3.75-.91a9.44,9.44,0,0,0,4.2-1.3,8.18,8.18,0,0,0,1.83-1.79,5.76,5.76,0,0,0,1.21-2.42C304.92,130.48,304.3,128.43,302.51,127.93Z" style="fill:#407BFF"></path><path d="M290.21,170.13c-.82-4-3.18-7.94-4.62-15.08-1.93-9.55,1.48-15.45,6-15.56,4.12-12.47,17.64-13.1,30.41-7.69,4.23,1.78,9.1,5,11.26,9.14a4.55,4.55,0,0,1,.5,3.92c-.7,1.49-2.74,2.28-2.85,3.93a3.18,3.18,0,0,0,1.6,2.61,11.34,11.34,0,0,1,2.55,1.93,3.44,3.44,0,0,1-1.94,5.49,2.08,2.08,0,0,0,0-2.76,4.8,4.8,0,0,0-2.62-1.42c.69.18.54,2.42.43,2.88a6.83,6.83,0,0,1-1.65,2.59C321.54,170.06,290.21,170.13,290.21,170.13Z" style="fill:#263238"></path><path d="M292.84,165.15c-1.08.45-5,.54-6.43-4.27-1.06-3.69-.56-8.26,3.68-9.33,2.25-.56,6,.26,6.5,8.17,1.16.06,2.44-.41,2.57-4.4,4.89-1.17,6.11-5,4.59-10.78,5.38-2.32,7.93,1.63,11.75,2.54,2.75.66,6.49-4.77,8-3.54,3.67,2.93,5.69,7.74,5.51,16.92-.17,8.35-2.07,16-5.77,19.79-2.95,3.05-9.9,4.32-16.61,1.36l-1.77,2.81s7.51,20.2-3.49,14-15-19.51-15-19.51S292.84,165.15,292.84,165.15Z" style="fill:#ffbda7"></path><path d="M312.66,160.39a2,2,0,1,1-1.45-2.45A2,2,0,0,1,312.66,160.39Z" style="fill:#263238"></path><path d="M309.92,152.24l-4.27,2.26a2.33,2.33,0,0,0,3.21,1.05A2.51,2.51,0,0,0,309.92,152.24Z" style="fill:#263238"></path><path d="M322.42,160.27a2,2,0,1,0,1-2.67A2,2,0,0,0,322.42,160.27Z" style="fill:#263238"></path><path d="M327.73,154.05l-4.6-2.36a2.46,2.46,0,0,0,1,3.44A2.73,2.73,0,0,0,327.73,154.05Z" style="fill:#263238"></path><polygon points="323.82 166.91 317.45 169.16 316.74 157.13 323.82 166.91" style="fill:#f0997a"></polygon><path d="M312.78,174.35a.68.68,0,0,0-.2-.18l-.37-.25a4.56,4.56,0,0,0-.85-.37c-.19-.06-.21.34-.06.4a4,4,0,0,1,.81.39l.36.27a.9.9,0,0,0,.19.15l.17.05c.11.05.12-.16.09-.22S312.83,174.42,312.78,174.35Z" style="fill:#f0997a"></path><path d="M315,173.06a2.05,2.05,0,0,0-.39-.44,5.46,5.46,0,0,0-1.75-1.08,4.84,4.84,0,0,0-1.05-.3,3.91,3.91,0,0,0-.48-.05.51.51,0,0,0-.56.18c-.1.07-.07.3,0,.37a1.48,1.48,0,0,0,.51.27,3.47,3.47,0,0,1,.55.16c.32.11.64.22.95.36a8.11,8.11,0,0,1,1.58,1c.16.12.61.55.79.26S315.14,173.25,315,173.06Z" style="fill:#b16668"></path><path d="M320.35,151.24a2.31,2.31,0,0,1,.22-.51,1.94,1.94,0,0,1,.56-.58,1.82,1.82,0,0,1,.67-.25,1.71,1.71,0,0,1,.32,0l.17,0a.29.29,0,0,1,.23.14.22.22,0,0,1,0,.27.72.72,0,0,1-.32.11,2,2,0,0,0-.31.12,2.26,2.26,0,0,0-.26.16,1.79,1.79,0,0,0-.24.23.44.44,0,0,0-.08.11h0l0,.07,0,0v0l-.06.16,0,.09v.05s0,.12,0,.12a.28.28,0,0,1,0,.09,1.15,1.15,0,0,1-.21.43.26.26,0,0,1-.4,0A.84.84,0,0,1,320.35,151.24Z" style="fill:#f0997a"></path></g></g><path d="M306.65,181.61c-4.89-2.68-10.31-7.23-11.2-14.12-.77,7.8,4.31,12.66,10,16Z" style="fill:#f0997a"></path></g></g></g><g id="freepik--Device--inject-216"><g id="freepik--Mobile--inject-216"><path d="M89,285.33l58.77,33.94a3,3,0,0,1,1.73,3.18,3.73,3.73,0,0,1-1.73,3.19l-32.44,18.73a5.08,5.08,0,0,1-4.59,0L52,310.44a3.22,3.22,0,0,1-1.56-3A3.86,3.86,0,0,1,52,304.06L84.4,285.33A4.3,4.3,0,0,1,89,285.33Z" style="fill:#37474f"></path><path d="M87.31,286.75,54,306,113,340.1v4.82a4.62,4.62,0,0,1-2.29-.55L52,310.44a3.22,3.22,0,0,1-1.56-3A3.86,3.86,0,0,1,52,304.06L84.4,285.33a4.34,4.34,0,0,1,2.91-.61v2Z" style="fill:#263238"></path><path d="M147.16,319.54,88.51,285.67a4,4,0,0,0-3.65,0L53.2,304c-1.36.78-1.37,2.07,0,2.85l58.21,33.62a3.58,3.58,0,0,0,3.22,0l32.54-18.79A1.11,1.11,0,0,0,147.16,319.54Z" style="fill:#455a64"></path><path d="M72.49,318.94a1.93,1.93,0,0,1,.9,1.5.56.56,0,0,1-.25.53l-.63.36a.63.63,0,0,1-.65-.07l-5.55-3.2a1.93,1.93,0,0,1-.9-1.5.59.59,0,0,1,.23-.52l.65-.38a.66.66,0,0,1,.65.08Z" style="fill:#455a64"></path><path d="M71.86,319.3l-5.55-3.2c-.5-.29-.9-.08-.9.46a1.93,1.93,0,0,0,.9,1.5l5.55,3.2c.5.29.9.08.9-.46A1.93,1.93,0,0,0,71.86,319.3Z" style="fill:#37474f"></path><path d="M62.78,313.34a1.93,1.93,0,0,1,.91,1.5.55.55,0,0,1-.25.52l-.63.37a.67.67,0,0,1-.66-.07l-5.54-3.2a1.93,1.93,0,0,1-.9-1.5.57.57,0,0,1,.23-.52l.65-.38a.66.66,0,0,1,.65.08Z" style="fill:#455a64"></path><path d="M62.15,313.7l-5.54-3.2c-.5-.29-.9-.08-.9.46a1.93,1.93,0,0,0,.9,1.5l5.54,3.2c.5.29.91.08.91-.46A2,2,0,0,0,62.15,313.7Z" style="fill:#37474f"></path><path d="M90,288l54,31.21a1.06,1.06,0,0,1,0,2l-29.43,17a3.81,3.81,0,0,1-3.48,0l-54.5-31.47c-.78-.45-.93-1.13-.44-1.66l.12-.12a2,2,0,0,1,.32-.23l8.28-4.78.54-.31a1.21,1.21,0,0,1,1.08,0,1.26,1.26,0,0,0,1.12,0L77.29,294c.32-.19.34-.47,0-.65a.32.32,0,0,1,0-.59l0,0,8.1-4.68.17-.1A4.87,4.87,0,0,1,90,288Z"></path><path d="M66.53,300.85a1.21,1.21,0,0,0-1.08,0l-.54.31-8.28,4.78a2,2,0,0,0-.32.22l-.12.12,0,.05a1.66,1.66,0,0,0,.47.38l54.5,31.47a3.81,3.81,0,0,0,3.48,0l29.43-17a1.71,1.71,0,0,0,.47-.39,1.53,1.53,0,0,0-.47-.38L90,289.21a4.87,4.87,0,0,0-4.4,0l-.17.1-7.89,4.55v1.05a.42.42,0,0,1-.25.35l-9.64,5.57A1.26,1.26,0,0,1,66.53,300.85Z" style="fill:#263238"></path><path d="M67.29,297.69l4.43-2.55a1,1,0,0,1,.92,0c.25.15.24.39,0,.54l-4.42,2.55a1,1,0,0,1-.92,0C67,298.09,67,297.85,67.29,297.69Z" style="fill:#263238"></path><path d="M73.81,293.73a1.13,1.13,0,0,1,1.07,0,.33.33,0,0,1,0,.62,1.19,1.19,0,0,1-1.07,0A.33.33,0,0,1,73.81,293.73Z" style="fill:#263238"></path></g><g style="opacity:0.15"><polygon points="116.73 303.4 108.42 298.61 101.08 332.37 109.38 337.17 116.73 303.4" style="fill:#fff"></polygon><path d="M93.53,328l7.34-33.76L90,288a4.87,4.87,0,0,0-4.4,0l-.17.1-4.88,2.82-5.72,26.32Z" style="fill:#fff"></path></g></g><g id="freepik--Fetter--inject-216"><path d="M154.06,339.76c.11-.53.16-.8.28-1.33a1.9,1.9,0,0,1,2.57-1.12c2.76.85,4.12,1.26,6.81,2a2.1,2.1,0,0,1,1.64,2.36L165,343a1.9,1.9,0,0,1-2.49,1.17c-2.67-.76-4-1.15-6.72-2A2.32,2.32,0,0,1,154.06,339.76Zm9.8,1.52a.6.6,0,0,0-.47-.67c-2.68-.78-4-1.18-6.78-2a.54.54,0,0,0-.73.31c-.12.54-.17.8-.29,1.34a.64.64,0,0,0,.5.68c2.72.83,4.07,1.22,6.74,2a.54.54,0,0,0,.71-.32C163.66,342.06,163.73,341.8,163.86,341.28Z" style="fill:#e0e0e0"></path><path d="M162,341.44a.68.68,0,0,1,.9-.41c3.62,1.05,5.39,1.54,9,2.53a.73.73,0,0,1,.57.83.7.7,0,0,1-.9.42c-3.55-1-5.32-1.48-8.93-2.52A.76.76,0,0,1,162,341.44Z" style="fill:#e0e0e0"></path><path d="M169.67,344.32c.14-.52.2-.78.34-1.3a2,2,0,0,1,2.53-1.17l6.6,1.81a2,2,0,0,1,1.6,2.3l-.35,1.29a2,2,0,0,1-2.53,1.19l-6.57-1.8A2.05,2.05,0,0,1,169.67,344.32Zm9.59,1.24a.56.56,0,0,0-.45-.65l-6.61-1.81a.55.55,0,0,0-.71.34c-.14.51-.2.77-.34,1.29a.58.58,0,0,0,.46.66l6.59,1.8a.57.57,0,0,0,.71-.34Z" style="fill:#e0e0e0"></path><path d="M177.42,345.75a.71.71,0,0,1,.9-.42c3.56,1,5.33,1.43,9,2.39a.72.72,0,0,1,.59.82.74.74,0,0,1-.93.43c-3.62-1-5.4-1.43-8.95-2.39A.71.71,0,0,1,177.42,345.75Z" style="fill:#e0e0e0"></path><path d="M131.15,332.84a.69.69,0,0,1,.91-.41c3.61,1.05,5.39,1.55,8.94,2.53a.71.71,0,0,1,.57.83.7.7,0,0,1-.9.43c-3.54-1-5.32-1.48-8.92-2.53A.76.76,0,0,1,131.15,332.84Z" style="fill:#e0e0e0"></path><path d="M138.82,335.73l.33-1.3a2,2,0,0,1,2.53-1.18c2.65.74,4,1.1,6.61,1.81a2,2,0,0,1,1.59,2.3c-.14.52-.2.78-.34,1.3a2,2,0,0,1-2.53,1.18l-6.58-1.79A2,2,0,0,1,138.82,335.73ZM148.4,337a.57.57,0,0,0-.45-.65c-2.64-.71-4-1.07-6.6-1.8a.55.55,0,0,0-.71.33c-.14.52-.21.78-.34,1.3a.57.57,0,0,0,.45.65c2.64.73,3.95,1.09,6.59,1.8a.55.55,0,0,0,.71-.33Z" style="fill:#e0e0e0"></path><path d="M146.56,337.16a.71.71,0,0,1,.91-.43c3.55,1,5.33,1.44,9,2.39a.71.71,0,0,1,.58.82.74.74,0,0,1-.93.43c-3.62-.95-5.4-1.43-9-2.39A.72.72,0,0,1,146.56,337.16Z" style="fill:#e0e0e0"></path><path d="M184.67,348.39c.15-.51.22-.77.36-1.29a2,2,0,0,1,2.57-1.19c2.7.71,4.06,1.06,6.85,1.77a2,2,0,0,1,1.7,2.3c-.14.51-.22.77-.37,1.29a2.18,2.18,0,0,1-2.7,1.18c-2.76-.7-4.12-1.06-6.8-1.77A2,2,0,0,1,184.67,348.39Zm9.91,1.19a.57.57,0,0,0-.47-.65c-2.79-.71-4.15-1.06-6.85-1.77a.59.59,0,0,0-.73.34l-.35,1.29a.56.56,0,0,0,.45.65c2.69.71,4.05,1.06,6.82,1.77a.62.62,0,0,0,.76-.34C194.36,350.36,194.43,350.1,194.58,349.58Z" style="fill:#e0e0e0"></path><path d="M192.65,349.78a.75.75,0,0,1,.95-.43c3.74.95,5.64,1.43,9.63,2.36.45.11.74.48.63.82a.86.86,0,0,1-1,.44c-4-.94-5.86-1.42-9.59-2.37A.71.71,0,0,1,192.65,349.78Z" style="fill:#e0e0e0"></path><g style="opacity:0.1"><path d="M154.06,339.76c.11-.53.16-.8.28-1.33a1.9,1.9,0,0,1,2.57-1.12c2.76.85,4.12,1.26,6.81,2a2.1,2.1,0,0,1,1.64,2.36L165,343a1.9,1.9,0,0,1-2.49,1.17c-2.67-.76-4-1.15-6.72-2A2.32,2.32,0,0,1,154.06,339.76Zm9.8,1.52a.6.6,0,0,0-.47-.67c-2.68-.78-4-1.18-6.78-2a.54.54,0,0,0-.73.31c-.12.54-.17.8-.29,1.34a.64.64,0,0,0,.5.68c2.72.83,4.07,1.22,6.74,2a.54.54,0,0,0,.71-.32C163.66,342.06,163.73,341.8,163.86,341.28Z"></path><path d="M162,341.44a.68.68,0,0,1,.9-.41c3.62,1.05,5.39,1.54,9,2.53a.73.73,0,0,1,.57.83.7.7,0,0,1-.9.42c-3.55-1-5.32-1.48-8.93-2.52A.76.76,0,0,1,162,341.44Z"></path><path d="M169.67,344.32c.14-.52.2-.78.34-1.3a2,2,0,0,1,2.53-1.17l6.6,1.81a2,2,0,0,1,1.6,2.3l-.35,1.29a2,2,0,0,1-2.53,1.19l-6.57-1.8A2.05,2.05,0,0,1,169.67,344.32Zm9.59,1.24a.56.56,0,0,0-.45-.65l-6.61-1.81a.55.55,0,0,0-.71.34c-.14.51-.2.77-.34,1.29a.58.58,0,0,0,.46.66l6.59,1.8a.57.57,0,0,0,.71-.34Z"></path><path d="M177.42,345.75a.71.71,0,0,1,.9-.42c3.56,1,5.33,1.43,9,2.39a.72.72,0,0,1,.59.82.74.74,0,0,1-.93.43c-3.62-1-5.4-1.43-8.95-2.39A.71.71,0,0,1,177.42,345.75Z"></path><path d="M131.15,332.84a.69.69,0,0,1,.91-.41c3.61,1.05,5.39,1.55,8.94,2.53a.71.71,0,0,1,.57.83.7.7,0,0,1-.9.43c-3.54-1-5.32-1.48-8.92-2.53A.76.76,0,0,1,131.15,332.84Z"></path><path d="M138.82,335.73l.33-1.3a2,2,0,0,1,2.53-1.18c2.65.74,4,1.1,6.61,1.81a2,2,0,0,1,1.59,2.3c-.14.52-.2.78-.34,1.3a2,2,0,0,1-2.53,1.18l-6.58-1.79A2,2,0,0,1,138.82,335.73ZM148.4,337a.57.57,0,0,0-.45-.65c-2.64-.71-4-1.07-6.6-1.8a.55.55,0,0,0-.71.33c-.14.52-.21.78-.34,1.3a.57.57,0,0,0,.45.65c2.64.73,3.95,1.09,6.59,1.8a.55.55,0,0,0,.71-.33Z"></path><path d="M146.56,337.16a.71.71,0,0,1,.91-.43c3.55,1,5.33,1.44,9,2.39a.71.71,0,0,1,.58.82.74.74,0,0,1-.93.43c-3.62-.95-5.4-1.43-9-2.39A.72.72,0,0,1,146.56,337.16Z"></path><path d="M184.67,348.39c.15-.51.22-.77.36-1.29a2,2,0,0,1,2.57-1.19c2.7.71,4.06,1.06,6.85,1.77a2,2,0,0,1,1.7,2.3c-.14.51-.22.77-.37,1.29a2.18,2.18,0,0,1-2.7,1.18c-2.76-.7-4.12-1.06-6.8-1.77A2,2,0,0,1,184.67,348.39Zm9.91,1.19a.57.57,0,0,0-.47-.65c-2.79-.71-4.15-1.06-6.85-1.77a.59.59,0,0,0-.73.34l-.35,1.29a.56.56,0,0,0,.45.65c2.69.71,4.05,1.06,6.82,1.77a.62.62,0,0,0,.76-.34C194.36,350.36,194.43,350.1,194.58,349.58Z"></path><path d="M192.65,349.78a.75.75,0,0,1,.95-.43c3.74.95,5.64,1.43,9.63,2.36.45.11.74.48.63.82a.86.86,0,0,1-1,.44c-4-.94-5.86-1.42-9.59-2.37A.71.71,0,0,1,192.65,349.78Z"></path></g><path d="M219.16,360l-1.24,1a17.92,17.92,0,0,1-10-5.49c-4.73-4.91-4.26-8-4.26-8l.91-1.35c-.71-1-1.74-.37-3.32,2s-2.9,4.27-3.44,6.32c-.66,2.53,1.86,6.31,4.92,9.1s7.4,4,9,3.71,2.29-1.49,4.61-3.44S219.66,361.08,219.16,360Z" style="fill:#e0e0e0"></path><path d="M219.16,360l-1.24,1a17.92,17.92,0,0,1-10-5.49c-4.73-4.91-4.26-8-4.26-8l.91-1.35c-.71-1-1.74-.37-3.32,2s-2.9,4.27-3.44,6.32c-.66,2.53,1.86,6.31,4.92,9.1s7.4,4,9,3.71,2.29-1.49,4.61-3.44S219.66,361.08,219.16,360Z" style="opacity:0.2"></path><path d="M204.59,352.83c.21-.23.43-.45.64-.67-.17-.28-.32-.54-.46-.8l-.51.48a50.68,50.68,0,0,0-5.53,6.85c.14.27.3.53.47.8l.78-1.05c.75-1,1.48-1.95,2.25-2.89S203.78,353.71,204.59,352.83Z" style="opacity:0.25"></path><circle cx="205.11" cy="355.73" r="0.88" style="opacity:0.25"></circle><path d="M203.15,358.83a.89.89,0,1,1-.89-.88A.88.88,0,0,1,203.15,358.83Z" style="opacity:0.25"></path></g></g></svg>