<?xml version="1.0" standalone="no"?>
<!DOCTYPE svg PUBLIC "-//W3C//DTD SVG 20010904//EN"
 "http://www.w3.org/TR/2001/REC-SVG-20010904/DTD/svg10.dtd">
<svg version="1.0" xmlns="http://www.w3.org/2000/svg"
 width="512.000000pt" height="512.000000pt" viewBox="0 0 512.000000 512.000000"
 preserveAspectRatio="xMidYMid meet">
<metadata>
Created by potrace 1.14, written by Peter Selinger 2001-2017
</metadata>
<g transform="translate(0.000000,512.000000) scale(0.100000,-0.100000)"
fill="#000000" stroke="none">
<path d="M2230 4445 c-58 -7 -147 -23 -197 -34 -51 -12 -94 -21 -96 -21 -2 0
-3 -675 -3 -1499 l0 -1500 105 -35 c115 -37 228 -62 238 -52 3 3 6 634 6 1401
0 1184 2 1395 14 1399 29 12 350 -2 430 -18 326 -65 605 -214 826 -441 l68
-70 -503 -3 -504 -2 1 -1271 c0 -1262 0 -1272 -20 -1279 -33 -13 -314 -3 -410
14 -478 86 -872 371 -1104 798 -122 225 -183 482 -180 753 2 161 43 394 88
500 5 11 24 55 42 99 29 70 119 232 148 268 170 209 219 259 341 349 l65 48 0
201 c1 110 -1 200 -3 200 -13 0 -201 -118 -272 -171 -107 -80 -297 -269 -375
-374 -172 -231 -287 -485 -344 -763 -31 -150 -33 -165 -36 -357 -5 -310 51
-568 182 -844 307 -645 970 -1070 1678 -1075 178 -1 278 8 422 39 63 14 116
25 119 25 2 0 4 326 4 725 0 684 1 725 18 726 9 0 166 1 349 1 l331 1 11 24
c14 31 51 236 51 285 l0 38 -380 0 -380 0 0 345 0 345 806 0 c764 0 806 1 799
18 -4 9 -13 35 -20 57 -16 52 -45 123 -84 208 l-31 67 -187 0 -188 0 -29 46
c-77 122 -220 282 -351 392 -338 285 -744 438 -1185 447 -89 2 -199 -2 -260
-10z"/>
<path d="M3975 2828 c18 -104 22 -172 19 -308 -1 -80 -5 -158 -9 -175 -30
-155 -42 -203 -72 -290 -97 -280 -290 -546 -525 -727 l-78 -59 0 -200 0 -199
49 25 c199 100 448 317 606 526 171 227 308 534 349 784 37 223 42 450 13 635
l-4 25 -177 3 -178 2 7 -42z"/>
</g>
</svg>
