<svg xmlns="http://www.w3.org/2000/svg" xmlns:xlink="http://www.w3.org/1999/xlink" width="1080" zoomAndPan="magnify" viewBox="0 0 810 809.999993" height="1080" preserveAspectRatio="xMidYMid meet" version="1.0"><defs><clipPath id="f94c3683d7"><path d="M 87.035156 104.523438 L 723.035156 104.523438 L 723.035156 705.273438 L 87.035156 705.273438 Z M 87.035156 104.523438 " clip-rule="nonzero"/></clipPath></defs><g clip-path="url(#f94c3683d7)"><path fill="#000000" d="M 683.75 355.726562 C 686.359375 371.710938 687.75 388.21875 687.75 404.898438 C 687.75 487.769531 654.203125 562.828125 599.796875 617.207031 C 577.546875 639.273438 551.996094 658.039062 523.839844 672.457031 L 523.839844 608.695312 C 537.222656 599.835938 549.5625 589.582031 560.859375 578.289062 C 605.183594 533.984375 632.648438 472.65625 632.648438 404.894531 C 632.648438 388.042969 630.910156 371.539062 627.78125 355.726562 Z M 361.144531 161.136719 L 361.144531 604.871094 C 341.675781 602.441406 323.253906 597.054688 306.042969 589.410156 L 306.042969 115.792969 C 331.941406 108.492188 359.230469 104.671875 387.390625 104.671875 C 470.300781 104.671875 545.566406 138.203125 599.796875 192.585938 C 615.789062 208.570312 629.867188 226.289062 642.035156 245.402344 L 700.609375 245.402344 C 709.648438 262.949219 717.125 281.367188 723.035156 300.476562 L 468.5625 300.476562 L 468.5625 409.585938 L 588.671875 409.585938 C 588.152344 428.699219 585.023438 447.117188 579.632812 464.664062 L 468.5625 464.664062 L 468.5625 694 C 442.664062 701.300781 415.375 705.121094 387.21875 705.121094 C 304.304688 705.121094 229.214844 671.589844 174.8125 617.207031 C 120.582031 563 87.035156 487.769531 87.035156 404.898438 C 87.035156 322.023438 120.753906 246.964844 174.984375 192.585938 C 197.234375 170.347656 222.785156 151.753906 250.945312 137.335938 L 250.945312 201.097656 C 237.558594 209.957031 225.21875 220.210938 213.921875 231.503906 C 169.597656 275.808594 142.132812 337.136719 142.132812 404.898438 C 142.132812 472.65625 169.597656 533.8125 213.921875 578.289062 C 258.242188 622.59375 319.601562 650.046875 387.390625 650.046875 C 396.253906 650.046875 404.945312 649.523438 413.636719 648.65625 L 413.636719 245.402344 L 573.722656 245.402344 C 569.550781 240.539062 565.207031 235.847656 560.859375 231.503906 C 516.363281 187.199219 455.179688 159.746094 387.390625 159.746094 C 378.527344 159.746094 369.835938 160.269531 361.144531 161.136719 Z M 361.144531 161.136719 " fill-opacity="1" fill-rule="nonzero"/></g></svg>