<svg xmlns="http://www.w3.org/2000/svg" viewBox="0 0 750 500"><g id="freepik--background-simple--inject-223"><path d="M640.16,128.56S537.38,23.29,403.81,15.17,192.35,93.32,155.44,144.78,26.48,282,37.31,360.49,154.63,498.57,307.15,472.4s196.74-36.1,266.23-16.24,159.74-9.93,161.55-122.74S640.16,128.56,640.16,128.56Z" style="fill:#1D4ED8"></path><path d="M640.16,128.56S537.38,23.29,403.81,15.17,192.35,93.32,155.44,144.78,26.48,282,37.31,360.49,154.63,498.57,307.15,472.4s196.74-36.1,266.23-16.24,159.74-9.93,161.55-122.74S640.16,128.56,640.16,128.56Z" style="fill:#fff;opacity:0.7000000000000001"></path></g><g id="freepik--Floor--inject-223"><line x1="68.83" y1="355.23" x2="694.78" y2="355.23" style="fill:none;stroke:#263238;stroke-linecap:round;stroke-linejoin:round"></line></g><g id="freepik--Coins--inject-223"><circle cx="70.04" cy="125.97" r="33.43" style="fill:#fff;stroke:#263238;stroke-linecap:round;stroke-linejoin:round"></circle><circle cx="70.04" cy="125.97" r="27.59" transform="translate(-19.27 12.85) rotate(-9.22)" style="fill:#fff;stroke:#263238;stroke-linecap:round;stroke-linejoin:round"></circle><path d="M69.83,149.07v-3.86c-3.16-.13-5.52-1.15-7.07-3.09s-2.4-4.68-2.55-8.24l5.89-1.15a18.8,18.8,0,0,0,.51,3.82,5.31,5.31,0,0,0,1.31,2.56,3.24,3.24,0,0,0,2.37.89,2.71,2.71,0,0,0,2.37-1,4.13,4.13,0,0,0,.72-2.5,6.7,6.7,0,0,0-1.13-4,19.08,19.08,0,0,0-2.93-3.13l-4.74-4.14a17.46,17.46,0,0,1-2.25-2.42A10.12,10.12,0,0,1,60.81,120a11.28,11.28,0,0,1-.55-3.71,8.8,8.8,0,0,1,2.39-6.56,9.53,9.53,0,0,1,6.44-2.6v-3.73h2V107a8.46,8.46,0,0,1,3.87,1,7.12,7.12,0,0,1,2.42,2.3,10.57,10.57,0,0,1,1.33,3.15,18.79,18.79,0,0,1,.53,3.64l-5.8,1a21.64,21.64,0,0,0-.37-3.15,4.38,4.38,0,0,0-1-2.21,2.65,2.65,0,0,0-2.24-.71,3,3,0,0,0-2.37,1,3.71,3.71,0,0,0-.8,2.44,5.39,5.39,0,0,0,.87,3.2,17,17,0,0,0,2.17,2.42l4.69,4.09a26,26,0,0,1,2.74,2.9,13.24,13.24,0,0,1,2,3.5,12.15,12.15,0,0,1,.76,4.42,9.67,9.67,0,0,1-1,4.44,8.12,8.12,0,0,1-2.79,3.16,9.4,9.4,0,0,1-4.28,1.47v3.91Z" style="fill:#fff;stroke:#263238;stroke-linecap:round;stroke-linejoin:round"></path><circle cx="82.38" cy="241.46" r="37.8" transform="translate(-45.75 20.85) rotate(-11.31)" style="fill:#fff;stroke:#263238;stroke-linecap:round;stroke-linejoin:round"></circle><circle cx="82.38" cy="241.46" r="31.19" transform="translate(-53.27 25.39) rotate(-13.28)" style="fill:#fff;stroke:#263238;stroke-linecap:round;stroke-linejoin:round"></circle><path d="M82.15,267.58V263.2q-5.37-.21-8-3.48t-2.89-9.32l6.66-1.3a22,22,0,0,0,.57,4.32A6,6,0,0,0,80,256.31a3.64,3.64,0,0,0,2.68,1,3.07,3.07,0,0,0,2.68-1.12,4.76,4.76,0,0,0,.8-2.83,7.56,7.56,0,0,0-1.27-4.53,21,21,0,0,0-3.31-3.54l-5.36-4.69a19.13,19.13,0,0,1-2.55-2.73,11.48,11.48,0,0,1-1.72-3.23,12.88,12.88,0,0,1-.62-4.19A10,10,0,0,1,74,223.05a10.77,10.77,0,0,1,7.28-2.94v-4.22h2.24v4.17a9.52,9.52,0,0,1,4.37,1.17,8,8,0,0,1,2.74,2.6,12.19,12.19,0,0,1,1.5,3.56,21.2,21.2,0,0,1,.6,4.12l-6.55,1.14a25.06,25.06,0,0,0-.42-3.56,5,5,0,0,0-1.17-2.5,3,3,0,0,0-2.53-.81,3.45,3.45,0,0,0-2.68,1.15,4.16,4.16,0,0,0-.91,2.75,6.06,6.06,0,0,0,1,3.62A18.39,18.39,0,0,0,81.94,236l5.31,4.64A28.26,28.26,0,0,1,90.34,244a14.63,14.63,0,0,1,2.29,4,13.44,13.44,0,0,1,.86,5,10.91,10.91,0,0,1-1.12,5,9.13,9.13,0,0,1-3.15,3.57,10.72,10.72,0,0,1-4.84,1.66v4.43Z" style="fill:#fff;stroke:#263238;stroke-linecap:round;stroke-linejoin:round"></path><circle cx="146.2" cy="184.66" r="29.48" transform="translate(-56.75 65.14) rotate(-21.14)" style="fill:#fff;stroke:#263238;stroke-linecap:round;stroke-linejoin:round"></circle><circle cx="146.2" cy="184.66" r="24.33" style="fill:#fff;stroke:#263238;stroke-linecap:round;stroke-linejoin:round"></circle><path d="M146,205v-3.41a8,8,0,0,1-6.23-2.72,12.34,12.34,0,0,1-2.25-7.27l5.2-1a17,17,0,0,0,.44,3.37,4.8,4.8,0,0,0,1.16,2.25,2.81,2.81,0,0,0,2.09.79,2.41,2.41,0,0,0,2.09-.87,3.68,3.68,0,0,0,.63-2.21,5.86,5.86,0,0,0-1-3.54,16.62,16.62,0,0,0-2.57-2.76L141.39,184a15.78,15.78,0,0,1-2-2.13,8.69,8.69,0,0,1-1.34-2.52,9.76,9.76,0,0,1-.49-3.26,7.77,7.77,0,0,1,2.11-5.79,8.43,8.43,0,0,1,5.68-2.29v-3.29h1.75V168a7.46,7.46,0,0,1,3.41.91,6.38,6.38,0,0,1,2.13,2,9.36,9.36,0,0,1,1.18,2.78,16.78,16.78,0,0,1,.46,3.21l-5.11.89a19.73,19.73,0,0,0-.32-2.78,3.91,3.91,0,0,0-.92-1.95,2.38,2.38,0,0,0-2-.63,2.69,2.69,0,0,0-2.09.9,3.24,3.24,0,0,0-.71,2.15,4.78,4.78,0,0,0,.77,2.82,14.22,14.22,0,0,0,1.91,2.13L150,184a23.47,23.47,0,0,1,2.42,2.56,11.63,11.63,0,0,1,1.78,3.08,10.56,10.56,0,0,1,.67,3.9,8.59,8.59,0,0,1-.87,3.92,7.18,7.18,0,0,1-2.46,2.78,8.46,8.46,0,0,1-3.77,1.3V205Z" style="fill:#fff;stroke:#263238;stroke-linecap:round;stroke-linejoin:round"></path><circle cx="168.77" cy="124.25" r="23.91" transform="translate(-17.72 28.64) rotate(-9.22)" style="fill:#fff;stroke:#263238;stroke-linecap:round;stroke-linejoin:round"></circle><circle cx="168.77" cy="124.25" r="19.73" style="fill:#fff;stroke:#263238;stroke-linecap:round;stroke-linejoin:round"></circle><path d="M168.62,140.77V138a6.44,6.44,0,0,1-5.05-2.21,9.91,9.91,0,0,1-1.83-5.89l4.22-.83a13.3,13.3,0,0,0,.36,2.74,3.78,3.78,0,0,0,.94,1.82,2.28,2.28,0,0,0,1.69.65,2,2,0,0,0,1.7-.71,3,3,0,0,0,.51-1.8,4.77,4.77,0,0,0-.81-2.86,13.38,13.38,0,0,0-2.09-2.24l-3.39-3a13,13,0,0,1-1.61-1.73,7.13,7.13,0,0,1-1.09-2,8.17,8.17,0,0,1-.39-2.65,6.3,6.3,0,0,1,1.71-4.69,6.85,6.85,0,0,1,4.61-1.86v-2.67h1.41v2.63a6.16,6.16,0,0,1,2.77.75A5,5,0,0,1,174,113.1a7.77,7.77,0,0,1,1,2.26,12.94,12.94,0,0,1,.38,2.6l-4.15.72a15.85,15.85,0,0,0-.26-2.25,3.11,3.11,0,0,0-.74-1.58,1.89,1.89,0,0,0-1.6-.51,2.14,2.14,0,0,0-1.69.72,2.59,2.59,0,0,0-.58,1.74,3.88,3.88,0,0,0,.62,2.29,12.15,12.15,0,0,0,1.55,1.73l3.36,2.93a20.22,20.22,0,0,1,2,2.07,9.74,9.74,0,0,1,1.45,2.51,8.61,8.61,0,0,1,.54,3.16,6.94,6.94,0,0,1-.71,3.17,5.73,5.73,0,0,1-2,2.26A6.8,6.8,0,0,1,170,138v2.8Z" style="fill:#fff;stroke:#263238;stroke-linecap:round;stroke-linejoin:round"></path><circle cx="213.24" cy="161.55" r="20.35" style="fill:#fff;stroke:#263238;stroke-linecap:round;stroke-linejoin:round"></circle><circle cx="213.24" cy="161.55" r="16.79" style="fill:#fff;stroke:#263238;stroke-linecap:round;stroke-linejoin:round"></circle><path d="M213.12,175.61v-2.35a5.5,5.5,0,0,1-4.31-1.88,8.46,8.46,0,0,1-1.55-5l3.59-.7a11.8,11.8,0,0,0,.3,2.33,3.3,3.3,0,0,0,.8,1.55,2,2,0,0,0,1.45.55,1.66,1.66,0,0,0,1.44-.6,2.54,2.54,0,0,0,.43-1.53,4.14,4.14,0,0,0-.68-2.44,11.47,11.47,0,0,0-1.78-1.9l-2.89-2.52a10.5,10.5,0,0,1-1.37-1.48,6.39,6.39,0,0,1-.93-1.73,7,7,0,0,1-.33-2.26,5.36,5.36,0,0,1,1.45-4,5.84,5.84,0,0,1,3.93-1.58v-2.27h1.2V150a5.09,5.09,0,0,1,2.36.63,4.38,4.38,0,0,1,1.47,1.4,6.61,6.61,0,0,1,.81,1.92,11.43,11.43,0,0,1,.32,2.21l-3.53.62a14.54,14.54,0,0,0-.22-1.92,2.74,2.74,0,0,0-.63-1.35,1.64,1.64,0,0,0-1.36-.43,1.84,1.84,0,0,0-1.45.62,2.26,2.26,0,0,0-.49,1.48,3.24,3.24,0,0,0,.54,1.95,10.19,10.19,0,0,0,1.31,1.47l2.86,2.49a16.48,16.48,0,0,1,1.67,1.77,8,8,0,0,1,1.23,2.13,7.26,7.26,0,0,1,.46,2.69,5.89,5.89,0,0,1-.6,2.7,4.91,4.91,0,0,1-1.69,1.92,5.72,5.72,0,0,1-2.61.9v2.38Z" style="fill:#fff;stroke:#263238;stroke-linecap:round;stroke-linejoin:round"></path><circle cx="682.13" cy="125.97" r="33.43" style="fill:#fff;stroke:#263238;stroke-linecap:round;stroke-linejoin:round"></circle><circle cx="682.13" cy="125.97" r="27.59" transform="translate(110.72 519.24) rotate(-45)" style="fill:#fff;stroke:#263238;stroke-linecap:round;stroke-linejoin:round"></circle><path d="M681.93,149.07v-3.86c-3.16-.13-5.52-1.15-7.07-3.09s-2.4-4.68-2.55-8.24l5.89-1.15a19.58,19.58,0,0,0,.5,3.82,5.4,5.4,0,0,0,1.32,2.56,3.24,3.24,0,0,0,2.37.89,2.73,2.73,0,0,0,2.37-1,4.2,4.2,0,0,0,.71-2.5,6.63,6.63,0,0,0-1.13-4,18.57,18.57,0,0,0-2.92-3.13l-4.74-4.14a18.19,18.19,0,0,1-2.26-2.42A10.38,10.38,0,0,1,672.9,120a11.55,11.55,0,0,1-.55-3.71,8.81,8.81,0,0,1,2.4-6.56,9.53,9.53,0,0,1,6.44-2.6v-3.73h2V107a8.5,8.5,0,0,1,3.87,1,7,7,0,0,1,2.41,2.3,10.58,10.58,0,0,1,1.34,3.15,18.79,18.79,0,0,1,.53,3.64l-5.8,1a23.12,23.12,0,0,0-.37-3.15,4.31,4.31,0,0,0-1-2.21,2.63,2.63,0,0,0-2.23-.71,3,3,0,0,0-2.37,1,3.67,3.67,0,0,0-.81,2.44,5.39,5.39,0,0,0,.88,3.2,16.28,16.28,0,0,0,2.16,2.42l4.7,4.09a26.9,26.9,0,0,1,2.74,2.9,13.21,13.21,0,0,1,2,3.5,11.94,11.94,0,0,1,.76,4.42,9.67,9.67,0,0,1-1,4.44,8.09,8.09,0,0,1-2.78,3.16,9.44,9.44,0,0,1-4.28,1.47v3.91Z" style="fill:#fff;stroke:#263238;stroke-linecap:round;stroke-linejoin:round"></path><circle cx="669.79" cy="241.46" r="37.8" transform="translate(-37.87 163.09) rotate(-13.5)" style="fill:#fff;stroke:#263238;stroke-linecap:round;stroke-linejoin:round"></circle><circle cx="669.79" cy="241.46" r="31.19" transform="translate(-37.81 162.6) rotate(-13.47)" style="fill:#fff;stroke:#263238;stroke-linecap:round;stroke-linejoin:round"></circle><path d="M669.56,267.58V263.2q-5.37-.21-8-3.48t-2.89-9.32l6.66-1.3a21.21,21.21,0,0,0,.58,4.32,6,6,0,0,0,1.48,2.89,3.65,3.65,0,0,0,2.68,1,3.07,3.07,0,0,0,2.68-1.12,4.69,4.69,0,0,0,.81-2.83,7.56,7.56,0,0,0-1.28-4.53,21.36,21.36,0,0,0-3.3-3.54l-5.37-4.69a19.13,19.13,0,0,1-2.55-2.73,11.46,11.46,0,0,1-1.71-3.23,12.61,12.61,0,0,1-.63-4.19,10,10,0,0,1,2.71-7.41,10.78,10.78,0,0,1,7.29-2.94v-4.22H671v4.17a9.59,9.59,0,0,1,4.38,1.17,8,8,0,0,1,2.73,2.6,12.21,12.21,0,0,1,1.51,3.56,21.2,21.2,0,0,1,.6,4.12l-6.56,1.14a25.06,25.06,0,0,0-.42-3.56,5,5,0,0,0-1.17-2.5,3,3,0,0,0-2.52-.81,3.43,3.43,0,0,0-2.68,1.15,4.11,4.11,0,0,0-.91,2.75,6.06,6.06,0,0,0,1,3.62,18.39,18.39,0,0,0,2.45,2.73l5.31,4.64a29.23,29.23,0,0,1,3.1,3.28,15.17,15.17,0,0,1,2.29,4,13.64,13.64,0,0,1,.86,5,11,11,0,0,1-1.12,5,9.29,9.29,0,0,1-3.15,3.57,10.81,10.81,0,0,1-4.84,1.66v4.43Z" style="fill:#fff;stroke:#263238;stroke-linecap:round;stroke-linejoin:round"></path><circle cx="605.98" cy="184.66" r="29.48" transform="translate(46.91 482.58) rotate(-45)" style="fill:#fff;stroke:#263238;stroke-linecap:round;stroke-linejoin:round"></circle><circle cx="605.98" cy="184.66" r="24.33" style="fill:#fff;stroke:#263238;stroke-linecap:round;stroke-linejoin:round"></circle><path d="M605.79,205v-3.41a8,8,0,0,1-6.23-2.72,12.27,12.27,0,0,1-2.25-7.27l5.2-1A17,17,0,0,0,603,194a4.8,4.8,0,0,0,1.16,2.25,2.81,2.81,0,0,0,2.09.79,2.41,2.41,0,0,0,2.09-.87,3.68,3.68,0,0,0,.63-2.21,5.86,5.86,0,0,0-1-3.54,16.62,16.62,0,0,0-2.57-2.76L601.17,184a15.78,15.78,0,0,1-2-2.13,8.69,8.69,0,0,1-1.34-2.52,9.76,9.76,0,0,1-.49-3.26,7.77,7.77,0,0,1,2.11-5.79,8.43,8.43,0,0,1,5.68-2.29v-3.29h1.75V168a7.46,7.46,0,0,1,3.41.91,6.38,6.38,0,0,1,2.13,2,9.36,9.36,0,0,1,1.18,2.78,16.78,16.78,0,0,1,.46,3.21l-5.11.89a18.28,18.28,0,0,0-.33-2.78,3.82,3.82,0,0,0-.91-1.95,2.39,2.39,0,0,0-2-.63,2.69,2.69,0,0,0-2.09.9,3.24,3.24,0,0,0-.71,2.15,4.78,4.78,0,0,0,.77,2.82,14.22,14.22,0,0,0,1.91,2.13l4.14,3.61a23.47,23.47,0,0,1,2.42,2.56,11.63,11.63,0,0,1,1.78,3.08,10.56,10.56,0,0,1,.67,3.9,8.59,8.59,0,0,1-.87,3.92,7.18,7.18,0,0,1-2.46,2.78,8.46,8.46,0,0,1-3.77,1.3V205Z" style="fill:#fff;stroke:#263238;stroke-linecap:round;stroke-linejoin:round"></path><circle cx="583.4" cy="124.25" r="23.91" transform="translate(67.81 424.18) rotate(-42.21)" style="fill:#fff;stroke:#263238;stroke-linecap:round;stroke-linejoin:round"></circle><circle cx="583.4" cy="124.25" r="19.73" style="fill:#fff;stroke:#263238;stroke-linecap:round;stroke-linejoin:round"></circle><path d="M583.25,140.77V138a6.44,6.44,0,0,1-5-2.21,9.91,9.91,0,0,1-1.83-5.89l4.22-.83a13.3,13.3,0,0,0,.36,2.74,3.78,3.78,0,0,0,.94,1.82,2.27,2.27,0,0,0,1.69.65,2,2,0,0,0,1.7-.71,3,3,0,0,0,.51-1.8,4.77,4.77,0,0,0-.81-2.86,13.38,13.38,0,0,0-2.09-2.24l-3.39-3a12.34,12.34,0,0,1-1.61-1.73,7.13,7.13,0,0,1-1.09-2,8.16,8.16,0,0,1-.4-2.65,6.31,6.31,0,0,1,1.72-4.69,6.83,6.83,0,0,1,4.61-1.86v-2.67h1.41v2.63a6.16,6.16,0,0,1,2.77.75,4.92,4.92,0,0,1,1.72,1.64,7.52,7.52,0,0,1,1,2.26A13.69,13.69,0,0,1,590,118l-4.15.72a15.85,15.85,0,0,0-.26-2.25,3.11,3.11,0,0,0-.74-1.58,1.9,1.9,0,0,0-1.6-.51,2.18,2.18,0,0,0-1.7.72,2.64,2.64,0,0,0-.57,1.74,3.88,3.88,0,0,0,.62,2.29,12.15,12.15,0,0,0,1.55,1.73l3.36,2.93a20.22,20.22,0,0,1,2,2.07,9.74,9.74,0,0,1,1.45,2.51,8.61,8.61,0,0,1,.54,3.16,6.94,6.94,0,0,1-.71,3.17,5.73,5.73,0,0,1-2,2.26,6.8,6.8,0,0,1-3.06,1.05v2.8Z" style="fill:#fff;stroke:#263238;stroke-linecap:round;stroke-linejoin:round"></path><circle cx="538.93" cy="161.55" r="20.35" style="fill:#fff;stroke:#263238;stroke-linecap:round;stroke-linejoin:round"></circle><circle cx="538.93" cy="161.55" r="16.79" style="fill:#fff;stroke:#263238;stroke-linecap:round;stroke-linejoin:round"></circle><path d="M538.8,175.61v-2.35a5.49,5.49,0,0,1-4.3-1.88,8.46,8.46,0,0,1-1.55-5l3.58-.7a12.54,12.54,0,0,0,.31,2.33,3.3,3.3,0,0,0,.8,1.55,1.94,1.94,0,0,0,1.44.55,1.67,1.67,0,0,0,1.45-.6A2.54,2.54,0,0,0,541,168a4.14,4.14,0,0,0-.68-2.44,11.91,11.91,0,0,0-1.78-1.9l-2.89-2.52a10.5,10.5,0,0,1-1.37-1.48,6.39,6.39,0,0,1-.93-1.73,7,7,0,0,1-.33-2.26,5.36,5.36,0,0,1,1.45-4,5.82,5.82,0,0,1,3.93-1.58v-2.27h1.2V150a5,5,0,0,1,2.35.63,4.33,4.33,0,0,1,1.48,1.4,6.61,6.61,0,0,1,.81,1.92,11.43,11.43,0,0,1,.32,2.21l-3.53.62a14.54,14.54,0,0,0-.22-1.92,2.83,2.83,0,0,0-.63-1.35,1.66,1.66,0,0,0-1.36-.43,1.84,1.84,0,0,0-1.45.62,2.26,2.26,0,0,0-.49,1.48,3.24,3.24,0,0,0,.54,1.95,10.19,10.19,0,0,0,1.31,1.47l2.86,2.49a16.48,16.48,0,0,1,1.67,1.77,8,8,0,0,1,1.23,2.13,7.26,7.26,0,0,1,.46,2.69,5.89,5.89,0,0,1-.6,2.7,4.91,4.91,0,0,1-1.69,1.92,5.72,5.72,0,0,1-2.61.9v2.38Z" style="fill:#fff;stroke:#263238;stroke-linecap:round;stroke-linejoin:round"></path></g><g id="freepik--Device--inject-223"><path d="M415.52,344.41l-2.71-29.18H356.69L354,344.41A21.15,21.15,0,0,1,343,361L324.14,371.3H445.36L426.48,361A21.16,21.16,0,0,1,415.52,344.41Z" style="fill:#fff;stroke:#263238;stroke-linecap:round;stroke-linejoin:round"></path><polygon points="414.41 332.4 412.81 315.23 356.69 315.23 355.09 332.4 414.41 332.4" style="fill:#263238;stroke:#263238;stroke-linecap:round;stroke-linejoin:round"></polygon><rect x="324.14" y="371.3" width="121.15" height="5.47" style="fill:#263238;stroke:#263238;stroke-linecap:round;stroke-linejoin:round"></rect><path d="M217.42,69.24H552.08A7.73,7.73,0,0,1,559.81,77v229.5a11.66,11.66,0,0,1-11.66,11.66H221.35a11.66,11.66,0,0,1-11.66-11.66V77a7.73,7.73,0,0,1,7.73-7.73Z" style="fill:#263238;stroke:#263238;stroke-linecap:round;stroke-linejoin:round"></path><rect x="219.78" y="80.05" width="330.34" height="199.39" style="fill:#fff;stroke:#263238;stroke-linecap:round;stroke-linejoin:round"></rect><polyline points="291.73 114.1 329.04 114.1 329.04 164.66 236.99 164.66 236.99 114.1 284.85 114.1" style="fill:#fff;stroke:#263238;stroke-linecap:round;stroke-linejoin:round"></polyline><polyline points="365.75 164.66 336.75 164.66 336.75 114.1 428.8 114.1 428.8 164.66 370.48 164.66" style="fill:#fff;stroke:#263238;stroke-linecap:round;stroke-linejoin:round"></polyline><polyline points="528.56 131.1 528.56 164.66 436.51 164.66 436.51 114.1 528.56 114.1 528.56 123.78" style="fill:#fff;stroke:#263238;stroke-linecap:round;stroke-linejoin:round"></polyline><line x1="238.17" y1="186.99" x2="325.75" y2="186.99" style="fill:none;stroke:#263238;stroke-linecap:round;stroke-linejoin:round"></line><line x1="238.17" y1="199.34" x2="325.75" y2="199.34" style="fill:none;stroke:#263238;stroke-linecap:round;stroke-linejoin:round"></line><line x1="238.17" y1="211.68" x2="325.75" y2="211.68" style="fill:none;stroke:#263238;stroke-linecap:round;stroke-linejoin:round"></line><line x1="238.17" y1="224.03" x2="325.75" y2="224.03" style="fill:none;stroke:#263238;stroke-linecap:round;stroke-linejoin:round"></line><line x1="238.17" y1="236.37" x2="325.75" y2="236.37" style="fill:none;stroke:#263238;stroke-linecap:round;stroke-linejoin:round"></line><line x1="238.17" y1="248.72" x2="325.75" y2="248.72" style="fill:none;stroke:#263238;stroke-linecap:round;stroke-linejoin:round"></line><line x1="238.17" y1="261.06" x2="325.75" y2="261.06" style="fill:none;stroke:#263238;stroke-linecap:round;stroke-linejoin:round"></line><polyline points="401.03 186.99 428.04 186.99 428.04 262.24 335.16 262.24 335.16 186.99 394.58 186.99" style="fill:none;stroke:#263238;stroke-linecap:round;stroke-linejoin:round"></polyline><polygon points="428.04 227.77 428.04 262.24 335.16 262.24 359.85 232.84 381.01 239.31 402.76 211.68 428.04 227.77" style="fill:#fff;stroke:#263238;stroke-linecap:round;stroke-linejoin:round"></polygon><circle cx="355.73" cy="208.16" r="9.99" transform="translate(-50.61 277.15) rotate(-39.97)" style="fill:#fff;stroke:#263238;stroke-linecap:round;stroke-linejoin:round"></circle><rect x="433.62" y="241.37" width="41.74" height="21.75" rx="8.42" style="fill:#fff;stroke:#263238;stroke-linecap:round;stroke-linejoin:round"></rect><line x1="441.56" y1="252.24" x2="466.25" y2="252.24" style="fill:none;stroke:#263238;stroke-linecap:round;stroke-linejoin:round"></line><rect x="438.03" y="187.58" width="89.94" height="11.76" style="fill:#fff;stroke:#263238;stroke-linecap:round;stroke-linejoin:round"></rect><rect x="438.03" y="208.16" width="89.94" height="11.76" style="fill:#fff;stroke:#263238;stroke-linecap:round;stroke-linejoin:round"></rect><rect x="543.25" y="80.05" width="6.87" height="199.39" style="fill:#d1d1d1;stroke:#263238;stroke-linecap:round;stroke-linejoin:round"></rect><rect x="219.78" y="80.05" width="330.34" height="19.36" style="fill:#1D4ED8;stroke:#263238;stroke-linecap:round;stroke-linejoin:round"></rect><rect x="237.58" y="86.47" width="221.03" height="7.05" style="fill:#fff;stroke:#263238;stroke-linecap:round;stroke-linejoin:round"></rect><path d="M209.69,289v17.47a11.66,11.66,0,0,0,11.66,11.66h326.8a11.66,11.66,0,0,0,11.66-11.66V289Z" style="fill:#fff;stroke:#263238;stroke-linecap:round;stroke-linejoin:round"></path></g><g id="freepik--Cart--inject-223"><rect x="593.38" y="38.79" width="64.8" height="37.28" rx="4.42" style="fill:#fff;stroke:#263238;stroke-linecap:round;stroke-linejoin:round"></rect><polyline points="607.14 43.27 613.35 43.27 619.22 61.3 636.92 57.93 637.08 48.33 615.28 48.02" style="fill:none;stroke:#263238;stroke-linecap:round;stroke-linejoin:round"></polyline><path d="M619.22,61.3a1.81,1.81,0,0,0-1.65,1.51,2.31,2.31,0,0,0,2,2.28c.61,0,2.44-.15,2.44-.15l14.93-2.59" style="fill:none;stroke:#263238;stroke-linecap:round;stroke-linejoin:round"></path><circle cx="634.64" cy="67.38" r="2.13" style="fill:#263238;stroke:#263238;stroke-linecap:round;stroke-linejoin:round"></circle><path d="M622.75,67.38a2.14,2.14,0,1,0-2.13,2.13A2.13,2.13,0,0,0,622.75,67.38Z" style="fill:#263238;stroke:#263238;stroke-linecap:round;stroke-linejoin:round"></path></g><g id="freepik--speech-bubbles--inject-223"><path d="M395.15,81H359.27a6,6,0,0,0-6,6v17.16a6,6,0,0,0,6,6h33.3l8.6,10.84v-34A6,6,0,0,0,395.15,81Z" style="fill:#263238;stroke:#263238;stroke-linecap:round;stroke-linejoin:round"></path><path d="M397.4,78.11H361.53a6,6,0,0,0-6,6v17.15a6,6,0,0,0,6,6h33.29l8.61,10.83v-34A6,6,0,0,0,397.4,78.11Z" style="fill:#fff;stroke:#263238;stroke-linecap:round;stroke-linejoin:round"></path><path d="M348.11,101.36h23.74a4,4,0,0,1,4,4V116.7a4,4,0,0,1-4,4h-22l-5.7,7.18V105.35A4,4,0,0,1,348.11,101.36Z" style="fill:#263238;stroke:#263238;stroke-linecap:round;stroke-linejoin:round"></path><path d="M350,99.17H373.7a4,4,0,0,1,4,4v11.36a4,4,0,0,1-4,4h-22L346,125.66V103.15A4,4,0,0,1,350,99.17Z" style="fill:#fff;stroke:#263238;stroke-linecap:round;stroke-linejoin:round"></path><line x1="364.05" y1="86.36" x2="394.52" y2="86.36" style="fill:none;stroke:#263238;stroke-linecap:round;stroke-linejoin:round"></line><line x1="364.05" y1="92.76" x2="394.52" y2="92.76" style="fill:none;stroke:#263238;stroke-linecap:round;stroke-linejoin:round"></line><line x1="364.05" y1="99.15" x2="394.52" y2="99.15" style="fill:none;stroke:#263238;stroke-linecap:round;stroke-linejoin:round"></line><line x1="350.89" y1="106.67" x2="373.74" y2="106.67" style="fill:none;stroke:#263238;stroke-linecap:round;stroke-linejoin:round"></line><line x1="350.89" y1="111.94" x2="373.74" y2="111.94" style="fill:none;stroke:#263238;stroke-linecap:round;stroke-linejoin:round"></line></g><g id="freepik--Cursors--inject-223"><path d="M480.78,160.87l-6.38-3.37a2.88,2.88,0,0,0-3.91,1.23h0a2.88,2.88,0,0,0,.95,3.69l13.07,8.89a18.56,18.56,0,0,0,13.93-.49l.51-.26a9.51,9.51,0,0,0,4.29-11.77l-3.37-8.9A4.77,4.77,0,0,0,494,147l-.12,0a6.28,6.28,0,0,0-5.85-.37,5.28,5.28,0,0,0-5.59.49L478,136.44a3.34,3.34,0,0,0-4.45-1.78h0A3.35,3.35,0,0,0,471.8,139Z" style="fill:#263238;stroke:#263238;stroke-linecap:round;stroke-linejoin:round"></path><path d="M481.55,158l-6.38-3.37a2.88,2.88,0,0,0-3.9,1.24h0a2.88,2.88,0,0,0,.94,3.69l13.08,8.89a18.58,18.58,0,0,0,13.93-.5l.51-.25A9.51,9.51,0,0,0,504,156l-3.36-8.9a4.77,4.77,0,0,0-5.91-2.88l-.12,0a6.32,6.32,0,0,0-5.85-.37,5.29,5.29,0,0,0-5.6.5l-4.41-10.74a3.34,3.34,0,0,0-4.46-1.78h0a3.34,3.34,0,0,0-1.72,4.31Z" style="fill:#fff;stroke:#263238;stroke-linecap:round;stroke-linejoin:round"></path><line x1="494.62" y1="144.21" x2="497.04" y2="149.55" style="fill:none;stroke:#263238;stroke-linecap:round;stroke-linejoin:round"></line><line x1="488.67" y1="144.21" x2="491.61" y2="150.9" style="fill:none;stroke:#263238;stroke-linecap:round;stroke-linejoin:round"></line><line x1="483.24" y1="144.55" x2="486.86" y2="152.6" style="fill:none;stroke:#263238;stroke-linecap:round;stroke-linejoin:round"></line><line x1="460.37" y1="129.55" x2="468.48" y2="132.59" style="fill:none;stroke:#263238;stroke-linecap:round;stroke-linejoin:round"></line><line x1="470.51" y1="121.1" x2="473.22" y2="127.19" style="fill:none;stroke:#263238;stroke-linecap:round;stroke-linejoin:round"></line><line x1="478.62" y1="127.86" x2="482.34" y2="121.78" style="fill:none;stroke:#263238;stroke-linecap:round;stroke-linejoin:round"></line><line x1="463.75" y1="140.37" x2="469.16" y2="137.66" style="fill:none;stroke:#263238;stroke-linecap:round;stroke-linejoin:round"></line><line x1="482.68" y1="132.26" x2="488.08" y2="129.55" style="fill:none;stroke:#263238;stroke-linecap:round;stroke-linejoin:round"></line><path d="M373,278.09l6.38-3.37a2.87,2.87,0,0,1,3.9,1.23h0a2.87,2.87,0,0,1-.94,3.69l-13.07,8.9a18.59,18.59,0,0,1-13.93-.5l-.51-.26A9.51,9.51,0,0,1,350.52,276l3.37-8.9a4.77,4.77,0,0,1,5.91-2.87l.12,0a6.28,6.28,0,0,1,5.85-.37,5.28,5.28,0,0,1,5.59.49l4.41-10.74a3.34,3.34,0,0,1,4.46-1.77h0A3.32,3.32,0,0,1,382,256.2Z" style="fill:#263238;stroke:#263238;stroke-linecap:round;stroke-linejoin:round"></path><path d="M372.2,275.24l6.39-3.36a2.87,2.87,0,0,1,3.9,1.23h0a2.88,2.88,0,0,1-.94,3.69l-13.08,8.89a18.61,18.61,0,0,1-13.93-.49l-.51-.26a9.52,9.52,0,0,1-4.29-11.77l3.37-8.9A4.77,4.77,0,0,1,359,261.4l.12,0a6.3,6.3,0,0,1,5.85-.38,5.31,5.31,0,0,1,5.6.5L375,250.82a3.34,3.34,0,0,1,4.46-1.78h0a3.35,3.35,0,0,1,1.72,4.32Z" style="fill:#fff;stroke:#263238;stroke-linecap:round;stroke-linejoin:round"></path><line x1="359.14" y1="261.44" x2="356.72" y2="266.77" style="fill:none;stroke:#263238;stroke-linecap:round;stroke-linejoin:round"></line><line x1="365.08" y1="261.44" x2="362.15" y2="268.12" style="fill:none;stroke:#263238;stroke-linecap:round;stroke-linejoin:round"></line><line x1="370.52" y1="261.78" x2="366.9" y2="269.82" style="fill:none;stroke:#263238;stroke-linecap:round;stroke-linejoin:round"></line><line x1="393.39" y1="246.77" x2="385.28" y2="249.81" style="fill:none;stroke:#263238;stroke-linecap:round;stroke-linejoin:round"></line><line x1="383.25" y1="238.32" x2="380.54" y2="244.41" style="fill:none;stroke:#263238;stroke-linecap:round;stroke-linejoin:round"></line><line x1="375.14" y1="245.08" x2="371.42" y2="239" style="fill:none;stroke:#263238;stroke-linecap:round;stroke-linejoin:round"></line><line x1="390.01" y1="257.59" x2="384.6" y2="254.88" style="fill:none;stroke:#263238;stroke-linecap:round;stroke-linejoin:round"></line><line x1="371.08" y1="249.48" x2="365.67" y2="246.77" style="fill:none;stroke:#263238;stroke-linecap:round;stroke-linejoin:round"></line><path d="M253,140.54l6.38-3.37a2.87,2.87,0,0,1,3.9,1.23h0a2.88,2.88,0,0,1-.94,3.69L249.24,151a18.61,18.61,0,0,1-13.94-.5l-.5-.26a9.49,9.49,0,0,1-4.29-11.76l3.37-8.91a4.76,4.76,0,0,1,5.9-2.87l.13,0a6.26,6.26,0,0,1,5.84-.37,5.29,5.29,0,0,1,5.6.5l4.41-10.75a3.34,3.34,0,0,1,4.46-1.77h0a3.33,3.33,0,0,1,1.72,4.31Z" style="fill:#263238;stroke:#263238;stroke-linecap:round;stroke-linejoin:round"></path><path d="M252.19,137.69l6.38-3.36a2.88,2.88,0,0,1,3.91,1.23h0a2.88,2.88,0,0,1-.94,3.69l-13.08,8.89a18.62,18.62,0,0,1-13.93-.49l-.51-.26a9.52,9.52,0,0,1-4.29-11.77l3.37-8.9a4.77,4.77,0,0,1,5.91-2.87l.12,0a6.3,6.3,0,0,1,5.85-.38,5.31,5.31,0,0,1,5.6.5L255,113.27a3.34,3.34,0,0,1,4.45-1.78h0a3.35,3.35,0,0,1,1.73,4.32Z" style="fill:#fff;stroke:#263238;stroke-linecap:round;stroke-linejoin:round"></path><line x1="239.13" y1="123.89" x2="236.71" y2="129.22" style="fill:none;stroke:#263238;stroke-linecap:round;stroke-linejoin:round"></line><line x1="245.07" y1="123.89" x2="242.14" y2="130.58" style="fill:none;stroke:#263238;stroke-linecap:round;stroke-linejoin:round"></line><line x1="250.5" y1="124.23" x2="246.89" y2="132.27" style="fill:none;stroke:#263238;stroke-linecap:round;stroke-linejoin:round"></line><line x1="273.37" y1="109.22" x2="265.26" y2="112.27" style="fill:none;stroke:#263238;stroke-linecap:round;stroke-linejoin:round"></line><line x1="263.24" y1="100.78" x2="260.53" y2="106.86" style="fill:none;stroke:#263238;stroke-linecap:round;stroke-linejoin:round"></line><line x1="255.12" y1="107.53" x2="251.41" y2="101.45" style="fill:none;stroke:#263238;stroke-linecap:round;stroke-linejoin:round"></line><line x1="269.99" y1="120.04" x2="264.59" y2="117.33" style="fill:none;stroke:#263238;stroke-linecap:round;stroke-linejoin:round"></line><line x1="251.07" y1="111.93" x2="245.66" y2="109.22" style="fill:none;stroke:#263238;stroke-linecap:round;stroke-linejoin:round"></line></g><g id="freepik--Clocks--inject-223"><path d="M125,89.1c.65.09,1.32.16,2,.2" style="fill:none;stroke:#263238;stroke-linecap:round;stroke-linejoin:round"></path><path d="M131,89.23a25.73,25.73,0,0,0,18.36-40.78" style="fill:none;stroke:#263238;stroke-linecap:round;stroke-linejoin:round;stroke-dasharray:4.013649940490723,4.013649940490723"></path><path d="M148.07,46.87c-.44-.5-.89-1-1.36-1.46" style="fill:none;stroke:#263238;stroke-linecap:round;stroke-linejoin:round"></path><path d="M142.35,41.9A25.74,25.74,0,1,0,125,89.1" style="fill:none;stroke:#263238;stroke-linecap:round;stroke-linejoin:round;stroke-width:2px"></path><polygon points="143.75 38.22 146.71 45.41 139 44.38 143.75 38.22" style="fill:#263238"></polygon><polyline points="128.51 47.2 128.51 63.61 143.64 63.61" style="fill:none;stroke:#263238;stroke-linecap:round;stroke-linejoin:round"></polyline><path d="M664.22,337.93c.66.09,1.32.15,2,.19" style="fill:none;stroke:#263238;stroke-linecap:round;stroke-linejoin:round"></path><path d="M670.12,338a22,22,0,0,0,15.21-34.3" style="fill:none;stroke:#263238;stroke-linecap:round;stroke-linejoin:round;stroke-dasharray:3.9077301025390625,3.9077301025390625"></path><path d="M684.15,302.11c-.43-.51-.88-1-1.35-1.48" style="fill:none;stroke:#263238;stroke-linecap:round;stroke-linejoin:round"></path><path d="M678.37,297.21a22,22,0,1,0-14.15,40.72" style="fill:none;stroke:#263238;stroke-linecap:round;stroke-linejoin:round;stroke-width:2px"></path><polygon points="679.71 293.5 682.8 300.63 675.07 299.75 679.71 293.5" style="fill:#263238"></polygon><polyline points="667.26 302.17 667.26 316.17 680.17 316.17" style="fill:none;stroke:#263238;stroke-linecap:round;stroke-linejoin:round"></polyline></g><g id="freepik--traffic-light--inject-223"><rect x="72.26" y="292.06" width="22.9" height="52.34" style="fill:#fff;stroke:#263238;stroke-linecap:round;stroke-linejoin:round"></rect><circle cx="83.86" cy="300.64" r="6.94" style="fill:#fff;stroke:#263238;stroke-linecap:round;stroke-linejoin:round"></circle><circle cx="83.86" cy="316.63" r="6.94" style="fill:#fff;stroke:#263238;stroke-linecap:round;stroke-linejoin:round"></circle><circle cx="83.86" cy="332.62" r="6.94" style="fill:#1D4ED8;stroke:#263238;stroke-linecap:round;stroke-linejoin:round"></circle></g><g id="freepik--character-4--inject-223"><path d="M576.11,282.44l-10.4,4.79s3.24,19.33,4.5,24a33.28,33.28,0,0,1,1,9.22l-5.58,23.92s9.71,3.47,23.89,2.34,20-3.39,20-3.39-2.87-11.95-4.53-16.09-3.56-7.47-3.61-10.17c-.15-7.87,12.33-21.78,8.56-28.69-1.16-2.13-9.16-5.41-9.16-5.41S593.66,278.11,576.11,282.44Z" style="fill:#1D4ED8;stroke:#263238;stroke-linecap:round;stroke-linejoin:round"></path><path d="M565.78,343a51.5,51.5,0,0,0-.83,12.76c.3,4.87.74,11.85,1.22,18.71.88,12.4,3.86,30.93,5.29,39.26s5.65,33.31,5.65,33.31a30.39,30.39,0,0,0-4.51,3.4c-1,1.19-5.61,4.25-5.61,4.76s.68.34,1.36.68,10.88,1.19,12.75,1.19,3.91-.17,4.76-1.36-.17-8.16-.17-8.16-.27-18.36.07-24.47,1-19.55,1.08-20.57,1.21-40.11,1.21-40.11l3.76-.34s1.54,39.43,2.11,41.47,3,44.87,3,44.87.34,6.63.85,7.14,3.91.85,5.61.34,2.38-.68,2.38-2.38a29.9,29.9,0,0,0-.68-4.76v-4.08c0-1.53,3.89-36.71,4.64-41.3s.25-13.09.33-14.62,1.54-25.56,1.74-32.7-1.69-15.18-3.39-18.41-25-4.21-41.27-1.69C567.11,336,566.7,338.2,565.78,343Z" style="fill:#263238;stroke:#263238;stroke-linecap:round;stroke-linejoin:round"></path><path d="M632.85,320.8c0,.46-4.79,3.93-10,7.55-6.13,4.29-12.82,8.8-12.82,8.8-1.37,1-4.09-1-5.3-2.39s-4.25-5.87-4.25-5.87h-1.41c-1.42,0-2.23,0-3-1.22s.21-1.41,2.83-1.41,2.84-1,4.25-.21a52.73,52.73,0,0,1,5.26,4.45l.19.39,7.43-7.54,3.91-4-14.8-13.72c1.89-4.84,4.32-11.41,4.8-17.26C609.91,288.41,632.85,319.8,632.85,320.8Z" style="fill:#fff;stroke:#263238;stroke-linecap:round;stroke-linejoin:round"></path><path d="M595.88,267s1.16-7.72-5.23-11.49-10.23-2.44-13.5,2.45a35.72,35.72,0,0,1-2.25,3.39c-.8.94-3,.19-2.92,1.88a5.53,5.53,0,0,0,1.9,3.2s-.3,9.42,1.74,10,6,0,6,0l-.26,4.93c-1.25.2-2.57.45-4,.77l.25.06s6.89,2,11.74,1.62a12.47,12.47,0,0,0,6.44-2.55,28.67,28.67,0,0,0-3.37-.48l.23,0a14.91,14.91,0,0,1,.11-5.64C593.51,272.67,595.88,267,595.88,267Z" style="fill:#fff;stroke:#263238;stroke-linecap:round;stroke-linejoin:round"></path><path d="M585,247.63s-4.41-5.65-9.14-5.28-8.44,10.17-5.94,12.81,7.19,2.82,7.19,2.82,2.92,9,5.24,11.49,4.16,6.78,8.37,5.46,10.65-9.23,10.7-17.33S599.25,242.35,585,247.63Z" style="fill:#263238;stroke:#263238;stroke-linecap:round;stroke-linejoin:round"></path><path d="M600.72,253.84s6.21-10.73,14-8.85,9.3,9.23,7.26,12.24a16.29,16.29,0,0,1-5.33,4.71s5.84,7.15,2.79,11.48a9.91,9.91,0,0,1-7.94,4.14l3.88,1.51s-1.53,3.95-7,.94-7.1-8.28-5.81-14.87A16.13,16.13,0,0,0,600.72,253.84Z" style="fill:#263238;stroke:#263238;stroke-linecap:round;stroke-linejoin:round"></path><path d="M567.35,286.51l-1.64.72s-2,7.78-2,11.54-2.51,27.56-2.26,29.56c.23,1.82,2.32,25.54,2.7,29.88a68.62,68.62,0,0,0-1,7.75c.15,1,3,8.54,3,8.54a19.4,19.4,0,0,0,3.57.43c.6-.15,1.8-.3,1.5-1.34a9.67,9.67,0,0,0-.9-2.1c-.3-.6.6-3.74.45-6.13a62.42,62.42,0,0,0-1.2-7l-.15-4.63-.22.17,3-26.28s2.51-18,2.76-21.3a47.34,47.34,0,0,0-.17-6.89" style="fill:#1D4ED8;stroke:#263238;stroke-linecap:round;stroke-linejoin:round"></path><path d="M569.74,329.32a16.13,16.13,0,0,1-8.34-1.66,4.4,4.4,0,0,0,0,.67c.23,1.82,2.32,25.54,2.7,29.88a68.62,68.62,0,0,0-1,7.75c.15,1,3,8.54,3,8.54a19.4,19.4,0,0,0,3.57.43c.6-.15,1.8-.3,1.5-1.34a9.67,9.67,0,0,0-.9-2.1c-.3-.6.6-3.74.45-6.13a62.42,62.42,0,0,0-1.2-7l-.15-4.63-.22.17L572,329.18C571.3,329.23,570.55,329.28,569.74,329.32Z" style="fill:#fff;stroke:#263238;stroke-linecap:round;stroke-linejoin:round"></path><path d="M632.85,320.8c0,.46-4.79,3.93-10,7.55-4.33-1.39-6.14-3.38-6.86-5l3.91-4-14.8-13.72c1.89-4.84,4.32-11.41,4.8-17.26C609.91,288.41,632.85,319.8,632.85,320.8Z" style="fill:#1D4ED8;stroke:#263238;stroke-linecap:round;stroke-linejoin:round"></path></g><g id="freepik--character-3--inject-223"><path d="M493.85,248.8a14.77,14.77,0,0,1-1.87,2.92c-1.13,1.32-2.59,1.45-2.1,2.25a15.4,15.4,0,0,0,2.63,2.38s-.93,7.29.09,7.82,5.94,2.39,5.94,2.39l-.05,5.56,13.93-1.45.76-6.49s3.46-4.48,3.84-7,3-5.31-.91-10.08S500.13,237.94,493.85,248.8Z" style="fill:#fff;stroke:#263238;stroke-linecap:round;stroke-linejoin:round"></path><path d="M499.66,255.83s-1.31,4.63.51,7.41,4.89,4.64,7.69,4.11,6.23-3,7.78-7.15a29.63,29.63,0,0,0,1.81-6.49A30.83,30.83,0,0,1,499.66,255.83Z" style="fill:#263238;stroke:#263238;stroke-linecap:round;stroke-linejoin:round"></path><path d="M496.07,251.72s-7-5-8.73-6.76,1.05-8.16,9.71-6.28a6.53,6.53,0,0,1,4.32,3.1Z" style="fill:#fff;stroke:#263238;stroke-linecap:round;stroke-linejoin:round"></path><path d="M500.86,238.68s-4.62,4.62-5.3,8.27,2.52,11.19,8.68,13.62,11.44-1,12.78-3.4,4.66-5.35,4-10.7S509.43,232.6,500.86,238.68Z" style="fill:#fff;stroke:#263238;stroke-linecap:round;stroke-linejoin:round"></path><polygon points="455.92 296.77 462.91 313.99 471.67 310.55 464.35 293.64 455.92 296.77" style="fill:#263238;stroke:#263238;stroke-linecap:round;stroke-linejoin:round"></polygon><path d="M471.6,314.63a38.31,38.31,0,0,1-1.62-4.4c0-.47-.57-3.75-.7-4.38s-3.07-.78-4.11-1.72-2,0-2.1,1.41,2.06,2.19,2.83,2.34-.08,1.41-.08,1.41l-3.49,1.1a36.47,36.47,0,0,1-2.28-3.76c-.27-.78-.46-.16-1,1.1s-2,2.81-1.45,3.6,1.45,2,1.45,2,.12,3.45,1,4.38,4.11,1.73,4.88,1.89,3.3,1,3.3,1Z" style="fill:#fff;stroke:#263238;stroke-linecap:round;stroke-linejoin:round"></path><path d="M484.75,441.58l-3.34,3.91s-4,4.54-5.72,4.85-3,.63-3.37,1.72-.59,2.19.16,2.66,6.52.48,9.77.95,13.51.47,15.11-.32.29-10.32.29-10.32Z" style="fill:#fff;stroke:#263238;stroke-linecap:round;stroke-linejoin:round"></path><path d="M472.48,454.72c.76.47,6.52.48,9.77.95s13.51.47,15.11-.32c.38-.18.65-.93.84-2a123.18,123.18,0,0,1-17-.23c-8.35-1.1-8.86-1.09-8.86-1.09C472,453.16,471.73,454.25,472.48,454.72Z" style="fill:#fff;stroke:#263238;stroke-linecap:round;stroke-linejoin:round"></path><path d="M517.65,443.92s-.29,10.81,0,11.28,5,2.5,8,1.72,8.83-.91,9.19-1.69,1.19-4.7-.6-6.11a31,31,0,0,1-4.16-4.57Z" style="fill:#fff;stroke:#263238;stroke-linecap:round;stroke-linejoin:round"></path><path d="M534.85,455.23a8.17,8.17,0,0,0,.46-2.08c-2.85,1.76-6.19,1.64-9.7,1.89a16.29,16.29,0,0,1-8.07-1.29,6.64,6.64,0,0,0,.11,1.45c.29.46,5,2.5,8,1.72S534.49,456,534.85,455.23Z" style="fill:#fff;stroke:#263238;stroke-linecap:round;stroke-linejoin:round"></path><path d="M484,333.41s-5.86,15.65-5.34,20.35a90.08,90.08,0,0,0,2.57,12.52c.28.63-.52,31.47,1.69,42.27s2.09,29,2.09,29-1.67,2-1.26,3.13a17.46,17.46,0,0,1,.59,3.29s3.41,3.13,6.35,3.6,4.2.16,5-.62,1.79-1.41,2-1.88.39-4.23.53-6.73a25,25,0,0,0-.48-5.48l4.91-45.71,2-24.58,8.15,57.14s4.51,25.35,4.49,25.82.56,1.1,1.78,1.57,4.2.15,5.31-.16,5.35-.94,5.74-2.35,2.18-5.61,1.5-7.34-3.82-4.23-3.39-6.42,2.06-6.1,1.57-11.42-2.44-67.16-2.44-67.16l-4.28-18.32Z" style="fill:#fff;stroke:#263238;stroke-linecap:round;stroke-linejoin:round"></path><path d="M482.78,398.92a39.81,39.81,0,0,0,5.67,3.57,47.48,47.48,0,0,0,6.73,1.27l-1.05,4.41s.84.63-3.58-.21a16.79,16.79,0,0,1-7.14-3.15" style="fill:none;stroke:#263238;stroke-linecap:round;stroke-linejoin:round"></path><path d="M488.68,423.32a7.16,7.16,0,0,1-2.75-1.06" style="fill:none;stroke:#263238;stroke-linecap:round;stroke-linejoin:round"></path><path d="M493.29,410.06s.21,7.57.42,10.3a2.54,2.54,0,0,1-1.43,2.41" style="fill:none;stroke:#263238;stroke-linecap:round;stroke-linejoin:round"></path><path d="M529,399.13l-3.37,2.52.21,3.16s2.53-1.47,3-2.32A3.06,3.06,0,0,0,529,399.13Z" style="fill:#fff;stroke:#263238;stroke-linecap:round;stroke-linejoin:round"></path><path d="M528.82,402.49s2.31,10.52,1.89,12.62-2.94,4-2.94,4l-1.48-9.46" style="fill:#fff;stroke:#263238;stroke-linecap:round;stroke-linejoin:round"></path><line x1="510.01" y1="360.64" x2="512.07" y2="360.34" style="fill:none;stroke:#263238;stroke-linecap:round;stroke-linejoin:round"></line><line x1="498.87" y1="362.22" x2="508.01" y2="360.92" style="fill:none;stroke:#263238;stroke-linecap:round;stroke-linejoin:round"></line><path d="M489.35,279.93s-8.36,3.44-8.42,4.37-4.34,33-4.34,33l-5-2.66s-1.56-.53-2.6,1.59-1,4-.77,4.37a11.42,11.42,0,0,0,3.38,5.7,57.15,57.15,0,0,0,8.64,5.83l2.89.14a1.57,1.57,0,0,0-.14,2.65c1.63,1.46,7.56,4,19.7,3.85s19.77-2.25,20.5-3.44a7.26,7.26,0,0,0,1.07-2.65c0-.4.61-6.23.61-6.23s9-2.24,10.7-5,2.53-2.78,1.76-5.69-9.89-30.74-10.73-32.33-4.63-4.37-6.18-4.9-28,.78-28,.78Z" style="fill:#1D4ED8;stroke:#263238;stroke-linecap:round;stroke-linejoin:round"></path><path d="M517.51,269.34s-11.29-.93-17.42.13S492.59,274,492,275s-3.53,4.24-2.65,4.9,7,3.05,7.33,3.45,9.69,13,15.45,11.53,9.28-17.48,9.28-17.48S520.46,270.8,517.51,269.34Z" style="fill:#1D4ED8;stroke:#263238;stroke-linecap:round;stroke-linejoin:round"></path><path d="M507.09,286.76a7,7,0,0,0,4.38,1" style="fill:none;stroke:#263238;stroke-linecap:round;stroke-linejoin:round"></path><path d="M492.74,276s4.53-.79,6.86,2.25c1.27,1.66,2.93,4.52,5.12,6.68" style="fill:none;stroke:#263238;stroke-linecap:round;stroke-linejoin:round"></path><path d="M507.21,290.8s-8,32.59-7.49,35.11,1.42,7.68,6.33,9.54,10.92.4,17.15-.13a11.93,11.93,0,0,0,10.54-9.27c.59-3.58,1.18-9.41,1-10.6s-4.52-25.3-6.4-27.16S512.48,288.55,507.21,290.8Z" style="fill:#999;stroke:#263238;stroke-linecap:round;stroke-linejoin:round"></path><path d="M518.42,288.42l3-11a17.4,17.4,0,0,0,2.67,1.72l1.54.8-1.21,7.55Z" style="fill:#263238;stroke:#263238;stroke-linecap:round;stroke-linejoin:round"></path><path d="M508.33,292S508,302.86,507,308.16s1.41,7.81,6,8.48,18.74-2.65,19.63-4.37-1.51-15.5-2.38-18.94-.37-5.17-2-5-2.39.27-2.39.27" style="fill:none;stroke:#263238;stroke-linecap:round;stroke-linejoin:round"></path><path d="M507.15,332.46a5.87,5.87,0,0,0,3.53,2.72" style="fill:none;stroke:#263238;stroke-linecap:round;stroke-linejoin:round"></path><path d="M507.06,314.91s-1.31,11.66-.94,14.44" style="fill:none;stroke:#263238;stroke-linecap:round;stroke-linejoin:round"></path><path d="M506.85,321s1.79.92,9.48.26,17-4.49,17.48-3.7a3.07,3.07,0,0,1-.44,3.18c-.69.53-.75,1.59-9.26,2.91s-12,1.72-15.22,1.06" style="fill:none;stroke:#263238;stroke-linecap:round;stroke-linejoin:round"></path><path d="M483.14,332.26a6.46,6.46,0,0,0,4.57-4.64c.83-3.76,4.39-28.49,4.39-28.49" style="fill:none;stroke:#263238;stroke-linecap:round;stroke-linejoin:round"></path></g><g id="freepik--character-2--inject-223"><path d="M242.62,296.47s-6,21.43-6.61,23.53-.8,6.76,1.45,8.05a4.75,4.75,0,0,0,5.64-.32,51.7,51.7,0,0,0,4-3.87l-1.29-24.16Z" style="fill:#fff;stroke:#263238;stroke-linecap:round;stroke-linejoin:round"></path><line x1="245.84" y1="316.29" x2="241.97" y2="325.8" style="fill:#fff;stroke:#263238;stroke-linecap:round;stroke-linejoin:round"></line><polygon points="251.96 290.19 242.62 296.48 246.32 328.05 279.03 328.05 281.28 294.22 270.97 290.35 251.96 290.19" style="fill:#fff;stroke:#263238;stroke-linecap:round;stroke-linejoin:round"></polygon><path d="M274,256.84a16.91,16.91,0,0,1,1.45,3.87c.49,2.09.17,4.51,1.13,5.8s2.42,1.45,1.61,2.42-1.77,2.41-1.77,2.41a51.38,51.38,0,0,1-1.61,5.64c-.81,2.1-2.09,3.38-3.54,3.38h-2.58l.32,6.29L253.9,287l.16-8.7s7.89-5.16,11.11-12.73,2.74-9,4.35-9.82S274,256.84,274,256.84Z" style="fill:#fff;stroke:#263238;stroke-linecap:round;stroke-linejoin:round"></path><path d="M248.58,253.14a69.06,69.06,0,0,0-6.61,8.05c-3.54,5-1.93,15.15,7.9,19.17s16.59-1.45,17.24-4a32.29,32.29,0,0,0,.8-5s4.84-.16,5.64-4.51a17.09,17.09,0,0,0-.64-8.22s4.67-2.73,1.77-8.05S253.57,239.93,248.58,253.14Z" style="fill:#263238;stroke:#263238;stroke-linecap:round;stroke-linejoin:round"></path><polygon points="270.17 283.75 251.32 284.39 250.84 290.19 270.97 290.35 270.17 283.75" style="fill:#1D4ED8;stroke:#263238;stroke-linecap:round;stroke-linejoin:round"></polygon><polygon points="251.96 290.19 250.19 318.71 257.76 320 256.8 290.35 251.96 290.19" style="fill:#1D4ED8;stroke:#263238;stroke-linecap:round;stroke-linejoin:round"></polygon><polygon points="244.87 394.43 245.68 447.59 251.8 447.59 260.5 394.43 244.87 394.43" style="fill:#fff;stroke:#263238;stroke-linecap:round;stroke-linejoin:round"></polygon><path d="M263.88,394.59l2.74,52.52h7.09s5.32-32.87,5.64-38.83.48-13.37.48-13.37Z" style="fill:#fff;stroke:#263238;stroke-linecap:round;stroke-linejoin:round"></path><path d="M273.71,447.11l3.55,5.48s6,3.54,5.31,4a3,3,0,0,1-1.61.49h-15.3l1-10Z" style="fill:#fff;stroke:#263238;stroke-linecap:round;stroke-linejoin:round"></path><path d="M251.8,447.59v9.35h-8.38a32.18,32.18,0,0,1,.65-4.68,42.25,42.25,0,0,1,1.61-4.67Z" style="fill:#fff;stroke:#263238;stroke-linecap:round;stroke-linejoin:round"></path><path d="M246.32,328.05s-7.08,12.08-8.37,23.52,4.83,45.27,4.83,45.27h39.63S289.66,372,287.25,354,279,328.05,279,328.05Z" style="fill:#263238;stroke:#263238;stroke-linecap:round;stroke-linejoin:round"></path><path d="M283.06,307.11s1-1.61,1.93-1.45.64,1.29.64,1.77v.48s2.42,3.39,1.94,5.64-3.71,4-3.71,4Z" style="fill:#fff;stroke:#263238;stroke-linecap:round;stroke-linejoin:round"></path><line x1="286.12" y1="329.5" x2="287.41" y2="340.94" style="fill:none;stroke:#263238;stroke-linecap:round;stroke-linejoin:round"></line><path d="M281.28,294.22s4.35,29.64,4.84,32.22-.49,9.51-3.22,9.83-3.23-2.1-5-5.48-4-22.55-4-22.55" style="fill:#fff;stroke:#263238;stroke-linecap:round;stroke-linejoin:round"></path><path d="M274,291.64s-2.41,1.45-2.9,13.05,2.42,37.7,2.42,37.7" style="fill:none;stroke:#263238;stroke-linecap:round;stroke-linejoin:round"></path><path d="M291.43,340.46l-21.1,1.29s-1.93,22.07-.32,23.52S277.1,367,277.1,367s17.39.32,19-4.67S291.43,340.46,291.43,340.46Z" style="fill:#1D4ED8;stroke:#263238;stroke-linecap:round;stroke-linejoin:round"></path><path d="M274.2,344.65s-1,19.49,1,20.94" style="fill:none;stroke:#263238;stroke-linecap:round;stroke-linejoin:round"></path></g><g id="freepik--character-1--inject-223"><path d="M185.59,245a6.8,6.8,0,0,0-5.64-3.85c-4.12-.27-15.25-.27-18.14,8.25s-.27,14,1.92,17.32a58.84,58.84,0,0,0,3.72,5.08l.68,4,16.77-.27.14-2.34s2.47.27,3.57-1.51,1.1-10.17,1.1-10.17,1.93-.55,2.06-1.79-2.19-2.48-2.74-5.91S188.75,248.47,185.59,245Z" style="fill:#fff;stroke:#263238;stroke-linecap:round;stroke-linejoin:round"></path><path d="M182.57,243.66a16.69,16.69,0,0,1,3,1.37,6.8,6.8,0,0,0-5.64-3.85c-4.12-.27-15.25-.27-18.14,8.25s-.27,14,1.92,17.32a58.84,58.84,0,0,0,3.72,5.08v0a45.51,45.51,0,0,0,6.18-.43c3.85-.55,7.29-6.05,7.29-6.05a15.53,15.53,0,0,1-3.3-3.43c-.83-1.51-.55-4.54,1-5.36s2.34,2.61,3,2.33-.27-2.61-.68-4.12,1.51-1.92,2.33-3.57-5.63-4.54-6.32-5.23S180.64,243,182.57,243.66Z" style="fill:#263238;stroke:#263238;stroke-linecap:round;stroke-linejoin:round"></path><path d="M188.48,252.73s-1.24-1.24-2.34.82" style="fill:#fff;stroke:#263238;stroke-linecap:round;stroke-linejoin:round"></path><path d="M188.06,254.93s.14,1.51.28,2.33" style="fill:#fff;stroke:#263238;stroke-linecap:round;stroke-linejoin:round"></path><path d="M188.2,279s-2.61-4.53-4.53-5.08-17.32-.14-19.39,1.51a8.06,8.06,0,0,0-2.47,4.67A48.21,48.21,0,0,1,177.48,278C185.73,278.43,188.2,279,188.2,279Z" style="fill:#1D4ED8;stroke:#263238;stroke-linecap:round;stroke-linejoin:round"></path><path d="M148.44,357.68l2.52,3.41s0,7.37-.18,8.27,2.7,1.62,2.16,2.34-4.32,2.7-5.58,3.24-3.23-4.14-4-5.76-1.08-11-1.08-11Z" style="fill:#fff;stroke:#263238;stroke-linecap:round;stroke-linejoin:round"></path><path d="M148.26,361.81s-.36,4.32-.54,4.86-.9,2.33-.9,2.33l1.8,2.7" style="fill:none;stroke:#263238;stroke-linecap:round;stroke-linejoin:round"></path><path d="M146.28,287.92s-5.75,35.6-5.75,46a230.07,230.07,0,0,0,1.8,24.27l6.11-.54,4.14-21.76Z" style="fill:#1D4ED8;stroke:#263238;stroke-linecap:round;stroke-linejoin:round"></path><path d="M161.81,280.08s-15.26,7.15-15.53,7.84,6.32,55.8,6.32,55.8l48.25-1.1-2.62-33.4s17.74,4.95,18.84,4,9.07-35.33,9.07-35.33l-6-1.51-9.62,18.14S200,281.46,198.92,281.18s-11.68-2.47-11.68-2.47S169,275.41,161.81,280.08Z" style="fill:#1D4ED8;stroke:#263238;stroke-linecap:round;stroke-linejoin:round"></path><line x1="210.47" y1="294.51" x2="215.97" y2="300.29" style="fill:none;stroke:#263238;stroke-linecap:round;stroke-linejoin:round"></line><path d="M220.09,276.37s3.85-8.38,4.12-8.93,5.23-6.46,5.78-5.09-3.17,6-3.17,6,5.09,1.24,5.37,2.47a5.93,5.93,0,0,1-1.1,4.13c-.69.68-1.52-.14-1.52-.14s-.27,2.47-3.43,3Z" style="fill:#fff;stroke:#263238;stroke-linecap:round;stroke-linejoin:round"></path><line x1="198.23" y1="309.22" x2="191.59" y2="307.34" style="fill:none;stroke:#263238;stroke-linecap:round;stroke-linejoin:round"></line><polygon points="152.6 343.72 149.7 367.56 144.31 445.59 152.76 445.59 173.43 363.79 176.49 364.15 185.12 443.43 194.47 443.43 201.48 354.8 200.85 342.62 152.6 343.72" style="fill:#263238;stroke:#263238;stroke-linecap:round;stroke-linejoin:round"></polygon><polygon points="194.47 443.43 206.51 453.86 206.51 455.48 183.14 455.48 185.12 443.43 194.47 443.43" style="fill:#fff;stroke:#263238;stroke-linecap:round;stroke-linejoin:round"></polygon><polygon points="153.47 443.79 144.31 443.79 141.43 457.1 152.4 457.1 153.47 443.79" style="fill:#fff;stroke:#263238;stroke-linecap:round;stroke-linejoin:round"></polygon></g></svg>
